<svg xmlns="http://www.w3.org/2000/svg" viewBox="0 0 152.4 90.1"><path d="M104.5 51.1c-2 .9-4 1.5-6.2 1.7 2.3-1.4 3.9-3.6 4.7-6.1-2.1 1.3-4.4 2.2-6.8 2.7-2-2.2-4.9-3.5-7.9-3.5-6 .1-10.8 5-10.8 11 0 .8.1 1.7.3 2.5-8.7-.5-16.8-4.7-22.2-11.5-.9 1.7-1.4 3.6-1.5 5.5 0 3.7 1.8 7.1 4.8 9.2-1.7-.1-3.4-.5-4.9-1.4v.1c0 5.2 3.6 9.7 8.6 10.8-.9.3-1.9.4-2.8.4-.7 0-1.3-.1-2-.2 1.4 4.4 5.4 7.5 10 7.6-3.8 3.1-8.5 4.7-13.3 4.7-.9 0-1.7 0-2.6-.1 4.9 3.2 10.6 5 16.5 5C88.2 89.5 99 72.7 99 58.2v-1.4c2.3-1.6 4.1-3.5 5.5-5.7m42.1 34.7h-33c-.8 0-1.4-.6-1.4-1.4V63.8h5.5c-.7 1.3-1 2.7-1 4.2.2 7.4 6.4 13.2 13.8 13 7.1-.2 12.8-5.9 13-13 .1-1.5-.3-2.9-1.1-4.2h5.6v20.6c0 .8-.6 1.4-1.4 1.4m-16.5-26.3c4.7 0 8.4 3.8 8.4 8.5s-3.8 8.4-8.5 8.4c-4.6 0-8.4-3.8-8.4-8.4.1-4.7 3.9-8.4 8.5-8.5 0 .1 0 .1 0 0m11-8.1h4.1c.8 0 1.4.6 1.4 1.4v4.1c0 .8-.6 1.4-1.4 1.4h-4.1c-.8 0-1.4-.6-1.4-1.4v-4.1c0-.8.6-1.4 1.4-1.4m5.8-5.5h-33.5c-2.9 0-5.2 2.3-5.2 5.2v33.6c0 2.9 2.3 5.2 5.2 5.2h33.5c2.9 0 5.2-2.3 5.2-5.2V51.1c0-2.9-2.3-5.2-5.2-5.2m-123.1 44H2.7c-1.3 0-2.4-1.1-2.4-2.4V48.3c0-1.3 1.1-2.4 2.4-2.4h39.2c1.3 0 2.4 1.1 2.4 2.4v39.2c0 1.3-1.1 2.4-2.4 2.4H30.7v-17h5.7l.9-6.6h-6.6V62c0-1.9.5-3.2 3.3-3.2h3.5v-6c-1.7-.2-3.4-.3-5.1-.3-4.4-.3-8.2 3-8.6 7.4v6.3H18v6.6h5.7v17.1h.1z" fill="#fc7581"/><path d="M104.5 6.1c-2 .9-4 1.5-6.2 1.7 2.3-1.4 3.9-3.6 4.7-6.1-2 1.3-4.3 2.2-6.8 2.7-2-2.2-4.9-3.5-7.9-3.5-6 .1-10.8 5-10.8 11 0 .8.1 1.7.3 2.5-8.7-.5-16.8-4.7-22.1-11.5-.9 1.7-1.4 3.6-1.5 5.6 0 3.7 1.8 7.1 4.8 9.2-1.7-.1-3.4-.5-4.9-1.4v.1c0 5.2 3.6 9.7 8.6 10.8-.9.3-1.9.4-2.8.4-.7 0-1.3-.1-2-.2 1.4 4.4 5.4 7.5 10 7.6-3.8 3.1-8.5 4.7-13.3 4.7-.9 0-1.7 0-2.6-.1 4.9 3.2 10.6 5 16.5 5 19.8 0 30.6-16.8 30.6-31.4v-1.4c2.2-1.6 4-3.5 5.4-5.7m42.1 33.7h-33c-.8 0-1.4-.6-1.4-1.4V17.8h5.5c-.7 1.3-1 2.7-1 4.2.2 7.4 6.4 13.2 13.8 13 7.1-.2 12.8-5.9 13-13 .1-1.5-.3-2.9-1.1-4.2h5.6v20.6c0 .8-.6 1.4-1.4 1.4m-16.5-26.3c4.7 0 8.4 3.8 8.4 8.5s-3.8 8.4-8.5 8.4c-4.6 0-8.4-3.8-8.4-8.4.1-4.7 3.9-8.4 8.5-8.5 0 .1 0 .1 0 0m11-8.1h4.1c.8 0 1.4.6 1.4 1.4v4.1c0 .8-.6 1.4-1.4 1.4h-4.1c-.8 0-1.4-.6-1.4-1.4V6.8c0-.8.6-1.4 1.4-1.4m5.8-5.5h-33.5c-2.9 0-5.2 2.3-5.2 5.2v33.6c0 2.9 2.3 5.2 5.2 5.2h33.5c2.9 0 5.2-2.3 5.2-5.2V5.1c0-2.9-2.3-5.2-5.2-5.2m-123.1 44H2.7c-1.3 0-2.4-1.1-2.4-2.4V2.3C.3 1 1.4-.1 2.7-.1h39.2c1.3 0 2.4 1.1 2.4 2.4v39.2c0 1.3-1.1 2.4-2.4 2.4H30.7v-17h5.7l.9-6.6h-6.6V16c0-1.9.5-3.2 3.3-3.2h3.5v-6c-1.7-.2-3.4-.3-5.1-.3-4.4-.3-8.2 3-8.6 7.4v6.3H18v6.6h5.7v17.1h.1z" fill="#825a60"/></svg>