<?xml version="1.0" encoding="utf-8"?>
<!-- Generator: Adobe Illustrator 22.0.1, SVG Export Plug-In . SVG Version: 6.00 Build 0)  -->
<svg version="1.1" id="Layer_1" xmlns="http://www.w3.org/2000/svg" xmlns:xlink="http://www.w3.org/1999/xlink" x="0px" y="0px"
	 viewBox="0 0 768 345.5" style="enable-background:new 0 0 768 345.5;" xml:space="preserve">
<style type="text/css">
	.st0{fill:#F8EFD0;}
	.st1{fill:none;stroke:#825A60;stroke-width:5.47;stroke-linejoin:round;}
	.st2{fill:none;stroke:#825A60;stroke-width:13;stroke-linejoin:round;}
	.st3{fill:#2BCDC9;stroke:#825A60;stroke-width:5.47;stroke-linecap:round;stroke-linejoin:round;}
	.st4{fill:#7FEADF;}
	.st5{fill:#FBCC25;stroke:#825A60;stroke-width:5.47;stroke-linecap:round;stroke-linejoin:round;}
	.st6{fill:#F57D90;stroke:#825A60;stroke-width:5.47;stroke-linecap:round;stroke-linejoin:round;}
	.st7{fill:none;stroke:#FFFFFF;stroke-width:6.38;stroke-miterlimit:10;}
	.st8{fill:#FFFFFF;}
	.st9{font-family:'BrandonGrotesque-Black';}
	.st10{font-size:36.46px;}
	.st11{fill:#F5B3BD;}
	.st12{fill:#F8EFD0;stroke:#825A60;stroke-width:5.47;stroke-linecap:round;stroke-linejoin:round;}
	.st13{fill:#D4CCAE;}
</style>
<rect x="-0.2" class="st0" width="768" height="345.4"/>
<title>illustrations</title>
<g id="Layer_11">
	<line class="st1" x1="-0.2" y1="310" x2="768.2" y2="310"/>
	<line class="st1" x1="0.2" y1="326.2" x2="767.8" y2="326.2"/>
	<line class="st1" x1="-0.2" y1="294.5" x2="768.2" y2="294.5"/>
	<line id="XMLID_1_" class="st2" x1="0.2" y1="345.4" x2="767.8" y2="345.4"/>
	<path class="st3" d="M190.5,335.2c-1.1,0-2.3-0.2-3.3-0.7l-21.9-9.1c-4.4-1.8-6.5-6.9-4.7-11.3c1.8-4.4,6.9-6.5,11.3-4.7l20.2,8.4
		l63.1-0.9l9.3-6.1l-12.1-101h-16.9c-4.8,0-8.7-2-8.7-6.8s3.9-6.8,8.7-6.8h24.6c4.4,0,8.1,3.3,8.6,7.6l13.7,110.3
		c0.4,3.3-1.1,6.5-3.8,8.3l-16,10.5c-1.4,0.9-3,1.4-4.6,1.4L190.5,335.2L190.5,335.2z"/>
	<path class="st4" d="M248.5,204.6c4.8,0.2,11-1.2,12.2,5c0.5,2.6,4.4,1.5,4-1.1c-0.5-3.7-3.2-6.7-6.8-7.6c-3.1-0.8-6.2-0.3-9.3-0.5
		C245.8,200.3,245.9,204.5,248.5,204.6L248.5,204.6z"/>
	<circle class="st5" cx="276.1" cy="331.1" r="11.9"/>
	<circle class="st5" cx="172.2" cy="331.1" r="11.9"/>
	<path class="st5" d="M219.3,193.6h18.6v19.9h-18.6c-4.3,0-7.9-4.5-7.9-10l0,0C211.4,198.1,215,193.6,219.3,193.6z"/>
	<rect x="553.3" y="222.7" class="st5" width="16.4" height="86.6"/>
	<polygon class="st6" points="595.9,99.3 525.3,99.3 490.1,160.4 525.3,221.5 595.9,221.5 631.1,160.4 	"/>
	<polygon class="st7" points="585.2,117.8 536,117.8 511.4,160.4 536,203 585.2,203 609.8,160.4 	"/>
	<text transform="matrix(1 0 0 1 527.87 171.7)" class="st8 st9 st10">4</text>
	<text transform="matrix(1 0 0 1 549.04 171.7)" class="st8 st9 st10">0</text>
	<text transform="matrix(1 0 0 1 571.46 171.7)" class="st8 st9 st10">4</text>
	<path class="st11" d="M595.9,124.5c4.2,6.9,8.3,13.9,12.1,21c1.7,3.1,6.4,0.3,4.7-2.8c-3.8-7.1-7.9-14.1-12.1-21
		C598.8,118.8,594,121.5,595.9,124.5L595.9,124.5z"/>
</g>
<g id="wiel">
	
		<ellipse transform="matrix(0.1602 -0.9871 0.9871 0.1602 154.789 767.6726)" class="st12" cx="528.5" cy="292.9" rx="30.1" ry="30.1"/>
	<path class="st12" d="M509.6,281.1c2.6,4.1,8.6,6.8,11.5,7.2"/>
	<path class="st12" d="M510.2,303c1.9,2.7,6.6,5.3,9.3,5.2"/>
	<path class="st13" d="M545.8,298.8c-1.3,2.4-2.6,5-4.8,6.7c-2.8,2.2-6.5,3-9.8,3.9c-3.7,1-2.2,6.7,1.6,5.8c4.2-1.1,8.5-2.3,12-5.1
		c2.8-2.2,4.6-5.2,6.2-8.3C552.8,298.5,547.7,295.4,545.8,298.8L545.8,298.8z"/>
	<path class="st12" d="M534,301.1c-3.6-2.7-8.2-2.7-10-2.7"/>
	<path class="st12" d="M533.6,273.6c-3.9-1.1-9.1-2.2-12.9-0.8"/>
	<path class="st12" d="M543.5,289.8c-1.8-2.2-7.7-4.9-11-4.9"/>
</g>
</svg>
