<svg id="Layer_1" xmlns="http://www.w3.org/2000/svg" viewBox="0 0 1024 368"><style>.st5{stroke:#825a60;stroke-width:6;stroke-linejoin:round;fill:#fbcc25;stroke-linecap:round}.st8{fill:#fff}.st9{font-family:&apos;BrandonGrotesque-Black&apos;}.st10{font-size:40px}.st12{fill:#f8efd0;stroke:#825a60;stroke-width:6;stroke-linecap:round;stroke-linejoin:round}</style><path fill="#f8efd0" d="M0 0h1024v368H0z"/><g id="Layer_11"><path d="M0 329h1024M0 347h1024M0 312h1024" fill="none" stroke="#825a60" stroke-width="6" stroke-linejoin="round"/><path fill="none" stroke="#825a60" stroke-width="12" stroke-linejoin="round" d="M0 368h1024"/><path d="M262 357l-3-1-24-10c-5-2-7-7-5-12s7-7 12-5l22 9 69-1 11-7-14-110h-18c-6 0-10-3-10-8s4-7 10-7h27c4 0 8 3 9 8l15 121c0 3-1 7-4 9l-18 12-5 1-74 1z" fill="#2bcdc9" stroke="#825a60" stroke-width="6" stroke-linecap="round" stroke-linejoin="round"/><path d="M326 214c5 0 12-2 13 5 1 3 5 2 5-1-1-4-4-7-8-8l-10-1c-3 0-3 4 0 5z" fill="#7feadf"/><circle class="st5" cx="356" cy="352" r="13"/><circle class="st5" cx="242" cy="352" r="13"/><path class="st5" d="M294 202h20v21h-20c-5 1-9-4-9-10 0-7 4-11 9-11zm531 31h18v95h-18z"/><path fill="#f57d90" stroke="#825a60" stroke-width="6" stroke-linecap="round" stroke-linejoin="round" d="M872 98h-77l-39 67 39 67h77l39-67z"/><path fill="none" stroke="#fff" stroke-width="7" stroke-miterlimit="10" d="M860 118h-54l-27 47 27 47h54l27-47z"/><text transform="translate(797 178)" class="st8 st9 st10">4</text><text transform="translate(821 178)" class="st8 st9 st10">0</text><text transform="translate(845 178)" class="st8 st9 st10">4</text><path d="M875 128l14 23c1 3 7 0 5-3l-14-23c-1-3-7 0-5 3z" fill="#f5b3bd"/></g><g id="wiel"><circle class="st12" cx="662" cy="309" r="33"/><path class="st12" d="M642 297c2 4 9 7 12 7m-12 17c2 2 7 5 10 5"/><path d="M680 315c-1 3-3 6-5 7-3 3-7 4-10 5-6 1-3 10 2 8 5-1 10-3 14-6 3-2 5-6 7-9 3-5-5-10-8-5z" fill="#d4ccae"/><path class="st12" d="M668 318c-4-3-9-3-11-3m11-27c-4-1-10-2-14 0m25 18c-2-2-9-5-12-5"/></g></svg>