<svg id="Layer_1" xmlns="http://www.w3.org/2000/svg" viewBox="0 0 1440 506.5"><style>.st1,.st2{fill:none;stroke:#825a60;stroke-width:6;stroke-linecap:round;stroke-linejoin:round}.st2{fill:#f57d90}.st4{fill:#f5b3bd}.st5{fill:#fbcc25;stroke:#825a60;stroke-width:5;stroke-linecap:round;stroke-linejoin:round}.st6,.st7{fill:#fff;stroke:#825a60;stroke-width:4;stroke-miterlimit:10}.st7{fill:#2bcdc9}.st9{fill:#7feadf}.st10{fill:#825a60}.st14{stroke:#825a60;fill:#fbe594;stroke-width:6;stroke-linecap:round;stroke-linejoin:round}.st15{fill:#fbf4da}</style><g id="header_illustratie"><path fill="#f8efd2" d="M-175.1-.4h1778v503h-1778z"/><path class="st1" d="M-174.7 467.4h1778m-1777.5 17.8h1777m-1777 17.7h1777"/><g id="guitar"><g id="guitar-2"><path class="st2" d="M253.3 450.5c-.3-4-.4-8-.4-12.1 0-80 51.9-144.8 115.8-144.8 19.9 0 38.6 6.3 54.9 17.3 28.9 19.5 63.4 40 98.1 36.9 2-.2 3.9-.3 5.9-.3 44.8 0 81.1 34.8 81.1 90.8 0 4.2-.2 8.3-.6 12.4l994.6.8"/><path class="st2" d="M1602.8 451.6l-994.6-.8c.4-4.1.6-8.3.6-12.4 0-56-36.3-90.8-81.1-90.8-2 0-4 .1-5.9.3-34.8 3.1-69.2-17.4-98.1-36.9-16.3-11-35-17.3-54.9-17.3-64 0-115.8 64.8-115.8 144.8 0 4.1.1 8.1.4 12.1h-428"/><path d="M427.2 451.6c.4-27.9 23.3-50.2 51.2-49.8 27.4.4 49.4 22.5 49.8 49.8" fill="#f8efd0" stroke="#825a60" stroke-width="6" stroke-linecap="round" stroke-linejoin="round"/><path class="st4" d="M576.6 383.9c-12.3-13-27.1-22.1-45.4-21.9-5.8.1-5.8 9.1 0 9 16-.2 28.4 7.9 39.1 19.2 3.9 4.3 10.3-2.1 6.3-6.3z"/></g><path class="st1" d="M315.9 415.1h1287.4M315.9 432.9h1286.9"/><circle class="st5" cx="315.9" cy="414.6" r="6"/><circle class="st5" cx="315.9" cy="432.6" r="6"/></g></g><g id="header_typo"><g id="week_van_de_mobiliteit"><path class="st6" d="M505.7 161.9l13.5-32.1c.5-.9 1.5-1.5 2.5-1.5h13.2c1.6 0 2.9 1.3 2.9 2.9 3.3 66.2 3.4 66.3 3.4 66.3-.2 1.7-1.6 2.9-3.3 2.9h-9c-1.6 0-2.9-1.2-2.9-2.8v-.1l-2.7-39.9-11.5 28.4c-.6 1.2-1.7 2-3 2.2h-6.1c-1.3-.2-2.4-1-3-2.2l-11.4-28.4-2.9 39.9c0 1.6-1.2 2.9-2.8 2.9h-9.1c-1.7 0-3.1-1.3-3.3-2.9 0 0 .2-.1 3.5-66.3 0-1.6 1.3-2.9 2.9-2.9h13.2c1.1 0 2 .6 2.5 1.5l13.4 32.1z"/><path class="st7" d="M548.7 164.8c0-30.1 14.5-37.1 31.5-37.1s31.4 7 31.4 37.1c0 28.2-14.2 36.2-31.2 36.2-17.4 0-31.7-8-31.7-36.2zm47.6 0c0-22.6-10.3-23.5-16.1-23.5s-16.2.9-16.2 23.5c0 18.6 10.5 22.6 16.4 22.6 5.5 0 15.9-4 15.9-22.6z"/><path class="st6" d="M643.2 128.2c17 0 25.9 4.7 25.9 21.6 0 5.3-2.2 11.2-9 13.5 7.1 1.9 12.5 7.5 12.5 15.6 0 16.8-8.9 21.5-25.9 21.5h-23.1c-1.6 0-2.9-1.4-2.9-3.1v-66.2c0-1.6 1.2-2.9 2.8-2.9h19.7zm-7.4 13.6v15.9h7.2c5.8 0 10.9-1.3 10.9-7.9s-5.1-8-10.9-8h-7.2zm21.5 37.1c0-6.6-5.1-7.6-10.9-7.6h-10.5v15.5h10.5c5.8 0 10.9-1.3 10.9-7.9zm38.8 18.5c0 1.6-1.2 2.9-2.8 2.9h-9.5c-1.6 0-2.9-1.2-2.9-2.8v-66.4c0-1.6 1.2-2.9 2.8-2.9h9.5c1.6 0 2.9 1.2 2.9 2.8v66.4zm14 3c-1.6 0-2.9-1.2-2.9-2.8v-66.4c0-1.6 1.2-2.9 2.8-2.9h9.5c1.6 0 2.9 1.2 2.9 2.8v55.6H750c1.6 0 2.9 1.2 2.9 2.8v8c0 1.6-1.2 2.9-2.8 2.9h-40z"/><path d="M774.5 197.4c0 1.6-1.2 2.9-2.8 2.9h-9.5c-1.6 0-2.9-1.2-2.9-2.8v-66.4c0-1.6 1.2-2.9 2.8-2.9h9.5c1.6 0 2.9 1.2 2.9 2.8v66.4z" fill="#f57d90" stroke="#825a60" stroke-width="4" stroke-miterlimit="10"/><path class="st6" d="M814.8 197.4c0 1.6-1.2 2.9-2.8 2.9h-9.5c-1.6 0-2.9-1.2-2.9-2.8v-55.7h-15.9c-1.6 0-2.9-1.2-2.9-2.8v-7.9c0-1.6 1.2-2.9 2.8-2.9h47c1.6 0 2.9 1.2 2.9 2.8v7.9c0 1.6-1.2 2.9-2.8 2.9h-15.9v55.6z"/><path class="st7" d="M842.9 200.4c-1.6 0-2.9-1.2-2.9-2.8v-66.4c0-1.6 1.2-2.9 2.8-2.9h41.9c1.6 0 2.9 1.2 2.9 2.8v7.9c0 1.6-1.2 2.9-2.8 2.9h-29.6v15.8h21.5c1.6 0 2.9 1.2 2.9 2.8v7.9c0 1.6-1.2 2.9-2.8 2.9h-21.6v15.6h29.5c1.6 0 2.9 1.2 2.9 2.8v7.8c0 1.6-1.2 2.9-2.8 2.9h-41.9z"/><path class="st6" d="M911 197.4c0 1.6-1.2 2.9-2.8 2.9h-9.5c-1.6 0-2.9-1.2-2.9-2.8v-66.4c0-1.6 1.2-2.9 2.8-2.9h9.5c1.6 0 2.9 1.2 2.9 2.8v66.4zm40.3 0c0 1.6-1.2 2.9-2.8 2.9H939c-1.6 0-2.9-1.2-2.9-2.8v-55.7h-15.9c-1.6 0-2.9-1.2-2.9-2.8v-7.9c0-1.6 1.2-2.9 2.8-2.9H967c1.6 0 2.9 1.2 2.9 2.8v7.9c0 1.6-1.2 2.9-2.8 2.9h-15.9v55.6z"/><path class="st9" d="M587.2 135.9c7.5 1.2 13.1 7.4 13.5 14.9.1 2.9 4.6 2.9 4.5 0-.5-10-8.1-18.1-18-19.4-2.8-.4-2.8 4.1 0 4.5z"/><path class="st4" d="M766.2 134.1v17.5c0 2.9 4.5 2.9 4.5 0v-17.5c0-2.9-4.5-2.9-4.5 0z"/><path class="st9" d="M877.3 135c.6-.1 1.2-.2 1.8-.2.2 0 .4.1.6.2l.5.2c-.5-.4-.6-1-.4-1.6-.6 1.1-.2 2.4.8 3.1 1.1.6 2.4.3 3.1-.8.9-1.6.3-3.7-1.3-4.6-.1-.1-.3-.1-.4-.2-1.9-.8-3.9-1-5.9-.5-1.2.3-1.9 1.6-1.6 2.8s1.7 1.9 2.8 1.6z"/><path class="st10" d="M559.4 54.8h4.2c.9 0 1.4.6 1.6 1.6.8 5.9 1.3 11.8 1.4 17.7 0 21.5-2 28.8-13.1 28.8-2.2 0-7.4 0-10.1-5.1-3.2 5.1-8.1 5.1-10.8 5.1-10.9 0-13.4-5-13.4-22V56.3c0-.9.7-1.6 1.5-1.6h4.3c.9 0 1.6.6 1.6 1.5v25.7c0 14 3 14.7 6.3 14.7 6 0 6.1-5.8 6.1-10.8V56.3c0-.9.7-1.6 1.5-1.6h4.3c.8 0 1.6.6 1.6 1.5v25.1c0 5 .2 15.3 6.3 15.3 5.9 0 6.4-4.3 6.4-22.6 0-3.3-.3-12.5-1.3-17.7-.1-.8.5-1.5 1.3-1.6.2.1.2.1.3.1zm16.5 47.7c-.9 0-1.6-.6-1.6-1.5V56.3c0-.9.6-1.6 1.5-1.6h27.4c.8 0 1.6.6 1.6 1.5v3.1c0 .9-.6 1.6-1.5 1.6h-21.6v14.7h15.7c.9 0 1.6.6 1.6 1.5v3.1c0 .9-.6 1.6-1.5 1.6h-15.8v14.6h21.5c.8 0 1.6.6 1.6 1.5v3.1c0 .9-.6 1.6-1.5 1.6h-.1l-27.3-.1zm35.6 0c-.9 0-1.6-.6-1.6-1.5V56.3c0-.9.7-1.6 1.5-1.6h27.4c.9 0 1.6.6 1.6 1.5v3.1c0 .9-.7 1.6-1.5 1.6h-21.6v14.7H633c.9 0 1.6.7 1.6 1.5v3.1c0 .9-.7 1.6-1.5 1.6h-15.8v14.6h21.5c.9 0 1.6.6 1.6 1.5v3.1c0 .9-.7 1.6-1.5 1.6h-.1l-27.3-.1zm60.2-6.8c-2.9-6-5.6-11.9-9.2-15.7-2.8 2.1-6 3.7-9.4 4.7v16.2c0 .9-.7 1.6-1.5 1.6h-4.3c-.8 0-1.6-.6-1.6-1.5V56.3c0-.9.6-1.6 1.5-1.6h4.3c.9 0 1.6.6 1.6 1.5v19.9c6 0 16.6-11.8 19.4-19.8.4-1 .9-1.6 1.8-1.6h4c.9 0 1.6.6 1.6 1.5v.1c-1.4 5.7-5.4 13-11.3 19.3 2.2 2.4 4.1 5.1 5.5 8l8.3 17.3c0 .9-.6 1.6-1.5 1.6h-4.6c-1-.1-1.8-.8-2.1-1.8-1-1.6-1.8-3.3-2.5-5zm63.8-39.4c.2-.9 1-1.5 1.9-1.6h4.2c.9 0 1.6.6 1.6 1.5v.1c-3.6 10-11.9 34.3-15.6 44.3-.4 1.1-1.4 1.8-2.5 1.8h-6c-1.1-.1-2.1-.8-2.5-1.8-3.6-10-11.9-34.3-15.5-44.3 0-.9.6-1.6 1.5-1.6h4.4c.9.1 1.7.7 1.9 1.6l13.3 38.8 13.3-38.8zM771.7 91h-19.8l-3.4 9.9c-.2.9-1 1.5-1.9 1.6h-4.2c-.8 0-1.6-.6-1.6-1.5v-.1c3.6-10 11.9-34.3 15.5-44.3.4-1.1 1.4-1.8 2.5-1.8h6c1.1.1 2.1.8 2.5 1.8 3 8.1 8.9 26.2 13.2 37.8.7 1.8 1.3 3.2 1.9 3.5.5.2.8.7.8 1.3v2.5c0 .9-1.7 1.2-3.4 1.2-3.3 0-4.4-1.6-5.6-4.7l-2.5-7.2zm-17.8-6.2h15.5l-7.8-22.7-7.7 22.7zm63.3 4.3V56.3c0-.9.6-1.6 1.5-1.6h4.3c.8 0 1.6.6 1.6 1.5v44.7c0 .9-.6 1.6-1.5 1.6h-4.3c-1.3 0-2.5-.7-3.1-1.8l-20.6-33.5V101c0 .9-.6 1.6-1.5 1.6h-4.3c-.9 0-1.6-.6-1.6-1.5V56.3c0-.9.7-1.6 1.5-1.6h5c1.3 0 2.5.7 3.1 1.8l19.9 32.6zm31.7-32.8c0-.9.6-1.6 1.5-1.6H866c10.8 0 16.7 6 16.7 16.8v14.1c0 10.8-5.9 16.8-16.7 16.8h-15.5c-.9 0-1.6-.6-1.6-1.5V56.3zm26.3 15.4c0-7.7-4.5-10.8-9.6-10.8h-9.3v35.3h9.3c5 0 9.6-3.1 9.6-10.8V71.7zm16.1 30.8c-.9 0-1.6-.6-1.6-1.5V56.3c0-.9.6-1.6 1.5-1.6h27.4c.8 0 1.6.6 1.6 1.5v3.1c0 .9-.6 1.6-1.5 1.6h-21.6v14.7h15.7c.9 0 1.6.6 1.6 1.5v3.1c0 .9-.6 1.6-1.5 1.6h-15.8v14.6h21.5c.8 0 1.6.6 1.6 1.5v3.1c0 .9-.6 1.6-1.5 1.6h-.1l-27.3-.1z"/></g><g id="datum"><path class="st10" d="M495 227.6c.1-.6.6-1 1.2-1h2.5c.5 0 1 .4 1 .9v.1c-2.2 6.1-7.2 20.8-9.4 26.9-.2.6-.8 1.1-1.5 1.1h-3.6c-.7 0-1.3-.5-1.5-1.1-2.2-6.1-7.2-20.8-9.4-26.9 0-.5.4-1 .9-1h2.6c.6 0 1 .4 1.2 1l8.1 23.6 7.9-23.6zm22.3 21h-12l-2.1 6c-.1.6-.6 1-1.2 1h-2.5c-.5 0-1-.3-1-.9v-.1c2.2-6.1 7.2-20.8 9.4-26.9.2-.6.8-1.1 1.5-1.1h3.6c.7 0 1.3.5 1.5 1.1 1.8 4.9 5.4 15.9 8 22.9.4 1.1.8 1.9 1.2 2.1.3.1.5.4.5.8v1.5c0 .6-1 .7-2 .7-2 0-2.7-1-3.4-2.9l-1.5-4.2zm-10.8-3.7h9.5l-4.7-13.8-4.8 13.8zm38.7 2.6v-19.8c0-.5.4-1 .9-1h2.6c.5 0 1 .4 1 .9v27.1c0 .5-.4 1-.9 1h-2.6c-.8 0-1.5-.4-1.9-1.1l-12.5-20.3v20.5c0 .5-.4 1-.9 1h-2.6c-.5 0-1-.4-1-.9v-27.1c0-.5.4-1 .9-1h3.1c.8 0 1.5.4 1.9 1.1l12 19.6zm26.3-20.8h4.3c.5 0 1 .4 1 .9v27.1c0 .5-.4 1-.9 1h-2.6c-.5 0-1-.4-1-.9v-23.5l-8.4 5.5c-.5 0-1-.4-1-.9v-3.1c0-.3.1-.6.4-.8l8.2-5.3zm21.4 3.6c-2.6 0-6.7.6-6.7 5.8v3.6c1.8-1.1 3.8-1.7 5.9-1.6 4.4 0 8.8 2 8.8 8.4 0 6.1-3 9.3-9.6 9.3s-9.5-3.3-9.5-9.3v-9.7c0-6.6 4-10.4 10.7-10.4 2.2 0 4.8.1 6.9 1.5.3.2.4.4.5.8v.4l-.9 2.1c-.1.2-.3.3-.6.3-.2 0-.4-.1-.5-.1-1.6-.8-3.3-1.1-5-1.1zm-6.7 16.7c0 1.9.5 5.1 5 5.1 4.7 0 5.2-3.1 5.2-5.1s0-5-5.2-5c-4.7 0-5 3.1-5 5zm28.4-16.6c-.5 0-1-.3-1-.9v-1.9c0-.5.4-1 .9-1h18.8c.5 0 1 .4 1 .9v1.9c0 .5-.3 1-.9 1h-7.2v24.2c0 .5-.4 1-.9 1h-2.6c-.5 0-1-.4-1-.9v-24.3h-7.1zm21.3 11c0-12.1 5.7-14.9 12.5-14.9s12.5 2.8 12.5 14.9c0 11.3-5.6 14.5-12.5 14.5s-12.5-3.2-12.5-14.5zm20.5 0c0-10.4-4.6-11.1-8-11.1s-8 .7-8 11.1c0 9.6 4.5 10.7 8 10.7s8-1.1 8-10.7zm7.2-11c-.5 0-1-.3-1-.9v-1.9c0-.5.3-1 .9-1h18.8c.5 0 1 .4 1 .9v1.9c0 .5-.3 1-.9 1h-7.2v24.2c0 .5-.4 1-.9 1h-2.6c-.5 0-1-.4-1-.9v-24.3h-7.1zm40.9-3.9c8.9 0 10.5 3.2 10.5 7.2 0 8.5-14.8 8.9-14.8 16.8v1.4h13.2c.5 0 1 .4 1 .9v1.9c0 .5-.4 1-.9 1H697c-.5 0-1-.4-1-.9v-4.5c0-10.7 14.5-11 14.5-16.6 0-3.2-1.8-3.4-6.6-3.4-.7 0-3.3.4-5.5.6-.6 0-.8-.2-.9-.7l-.2-1.7c0-.7.2-1 .6-1.2 2.1-.5 4.3-.9 6.6-.8zm22.3 0c8.9 0 10.5 3.2 10.5 7.2 0 8.5-14.8 8.9-14.8 16.8v1.4h13.2c.5 0 1 .3 1 .9v1.9c0 .5-.3 1-.9 1h-16.5c-.5 0-1-.3-1-.9v-4.5c0-10.7 14.5-11 14.5-16.6 0-3.2-1.8-3.4-6.6-3.4-.7 0-3.3.4-5.5.6-.6 0-.8-.2-.9-.7l-.2-1.7c0-.7.2-1 .6-1.2 2.1-.5 4.3-.9 6.6-.8zm35.6 3.8c-4.7 0-7 .2-7 3.4 0 6.6 17 2.6 17 14.1 0 5.6-4.2 8.1-12.3 8.1-2.7-.1-5.4-.7-7.9-1.7-.3-.2-.4-.5-.5-.8v-.4l.9-2.2c.1-.2.3-.3.6-.3.2 0 .2.1.5.1 2.3.8 4.7 1.3 7.1 1.4 1.6 0 7.1-.4 7.1-4.5 0-7-17-2.8-17-13.4 0-4.5 2-7.6 11.1-7.6 2.4.1 4.7.4 7 .9.4.1.6.4.6.8 0 .1-.2 1.5-.2 2.2s-.5.6-.7.6c-3-.4-5.6-.7-6.3-.7zm14.4 25.3c-.5 0-1-.4-1-.9v-27.1c0-.5.4-1 .9-1h16.7c.5 0 1 .4 1 .9v1.9c0 .5-.3 1-.9 1h-13.2v8.9h9.5c.5 0 1 .4 1 .9v1.9c0 .5-.4 1-.9 1h-9.6v8.8h13.1c.5 0 1 .4 1 .9v1.9c0 .5-.4 1-.9 1h-.1l-16.6-.1zm25.4-.9c0 .5-.4 1-.9 1h-2.6c-.5 0-1-.4-1-.9v-27.1c0-.5.4-1 .9-1h8.9c6.6 0 10.1 2.9 10.1 9.4s-3.5 9.2-10.1 9.2h-5.3v9.4zm11-18.7c0-3.5-2.1-5.6-5.3-5.6h-5.6v11h5.6c3.2.1 5.3-1.8 5.3-5.4zm7.4-5.6c-.5 0-1-.3-1-.9v-1.9c0-.5.4-1 .9-1h18.8c.5 0 1 .3 1 .9v1.9c0 .5-.3 1-.9 1h-7.2v24.2c0 .5-.4 1-.9 1h-2.6c-.5 0-1-.4-1-.9v-24.3h-7.1zm23.9 25.2c-.5 0-1-.4-1-.9v-27.1c0-.5.4-1 .9-1h16.7c.5 0 1 .4 1 .9v1.9c0 .5-.3 1-.9 1H848v8.9h9.5c.5 0 1 .4 1 .9v1.9c0 .5-.4 1-.9 1H848v8.8h13c.5 0 1 .4 1 .9v1.9c0 .5-.4 1-.9 1h-.1l-16.5-.1zm34.3-5.3c-.5-.1-.9-.4-1.1-.9l-6.6-16.1-1.4 21.3c-.1.6-.6 1-1.2 1h-2.3c-.5 0-1-.4-1-.9v-.1l1.8-27c0-.5.4-1 .9-1h4.7c.4 0 .6.3.8.8l6.5 15.4 6.5-15.4c.2-.5.5-.8.8-.8h4.6c.5 0 1 .3 1 .9v.1l1.8 27c0 .5-.4 1-.9 1h-2.4c-.6 0-1-.4-1.2-1l-1.4-21.3-6.6 16.1c-.2.5-.6.8-1.1.9h-2.2zm29.2-23.6c5.9 0 10.1 1.8 10.1 8.3 0 1.9-.3 4.4-2.8 6.2 3.7 1 4.3 3.4 4.3 6.3 0 6.4-3.6 8.2-10.1 8.2h-9.3c-.5 0-1-.3-1-.9v-27.1c0-.5.3-1 .9-1h7.9zm-4.3 3.7v8.9h4.1c3 0 5.8-.7 5.8-4.4s-2.8-4.5-5.8-4.5h-4.1zm11.4 17c0-3.8-2.7-4.3-5.7-4.3h-5.7v8.8h5.7c2.9 0 5.6-.8 5.7-4.5zm9.4 8.2c-.5 0-1-.4-1-.9v-27.1c0-.5.4-1 .9-1h16.7c.5 0 1 .3 1 .9v1.9c0 .5-.3 1-.8 1H928v8.9h9.5c.5 0 1 .4 1 .9v1.9c0 .5-.4 1-.9 1H928v8.8h13.1c.5 0 1 .3 1 .9v1.9c0 .5-.3 1-.9 1h-.1l-16.6-.1zm41.3-2v1.6c0 .6-1.2.7-2.2.7-1.4.1-2.7-.8-3.2-2.2l-3.2-8.5c-.5 0-1 .1-1.5.1H950v9.4c0 .5-.4 1-.9 1h-2.6c-.5 0-1-.4-1-.9v-27.1c0-.5.4-1 .9-1h9.4c6.6 0 10.1 2.9 10.1 9.4 0 4.2-1.4 6.8-4.2 8.2l2.3 6.2c.6 1.5.8 2 1.4 2.4.2.1.4.4.4.7zm-9.8-12.1c3.2 0 5.3-1.9 5.3-5.5s-2.1-5.6-5.3-5.6h-6v11l6 .1z"/><path d="M571.6 226.7h4.9c.6 0 1.2.5 1.2 1.1v26.6c0 .6-.5 1.2-1.1 1.2h-3.8c-.6 0-1.2-.5-1.2-1.1v-21.2l-7.5 4.9c-.6 0-1.2-.5-1.2-1.1v-4c0-.3.1-.7.4-.9l8.3-5.5zm10.5 10.5c0-6.7 4.2-10.6 11-10.6 2.5-.2 5 .5 7 2 .5.3.8.7.8 1.3-.3.9-.7 1.8-1.2 2.6-.2.4-.6.7-1.1.7-.2 0-.5-.1-.7-.1-1.4-.7-2.9-1.1-4.5-1-2.1 0-5.1.5-5.3 4.5v2.4c1.3-1.1 3.9-1.3 4.9-1.3 4.6 0 8.8 2 8.8 8.7 0 6.3-3.1 9.7-9.9 9.7s-9.9-3.5-9.9-9.7l.1-9.2zm6.1 9.5c0 1.4.5 3.8 3.8 3.8s3.8-2.3 3.8-3.8-.1-3.7-3.8-3.7c-3.5 0-3.8 2.2-3.8 3.7zm115.5-20.2c9.2 0 10.6 3.8 10.6 8.6 0 8.7-13.9 8-13.9 14.3v.8h12.2c.6 0 1.2.5 1.2 1.1v3.2c0 .6-.5 1.2-1.1 1.2h-16.8c-.6 0-1.2-.5-1.2-1.1v-4.8c0-12.2 13.6-9.5 13.6-15.5 0-2-1.2-2.2-4.8-2.2-.8 0-3.5.3-5.5.6-.8 0-1.4-.1-1.5-1.1-.2-1.7-.2-2.4-.2-2.8 0-.6.7-1 1.3-1.2 1.9-.7 4-1 6.1-1.1zm22.6 0c9.2 0 10.6 3.8 10.6 8.6 0 8.7-13.9 8-13.9 14.3v.8h12.2c.6 0 1.2.5 1.2 1.1v3.2c0 .6-.5 1.2-1.1 1.2h-16.8c-.6 0-1.2-.5-1.2-1.1v-4.8c0-12.2 13.6-9.5 13.6-15.5 0-2-1.2-2.2-4.8-2.2-.8 0-3.5.3-5.5.6-.8 0-1.4-.1-1.5-1.1-.2-1.7-.2-2.4-.2-2.8 0-.6.7-1 1.3-1.2 1.8-.7 3.9-1 6.1-1.1z" fill="#fbcc25" stroke="#825a60" stroke-width="2"/></g></g><g id="tram-2"><g id="tram-3" stroke="#825a60" stroke-width="6" stroke-linecap="round" stroke-linejoin="round"><path d="M1609.3 314.7h-718l-15.4 37.2c-6.3 11.5-9.6 26.7-9.6 39.1v41.6h743V314.7z" fill="#fbcc25"/><path fill="#fff" d="M889.4 284.1h718v34h-718z"/></g><g id="raam"><path class="st14" d="M948.8 310.1h110v80h-110z"/><path class="st15" d="M1050.8 334.8c.9-5 1.4-10.4-2.1-14.6s-8.7-4.1-13.7-3.4c-2.4.3-3.7 3.4-3.1 5.5.7 2.6 3.1 3.5 5.5 3.1 1.6-.2 3.7-.6 4.6.8 1.1 1.7.4 4.4.1 6.2-.6 2.4.8 4.8 3.1 5.5 2.2.7 5.1-.7 5.6-3.1z"/></g><g id="deur"><path class="st14" d="M1085.8 309.1h91v123h-91z"/><path class="st1" d="M1131.3 309.1v121.5"/><path class="st15" d="M1168.8 334.8c.9-5 1.4-10.4-2.1-14.6s-8.7-4.1-13.7-3.4c-2.4.3-3.7 3.4-3.1 5.5.7 2.6 3.1 3.5 5.5 3.1 1.6-.2 3.7-.6 4.6.8 1.1 1.7.4 4.4.1 6.2-.6 2.4.8 4.8 3.1 5.5 2.2.7 5.1-.7 5.6-3.1z"/></g><g id="raam-2"><path class="st14" d="M1203.8 310.1h110v80h-110z"/><path class="st15" d="M1303.8 334.8c.9-5 1.4-10.4-2.1-14.6s-8.7-4.1-13.7-3.4c-2.4.3-3.7 3.4-3.1 5.5.7 2.6 3.1 3.5 5.5 3.1 1.6-.2 3.7-.6 4.6.8 1.1 1.7.4 4.4.1 6.2-.6 2.4.8 4.8 3.1 5.5 2.2.7 5.1-.7 5.6-3.1z"/></g><g id="raam-3"><path class="st14" d="M1340.8 310.1h110v80h-110z"/><path class="st15" d="M1439.8 334.8c.9-5 1.4-10.4-2.1-14.6s-8.7-4.1-13.7-3.4c-2.4.3-3.7 3.4-3.1 5.5.7 2.6 3.1 3.5 5.5 3.1 1.6-.2 3.7-.6 4.6.8 1.1 1.7.4 4.4.1 6.2-.6 2.4.8 4.8 3.1 5.5 2.2.7 5.1-.7 5.6-3.1z"/></g><g id="voorruit"><path class="st14" d="M921.3 309.7H890l-15.1 38.9c-5.7 13.6-8.6 28.2-8.6 43h55.6l-.6-81.9z"/><path class="st15" d="M913.8 334.8c.9-5 1.4-10.4-2.1-14.6s-8.7-4.1-13.7-3.4c-2.4.3-3.7 3.4-3.1 5.5.7 2.6 3.1 3.5 5.5 3.1 1.5-.2 3.7-.6 4.6.8 1.1 1.7.4 4.4.1 6.2-.6 2.4.8 4.8 3.1 5.5 2.2.7 5.2-.7 5.6-3.1z"/></g></g><g id="skateboard"><path id="bord" d="M98.9 489.1h170.2c6.2 0 11.3-5 11.3-11.2v-7c0-6.2-5-11.3-11.3-11.3H98.9v29.5z" fill="#2bcdc9" stroke="#825a60" stroke-width="6" stroke-linecap="round" stroke-linejoin="round"/><circle id="wiel" class="st2" cx="247.9" cy="492.2" r="10.8"/><ellipse id="wiel-2" transform="matrix(.07089 -.9975 .9975 .07089 -371.489 584.794)" class="st2" cx="128.2" cy="491.8" rx="10.8" ry="10.8"/><path class="st9" d="M249.4 472.1c4.7-.1 11.5-2.4 13.1 3.8 1 3.7 6.8 2.1 5.8-1.6-.9-4.2-4.2-7.5-8.5-8.3-3.5-.7-6.9 0-10.4.1-3.8.1-3.9 6.1 0 6z" id="schaduw"/></g></svg>