<svg xmlns="http://www.w3.org/2000/svg" viewBox="0 0 1024 205.3"><style>.st1,.st2,.st3{fill:none;stroke:#825a60;stroke-width:6;stroke-linecap:round;stroke-linejoin:round;stroke-miterlimit:10}.st2,.st3{fill:#f57d90}.st3{fill:#f8efd0}.st4{fill:#f5b3bd}</style><g id="agenda_illustratie"><path fill="#f8efd0" d="M-140-.5h1440v201H-140z"/><path class="st1" d="M-297.7 167.3h1778"/><path class="st2" d="M-297.2 185.1h1777M-297.2 202.9h1777"/></g><g id="fiets_3_"><g id="fiets"><g id="wiel_2_"><path class="st2" d="M351.4 105.3a47.6 47.6 0 1 0 0 95.2 47.6 47.6 0 0 0 0-95.2z"/><circle class="st3" cx="351.4" cy="152.9" r="30"/><path class="st1" d="M351.4 123.6v58.7M326 167.6l50.8-29.3M376.8 167.6L326 138.3"/><g id="schaduw_2_"><path class="st4" d="M368.4 119.4c7.5 2.7 12 9.8 16.1 16.2 1.5 2.4 5.4.2 3.9-2.3-4.8-7.6-10-15.1-18.8-18.3-2.7-.9-3.9 3.4-1.2 4.4z"/></g></g><path class="st1" d="M232.7 104.8h-55.2c-9.4 0-18.8-2.4-24.7-5.9M198.6 152.9l57.6-3.5-4.2-65.8M252.3 83.6l73.2 1.2-69.3 64.6"/><path d="M236.5 70.1h28.3a8 8 0 0 1 8 8V81a8 8 0 0 1-8 8h-28.3V70.1z" fill="#2bcdc9" stroke="#825a60" stroke-width="6" stroke-linecap="round" stroke-linejoin="round" stroke-miterlimit="10"/><path class="st1" d="M351.4 152.9l-25.9-68.2 10.6-23.5v-20h18.8c8.2 0 10.6 4.7 10.6 9.4"/></g><g id="pedalen"><circle class="st1" cx="256.2" cy="149.4" r="16.5"/><path class="st1" d="M256.2 149.4l9.2 26.5H276M256.2 149.4l-9.2-26.5h-10.6"/></g><g id="wiel"><path class="st2" d="M198.6 105.3a47.6 47.6 0 1 0 0 95.2 47.6 47.6 0 0 0 0-95.2z"/><circle class="st3" cx="198.6" cy="152.9" r="30"/><path class="st1" d="M198.6 123.6v58.7M173.2 167.6l50.8-29.3M224 167.6l-50.8-29.3"/><g><path class="st4" d="M215.4 119.4c7.5 2.7 12 9.8 16.1 16.2 1.5 2.4 5.4.2 3.9-2.3-4.8-7.6-10-15.1-18.8-18.3-2.7-.9-3.9 3.4-1.2 4.4z"/></g></g></g></svg>