<svg xmlns="http://www.w3.org/2000/svg" viewBox="0 0 1440 506.52"><defs><style>.cls-1{fill:#f8efd2;}.cls-2{fill:none;}.cls-12,.cls-13,.cls-14,.cls-15,.cls-17,.cls-2,.cls-3,.cls-4,.cls-6,.cls-7,.cls-8,.cls-9{stroke:#825a60;}.cls-13,.cls-14,.cls-15,.cls-17,.cls-2,.cls-3,.cls-4,.cls-6{stroke-linecap:round;stroke-linejoin:round;}.cls-13,.cls-14,.cls-15,.cls-17,.cls-2,.cls-3,.cls-4{stroke-width:6px;}.cls-3,.cls-9{fill:#f57d90;}.cls-4{fill:#f8efd0;}.cls-5{fill:#f5b3bd;}.cls-12,.cls-13,.cls-6{fill:#fbcc25;}.cls-6{stroke-width:5px;}.cls-14,.cls-7{fill:#fff;}.cls-7,.cls-8,.cls-9{stroke-miterlimit:10;stroke-width:4px;}.cls-17,.cls-8{fill:#2bcdc9;}.cls-10{fill:#7feadf;}.cls-11{fill:#825a60;}.cls-12{stroke-width:2px;}.cls-15{fill:#fbe594;}.cls-16{fill:#fbf4da;}</style></defs><title>illustrations</title><g id="header_illustratie" data-name="header illustratie"><rect class="cls-1" x="-175.09" y="-0.4" width="1778" height="503"/><line class="cls-2" x1="-174.73" y1="467.39" x2="1603.27" y2="467.39"/><line class="cls-3" x1="-174.23" y1="485.16" x2="1602.77" y2="485.16"/><line class="cls-3" x1="-174.23" y1="502.92" x2="1602.77" y2="502.92"/><g id="guitar"><g id="guitar-2" data-name="guitar"><path class="cls-3" d="M253.31,450.52q-.39-6-.4-12.08c0-79.95,51.85-144.76,115.82-144.76,19.88,0,38.59,6.26,54.93,17.29,28.93,19.53,63.4,40,98.15,36.93,2-.18,3.91-.27,5.9-.27,44.77,0,81.06,34.84,81.06,90.81a122.32,122.32,0,0,1-.62,12.44l994.62.75"/><path class="cls-3" d="M1602.77,451.63l-994.62-.75a122.32,122.32,0,0,0,.62-12.44c0-56-36.29-90.81-81.06-90.81-2,0-4,.09-5.9.27C487.06,351,452.59,330.5,423.66,311c-16.34-11-35.05-17.29-54.93-17.29-64,0-115.82,64.81-115.82,144.76q0,6.1.4,12.08h-428"/><path class="cls-4" d="M427.16,451.6a50.54,50.54,0,0,1,101.07,0"/><path class="cls-5" d="M576.6,383.92c-12.27-13-27.09-22.12-45.43-21.85-5.79.08-5.8,9.08,0,9,16-.24,28.38,7.88,39.06,19.21,4,4.23,10.34-2.15,6.37-6.36Z"/></g><line class="cls-2" x1="315.91" y1="415.1" x2="1603.27" y2="415.1"/><line class="cls-3" x1="315.91" y1="432.87" x2="1602.77" y2="432.87"/><circle class="cls-6" cx="315.91" cy="414.6" r="6"/><circle class="cls-6" cx="315.91" cy="432.6" r="6"/></g></g><g id="header_typo" data-name="header typo"><g id="week_van_de_mobiliteit" data-name="week van de mobiliteit"><path class="cls-7" d="M505.72,161.88l13.46-32.13a2.9,2.9,0,0,1,2.54-1.53h13.21a3,3,0,0,1,2.92,2.92c3.31,66.18,3.43,66.3,3.43,66.3a3.32,3.32,0,0,1-3.3,2.93h-9a2.88,2.88,0,0,1-2.92-2.93l-2.67-39.88L511.82,186a4.11,4.11,0,0,1-3.05,2.16h-6.1a4.11,4.11,0,0,1-3.05-2.16l-11.43-28.45-2.92,39.88a2.88,2.88,0,0,1-2.92,2.93h-9a3.32,3.32,0,0,1-3.3-2.93s.25-.12,3.55-66.3a3,3,0,0,1,2.93-2.92h13.21a2.9,2.9,0,0,1,2.54,1.53Z"/><path class="cls-8" d="M548.65,164.8c0-30.1,14.48-37.09,31.5-37.09s31.38,7,31.38,37.09c0,28.2-14.23,36.2-31.25,36.2C563,201,548.65,193,548.65,164.8Zm47.63,0c0-22.61-10.28-23.5-16.13-23.5s-16.25.89-16.25,23.5c0,18.55,10.54,22.61,16.38,22.61C585.87,187.41,596.28,183.35,596.28,164.8Z"/><path class="cls-7" d="M643.22,128.22c17,0,25.91,4.7,25.91,21.59,0,5.34-2.16,11.18-9,13.47,7.11,1.9,12.45,7.49,12.45,15.62,0,16.77-8.89,21.47-25.91,21.47H623.53a3,3,0,0,1-2.92-3.05V131.14a2.87,2.87,0,0,1,2.92-2.92Zm-7.37,13.59v15.88H643c5.85,0,10.93-1.27,10.93-7.88s-5.08-8-10.93-8Zm21.47,37.09c0-6.6-5.08-7.62-10.93-7.62H635.85v15.49h10.54C652.24,186.77,657.32,185.51,657.32,178.9Z"/><path class="cls-7" d="M696.1,197.44a2.88,2.88,0,0,1-2.92,2.93h-9.4a2.88,2.88,0,0,1-2.93-2.93v-66.3a2.88,2.88,0,0,1,2.93-2.92h9.4a2.87,2.87,0,0,1,2.92,2.92Z"/><path class="cls-7" d="M710.11,200.37a2.88,2.88,0,0,1-2.92-2.93v-66.3a2.87,2.87,0,0,1,2.92-2.92h9.4a2.87,2.87,0,0,1,2.92,2.92v55.51H750a2.87,2.87,0,0,1,2.92,2.92v7.87a2.88,2.88,0,0,1-2.92,2.93Z"/><path class="cls-9" d="M774.52,197.44a2.88,2.88,0,0,1-2.92,2.93h-9.4a2.88,2.88,0,0,1-2.92-2.93v-66.3a2.87,2.87,0,0,1,2.92-2.92h9.4a2.87,2.87,0,0,1,2.92,2.92Z"/><path class="cls-7" d="M814.85,197.44a2.88,2.88,0,0,1-2.93,2.93h-9.39a2.88,2.88,0,0,1-2.93-2.93V141.81H783.73a2.87,2.87,0,0,1-2.92-2.92v-7.75a2.87,2.87,0,0,1,2.92-2.92H830.6a2.87,2.87,0,0,1,2.92,2.92v7.75a2.87,2.87,0,0,1-2.92,2.92H814.85Z"/><path class="cls-8" d="M842.87,200.37a2.88,2.88,0,0,1-2.92-2.93v-66.3a2.87,2.87,0,0,1,2.92-2.92h41.78a2.88,2.88,0,0,1,2.93,2.92v7.75a2.88,2.88,0,0,1-2.93,2.92H855.19v15.75h21.46a2.87,2.87,0,0,1,2.92,2.92v7.75a2.87,2.87,0,0,1-2.92,2.92H855.19v15.62h29.46a2.88,2.88,0,0,1,2.93,2.93v7.74a2.88,2.88,0,0,1-2.93,2.93Z"/><path class="cls-7" d="M911,197.44a2.88,2.88,0,0,1-2.92,2.93h-9.4a2.88,2.88,0,0,1-2.92-2.93v-66.3a2.87,2.87,0,0,1,2.92-2.92h9.4a2.87,2.87,0,0,1,2.92,2.92Z"/><path class="cls-7" d="M951.3,197.44a2.88,2.88,0,0,1-2.92,2.93H939a2.88,2.88,0,0,1-2.92-2.93V141.81H920.18a2.87,2.87,0,0,1-2.92-2.92v-7.75a2.87,2.87,0,0,1,2.92-2.92h46.87a2.87,2.87,0,0,1,2.92,2.92v7.75a2.87,2.87,0,0,1-2.92,2.92H951.3Z"/><path class="cls-10" d="M587.22,135.88a16,16,0,0,1,13.53,14.88c.14,2.88,4.64,2.9,4.5,0a20.6,20.6,0,0,0-18-19.38c-2.87-.37-2.84,4.13,0,4.5Z"/><path class="cls-5" d="M766.23,134.13v17.49c0,2.89,4.5,2.9,4.5,0V134.13c0-2.9-4.5-2.9-4.5,0Z"/><path class="cls-10" d="M877.35,135a6.08,6.08,0,0,1,1.8-.17,3.36,3.36,0,0,1,.64.18l.47.23a1.36,1.36,0,0,1-.37-1.6,2.34,2.34,0,0,0,.81,3.08,2.27,2.27,0,0,0,3.08-.81,3.38,3.38,0,0,0-1.72-4.78,9.15,9.15,0,0,0-5.91-.47,2.25,2.25,0,1,0,1.2,4.34Z"/><path class="cls-11" d="M559.39,54.76h4.2c.93,0,1.43.58,1.6,1.59a144.5,144.5,0,0,1,1.43,17.74c0,21.52-2,28.83-13.11,28.83-2.19,0-7.4,0-10.09-5.12-3.19,5.12-8.07,5.12-10.76,5.12-10.93,0-13.37-5-13.37-22V56.35a1.55,1.55,0,0,1,1.6-1.59h4.21a1.54,1.54,0,0,1,1.59,1.59V81.91c0,14,3,14.71,6.31,14.71,6,0,6.13-5.8,6.13-10.85V56.35a1.55,1.55,0,0,1,1.6-1.59h4.2a1.54,1.54,0,0,1,1.6,1.59v25c0,5,.25,15.3,6.3,15.3,5.89,0,6.39-4.29,6.39-22.61,0-3.28-.33-12.53-1.34-17.66A1.48,1.48,0,0,1,559.39,54.76Z"/><path class="cls-11" d="M575.87,102.5a1.54,1.54,0,0,1-1.59-1.59V56.35a1.54,1.54,0,0,1,1.59-1.59h27.32a1.54,1.54,0,0,1,1.6,1.59v3a1.55,1.55,0,0,1-1.6,1.6H581.67V75.6h15.72a1.55,1.55,0,0,1,1.6,1.6v3a1.54,1.54,0,0,1-1.6,1.59H581.67V96.37h21.52a1.54,1.54,0,0,1,1.6,1.59v3a1.54,1.54,0,0,1-1.6,1.59Z"/><path class="cls-11" d="M611.53,102.5a1.55,1.55,0,0,1-1.6-1.59V56.35a1.55,1.55,0,0,1,1.6-1.59h27.32a1.55,1.55,0,0,1,1.6,1.59v3a1.56,1.56,0,0,1-1.6,1.6H617.33V75.6h15.72a1.56,1.56,0,0,1,1.6,1.6v3a1.55,1.55,0,0,1-1.6,1.59H617.33V96.37h21.52a1.55,1.55,0,0,1,1.6,1.59v3a1.55,1.55,0,0,1-1.6,1.59Z"/><path class="cls-11" d="M671.65,95.69c-2.86-6-5.63-11.93-9.25-15.72A31.72,31.72,0,0,1,653,84.68v16.23a1.55,1.55,0,0,1-1.6,1.59h-4.2a1.54,1.54,0,0,1-1.6-1.59V56.35a1.54,1.54,0,0,1,1.6-1.59h4.2a1.55,1.55,0,0,1,1.6,1.59V76.19c6,0,16.64-11.85,19.42-19.84.42-1,.92-1.59,1.84-1.59h4a1.54,1.54,0,0,1,1.59,1.59c-1.43,5.72-5.38,12.95-11.35,19.25a33.28,33.28,0,0,1,5.55,8l8.32,17.32a1.54,1.54,0,0,1-1.59,1.59h-4.54a2.5,2.5,0,0,1-2.1-1.76C673.25,99.14,672.41,97.37,671.65,95.69Z"/><path class="cls-11" d="M735.53,56.35a2.13,2.13,0,0,1,1.93-1.59h4.21a1.55,1.55,0,0,1,1.6,1.59c-3.62,10-11.94,34.3-15.56,44.3a2.85,2.85,0,0,1-2.52,1.85h-6a2.87,2.87,0,0,1-2.52-1.85c-3.61-10-11.93-34.29-15.55-44.3a1.54,1.54,0,0,1,1.6-1.59H707a2.11,2.11,0,0,1,1.93,1.59l13.29,38.84Z"/><path class="cls-11" d="M771.65,91H751.81l-3.44,9.92a2.13,2.13,0,0,1-1.94,1.59h-4.2a1.54,1.54,0,0,1-1.6-1.59c3.62-10,11.94-34.3,15.55-44.31a2.88,2.88,0,0,1,2.53-1.84h6a2.85,2.85,0,0,1,2.52,1.84c2.95,8.08,8.92,26.23,13.2,37.83.67,1.85,1.26,3.2,1.94,3.53a1.38,1.38,0,0,1,.75,1.26v2.53c0,.92-1.68,1.17-3.36,1.17-3.28,0-4.37-1.59-5.63-4.7Zm-17.74-6.22h15.55l-7.81-22.7Z"/><path class="cls-11" d="M817.21,89.05V56.35a1.54,1.54,0,0,1,1.6-1.59H823a1.54,1.54,0,0,1,1.6,1.59v44.56a1.54,1.54,0,0,1-1.6,1.59h-4.2a3.62,3.62,0,0,1-3.11-1.85L795.1,67.11v33.8a1.54,1.54,0,0,1-1.6,1.59h-4.2a1.55,1.55,0,0,1-1.6-1.59V56.35a1.55,1.55,0,0,1,1.6-1.59h4.88a3.63,3.63,0,0,1,3.11,1.84Z"/><path class="cls-11" d="M848.9,56.35a1.54,1.54,0,0,1,1.59-1.59H866c10.76,0,16.65,6.05,16.65,16.81V85.69c0,10.76-5.89,16.81-16.65,16.81H850.49a1.54,1.54,0,0,1-1.59-1.59Zm26.31,15.39c0-7.65-4.54-10.76-9.58-10.76H856.3v35.3h9.33c5,0,9.58-3.11,9.58-10.76Z"/><path class="cls-11" d="M891.35,102.5a1.54,1.54,0,0,1-1.59-1.59V56.35a1.54,1.54,0,0,1,1.59-1.59h27.32a1.54,1.54,0,0,1,1.6,1.59v3a1.55,1.55,0,0,1-1.6,1.6H897.15V75.6h15.72a1.55,1.55,0,0,1,1.6,1.6v3a1.54,1.54,0,0,1-1.6,1.59H897.15V96.37h21.52a1.54,1.54,0,0,1,1.6,1.59v3a1.54,1.54,0,0,1-1.6,1.59Z"/></g><g id="datum"><path class="cls-11" d="M495,227.63a1.29,1.29,0,0,1,1.17-1h2.55a.94.94,0,0,1,1,1c-2.19,6.07-7.24,20.81-9.43,26.87a1.76,1.76,0,0,1-1.53,1.13h-3.63a1.76,1.76,0,0,1-1.53-1.13c-2.19-6.06-7.24-20.8-9.43-26.87a.94.94,0,0,1,1-1h2.55a1.29,1.29,0,0,1,1.17,1l8.06,23.56Z"/><path class="cls-11" d="M517.28,248.64h-12l-2.09,6a1.3,1.3,0,0,1-1.17,1h-2.55a.93.93,0,0,1-1-1c2.19-6.07,7.24-20.81,9.43-26.88a1.76,1.76,0,0,1,1.53-1.12h3.62a1.76,1.76,0,0,1,1.53,1.12c1.79,4.9,5.41,15.91,8,22.95.41,1.12.76,1.94,1.17,2.14a.84.84,0,0,1,.46.77v1.53c0,.56-1,.71-2,.71-2,0-2.65-1-3.42-2.85Zm-10.76-3.77H516l-4.74-13.77Z"/><path class="cls-11" d="M545.19,247.47V227.63a.94.94,0,0,1,1-1h2.55a.94.94,0,0,1,1,1v27a.94.94,0,0,1-1,1h-2.55a2.21,2.21,0,0,1-1.89-1.13l-12.49-20.34v20.5a.94.94,0,0,1-1,1h-2.55a.94.94,0,0,1-1-1v-27a.94.94,0,0,1,1-1h3a2.22,2.22,0,0,1,1.89,1.12Z"/><path class="cls-11" d="M571.46,226.66h4.33a.94.94,0,0,1,1,1v27a.94.94,0,0,1-1,1h-2.55a.94.94,0,0,1-1-1V231.3l-8.41,5.51a.94.94,0,0,1-1-1v-3a.91.91,0,0,1,.41-.81Z"/><path class="cls-11" d="M592.9,230.28c-2.6,0-6.68.56-6.68,5.81v3.63a10,10,0,0,1,5.92-1.59c4.38,0,8.77,2,8.77,8.42,0,6.07-3,9.33-9.64,9.33s-9.54-3.26-9.54-9.33v-9.74c0-6.58,4-10.35,10.71-10.35,2.25,0,4.85.15,6.94,1.48a.94.94,0,0,1,.46.76.9.9,0,0,1-.05.36l-.87,2.09a.59.59,0,0,1-.56.3,1,1,0,0,1-.51-.15A12.84,12.84,0,0,0,592.9,230.28ZM586.22,247c0,1.88.51,5.05,5,5.05,4.69,0,5.15-3.06,5.15-5.05s0-5-5.15-5C586.53,242,586.22,245.07,586.22,247Z"/><path class="cls-11" d="M614.58,230.43a.93.93,0,0,1-1-1v-1.84a.94.94,0,0,1,1-1h18.66a.94.94,0,0,1,1,1v1.84a.93.93,0,0,1-1,1h-7.09v24.23a.94.94,0,0,1-1,1h-2.55a.94.94,0,0,1-1-1V230.43Z"/><path class="cls-11" d="M635.89,241.35c0-12.09,5.66-14.89,12.5-14.89s12.49,2.8,12.49,14.89c0,11.32-5.61,14.53-12.49,14.53S635.89,252.67,635.89,241.35Zm20.5,0c0-10.35-4.64-11.07-8-11.07s-8,.72-8,11.07c0,9.64,4.54,10.71,8,10.71S656.39,251,656.39,241.35Z"/><path class="cls-11" d="M663.57,230.43a.93.93,0,0,1-1-1v-1.84a.93.93,0,0,1,1-1h18.66a.94.94,0,0,1,1,1v1.84a.93.93,0,0,1-1,1h-7.09v24.23a.94.94,0,0,1-1,1h-2.55a.94.94,0,0,1-1-1V230.43Z"/><path class="cls-11" d="M704.47,226.46c8.92,0,10.45,3.21,10.45,7.19,0,8.46-14.79,8.92-14.79,16.83v1.37h13.16a.94.94,0,0,1,1,1v1.84a.94.94,0,0,1-1,1H696.87a.94.94,0,0,1-1-1v-4.39c0-10.71,14.53-11,14.53-16.62,0-3.16-1.78-3.37-6.63-3.37-.71,0-3.31.36-5.5.61-.57,0-.82-.2-.92-.66l-.16-1.68c0-.72.16-1,.62-1.17A23.05,23.05,0,0,1,704.47,226.46Z"/><path class="cls-11" d="M726.77,226.46c8.93,0,10.46,3.21,10.46,7.19,0,8.46-14.79,8.92-14.79,16.83v1.37h13.15a.93.93,0,0,1,1,1v1.84a.93.93,0,0,1-1,1H719.17a.93.93,0,0,1-1-1v-4.39c0-10.71,14.53-11,14.53-16.62,0-3.16-1.79-3.37-6.63-3.37-.71,0-3.31.36-5.51.61-.56,0-.81-.2-.92-.66l-.15-1.68c0-.72.15-1,.61-1.17A23.09,23.09,0,0,1,726.77,226.46Z"/><path class="cls-11" d="M762.42,230.28c-4.69,0-7,.21-7,3.37,0,6.63,17,2.6,17,14.12,0,5.61-4.24,8.11-12.29,8.11a23,23,0,0,1-7.91-1.68,1,1,0,0,1-.46-.77.85.85,0,0,1,0-.35l.92-2.25a.59.59,0,0,1,.56-.3c.16,0,.21.05.46.15a23.28,23.28,0,0,0,7.09,1.38c1.63,0,7.09-.41,7.09-4.54,0-7-17-2.81-17-13.41,0-4.49,2-7.65,11.11-7.65a42.16,42.16,0,0,1,7,.92.79.79,0,0,1,.56.81c0,.05-.15,1.53-.2,2.24s-.51.57-.72.57C765.74,230.59,763.14,230.28,762.42,230.28Z"/><path class="cls-11" d="M776.81,255.63a.94.94,0,0,1-1-1v-27a.94.94,0,0,1,1-1h16.58a.94.94,0,0,1,1,1v1.84a.93.93,0,0,1-1,1H780.33v8.88h9.54a.94.94,0,0,1,1,1v1.83a.94.94,0,0,1-1,1h-9.54v8.82h13.06a.94.94,0,0,1,1,1v1.79a.94.94,0,0,1-1,1Z"/><path class="cls-11" d="M802.24,254.66a.94.94,0,0,1-1,1h-2.55a.94.94,0,0,1-1-1v-27a.94.94,0,0,1,1-1h8.82c6.63,0,10.1,2.86,10.1,9.38s-3.47,9.23-10.1,9.23h-5.3ZM813.15,236c0-3.51-2.14-5.55-5.3-5.55h-5.61v11h5.61C811.06,241.5,813.15,239.56,813.15,236Z"/><path class="cls-11" d="M820.58,230.43a.93.93,0,0,1-1-1v-1.84a.94.94,0,0,1,1-1h18.66a.93.93,0,0,1,1,1v1.84a.93.93,0,0,1-1,1h-7.08v24.23a.94.94,0,0,1-1,1h-2.55a.94.94,0,0,1-1-1V230.43Z"/><path class="cls-11" d="M844.49,255.63a.94.94,0,0,1-1-1v-27a.94.94,0,0,1,1-1h16.57a.94.94,0,0,1,1,1v1.84a.93.93,0,0,1-1,1H848v8.88h9.53a.94.94,0,0,1,1,1v1.83a.94.94,0,0,1-1,1H848v8.82h13a.94.94,0,0,1,1,1v1.79a.94.94,0,0,1-1,1Z"/><path class="cls-11" d="M878.81,250.32a1.49,1.49,0,0,1-1.12-.86l-6.63-16.12-1.38,21.32a1.29,1.29,0,0,1-1.17,1h-2.35a.94.94,0,0,1-1-1l1.79-27a.94.94,0,0,1,1-1h4.64c.36,0,.61.31.81.82l6.48,15.4,6.48-15.4c.2-.51.46-.82.81-.82h4.64a.93.93,0,0,1,1,1l1.79,27a.94.94,0,0,1-1,1h-2.35a1.29,1.29,0,0,1-1.17-1l-1.38-21.32-6.63,16.12a1.49,1.49,0,0,1-1.12.86Z"/><path class="cls-11" d="M908,226.66c5.91,0,10.09,1.79,10.09,8.26,0,1.94-.3,4.44-2.8,6.17,3.72,1,4.28,3.42,4.28,6.33,0,6.42-3.57,8.21-10.09,8.21h-9.29a.93.93,0,0,1-1-1v-27a.93.93,0,0,1,1-1Zm-4.29,3.77v8.88h4.13c3,0,5.77-.72,5.77-4.39s-2.76-4.49-5.77-4.49Zm11.38,17c0-3.78-2.71-4.34-5.72-4.34h-5.66v8.82h5.66C912.34,251.9,915.05,251.14,915.05,247.42Z"/><path class="cls-11" d="M924.55,255.63a.94.94,0,0,1-1-1v-27a.94.94,0,0,1,1-1h16.58a.93.93,0,0,1,1,1v1.84a.92.92,0,0,1-1,1H928.07v8.88h9.54a.94.94,0,0,1,1,1v1.83a.94.94,0,0,1-1,1h-9.54v8.82h13.06a.93.93,0,0,1,1,1v1.79a.93.93,0,0,1-1,1Z"/><path class="cls-11" d="M965.79,253.59v1.58c0,.56-1.17.71-2.2.71a3.25,3.25,0,0,1-3.21-2.19l-3.16-8.47a14.64,14.64,0,0,1-1.48.05H950v9.39a.94.94,0,0,1-1,1h-2.55a.94.94,0,0,1-1-1v-27a.94.94,0,0,1,1-1h9.28c6.63,0,10.1,2.86,10.1,9.38,0,4.19-1.43,6.84-4.23,8.16l2.34,6.17c.61,1.53.82,2,1.43,2.4A1,1,0,0,1,965.79,253.59Zm-9.74-12.09c3.21,0,5.3-1.94,5.3-5.46s-2.14-5.55-5.3-5.55H950v11Z"/><path class="cls-12" d="M571.59,226.74h4.89a1.16,1.16,0,0,1,1.18,1.17v26.62a1.16,1.16,0,0,1-1.18,1.17h-3.77a1.15,1.15,0,0,1-1.17-1.17V233.37L564,238.26a1.15,1.15,0,0,1-1.17-1.17v-4a1.19,1.19,0,0,1,.4-.91Z"/><path class="cls-12" d="M582.1,237.19c0-6.73,4.18-10.65,11-10.65a10.7,10.7,0,0,1,7,2,1.69,1.69,0,0,1,.82,1.27,13.19,13.19,0,0,1-1.18,2.6,1.05,1.05,0,0,1-1.07.66,1.58,1.58,0,0,1-.66-.15,8.69,8.69,0,0,0-4.49-1c-2.09,0-5.1.51-5.35,4.49v2.35c1.32-1.08,3.87-1.33,4.89-1.33,4.59,0,8.83,2,8.83,8.72,0,6.27-3.06,9.74-9.9,9.74s-9.94-3.47-9.94-9.74Zm6.12,9.49c0,1.37.46,3.82,3.82,3.82s3.78-2.34,3.78-3.82S595.76,243,592,243C588.47,243,588.22,245.25,588.22,246.68Z"/><path class="cls-12" d="M703.72,226.54c9.23,0,10.61,3.82,10.61,8.56,0,8.72-13.92,8-13.92,14.33v.77H712.6a1.15,1.15,0,0,1,1.17,1.17v3.16a1.15,1.15,0,0,1-1.17,1.17H695.82a1.15,1.15,0,0,1-1.17-1.17v-4.79c0-12.24,13.56-9.49,13.56-15.5,0-2-1.17-2.25-4.84-2.25-.77,0-3.52.31-5.51.56-.77,0-1.38-.15-1.48-1.07-.15-1.73-.2-2.45-.2-2.8,0-.62.66-1,1.27-1.18A26.83,26.83,0,0,1,703.72,226.54Z"/><path class="cls-12" d="M726.26,226.54c9.23,0,10.61,3.82,10.61,8.56,0,8.72-13.92,8-13.92,14.33v.77h12.18a1.16,1.16,0,0,1,1.18,1.17v3.16a1.16,1.16,0,0,1-1.18,1.17H718.36a1.16,1.16,0,0,1-1.18-1.17v-4.79c0-12.24,13.57-9.49,13.57-15.5,0-2-1.17-2.25-4.85-2.25-.76,0-3.51.31-5.5.56-.77,0-1.38-.15-1.48-1.07-.16-1.73-.21-2.45-.21-2.8,0-.62.67-1,1.28-1.18A26.83,26.83,0,0,1,726.26,226.54Z"/></g></g><g id="tram-2" data-name="tram"><g id="tram-3" data-name="tram"><path class="cls-13" d="M1609.27,314.73h-718L875.9,351.91c-6.35,11.45-9.63,26.73-9.63,39.12V432.6h743Z"/><rect class="cls-14" x="889.41" y="284.1" width="718" height="34"/></g><g id="raam"><rect class="cls-15" x="948.77" y="310.1" width="110" height="80" transform="translate(2007.55 700.2) rotate(-180)"/><path class="cls-16" d="M1050.78,334.82c.91-5,1.41-10.37-2.06-14.59s-8.71-4.1-13.67-3.42c-2.41.33-3.72,3.41-3.14,5.53.71,2.6,3.12,3.48,5.53,3.15,1.55-.21,3.68-.6,4.59.78,1.1,1.67.4,4.37.08,6.16a4.61,4.61,0,0,0,3.14,5.53c2.18.6,5.1-.73,5.53-3.14Z"/></g><g id="deur"><rect class="cls-15" x="1085.77" y="309.1" width="91" height="123" transform="translate(2262.55 741.2) rotate(-180)"/><line class="cls-15" x1="1131.27" y1="309.1" x2="1131.27" y2="430.6"/><path class="cls-16" d="M1168.78,334.82c.91-5,1.41-10.37-2.06-14.59s-8.71-4.1-13.67-3.42c-2.41.33-3.72,3.41-3.14,5.53.71,2.6,3.12,3.48,5.53,3.15,1.55-.21,3.68-.6,4.59.78,1.1,1.67.4,4.37.08,6.16a4.61,4.61,0,0,0,3.14,5.53c2.18.6,5.1-.73,5.53-3.14Z"/></g><g id="raam-2" data-name="raam"><rect class="cls-15" x="1203.77" y="310.1" width="110" height="80" transform="translate(2517.55 700.2) rotate(-180)"/><path class="cls-16" d="M1303.78,334.82c.91-5,1.41-10.37-2.06-14.59s-8.71-4.1-13.67-3.42c-2.41.33-3.72,3.41-3.14,5.53.71,2.6,3.12,3.48,5.53,3.15,1.55-.21,3.68-.6,4.59.78,1.1,1.67.4,4.37.08,6.16a4.61,4.61,0,0,0,3.14,5.53c2.18.6,5.1-.73,5.53-3.14Z"/></g><g id="raam-3" data-name="raam"><rect class="cls-15" x="1340.77" y="310.1" width="110" height="80" transform="translate(2791.55 700.2) rotate(-180)"/><path class="cls-16" d="M1439.78,334.82c.91-5,1.41-10.37-2.06-14.59s-8.71-4.1-13.67-3.42c-2.41.33-3.72,3.41-3.14,5.53.71,2.6,3.12,3.48,5.53,3.15,1.55-.21,3.68-.6,4.59.78,1.1,1.67.4,4.37.08,6.16a4.61,4.61,0,0,0,3.14,5.53c2.18.6,5.1-.73,5.53-3.14Z"/></g><g id="voorruit"><path class="cls-15" d="M921.27,309.73H890l-15.11,38.89a111.84,111.84,0,0,0-8.59,43h55.57Z"/><path class="cls-16" d="M913.78,334.82c.91-5,1.41-10.37-2.06-14.59s-8.71-4.1-13.67-3.42c-2.41.33-3.72,3.41-3.14,5.53.71,2.6,3.12,3.48,5.53,3.15,1.55-.21,3.68-.6,4.59.78,1.1,1.67.4,4.37.08,6.16a4.61,4.61,0,0,0,3.14,5.53c2.18.6,5.1-.73,5.53-3.14Z"/></g></g><g id="skateboard"><path id="bord" class="cls-17" d="M98.91,489.13H269.14a11.26,11.26,0,0,0,11.27-11.27v-7a11.27,11.27,0,0,0-11.27-11.27H98.91Z"/><circle id="wiel" class="cls-3" cx="247.88" cy="492.24" r="10.79"/><circle id="wiel-2" data-name="wiel" class="cls-3" cx="128.17" cy="491.81" r="10.79"/><g id="schaduw"><path class="cls-10" d="M249.42,472.1c4.72-.12,11.5-2.35,13.1,3.8,1,3.73,6.76,2.15,5.79-1.6a10.79,10.79,0,0,0-8.45-8.33c-3.53-.71-6.91,0-10.44.13-3.85.1-3.87,6.1,0,6Z"/></g></g></svg>