<svg id="Layer_1" xmlns="http://www.w3.org/2000/svg" viewBox="0 0 1440 368"><style>.st5{stroke:#825a60;stroke-width:6;stroke-linejoin:round;fill:#fbcc25;stroke-linecap:round}.st8{fill:#fff}.st9{font-family:&apos;BrandonGrotesque-Black&apos;}.st10{font-size:40px}.st12{fill:#f8efd0;stroke:#825a60;stroke-width:6;stroke-linecap:round;stroke-linejoin:round}</style><path fill="#f8efd0" d="M0 0h1440v368H0z"/><g id="Layer_11"><path d="M0 329h1440M0 347h1440M0 312h1440" fill="none" stroke="#825a60" stroke-width="6" stroke-linejoin="round"/><path fill="none" stroke="#825a60" stroke-width="13" stroke-linejoin="round" d="M0 368h1440"/><path d="M282 357l-4-1-24-10c-5-2-7-8-5-13 2-4 7-7 12-5l22 9h70l10-7-13-111h-19c-5 0-9-2-9-7s4-8 9-8h27c5 0 9 4 9 8l15 121c1 4-1 7-4 9l-17 12-5 2-74 1h-1z" fill="#2bcdc9" stroke="#825a60" stroke-width="6" stroke-linecap="round" stroke-linejoin="round"/><path d="M345 213c5 0 12-1 13 6 1 2 5 1 5-2-1-3-4-7-8-8h-10c-3-1-3 4 0 4z" fill="#7feadf"/><circle class="st5" cx="376" cy="352" r="13"/><circle class="st5" cx="262" cy="352" r="13"/><path class="st5" d="M313 201h21v22h-21c-5 0-8-5-8-11s3-11 8-11zm772 32h18v95h-18z"/><path fill="#f57d90" stroke="#825a60" stroke-width="6" stroke-linecap="round" stroke-linejoin="round" d="M1131 98h-77l-39 67 39 67h77l39-67z"/><path fill="none" stroke="#fff" stroke-width="7" stroke-miterlimit="10" d="M1120 118h-54l-27 47 27 46h54l27-46z"/><text transform="translate(1057 177)" class="st8 st9 st10">4</text><text transform="translate(1080 177)" class="st8 st9 st10">0</text><text transform="translate(1104 177)" class="st8 st9 st10">4</text><path d="M1135 128l13 23c2 3 7 0 5-3l-13-23c-2-4-8-1-5 3z" fill="#f5b3bd"/></g><g id="wiel"><circle class="st12" cx="1055" cy="306" r="33"/><path class="st12" d="M1034 293c3 5 9 8 12 8m-12 16c2 3 8 6 11 6"/><path d="M1072 312c-1 2-2 5-5 7l-10 4c-5 1-3 10 3 9 4-2 9-3 13-6l7-10c3-5-5-9-8-4z" fill="#d4ccae"/><path class="st12" d="M1061 315c-4-3-9-3-11-3m10-27c-4-1-10-3-14-1m25 19c-2-3-9-6-12-6"/></g></svg>