<svg id="Layer_1" xmlns="http://www.w3.org/2000/svg" viewBox="0 0 66.9 23"><style>.st0{fill:#fff}</style><g id="input_icons"><path class="st0" d="M55.4 0a11.5 11.5 0 1 0 0 23 11.5 11.5 0 0 0 0-23zm0 21c-5.2 0-9.5-4.2-9.5-9.4s4.2-9.5 9.4-9.5 9.5 4.2 9.5 9.4a9.3 9.3 0 0 1-9.4 9.5z"/><path class="st0" d="M56.5 11.1V5.4a1 1 0 0 0-2 0v5.9c0 .4.2.9.5 1.2l3.5 3.3a1 1 0 0 0 1.5 0 1 1 0 0 0 0-1.5l-3.5-3.2zm-35.7 9.6c0 1.3 1 2.3 2.3 2.3h16c1.3 0 2.3-1 2.3-2.3V8.4H20.8v12.3zm12-.9c0 .5-.4.9-.9.9h-1.4a.9.9 0 0 1-.9-.9v-.7c0-.5.4-.9.9-.9h1.4c.5 0 .9.4.9.9v.7zm0-4c0 .5-.4.9-.9.9h-1.4a.9.9 0 0 1-.9-.9v-.7c0-.5.4-.9.9-.9h1.4c.5 0 .9.4.9.9v.7zm2.1-4.6c0-.5.4-.9.9-.9h1.4c.5 0 .9.4.9.9v.7c0 .5-.4.9-.9.9h-1.4a.9.9 0 0 1-.9-.9v-.7zm0 4c0-.5.4-.9.9-.9h1.4c.5 0 .9.4.9.9v.7c0 .5-.4.9-.9.9h-1.4a.9.9 0 0 1-.9-.9v-.7zm-5.3-4c0-.5.4-.9.9-.9h1.4c.5 0 .9.4.9.9v.7c0 .5-.4.9-.9.9h-1.4a.9.9 0 0 1-.9-.9v-.7zm-5.4 0c0-.5.4-.9.9-.9h1.4c.5 0 .9.4.9.9v.7c0 .5-.4.9-.9.9h-1.4a.9.9 0 0 1-.9-.9v-.7zm0 4c0-.5.4-.9.9-.9h1.4c.5 0 .9.4.9.9v.7c0 .5-.4.9-.9.9h-1.4a.9.9 0 0 1-.9-.9v-.7zm0 3.9c0-.5.4-.9.9-.9h1.4c.5 0 .9.4.9.9v.7c0 .5-.4.9-.9.9h-1.4a.9.9 0 0 1-.9-.9v-.7zm15-16.2h-1.5V1.1c.1-.6-.4-1.2-1-1.3s-1.2.4-1.3 1v2h-3V1.1c0-.6-.5-1.2-1.1-1.2-.7.1-1.3.6-1.3 1.2v1.8h-3V1.1c.1-.6-.4-1.2-1-1.3s-1.2.4-1.3 1v2h-1.6c-1.3 0-2.3 1-2.3 2.3v1.5h20.6V5.2c.1-1.3-1-2.3-2.2-2.3zM8.6.1A8.3 8.3 0 0 0 .1 8.5c0 5.2 7.5 13.8 7.5 13.8.5.6 1.3.7 1.9.2l.2-.2s7.5-8.6 7.5-13.9A8.6 8.6 0 0 0 8.6.1zm0 12c-2 0-3.6-1.6-3.6-3.6S6.6 5 8.6 5s3.6 1.6 3.6 3.6-1.6 3.5-3.6 3.5z"/></g></svg>