<svg xmlns="http://www.w3.org/2000/svg" viewBox="0 0 195 195"><defs><style>.cls-1,.cls-2{fill:#f57d90;stroke:#825a60;stroke-linecap:round;stroke-linejoin:round;}.cls-1{stroke-width:7.21px;}.cls-2{stroke-width:6.93px;}.cls-3{fill:#f5b3bd;}</style></defs><title>illustrations</title><g id="duim"><path class="cls-1" d="M185.51,77.28H116.22V26.07a11.9,11.9,0,0,0-11.86-11.86H95.74A11.89,11.89,0,0,0,83.88,26.07V77.28H61.78A13,13,0,0,0,48.84,90.22v66.34A13,13,0,0,0,61.78,169.5H185.51Z"/><rect class="cls-1" x="9.49" y="60.04" width="90.56" height="29.88" rx="13.86" ry="13.86"/><rect class="cls-1" x="9.49" y="120.62" width="90.56" height="29.88" rx="13.86" ry="13.86"/><rect class="cls-1" x="9.49" y="150.91" width="90.56" height="29.88" rx="13.86" ry="13.86"/><rect class="cls-2" x="9.49" y="90.33" width="90.61" height="29.88" rx="13.86" ry="13.86"/><path class="cls-3" d="M158.69,93.63c12.22-.27,8.82,16,8.61,24-.13,4.64,7.08,4.63,7.21,0,.19-7.2,2-16.8-1.63-23.44a15.59,15.59,0,0,0-14.19-7.73c-4.63.11-4.65,7.32,0,7.21Z"/></g></svg>