<svg xmlns="http://www.w3.org/2000/svg" viewBox="0 0 1778 368"><defs><style>.cls-1{fill:none;}.cls-1,.cls-2,.cls-3,.cls-5{stroke:#825a60;stroke-linecap:round;stroke-linejoin:round;stroke-width:6px;}.cls-2{fill:#f57d90;}.cls-3{fill:#f8efd0;}.cls-4{fill:#f5b3bd;}.cls-5{fill:#2bcdc9;}</style></defs><title>illustrations</title><g id="agenda_illustratie" data-name="agenda illustratie"><line class="cls-1" x1="0.27" y1="306.79" x2="1778.27" y2="306.79"/><line class="cls-2" x1="0.77" y1="324.55" x2="1777.77" y2="324.55"/><line class="cls-2" x1="0.77" y1="342.32" x2="1777.77" y2="342.32"/></g><g id="fiets"><g id="fiets-2" data-name="fiets"><g id="wiel"><path class="cls-2" d="M649.4,244.8A47.6,47.6,0,1,0,697,292.4,47.6,47.6,0,0,0,649.4,244.8Z"/><circle class="cls-3" cx="649.4" cy="292.4" r="29.97"/><line class="cls-1" x1="649.4" y1="263.01" x2="649.4" y2="321.78"/><line class="cls-1" x1="623.95" y1="307.09" x2="674.85" y2="277.71"/><line class="cls-1" x1="674.85" y1="307.09" x2="623.95" y2="277.71"/><g id="schaduw"><path class="cls-4" d="M666.45,258.85c7.51,2.7,12,9.76,16.08,16.2,1.54,2.45,5.44.19,3.88-2.27-4.77-7.56-10-15.12-18.76-18.27-2.73-1-3.91,3.37-1.2,4.34Z"/></g></g><path class="cls-1" d="M530.69,244.21H475.45c-9.41,0-18.81-2.35-24.69-5.88"/><polyline class="cls-1" points="496.6 292.4 554.19 288.87 549.97 223.05"/><polyline class="cls-1" points="550.3 223.05 623.54 224.23 554.19 288.87"/><path class="cls-5" d="M534.46,209.6h28.31a8,8,0,0,1,8,8v2.81a8,8,0,0,1-8,8H534.46a0,0,0,0,1,0,0V209.6A0,0,0,0,1,534.46,209.6Z"/><path class="cls-1" d="M649.4,292.4l-25.86-68.17,10.58-23.51v-20h18.8c8.23,0,10.58,4.7,10.58,9.4"/></g><g id="pedalen"><circle class="cls-1" cx="554.19" cy="288.87" r="16.45"/><polyline class="cls-1" points="554.19 288.87 563.42 315.38 574 315.38"/><polyline class="cls-1" points="554.19 288.87 544.97 262.37 534.39 262.37"/></g><g id="wiel-2" data-name="wiel"><path class="cls-2" d="M496.6,244.8a47.6,47.6,0,1,0,47.6,47.6A47.6,47.6,0,0,0,496.6,244.8Z"/><circle class="cls-3" cx="496.6" cy="292.4" r="29.97"/><line class="cls-1" x1="496.6" y1="263.01" x2="496.6" y2="321.78"/><line class="cls-1" x1="471.15" y1="307.09" x2="522.05" y2="277.71"/><line class="cls-1" x1="522.05" y1="307.09" x2="471.15" y2="277.71"/><path class="cls-4" d="M513.45,258.85c7.51,2.7,12,9.76,16.08,16.2,1.54,2.45,5.44.19,3.88-2.27-4.77-7.56-10-15.12-18.76-18.27-2.73-1-3.91,3.37-1.2,4.34Z"/></g></g></svg>