<svg id="Layer_1" xmlns="http://www.w3.org/2000/svg" viewBox="0 0 224 163"><style>.st0,.st1{fill:#fbcc25;stroke:#825a60;stroke-width:4.31;stroke-linecap:round;stroke-linejoin:round}.st1{fill:#f57d90}.st2{fill:#f5b3bd}</style><g id="helm"><path class="st0" d="M176 90l-20-20c2-17-1-39-8-46l-7 9c5 6 4 22 4 32-12-5-26-9-40-10l4 10c16 2 49 16 58 31 3 4 3 9 5 13l11-6-7-13z"/><path class="st1" d="M174 95c7-5 16-2 20 5l11 19-26 15-11-19c-4-7-2-16 6-20z"/><path class="st2" d="M179 103c3 0 6 1 7 4 2 4 7 0 5-3-2-5-8-8-14-7-3 1-2 7 2 6z"/><path class="st0" d="M161 122l-10-6 5 37 8-8 24-3-3-23-24 3zm8 15l-1-8 10-1 1 8-10 1z"/><path class="st1" d="M132 121l5 33c0 4 4 7 7 6l9-1 5-4-5-41-6-3-9 2c-4 0-6 4-6 8z"/><path fill="none" stroke="#825a60" stroke-width="4" stroke-linecap="round" stroke-linejoin="round" d="M141 122l4 28"/><path class="st0" d="M144 144l-1-13c-16-4-39-9-47-25l-4-13-12 5 5 13c5 9 12 16 21 20-6 4-12 8-27 11l-5 11c13 1 29-5 44-16l26 7z"/><path class="st1" d="M41 26l3 3c6 5 8 11 5 14s-9 2-15-3l-2-3a61 61 0 0 0-6 12l3 1c7 2 11 7 10 10s-8 6-14 4l-4-1c-9 37 12 73 49 95 6 3 13-40 33-75s52-63 47-66C111-4 68-3 41 26z"/><path class="st2" d="M108 19c9-3 19 0 26 6 3 3 7-1 4-4-8-8-20-11-32-8-3 0-2 6 2 5z"/></g></svg>