<svg id="Layer_1" xmlns="http://www.w3.org/2000/svg" viewBox="0 0 320 243.3"><style>.st5{stroke:#825a60;stroke-linejoin:round;fill:#fbcc25;stroke-width:4.0646;stroke-linecap:round}.st8{fill:#fff}.st9{font-family:&apos;BrandonGrotesque-Black&apos;}.st10{font-size:27.0922px}.st12{fill:#f8efd0;stroke:#825a60;stroke-width:4.0646;stroke-linecap:round;stroke-linejoin:round}</style><path fill="#f8efd0" d="M.2-52h319.7v295.2H.2z"/><g id="Layer_11"><path d="M-.2 207.8h320.6M.2 224h319.7M-.2 192.3h320.6" fill="none" stroke="#825a60" stroke-width="5.47" stroke-linejoin="round"/><path fill="none" stroke="#825a60" stroke-width="10" stroke-linejoin="round" d="M.2 243.2h319.7"/><path d="M50.3 217.5c-.8 0-1.7-.2-2.5-.5l-16.3-6.8c-3.3-1.4-4.8-5.1-3.5-8.4 1.4-3.3 5.1-4.8 8.4-3.5l15 6.3 46.9-.6 6.9-4.6-9-75H83.8c-3.6 0-6.4-1.5-6.4-5.1s2.9-5.1 6.4-5.1h18.3c3.3 0 6 2.4 6.4 5.7l10.2 82c.3 2.4-.8 4.8-2.9 6.2l-11.9 7.8c-1 .7-2.2 1-3.4 1.1l-50.2.5z" fill="#2bcdc9" stroke="#825a60" stroke-width="4.065" stroke-linecap="round" stroke-linejoin="round"/><path d="M93.4 120.4c3.5.2 8.2-.9 9 3.7.3 1.9 3.3 1.1 3-.8-.4-2.7-2.4-4.9-5.1-5.6-2.3-.6-4.6-.2-6.9-.4-1.9-.1-1.9 3 0 3.1z" fill="#7feadf"/><circle class="st5" cx="114" cy="214.4" r="8.8"/><circle class="st5" cx="36.8" cy="214.4" r="8.8"/><path class="st5" d="M71.7 112.2h13.8V127H71.7c-3.2 0-5.8-3.3-5.8-7.4 0-4 2.6-7.4 5.8-7.4zm153.3 16h12.2v64.3H225z"/><path fill="#f57d90" stroke="#825a60" stroke-width="4.065" stroke-linecap="round" stroke-linejoin="round" d="M256.6 36.6h-52.4L178 81.9l26.2 45.4h52.4l26.2-45.4z"/><path fill="none" stroke="#fff" stroke-width="4.741" stroke-miterlimit="10" d="M248.6 50.3h-36.5l-18.3 31.6 18.3 31.7h36.5l18.3-31.7z"/><text transform="translate(206.035 90.334)" class="st8 st9 st10">4</text><text transform="translate(221.766 90.334)" class="st8 st9 st10">0</text><text transform="translate(238.425 90.334)" class="st8 st9 st10">4</text><path d="M257.3 55.3c3.2 5.1 6.1 10.3 9 15.6 1.2 2.3 4.7.3 3.5-2.1-2.8-5.3-5.8-10.5-9-15.6-1.3-2.2-4.9-.1-3.5 2.1z" fill="#f5b3bd"/></g><g id="wiel"><circle class="st12" cx="208" cy="180.4" r="22.4"/><path class="st12" d="M193.9 171.6c1.9 3.1 6.4 5 8.5 5.3m-8 11c1.4 2 4.9 3.9 6.9 3.8"/><path d="M220.9 184.8c-1 1.8-2 3.7-3.6 5-2 1.6-4.8 2.3-7.3 2.9-2.8.7-1.6 5 1.2 4.3 3.1-.8 6.3-1.7 8.9-3.8 2.1-1.6 3.4-3.9 4.6-6.2 1.4-2.5-2.5-4.7-3.8-2.2z" fill="#d4ccae"/><path class="st12" d="M212.1 186.5c-2.7-2-6.1-2-7.4-2m7.1-18.4c-2.9-.8-6.8-1.6-9.6-.6m16.9 12.6c-1.4-1.7-5.7-3.6-8.2-3.6"/></g></svg>