<svg xmlns="http://www.w3.org/2000/svg" viewBox="0 0 1024 551.61"><defs><style>.cls-1{fill:#f8efd2;}.cls-2{fill:none;}.cls-12,.cls-13,.cls-14,.cls-15,.cls-17,.cls-2,.cls-3,.cls-4,.cls-6,.cls-7,.cls-8,.cls-9{stroke:#825a60;}.cls-13,.cls-14,.cls-15,.cls-17,.cls-2,.cls-3,.cls-4,.cls-6{stroke-linecap:round;stroke-linejoin:round;}.cls-17,.cls-2,.cls-3,.cls-4{stroke-width:5.04px;}.cls-3,.cls-9{fill:#f57d90;}.cls-4{fill:#f8efd0;}.cls-5{fill:#f5b3bd;}.cls-12,.cls-13,.cls-6{fill:#fbcc25;}.cls-6{stroke-width:4.2px;}.cls-14,.cls-7{fill:#fff;}.cls-7,.cls-8,.cls-9{stroke-miterlimit:10;stroke-width:4px;}.cls-17,.cls-8{fill:#2bcdc9;}.cls-10{fill:#7feadf;}.cls-11{fill:#825a60;}.cls-12{stroke-width:2px;}.cls-13,.cls-14,.cls-15{stroke-width:5.36px;}.cls-15{fill:#fbe594;}.cls-16{fill:#fbf4da;}</style></defs><title>illustrations</title><g id="header_illustratie" data-name="header illustratie"><rect class="cls-1" x="-399.09" y="-0.4" width="1778" height="568"/><line class="cls-2" x1="-198.12" y1="519.59" x2="1295.63" y2="519.59"/><line class="cls-3" x1="-197.7" y1="534.51" x2="1295.21" y2="534.51"/><line class="cls-3" x1="-197.7" y1="549.44" x2="1295.21" y2="549.44"/><g id="guitar"><g id="guitar-2" data-name="guitar"><path class="cls-3" d="M161.48,505.42q-.33-5-.33-10.15c0-67.17,43.56-121.63,97.3-121.63a82,82,0,0,1,46.15,14.54c24.3,16.4,53.26,33.65,82.46,31,1.63-.15,3.29-.22,4.95-.22,37.62,0,68.11,29.27,68.11,76.29a104.15,104.15,0,0,1-.52,10.45l835.61.63"/><path class="cls-3" d="M1295.21,506.35l-835.61-.63a104.15,104.15,0,0,0,.52-10.45c0-47-30.49-76.29-68.11-76.29-1.66,0-3.32.07-4.95.22-29.2,2.63-58.16-14.62-82.46-31a82,82,0,0,0-46.15-14.54c-53.74,0-97.3,54.46-97.3,121.63q0,5.13.33,10.15h-359.6"/><path class="cls-4" d="M307.54,506.32a42.46,42.46,0,0,1,84.91,0"/><path class="cls-5" d="M433.09,449.46c-10.37-11-22.71-18.55-38.17-18.36-4.86.06-4.87,7.62,0,7.56,13.48-.16,23.82,6.63,32.82,16.15,3.35,3.54,8.69-1.81,5.35-5.35Z"/></g><line class="cls-2" x1="214.08" y1="475.66" x2="1295.63" y2="475.66"/><line class="cls-3" x1="214.08" y1="490.58" x2="1295.21" y2="490.58"/><circle class="cls-6" cx="214.08" cy="475.24" r="5.04"/><circle class="cls-6" cx="214.08" cy="490.36" r="5.04"/></g></g><g id="header_typo" data-name="header typo"><g id="week_van_de_mobiliteit" data-name="week van de mobiliteit"><path class="cls-7" d="M297.72,181.88l13.46-32.13a2.9,2.9,0,0,1,2.54-1.53h13.21a3,3,0,0,1,2.92,2.92c3.31,66.18,3.43,66.3,3.43,66.3a3.32,3.32,0,0,1-3.3,2.93h-9a2.88,2.88,0,0,1-2.92-2.93l-2.67-39.88L303.82,206a4.11,4.11,0,0,1-3.05,2.16h-6.1a4.11,4.11,0,0,1-3.05-2.16l-11.43-28.45-2.92,39.88a2.88,2.88,0,0,1-2.92,2.93h-9a3.32,3.32,0,0,1-3.3-2.93s.25-.12,3.55-66.3a3,3,0,0,1,2.93-2.92h13.21a2.9,2.9,0,0,1,2.54,1.53Z"/><path class="cls-8" d="M340.65,184.8c0-30.1,14.48-37.09,31.5-37.09s31.38,7,31.38,37.09c0,28.2-14.23,36.2-31.25,36.2C355,221,340.65,213,340.65,184.8Zm47.63,0c0-22.61-10.28-23.5-16.13-23.5s-16.25.89-16.25,23.5c0,18.55,10.54,22.61,16.38,22.61C377.87,207.41,388.28,203.35,388.28,184.8Z"/><path class="cls-7" d="M435.22,148.22c17,0,25.91,4.7,25.91,21.59,0,5.34-2.16,11.18-9,13.47,7.11,1.9,12.45,7.49,12.45,15.62,0,16.77-8.89,21.47-25.91,21.47H415.53a3,3,0,0,1-2.92-3.05V151.14a2.87,2.87,0,0,1,2.92-2.92Zm-7.37,13.59v15.88H435c5.85,0,10.93-1.27,10.93-7.88s-5.08-8-10.93-8Zm21.47,37.09c0-6.6-5.08-7.62-10.93-7.62H427.85v15.49h10.54C444.24,206.77,449.32,205.51,449.32,198.9Z"/><path class="cls-7" d="M488.1,217.44a2.88,2.88,0,0,1-2.92,2.93h-9.4a2.88,2.88,0,0,1-2.93-2.93v-66.3a2.88,2.88,0,0,1,2.93-2.92h9.4a2.87,2.87,0,0,1,2.92,2.92Z"/><path class="cls-7" d="M502.11,220.37a2.88,2.88,0,0,1-2.92-2.93v-66.3a2.87,2.87,0,0,1,2.92-2.92h9.4a2.87,2.87,0,0,1,2.92,2.92v55.51H542a2.87,2.87,0,0,1,2.92,2.92v7.87a2.88,2.88,0,0,1-2.92,2.93Z"/><path class="cls-9" d="M566.52,217.44a2.88,2.88,0,0,1-2.92,2.93h-9.4a2.88,2.88,0,0,1-2.92-2.93v-66.3a2.87,2.87,0,0,1,2.92-2.92h9.4a2.87,2.87,0,0,1,2.92,2.92Z"/><path class="cls-7" d="M606.85,217.44a2.88,2.88,0,0,1-2.93,2.93h-9.39a2.88,2.88,0,0,1-2.93-2.93V161.81H575.73a2.87,2.87,0,0,1-2.92-2.92v-7.75a2.87,2.87,0,0,1,2.92-2.92H622.6a2.87,2.87,0,0,1,2.92,2.92v7.75a2.87,2.87,0,0,1-2.92,2.92H606.85Z"/><path class="cls-8" d="M634.87,220.37a2.88,2.88,0,0,1-2.92-2.93v-66.3a2.87,2.87,0,0,1,2.92-2.92h41.78a2.88,2.88,0,0,1,2.93,2.92v7.75a2.88,2.88,0,0,1-2.93,2.92H647.19v15.75h21.46a2.87,2.87,0,0,1,2.92,2.92v7.75a2.87,2.87,0,0,1-2.92,2.92H647.19v15.62h29.46a2.88,2.88,0,0,1,2.93,2.93v7.74a2.88,2.88,0,0,1-2.93,2.93Z"/><path class="cls-7" d="M703,217.44a2.88,2.88,0,0,1-2.92,2.93h-9.4a2.88,2.88,0,0,1-2.92-2.93v-66.3a2.87,2.87,0,0,1,2.92-2.92h9.4a2.87,2.87,0,0,1,2.92,2.92Z"/><path class="cls-7" d="M743.3,217.44a2.88,2.88,0,0,1-2.92,2.93H731a2.88,2.88,0,0,1-2.92-2.93V161.81H712.18a2.87,2.87,0,0,1-2.92-2.92v-7.75a2.87,2.87,0,0,1,2.92-2.92h46.87a2.87,2.87,0,0,1,2.92,2.92v7.75a2.87,2.87,0,0,1-2.92,2.92H743.3Z"/><path class="cls-10" d="M379.22,155.88a16,16,0,0,1,13.53,14.88c.14,2.88,4.64,2.9,4.5,0a20.6,20.6,0,0,0-18-19.38c-2.87-.37-2.84,4.13,0,4.5Z"/><path class="cls-5" d="M558.23,154.13v17.49c0,2.89,4.5,2.9,4.5,0V154.13c0-2.9-4.5-2.9-4.5,0Z"/><path class="cls-10" d="M669.35,155a6.08,6.08,0,0,1,1.8-.17,3.36,3.36,0,0,1,.64.18l.47.23a1.36,1.36,0,0,1-.37-1.6,2.34,2.34,0,0,0,.81,3.08,2.27,2.27,0,0,0,3.08-.81,3.38,3.38,0,0,0-1.72-4.78,9.15,9.15,0,0,0-5.91-.47,2.25,2.25,0,1,0,1.2,4.34Z"/><path class="cls-11" d="M351.39,74.76h4.2c.93,0,1.43.58,1.6,1.59a144.5,144.5,0,0,1,1.43,17.74c0,21.52-2,28.83-13.11,28.83-2.19,0-7.4,0-10.09-5.12-3.19,5.12-8.07,5.12-10.76,5.12-10.93,0-13.37-5-13.37-22V76.35a1.55,1.55,0,0,1,1.6-1.59h4.21a1.54,1.54,0,0,1,1.59,1.59v25.56c0,14,3,14.71,6.31,14.71,6,0,6.13-5.8,6.13-10.85V76.35a1.55,1.55,0,0,1,1.6-1.59h4.2a1.54,1.54,0,0,1,1.6,1.59v25c0,5,.25,15.3,6.3,15.3,5.89,0,6.39-4.29,6.39-22.61,0-3.28-.33-12.53-1.34-17.66A1.48,1.48,0,0,1,351.39,74.76Z"/><path class="cls-11" d="M367.87,122.5a1.54,1.54,0,0,1-1.59-1.59V76.35a1.54,1.54,0,0,1,1.59-1.59h27.32a1.54,1.54,0,0,1,1.6,1.59v3a1.55,1.55,0,0,1-1.6,1.6H373.67V95.6h15.72a1.55,1.55,0,0,1,1.6,1.6v3a1.54,1.54,0,0,1-1.6,1.59H373.67v14.55h21.52a1.54,1.54,0,0,1,1.6,1.59v3a1.54,1.54,0,0,1-1.6,1.59Z"/><path class="cls-11" d="M403.53,122.5a1.55,1.55,0,0,1-1.6-1.59V76.35a1.55,1.55,0,0,1,1.6-1.59h27.32a1.55,1.55,0,0,1,1.6,1.59v3a1.56,1.56,0,0,1-1.6,1.6H409.33V95.6h15.72a1.56,1.56,0,0,1,1.6,1.6v3a1.55,1.55,0,0,1-1.6,1.59H409.33v14.55h21.52a1.55,1.55,0,0,1,1.6,1.59v3a1.55,1.55,0,0,1-1.6,1.59Z"/><path class="cls-11" d="M463.65,115.69c-2.86-6-5.63-11.93-9.25-15.72a31.72,31.72,0,0,1-9.41,4.71v16.23a1.55,1.55,0,0,1-1.6,1.59h-4.2a1.54,1.54,0,0,1-1.6-1.59V76.35a1.54,1.54,0,0,1,1.6-1.59h4.2a1.55,1.55,0,0,1,1.6,1.59V96.19c6.05,0,16.64-11.85,19.42-19.84.42-1,.92-1.59,1.84-1.59h4a1.54,1.54,0,0,1,1.59,1.59c-1.43,5.72-5.38,13-11.35,19.25a33.28,33.28,0,0,1,5.55,8l8.32,17.32a1.54,1.54,0,0,1-1.59,1.59h-4.54a2.5,2.5,0,0,1-2.1-1.76C465.25,119.14,464.41,117.37,463.65,115.69Z"/><path class="cls-11" d="M527.53,76.35a2.13,2.13,0,0,1,1.93-1.59h4.21a1.55,1.55,0,0,1,1.6,1.59c-3.62,10-11.94,34.3-15.56,44.3a2.85,2.85,0,0,1-2.52,1.85h-6a2.87,2.87,0,0,1-2.52-1.85c-3.61-10-11.93-34.29-15.55-44.3a1.54,1.54,0,0,1,1.6-1.59H499a2.11,2.11,0,0,1,1.93,1.59l13.29,38.84Z"/><path class="cls-11" d="M563.65,111H543.81l-3.44,9.92a2.13,2.13,0,0,1-1.94,1.59h-4.2a1.54,1.54,0,0,1-1.6-1.59c3.62-10,11.94-34.3,15.55-44.31a2.88,2.88,0,0,1,2.53-1.84h6a2.85,2.85,0,0,1,2.52,1.84c2.95,8.08,8.92,26.23,13.2,37.83.67,1.85,1.26,3.2,1.94,3.53a1.38,1.38,0,0,1,.75,1.26v2.53c0,.92-1.68,1.17-3.36,1.17-3.28,0-4.37-1.59-5.63-4.7Zm-17.74-6.22h15.55l-7.81-22.7Z"/><path class="cls-11" d="M609.21,109.05V76.35a1.54,1.54,0,0,1,1.6-1.59H615a1.54,1.54,0,0,1,1.6,1.59v44.56a1.54,1.54,0,0,1-1.6,1.59h-4.2a3.62,3.62,0,0,1-3.11-1.85L587.1,87.11v33.8a1.54,1.54,0,0,1-1.6,1.59h-4.2a1.55,1.55,0,0,1-1.6-1.59V76.35a1.55,1.55,0,0,1,1.6-1.59h4.88a3.63,3.63,0,0,1,3.11,1.84Z"/><path class="cls-11" d="M640.9,76.35a1.54,1.54,0,0,1,1.59-1.59H658c10.76,0,16.65,6,16.65,16.81v14.12c0,10.76-5.89,16.81-16.65,16.81H642.49a1.54,1.54,0,0,1-1.59-1.59Zm26.31,15.39c0-7.65-4.54-10.76-9.58-10.76H648.3v35.3h9.33c5,0,9.58-3.11,9.58-10.76Z"/><path class="cls-11" d="M683.35,122.5a1.54,1.54,0,0,1-1.59-1.59V76.35a1.54,1.54,0,0,1,1.59-1.59h27.32a1.54,1.54,0,0,1,1.6,1.59v3a1.55,1.55,0,0,1-1.6,1.6H689.15V95.6h15.72a1.55,1.55,0,0,1,1.6,1.6v3a1.54,1.54,0,0,1-1.6,1.59H689.15v14.55h21.52a1.54,1.54,0,0,1,1.6,1.59v3a1.54,1.54,0,0,1-1.6,1.59Z"/></g><g id="datum"><path class="cls-11" d="M285.37,247.63a1.29,1.29,0,0,1,1.17-1h2.55a.94.94,0,0,1,1,1c-2.2,6.07-7.24,20.81-9.44,26.87a1.74,1.74,0,0,1-1.53,1.13h-3.62a1.76,1.76,0,0,1-1.53-1.13c-2.19-6.06-7.24-20.8-9.43-26.87a.94.94,0,0,1,1-1H268a1.29,1.29,0,0,1,1.17,1l8.06,23.56Z"/><path class="cls-11" d="M307.63,268.64h-12l-2.09,6a1.31,1.31,0,0,1-1.18,1h-2.55a.94.94,0,0,1-1-1c2.2-6.07,7.25-20.81,9.44-26.88a1.76,1.76,0,0,1,1.53-1.12h3.62a1.76,1.76,0,0,1,1.53,1.12c1.78,4.9,5.4,15.91,8,23,.4,1.12.76,1.94,1.17,2.14a.84.84,0,0,1,.46.77v1.53c0,.56-1,.71-2,.71-2,0-2.65-1-3.42-2.85Zm-10.76-3.77h9.44l-4.75-13.77Z"/><path class="cls-11" d="M335.54,267.47V247.63a.94.94,0,0,1,1-1h2.55a.94.94,0,0,1,1,1v27a.94.94,0,0,1-1,1h-2.55a2.19,2.19,0,0,1-1.89-1.13l-12.49-20.34v20.5a.94.94,0,0,1-1,1h-2.55a.94.94,0,0,1-1-1v-27a.94.94,0,0,1,1-1h3a2.2,2.2,0,0,1,1.88,1.12Z"/><path class="cls-11" d="M361.8,246.66h4.34a.94.94,0,0,1,1,1v27a.94.94,0,0,1-1,1h-2.55a.94.94,0,0,1-1-1V251.3l-8.41,5.51a.93.93,0,0,1-1-1v-3a.93.93,0,0,1,.4-.81Z"/><path class="cls-11" d="M383.25,250.28c-2.6,0-6.68.56-6.68,5.81v3.63a10,10,0,0,1,5.91-1.59c4.39,0,8.77,2,8.77,8.42,0,6.07-3,9.33-9.63,9.33s-9.54-3.26-9.54-9.33v-9.74c0-6.58,4-10.35,10.71-10.35,2.24,0,4.84.15,6.94,1.48a.93.93,0,0,1,.45.76.9.9,0,0,1-.05.36l-.86,2.09a.6.6,0,0,1-.56.3,1,1,0,0,1-.51-.15A12.87,12.87,0,0,0,383.25,250.28ZM376.57,267c0,1.88.51,5.05,5.05,5.05s5.15-3.06,5.15-5.05,0-5.05-5.15-5.05C376.87,262,376.57,265.07,376.57,267Z"/><path class="cls-11" d="M404.92,250.43a.92.92,0,0,1-1-1v-1.84a.93.93,0,0,1,1-1h18.67a.94.94,0,0,1,1,1v1.84a.93.93,0,0,1-1,1H416.5v24.23a.94.94,0,0,1-1,1H413a.94.94,0,0,1-1-1V250.43Z"/><path class="cls-11" d="M426.24,261.35c0-12.09,5.66-14.89,12.5-14.89s12.49,2.8,12.49,14.89c0,11.32-5.61,14.53-12.49,14.53S426.24,272.67,426.24,261.35Zm20.5,0c0-10.35-4.64-11.07-8-11.07s-8,.72-8,11.07c0,9.64,4.54,10.71,8,10.71S446.74,271,446.74,261.35Z"/><path class="cls-11" d="M453.91,250.43a.93.93,0,0,1-1-1v-1.84a.94.94,0,0,1,1-1h18.67a.94.94,0,0,1,1,1v1.84a.93.93,0,0,1-1,1h-7.09v24.23a.94.94,0,0,1-1,1H462a.94.94,0,0,1-1-1V250.43Z"/><path class="cls-11" d="M494.81,246.46c8.93,0,10.46,3.21,10.46,7.19,0,8.46-14.79,8.92-14.79,16.83v1.37h13.16a.93.93,0,0,1,1,1v1.84a.93.93,0,0,1-1,1H487.22a.93.93,0,0,1-1-1v-4.39c0-10.71,14.53-11,14.53-16.62,0-3.16-1.78-3.37-6.63-3.37-.71,0-3.31.36-5.51.61-.56,0-.81-.2-.91-.66l-.16-1.68c0-.72.16-1,.61-1.17A23.09,23.09,0,0,1,494.81,246.46Z"/><path class="cls-11" d="M517.12,246.46c8.92,0,10.45,3.21,10.45,7.19,0,8.46-14.78,8.92-14.78,16.83v1.37h13.15a.94.94,0,0,1,1,1v1.84a.94.94,0,0,1-1,1H509.52a.94.94,0,0,1-1-1v-4.39c0-10.71,14.54-11,14.54-16.62,0-3.16-1.79-3.37-6.63-3.37-.72,0-3.32.36-5.51.61-.56,0-.82-.2-.92-.66l-.15-1.68c0-.72.15-1,.61-1.17A23.09,23.09,0,0,1,517.12,246.46Z"/><path class="cls-11" d="M552.77,250.28c-4.69,0-7,.21-7,3.37,0,6.63,17,2.6,17,14.12,0,5.61-4.23,8.11-12.29,8.11a22.89,22.89,0,0,1-7.9-1.68.94.94,0,0,1-.46-.77.85.85,0,0,1,0-.35l.92-2.25a.59.59,0,0,1,.56-.3c.15,0,.2.05.46.15a23.28,23.28,0,0,0,7.09,1.38c1.63,0,7.09-.41,7.09-4.54,0-7-17-2.81-17-13.41,0-4.49,2-7.65,11.12-7.65a42.16,42.16,0,0,1,7,.92.79.79,0,0,1,.56.81c0,.05-.15,1.53-.2,2.24s-.51.57-.72.57C556.08,250.59,553.48,250.28,552.77,250.28Z"/><path class="cls-11" d="M567.16,275.63a.94.94,0,0,1-1-1v-27a.94.94,0,0,1,1-1h16.57a.93.93,0,0,1,1,1v1.84a.93.93,0,0,1-1,1H570.68v8.88h9.54a.93.93,0,0,1,1,1v1.83a.93.93,0,0,1-1,1h-9.54v8.82h13.05a.93.93,0,0,1,1,1v1.79a.93.93,0,0,1-1,1Z"/><path class="cls-11" d="M592.59,274.66a.94.94,0,0,1-1,1h-2.55a.94.94,0,0,1-1-1v-27a.94.94,0,0,1,1-1h8.82c6.63,0,10.1,2.86,10.1,9.38s-3.47,9.23-10.1,9.23h-5.3ZM603.5,256c0-3.51-2.14-5.55-5.3-5.55h-5.61v11h5.61C601.41,261.5,603.5,259.56,603.5,256Z"/><path class="cls-11" d="M610.93,250.43a.93.93,0,0,1-1-1v-1.84a.94.94,0,0,1,1-1h18.66a.94.94,0,0,1,1,1v1.84a.93.93,0,0,1-1,1H622.5v24.23a.93.93,0,0,1-1,1H619a.93.93,0,0,1-1-1V250.43Z"/><path class="cls-11" d="M634.84,275.63a.94.94,0,0,1-1-1v-27a.94.94,0,0,1,1-1h16.57a.94.94,0,0,1,1,1v1.84a.93.93,0,0,1-1,1H638.35v8.88h9.54a.94.94,0,0,1,1,1v1.83a.94.94,0,0,1-1,1h-9.54v8.82h13.06a.94.94,0,0,1,1,1v1.79a.94.94,0,0,1-1,1Z"/><path class="cls-11" d="M669.16,270.32a1.49,1.49,0,0,1-1.12-.86l-6.63-16.12L660,274.66a1.29,1.29,0,0,1-1.17,1h-2.35a.94.94,0,0,1-1-1l1.79-27a.93.93,0,0,1,1-1h4.64c.35,0,.61.31.81.82l6.48,15.4,6.48-15.4c.2-.51.45-.82.81-.82h4.64a.94.94,0,0,1,1,1l1.79,27a.94.94,0,0,1-1,1H681.6a1.29,1.29,0,0,1-1.17-1l-1.38-21.32-6.63,16.12a1.49,1.49,0,0,1-1.12.86Z"/><path class="cls-11" d="M698.3,246.66c5.92,0,10.1,1.79,10.1,8.26,0,1.94-.3,4.44-2.8,6.17,3.72,1,4.28,3.42,4.28,6.33,0,6.42-3.57,8.21-10.1,8.21H690.5a.94.94,0,0,1-1-1v-27a.94.94,0,0,1,1-1ZM694,250.43v8.88h4.13c3,0,5.76-.72,5.76-4.39s-2.75-4.49-5.76-4.49Zm11.37,17c0-3.78-2.7-4.34-5.71-4.34H694v8.82h5.66C702.69,271.9,705.39,271.14,705.39,267.42Z"/><path class="cls-11" d="M714.9,275.63a.94.94,0,0,1-1-1v-27a.94.94,0,0,1,1-1h16.57a.94.94,0,0,1,1,1v1.84a.93.93,0,0,1-1,1H718.42v8.88H728a.93.93,0,0,1,1,1v1.83a.93.93,0,0,1-1,1h-9.53v8.82h13.05a.94.94,0,0,1,1,1v1.79a.94.94,0,0,1-1,1Z"/><path class="cls-11" d="M756.14,273.59v1.58c0,.56-1.18.71-2.2.71a3.25,3.25,0,0,1-3.21-2.19l-3.16-8.47a14.64,14.64,0,0,1-1.48,0h-5.76v9.39a.94.94,0,0,1-1,1h-2.55a.94.94,0,0,1-1-1v-27a.94.94,0,0,1,1-1h9.28c6.63,0,10.1,2.86,10.1,9.38,0,4.19-1.43,6.84-4.24,8.16l2.35,6.17c.61,1.53.82,2,1.43,2.4A1,1,0,0,1,756.14,273.59ZM746.4,261.5c3.21,0,5.3-1.94,5.3-5.46s-2.14-5.55-5.3-5.55h-6.07v11Z"/><path class="cls-12" d="M361.93,246.74h4.9a1.15,1.15,0,0,1,1.17,1.17v26.62a1.15,1.15,0,0,1-1.17,1.17h-3.77a1.16,1.16,0,0,1-1.18-1.17V253.37l-7.54,4.89a1.16,1.16,0,0,1-1.18-1.17v-4a1.2,1.2,0,0,1,.41-.91Z"/><path class="cls-12" d="M372.45,257.19c0-6.73,4.18-10.65,11-10.65a10.71,10.71,0,0,1,7,2,1.68,1.68,0,0,1,.81,1.27,13.29,13.29,0,0,1-1.17,2.6,1.05,1.05,0,0,1-1.07.66,1.58,1.58,0,0,1-.66-.15,8.71,8.71,0,0,0-4.49-1c-2.09,0-5.1.51-5.35,4.49v2.35c1.32-1.08,3.87-1.33,4.89-1.33,4.59,0,8.82,2,8.82,8.72,0,6.27-3.06,9.74-9.89,9.74s-9.94-3.47-9.94-9.74Zm6.12,9.49c0,1.37.45,3.82,3.82,3.82s3.77-2.34,3.77-3.82-.05-3.72-3.77-3.72C378.82,263,378.57,265.25,378.57,266.68Z"/><path class="cls-12" d="M494.07,246.54c9.23,0,10.61,3.82,10.61,8.56,0,8.72-13.92,8-13.92,14.33v.77H503a1.15,1.15,0,0,1,1.17,1.17v3.16A1.15,1.15,0,0,1,503,275.7H486.17a1.15,1.15,0,0,1-1.17-1.17v-4.79c0-12.24,13.56-9.49,13.56-15.5,0-2-1.17-2.25-4.84-2.25-.77,0-3.52.31-5.51.56-.77,0-1.38-.15-1.48-1.07-.15-1.73-.21-2.45-.21-2.8,0-.62.67-1,1.28-1.18A26.83,26.83,0,0,1,494.07,246.54Z"/><path class="cls-12" d="M516.61,246.54c9.23,0,10.61,3.82,10.61,8.56,0,8.72-13.93,8-13.93,14.33v.77h12.19a1.15,1.15,0,0,1,1.17,1.17v3.16a1.15,1.15,0,0,1-1.17,1.17H508.7a1.15,1.15,0,0,1-1.17-1.17v-4.79c0-12.24,13.57-9.49,13.57-15.5,0-2-1.18-2.25-4.85-2.25-.76,0-3.52.31-5.51.56-.76,0-1.37-.15-1.47-1.07-.16-1.73-.21-2.45-.21-2.8,0-.62.66-1,1.28-1.18A26.83,26.83,0,0,1,516.61,246.54Z"/></g></g><g id="tram-2" data-name="tram"><g id="tram-3" data-name="tram"><path class="cls-13" d="M1172.67,385.16H531.77l-13.68,33.18c-5.67,10.22-8.59,23.85-8.59,34.92v37.1h663.17Z"/><rect class="cls-14" x="530.15" y="357.82" width="640.86" height="30.35"/></g><g id="raam"><rect class="cls-15" x="583.14" y="381.02" width="98.18" height="71.4" transform="translate(1264.45 833.45) rotate(-180)"/><path class="cls-16" d="M674.19,403.09c.8-4.5,1.25-9.26-1.84-13s-7.78-3.65-12.21-3.05c-2.15.29-3.32,3.05-2.8,4.94.64,2.32,2.78,3.1,4.94,2.8,1.38-.18,3.28-.53,4.09.71,1,1.48.36,3.89.07,5.49a4.13,4.13,0,0,0,2.81,4.94c1.94.54,4.55-.66,4.94-2.8Z"/></g><g id="deur"><rect class="cls-15" x="705.42" y="380.13" width="81.22" height="109.79" transform="translate(1492.06 870.05) rotate(-180)"/><line class="cls-15" x1="746.03" y1="380.13" x2="746.03" y2="488.58"/><path class="cls-16" d="M779.51,403.09c.8-4.5,1.25-9.26-1.84-13s-7.78-3.65-12.2-3.05c-2.16.29-3.33,3.05-2.81,4.94.64,2.32,2.78,3.1,4.94,2.8,1.38-.18,3.28-.53,4.1.71,1,1.48.35,3.89.06,5.49a4.13,4.13,0,0,0,2.81,4.94c1.94.54,4.55-.66,4.94-2.8Z"/></g><g id="raam-2" data-name="raam"><rect class="cls-15" x="810.74" y="381.02" width="98.18" height="71.4" transform="translate(1719.66 833.45) rotate(-180)"/><path class="cls-16" d="M900,403.09c.81-4.5,1.26-9.26-1.84-13s-7.77-3.65-12.2-3.05c-2.15.29-3.32,3.05-2.8,4.94.63,2.32,2.78,3.1,4.94,2.8,1.38-.18,3.28-.53,4.09.71,1,1.48.35,3.89.07,5.49a4.13,4.13,0,0,0,2.8,4.94c2,.54,4.56-.66,4.94-2.8Z"/></g><g id="raam-3" data-name="raam"><rect class="cls-15" x="933.02" y="381.02" width="98.18" height="71.4" transform="translate(1964.22 833.45) rotate(-180)"/><path class="cls-16" d="M1021.39,403.09c.81-4.5,1.25-9.26-1.84-13s-7.77-3.65-12.2-3.05c-2.15.29-3.33,3.05-2.81,4.94.64,2.32,2.79,3.1,5,2.8,1.38-.18,3.27-.53,4.09.71,1,1.48.35,3.89.07,5.49a4.12,4.12,0,0,0,2.8,4.94c1.95.54,4.56-.66,4.94-2.8Z"/></g><g id="voorruit"><path class="cls-15" d="M558.59,380.69H530.65L517.17,415.4a99.88,99.88,0,0,0-7.67,38.37h49.59Z"/><path class="cls-16" d="M551.9,403.09c.81-4.5,1.26-9.26-1.83-13s-7.78-3.65-12.21-3.05c-2.15.29-3.32,3.05-2.8,4.94.63,2.32,2.78,3.1,4.94,2.8,1.38-.18,3.28-.53,4.09.71,1,1.48.35,3.89.07,5.49a4.13,4.13,0,0,0,2.8,4.94c1.95.54,4.56-.66,4.94-2.8Z"/></g></g><g id="skateboard"><path id="bord" class="cls-17" d="M74.74,537.85h143a9.46,9.46,0,0,0,9.47-9.46v-5.88a9.46,9.46,0,0,0-9.47-9.46h-143Z"/><circle id="wiel" class="cls-3" cx="199.9" cy="540.47" r="9.07"/><circle id="wiel-2" data-name="wiel" class="cls-3" cx="99.32" cy="540.11" r="9.07"/><g id="schaduw"><path class="cls-10" d="M201.19,523.54c4-.1,9.66-2,11,3.2.82,3.13,5.68,1.8,4.87-1.34a9.08,9.08,0,0,0-7.1-7c-3-.59-5.81,0-8.77.11-3.24.09-3.25,5.13,0,5Z"/></g></g></svg>