<svg xmlns="http://www.w3.org/2000/svg" viewBox="0 0 425 163"><style>.st18,.st2{stroke:#825a60;stroke-width:6;stroke-linecap:round;stroke-linejoin:round;stroke-miterlimit:10}.st2{fill:#f57d90}.st18{fill:#fbcc25}</style><g id="gitaar"><g id="guitar_4_"><g id="guitar_5_"><path d="M4 159l-1-12C3 69 54 7 116 7c19 0 37 6 53 16 28 19 61 39 95 36h6c43 0 78 34 78 88v12l73 1" fill="#f57d90" stroke="#825a60" stroke-width="4" stroke-linecap="round" stroke-linejoin="round" stroke-miterlimit="10"/><path class="st2" d="M421 160l-73-1v-12c0-54-35-88-78-88h-6c-34 3-67-17-95-36a95 95 0 0 0-53-17C54 7 3 69 3 147l1 12"/><path d="M172 160a49 49 0 1 1 98 0" fill="#fff" stroke="#825a60" stroke-width="6" stroke-linecap="round" stroke-linejoin="round" stroke-miterlimit="10"/><path d="M316 92c-11-13-25-21-43-21-3 0-3 6 0 6 16-1 28 7 39 19 3 2 7-2 4-4z" fill="#f5b3bd"/></g><path class="st2" d="M64 124h358M64 142h357"/><circle class="st18" cx="64" cy="124" r="6"/><circle class="st18" cx="64" cy="141" r="6"/></g></g></svg>