<svg id="Layer_1" xmlns="http://www.w3.org/2000/svg" viewBox="0 0 136 93.1"><style>.st2{stroke-linecap:round;stroke-linejoin:round;fill:none;stroke:#fff;stroke-width:1.96}.st3{fill:#fff}.st4{font-family:&apos;MairyExtrabold&apos;}.st5{font-size:26.88px}.st11,.st6{stroke-linecap:round;stroke-linejoin:round}.st6{fill:#2bcdc9}.st11,.st6,.st8{stroke:#fff;stroke-width:2.09}.st8{stroke-linecap:round;stroke-linejoin:round;fill:none}.st11{fill:#825a60}</style><g id="icons"><path d="M1.8 85.4c0 2.3 1.8 4.1 4.1 4.1h28.8c2.3 0 4.1-1.8 4.1-4.1V63.3h-37v22.1zm21.4-1.6c0 .9-.7 1.6-1.6 1.6h-2.5c-.9 0-1.6-.7-1.6-1.6v-1.3c0-.9.7-1.6 1.6-1.6h2.5c.9 0 1.6.7 1.6 1.6v1.3zm0-7.1c0 .9-.7 1.6-1.6 1.6h-2.5c-.9 0-1.6-.7-1.6-1.6v-1.3c0-.9.7-1.6 1.6-1.6h2.5c.9 0 1.6.7 1.6 1.6v1.3zm3.8-8.3c0-.9.7-1.6 1.6-1.6h2.5c.9 0 1.6.7 1.6 1.6v1.3c0 .9-.7 1.6-1.6 1.6h-2.5c-.9 0-1.6-.7-1.6-1.6v-1.3zm0 7c0-.9.7-1.6 1.6-1.6h2.5c.9 0 1.6.7 1.6 1.6v1.3c0 .9-.7 1.6-1.6 1.6h-2.5c-.9 0-1.6-.7-1.6-1.6v-1.3zm-9.6-7c0-.9.7-1.6 1.6-1.6h2.5c.9 0 1.6.7 1.6 1.6v1.3c0 .9-.7 1.6-1.6 1.6H19c-.9 0-1.6-.7-1.6-1.6v-1.3zm-9.5 0c0-.9.7-1.6 1.6-1.6H12c.9 0 1.6.7 1.6 1.6v1.3c0 .9-.7 1.6-1.6 1.6H9.5c-.9 0-1.6-.7-1.6-1.6v-1.3zm0 7c0-.9.7-1.6 1.6-1.6H12c.9 0 1.6.7 1.6 1.6v1.3c0 .9-.7 1.6-1.6 1.6H9.5c-.9 0-1.6-.7-1.6-1.6v-1.3zm0 7.1c0-.9.7-1.6 1.6-1.6H12c.9 0 1.6.7 1.6 1.6v1.3c0 .9-.7 1.6-1.6 1.6H9.5c-.9 0-1.6-.7-1.6-1.6v-1.3zm26.8-29H32v-3.2c.1-1.1-.8-2.1-1.9-2.2-1.1-.1-2.1.8-2.2 1.9v3.5h-5.5v-3.2c.1-1.1-.8-2.1-1.9-2.2-1.1-.1-2.1.8-2.2 1.9v3.5h-5.4v-3.2c-.1-1.1-1.1-2-2.2-1.9-1 .1-1.8.9-1.9 1.9v3.2H5.9c-2.3 0-4.1 1.8-4.1 4.1v2.7h37v-2.7c0-2.3-1.8-4.1-4.1-4.1z" fill="#2bcdc9" stroke="#2bcdc9" stroke-width=".89" stroke-linecap="round" stroke-linejoin="round"/><circle cx="63" cy="68.9" r="20.5" fill="#2bcdc9" stroke="#2bcdc9" stroke-width=".91" stroke-linecap="round" stroke-linejoin="round"/><circle class="st2" cx="63" cy="68.9" r="15.6"/><text transform="translate(60.17 76.07)" class="st3 st4 st5">i</text><path class="st6" d="M94.1 48.7h36.4c1.7 0 3 1.3 3 3v31.9c0 3.1-2.5 5.6-5.6 5.6H96.6c-3.1 0-5.6-2.5-5.6-5.6V51.7c.1-1.7 1.4-3 3.1-3z"/><path class="st6" d="M127.8 89.2H90.7c-2.7 0-4.8-2.2-4.8-4.8v-25c0-1.8 1.5-3.3 3.4-3.3H125c1.9 0 3.4 1.5 3.4 3.4v23"/><path d="M94.3 72.4h10.6c1.7 0 3.1 1.4 3.1 3.1v4.4c0 1.7-1.4 3.1-3.1 3.1H94.3c-1.7 0-3.1-1.4-3.1-3.1v-4.4c0-1.7 1.4-3.1 3.1-3.1z" fill="#fff" stroke="#2bcdc9" stroke-width="1.73" stroke-linecap="round" stroke-linejoin="round"/><path class="st8" d="M112.3 80H123m-10.7-5.7H123m-30.3-5.8H123m-30.3-5.7H123"/><path d="M1.8 38.4c0 2.3 1.8 4.1 4.1 4.1h28.8c2.3 0 4.1-1.8 4.1-4.1V16.3h-37v22.1zm21.4-1.6c0 .9-.7 1.6-1.6 1.6h-2.5c-.9 0-1.6-.7-1.6-1.6v-1.3c0-.9.7-1.6 1.6-1.6h2.5c.9 0 1.6.7 1.6 1.6v1.3zm0-7.1c0 .9-.7 1.6-1.6 1.6h-2.5c-.9 0-1.6-.7-1.6-1.6v-1.3c0-.9.7-1.6 1.6-1.6h2.5c.9 0 1.6.7 1.6 1.6v1.3zm3.8-8.3c0-.9.7-1.6 1.6-1.6h2.5c.9 0 1.6.7 1.6 1.6v1.3c0 .9-.7 1.6-1.6 1.6h-2.5c-.9 0-1.6-.7-1.6-1.6v-1.3zm0 7c0-.9.7-1.6 1.6-1.6h2.5c.9 0 1.6.7 1.6 1.6v1.3c0 .9-.7 1.6-1.6 1.6h-2.5c-.9 0-1.6-.7-1.6-1.6v-1.3zm-9.6-7c0-.9.7-1.6 1.6-1.6h2.5c.9 0 1.6.7 1.6 1.6v1.3c0 .9-.7 1.6-1.6 1.6H19c-.9 0-1.6-.7-1.6-1.6v-1.3zm-9.5 0c0-.9.7-1.6 1.6-1.6H12c.9 0 1.6.7 1.6 1.6v1.3c0 .9-.7 1.6-1.6 1.6H9.5c-.9 0-1.6-.7-1.6-1.6v-1.3zm0 7c0-.9.7-1.6 1.6-1.6H12c.9 0 1.6.7 1.6 1.6v1.3c0 .9-.7 1.6-1.6 1.6H9.5c-.9 0-1.6-.7-1.6-1.6v-1.3zm0 7.1c0-.9.7-1.6 1.6-1.6H12c.9 0 1.6.7 1.6 1.6v1.3c0 .9-.7 1.6-1.6 1.6H9.5c-.9 0-1.6-.7-1.6-1.6v-1.3zm26.8-29H32V3.3c.1-1.1-.8-2.1-1.9-2.2-1.1 0-2.1.8-2.2 2v3.5h-5.5V3.3c.1-1.1-.8-2.1-1.9-2.2-1.1-.1-2.1.8-2.2 1.9v3.5h-5.4V3.3c-.1-1.1-1.1-2-2.2-1.9-1 .1-1.8.9-1.9 1.9v3.2H5.9c-2.3 0-4.1 1.8-4.1 4.1v2.7h37v-2.7c0-2.3-1.8-4.1-4.1-4.1z" fill="#825a60" stroke="#825a60" stroke-width=".89" stroke-linecap="round" stroke-linejoin="round"/><circle cx="63" cy="21.9" r="20.5" fill="#825a60" stroke="#825a60" stroke-width=".91" stroke-linecap="round" stroke-linejoin="round"/><circle class="st2" cx="63" cy="21.9" r="15.6"/><text transform="translate(60.17 29.07)" class="st3 st4 st5">i</text><path class="st11" d="M94.1 1.6h36.4c1.7 0 3 1.3 3 3v31.9c0 3.1-2.5 5.6-5.6 5.6H96.6c-3.1 0-5.6-2.5-5.6-5.6V4.7c.1-1.7 1.4-3.1 3.1-3.1z"/><path class="st11" d="M127.8 42.2H90.7c-2.7 0-4.8-2.2-4.8-4.8v-25c0-1.8 1.5-3.3 3.4-3.3H125c1.9 0 3.4 1.5 3.4 3.4v23"/><path d="M94.3 25.4h10.6c1.7 0 3.1 1.4 3.1 3.1v4.4c0 1.7-1.4 3.1-3.1 3.1H94.3c-1.7 0-3.1-1.4-3.1-3.1v-4.4c0-1.7 1.4-3.1 3.1-3.1z" fill="#fff" stroke="#825a60" stroke-width="1.73" stroke-linecap="round" stroke-linejoin="round"/><path class="st8" d="M112.3 33H123m-10.7-5.7H123m-30.3-5.8H123m-30.3-5.7H123"/></g></svg>