<svg xmlns="http://www.w3.org/2000/svg" viewBox="0 0 194.77 194.78"><defs><style>.cls-1{fill:#2bcdc9;}.cls-1,.cls-3{stroke:#825a60;stroke-miterlimit:10;stroke-width:7.21px;}.cls-2{fill:#7feadf;}.cls-3{fill:none;}</style></defs><title>illustrations</title><g id="wiel"><path class="cls-1" d="M97.38,4.89a92.5,92.5,0,1,0,92.5,92.5A92.5,92.5,0,0,0,97.38,4.89Zm0,133.23a40.73,40.73,0,1,1,40.73-40.73A40.73,40.73,0,0,1,97.38,138.12Z"/><path class="cls-2" d="M130.89,40.38a53.35,53.35,0,0,1,29.76,32c1.48,4.38,8.44,2.5,6.95-1.91a60.31,60.31,0,0,0-33.07-36.28c-4.21-1.82-7.89,4.39-3.64,6.23Z"/><line class="cls-3" x1="97.04" y1="57.01" x2="97.04" y2="137.08"/><line class="cls-3" x1="58.96" y1="84.67" x2="135.12" y2="109.42"/><line class="cls-3" x1="73.51" y1="129.43" x2="120.57" y2="64.65"/><line class="cls-3" x1="120.57" y1="129.43" x2="73.51" y2="64.65"/><line class="cls-3" x1="135.12" y1="84.67" x2="58.96" y2="109.42"/></g></svg>