<svg xmlns="http://www.w3.org/2000/svg" viewBox="0 0 1778.91 546.46"><defs><style>.cls-1,.cls-9{fill:#fff;}.cls-1,.cls-10,.cls-2,.cls-3,.cls-7,.cls-8,.cls-9{stroke:#825a60;}.cls-1,.cls-2,.cls-3{stroke-miterlimit:10;stroke-width:4px;}.cls-2{fill:#2bcdc9;}.cls-3{fill:#f57d90;}.cls-4{fill:#7feadf;}.cls-5{fill:#f5b3bd;}.cls-6{fill:#825a60;}.cls-7,.cls-8{fill:#fbcc25;}.cls-7{stroke-width:2px;}.cls-10,.cls-8,.cls-9{stroke-linecap:round;stroke-linejoin:round;stroke-width:6px;}.cls-10{fill:#fbe594;}.cls-11{fill:#fbf4da;}</style></defs><title>illustrations</title><g id="header_typo" data-name="header typo"><g id="week_van_de_mobiliteit" data-name="week van de mobiliteit"><path class="cls-1" d="M676.44,170.88l13.47-32.13a2.9,2.9,0,0,1,2.54-1.53h13.21a3,3,0,0,1,2.92,2.92c3.3,66.18,3.43,66.3,3.43,66.3a3.32,3.32,0,0,1-3.3,2.93h-9a2.88,2.88,0,0,1-2.92-2.93l-2.67-39.88L682.54,195a4.1,4.1,0,0,1-3,2.16H673.4a4.1,4.1,0,0,1-3-2.16l-11.43-28.45L656,206.44a2.88,2.88,0,0,1-2.93,2.93h-9a3.32,3.32,0,0,1-3.31-2.93s.26-.12,3.56-66.3a3,3,0,0,1,2.92-2.92h13.21a2.9,2.9,0,0,1,2.54,1.53Z"/><path class="cls-2" d="M719.38,173.8c0-30.1,14.48-37.09,31.5-37.09s31.37,7,31.37,37.09C782.25,202,768,210,751,210,733.73,210,719.38,202,719.38,173.8Zm47.63,0c0-22.61-10.29-23.5-16.13-23.5s-16.26.89-16.26,23.5c0,18.55,10.54,22.61,16.39,22.61C756.59,196.41,767,192.35,767,173.8Z"/><path class="cls-1" d="M813.94,137.22c17,0,25.92,4.7,25.92,21.59,0,5.34-2.16,11.18-9,13.47,7.11,1.9,12.44,7.49,12.44,15.62,0,16.77-8.89,21.47-25.91,21.47H794.26a3,3,0,0,1-2.92-3.05V140.14a2.87,2.87,0,0,1,2.92-2.92Zm-7.36,13.59v15.88h7.11c5.84,0,10.92-1.27,10.92-7.88s-5.08-8-10.92-8ZM828,187.9c0-6.6-5.08-7.62-10.92-7.62H806.58v15.49h10.54C823,195.77,828,194.51,828,187.9Z"/><path class="cls-1" d="M866.82,206.44a2.88,2.88,0,0,1-2.92,2.93h-9.4a2.88,2.88,0,0,1-2.92-2.93v-66.3a2.87,2.87,0,0,1,2.92-2.92h9.4a2.87,2.87,0,0,1,2.92,2.92Z"/><path class="cls-1" d="M880.83,209.37a2.88,2.88,0,0,1-2.92-2.93v-66.3a2.87,2.87,0,0,1,2.92-2.92h9.4a2.87,2.87,0,0,1,2.92,2.92v55.51h27.56a2.88,2.88,0,0,1,2.93,2.92v7.87a2.88,2.88,0,0,1-2.93,2.93Z"/><path class="cls-3" d="M945.24,206.44a2.88,2.88,0,0,1-2.92,2.93h-9.4a2.88,2.88,0,0,1-2.92-2.93v-66.3a2.87,2.87,0,0,1,2.92-2.92h9.4a2.87,2.87,0,0,1,2.92,2.92Z"/><path class="cls-1" d="M985.57,206.44a2.88,2.88,0,0,1-2.92,2.93h-9.4a2.88,2.88,0,0,1-2.92-2.93V150.81H954.45a2.87,2.87,0,0,1-2.92-2.92v-7.75a2.87,2.87,0,0,1,2.92-2.92h46.87a2.87,2.87,0,0,1,2.92,2.92v7.75a2.87,2.87,0,0,1-2.92,2.92H985.57Z"/><path class="cls-2" d="M1013.59,209.37a2.88,2.88,0,0,1-2.92-2.93v-66.3a2.87,2.87,0,0,1,2.92-2.92h41.79a2.87,2.87,0,0,1,2.92,2.92v7.75a2.87,2.87,0,0,1-2.92,2.92h-29.47v15.75h21.47a2.87,2.87,0,0,1,2.92,2.92v7.75a2.87,2.87,0,0,1-2.92,2.92h-21.47v15.62h29.47a2.88,2.88,0,0,1,2.92,2.93v7.74a2.88,2.88,0,0,1-2.92,2.93Z"/><path class="cls-1" d="M1081.7,206.44a2.88,2.88,0,0,1-2.92,2.93h-9.4a2.88,2.88,0,0,1-2.92-2.93v-66.3a2.87,2.87,0,0,1,2.92-2.92h9.4a2.87,2.87,0,0,1,2.92,2.92Z"/><path class="cls-1" d="M1122,206.44a2.88,2.88,0,0,1-2.92,2.93h-9.4a2.89,2.89,0,0,1-2.93-2.93V150.81h-15.87a2.87,2.87,0,0,1-2.92-2.92v-7.75a2.87,2.87,0,0,1,2.92-2.92h46.87a2.87,2.87,0,0,1,2.92,2.92v7.75a2.87,2.87,0,0,1-2.92,2.92H1122Z"/><path class="cls-4" d="M757.94,144.88a16,16,0,0,1,13.54,14.88c.14,2.88,4.64,2.9,4.5,0a20.61,20.61,0,0,0-18-19.38c-2.86-.37-2.83,4.13,0,4.5Z"/><path class="cls-5" d="M937,143.13v17.49c0,2.89,4.5,2.9,4.5,0V143.13c0-2.9-4.5-2.9-4.5,0Z"/><path class="cls-4" d="M1048.07,144a6.12,6.12,0,0,1,1.81-.17,3.83,3.83,0,0,1,.64.18c.16.07.31.15.46.23a1.36,1.36,0,0,1-.36-1.6,2.32,2.32,0,0,0,.8,3.08,2.27,2.27,0,0,0,3.08-.81,3.37,3.37,0,0,0-1.71-4.78,9.15,9.15,0,0,0-5.91-.47,2.25,2.25,0,0,0,1.19,4.34Z"/><path class="cls-6" d="M730.12,63.76h4.2c.93,0,1.43.58,1.6,1.59a144.5,144.5,0,0,1,1.43,17.74c0,21.52-2,28.83-13.12,28.83-2.18,0-7.39,0-10.08-5.12-3.2,5.12-8.07,5.12-10.76,5.12-10.93,0-13.37-5-13.37-22V65.35a1.54,1.54,0,0,1,1.6-1.59h4.2a1.54,1.54,0,0,1,1.6,1.59V90.91c0,14,3,14.71,6.3,14.71,6,0,6.14-5.8,6.14-10.85V65.35a1.54,1.54,0,0,1,1.6-1.59h4.2a1.55,1.55,0,0,1,1.6,1.59v25c0,5,.25,15.3,6.3,15.3,5.88,0,6.39-4.29,6.39-22.61,0-3.28-.34-12.53-1.35-17.66A1.48,1.48,0,0,1,730.12,63.76Z"/><path class="cls-6" d="M746.6,111.5a1.54,1.54,0,0,1-1.6-1.59V65.35a1.54,1.54,0,0,1,1.6-1.59h27.32a1.55,1.55,0,0,1,1.6,1.59v3a1.56,1.56,0,0,1-1.6,1.6H752.4V84.6h15.72a1.56,1.56,0,0,1,1.6,1.6v3a1.55,1.55,0,0,1-1.6,1.59H752.4v14.55h21.52a1.55,1.55,0,0,1,1.6,1.59v3a1.55,1.55,0,0,1-1.6,1.59Z"/><path class="cls-6" d="M782.26,111.5a1.54,1.54,0,0,1-1.6-1.59V65.35a1.54,1.54,0,0,1,1.6-1.59h27.32a1.54,1.54,0,0,1,1.59,1.59v3a1.55,1.55,0,0,1-1.59,1.6H788.06V84.6h15.72a1.55,1.55,0,0,1,1.59,1.6v3a1.54,1.54,0,0,1-1.59,1.59H788.06v14.55h21.52a1.54,1.54,0,0,1,1.59,1.59v3a1.54,1.54,0,0,1-1.59,1.59Z"/><path class="cls-6" d="M842.37,104.69c-2.85-6-5.63-11.93-9.24-15.72a31.77,31.77,0,0,1-9.42,4.71v16.23a1.54,1.54,0,0,1-1.59,1.59h-4.21a1.54,1.54,0,0,1-1.59-1.59V65.35a1.54,1.54,0,0,1,1.59-1.59h4.21a1.54,1.54,0,0,1,1.59,1.59V85.19c6.06,0,16.65-11.85,19.42-19.84.42-1,.93-1.59,1.85-1.59h3.95a1.54,1.54,0,0,1,1.6,1.59c-1.43,5.72-5.38,13-11.35,19.25a33.85,33.85,0,0,1,5.55,8l8.32,17.32a1.54,1.54,0,0,1-1.6,1.59h-4.54a2.52,2.52,0,0,1-2.1-1.76C844,108.14,843.13,106.37,842.37,104.69Z"/><path class="cls-6" d="M906.26,65.35a2.12,2.12,0,0,1,1.93-1.59h4.2a1.54,1.54,0,0,1,1.6,1.59c-3.61,10-11.94,34.3-15.55,44.3a2.87,2.87,0,0,1-2.52,1.85h-6a2.86,2.86,0,0,1-2.52-1.85c-3.62-10-11.94-34.29-15.55-44.3a1.54,1.54,0,0,1,1.59-1.59h4.21a2.13,2.13,0,0,1,1.93,1.59l13.28,38.84Z"/><path class="cls-6" d="M942.38,100H922.54l-3.45,9.92a2.12,2.12,0,0,1-1.93,1.59H913a1.54,1.54,0,0,1-1.59-1.59c3.61-10,11.93-34.3,15.55-44.31a2.87,2.87,0,0,1,2.52-1.84h6a2.87,2.87,0,0,1,2.52,1.84c2.94,8.08,8.91,26.23,13.2,37.83.67,1.85,1.26,3.2,1.93,3.53a1.38,1.38,0,0,1,.76,1.26v2.53c0,.92-1.68,1.17-3.36,1.17-3.28,0-4.38-1.59-5.64-4.7Zm-17.74-6.22h15.55l-7.82-22.7Z"/><path class="cls-6" d="M987.94,98.05V65.35a1.54,1.54,0,0,1,1.59-1.59h4.21a1.54,1.54,0,0,1,1.59,1.59v44.56a1.54,1.54,0,0,1-1.59,1.59h-4.21a3.63,3.63,0,0,1-3.11-1.85L965.83,76.11v33.8a1.55,1.55,0,0,1-1.6,1.59H960a1.54,1.54,0,0,1-1.6-1.59V65.35a1.54,1.54,0,0,1,1.6-1.59h4.87A3.62,3.62,0,0,1,968,65.6Z"/><path class="cls-6" d="M1019.62,65.35a1.55,1.55,0,0,1,1.6-1.59h15.47c10.76,0,16.64,6.05,16.64,16.81V94.69c0,10.76-5.88,16.81-16.64,16.81h-15.47a1.55,1.55,0,0,1-1.6-1.59Zm26.31,15.39c0-7.65-4.53-10.76-9.58-10.76H1027v35.3h9.33c5.05,0,9.58-3.11,9.58-10.76Z"/><path class="cls-6" d="M1062.08,111.5a1.55,1.55,0,0,1-1.6-1.59V65.35a1.55,1.55,0,0,1,1.6-1.59h27.32a1.55,1.55,0,0,1,1.6,1.59v3a1.56,1.56,0,0,1-1.6,1.6h-21.52V84.6h15.72a1.56,1.56,0,0,1,1.6,1.6v3a1.55,1.55,0,0,1-1.6,1.59h-15.72v14.55h21.52A1.55,1.55,0,0,1,1091,107v3a1.55,1.55,0,0,1-1.6,1.59Z"/></g><g id="datum"><path class="cls-6" d="M664.09,236.63a1.3,1.3,0,0,1,1.17-1h2.55a.94.94,0,0,1,1,1c-2.19,6.07-7.24,20.81-9.43,26.87a1.76,1.76,0,0,1-1.53,1.13H654.2a1.75,1.75,0,0,1-1.53-1.13c-2.19-6.06-7.24-20.8-9.44-26.87a.94.94,0,0,1,1-1h2.55a1.31,1.31,0,0,1,1.18,1L656,260.19Z"/><path class="cls-6" d="M686.36,257.64h-12l-2.09,6a1.29,1.29,0,0,1-1.17,1h-2.55a.94.94,0,0,1-1-1c2.19-6.07,7.24-20.81,9.43-26.88a1.77,1.77,0,0,1,1.53-1.12h3.63a1.75,1.75,0,0,1,1.52,1.12c1.79,4.9,5.41,15.91,8,23,.41,1.12.77,1.94,1.17,2.14a.84.84,0,0,1,.46.77v1.53c0,.56-1,.71-2,.71-2,0-2.65-1-3.41-2.85Zm-10.76-3.77H685l-4.74-13.77Z"/><path class="cls-6" d="M714.26,256.47V236.63a.94.94,0,0,1,1-1h2.55a.94.94,0,0,1,1,1v27a.94.94,0,0,1-1,1h-2.55a2.19,2.19,0,0,1-1.88-1.13l-12.5-20.34v20.5a.94.94,0,0,1-1,1h-2.55a.93.93,0,0,1-1-1v-27a.93.93,0,0,1,1-1h3a2.2,2.2,0,0,1,1.89,1.12Z"/><path class="cls-6" d="M740.53,235.66h4.33a.94.94,0,0,1,1,1v27a.94.94,0,0,1-1,1h-2.55a.93.93,0,0,1-1-1V240.3l-8.42,5.51a.94.94,0,0,1-1-1v-3a.93.93,0,0,1,.41-.81Z"/><path class="cls-6" d="M762,239.28c-2.6,0-6.68.56-6.68,5.81v3.63a10,10,0,0,1,5.92-1.59c4.39,0,8.77,2,8.77,8.42,0,6.07-3,9.33-9.64,9.33s-9.53-3.26-9.53-9.33v-9.74c0-6.58,4-10.35,10.71-10.35,2.24,0,4.84.15,6.93,1.48a.92.92,0,0,1,.46.76.9.9,0,0,1,0,.36l-.87,2.09a.58.58,0,0,1-.56.3,1,1,0,0,1-.51-.15A12.84,12.84,0,0,0,762,239.28ZM755.29,256c0,1.88.51,5.05,5.05,5.05s5.15-3.06,5.15-5.05,0-5-5.15-5C755.6,251,755.29,254.07,755.29,256Z"/><path class="cls-6" d="M783.65,239.43a.93.93,0,0,1-1-1v-1.84a.94.94,0,0,1,1-1h18.66a.93.93,0,0,1,1,1v1.84a.93.93,0,0,1-1,1h-7.08v24.23a.94.94,0,0,1-1,1h-2.55a.94.94,0,0,1-1-1V239.43Z"/><path class="cls-6" d="M805,250.35c0-12.09,5.66-14.89,12.49-14.89S830,238.26,830,250.35c0,11.32-5.6,14.53-12.49,14.53S805,261.67,805,250.35Zm20.5,0c0-10.35-4.64-11.07-8-11.07s-8,.72-8,11.07c0,9.64,4.54,10.71,8,10.71S825.47,260,825.47,250.35Z"/><path class="cls-6" d="M832.64,239.43a.93.93,0,0,1-1-1v-1.84a.94.94,0,0,1,1-1H851.3a.94.94,0,0,1,1,1v1.84a.93.93,0,0,1-1,1h-7.09v24.23a.93.93,0,0,1-1,1H840.7a.94.94,0,0,1-1-1V239.43Z"/><path class="cls-6" d="M873.54,235.46c8.92,0,10.45,3.21,10.45,7.19,0,8.46-14.78,8.92-14.78,16.83v1.37h13.15a.94.94,0,0,1,1,1v1.84a.94.94,0,0,1-1,1H865.94a.94.94,0,0,1-1-1v-4.39c0-10.71,14.54-11,14.54-16.62,0-3.16-1.79-3.37-6.63-3.37-.72,0-3.32.36-5.51.61-.56,0-.82-.2-.92-.66l-.15-1.68c0-.72.15-1,.61-1.17A23.05,23.05,0,0,1,873.54,235.46Z"/><path class="cls-6" d="M895.85,235.46c8.92,0,10.45,3.21,10.45,7.19,0,8.46-14.79,8.92-14.79,16.83v1.37h13.16a.94.94,0,0,1,1,1v1.84a.94.94,0,0,1-1,1H888.25a.94.94,0,0,1-1-1v-4.39c0-10.71,14.53-11,14.53-16.62,0-3.16-1.78-3.37-6.63-3.37-.71,0-3.31.36-5.5.61-.57,0-.82-.2-.92-.66l-.15-1.68c0-.72.15-1,.61-1.17A23.05,23.05,0,0,1,895.85,235.46Z"/><path class="cls-6" d="M931.49,239.28c-4.69,0-7,.21-7,3.37,0,6.63,17,2.6,17,14.12,0,5.61-4.23,8.11-12.29,8.11a22.89,22.89,0,0,1-7.9-1.68.94.94,0,0,1-.46-.77.85.85,0,0,1,0-.35l.92-2.25a.58.58,0,0,1,.56-.3c.15,0,.2.05.46.15a23.23,23.23,0,0,0,7.08,1.38c1.64,0,7.09-.41,7.09-4.54,0-7-17-2.81-17-13.41,0-4.49,2-7.65,11.12-7.65a42.2,42.2,0,0,1,7,.92.8.8,0,0,1,.57.81c0,.05-.16,1.53-.21,2.24a.6.6,0,0,1-.71.57C934.81,239.59,932.21,239.28,931.49,239.28Z"/><path class="cls-6" d="M945.89,264.63a.94.94,0,0,1-1-1v-27a.94.94,0,0,1,1-1h16.57a.94.94,0,0,1,1,1v1.84a.93.93,0,0,1-1,1H949.41v8.88h9.53a.94.94,0,0,1,1,1v1.83a.94.94,0,0,1-1,1h-9.53v8.82h13.05a.94.94,0,0,1,1,1v1.79a.94.94,0,0,1-1,1Z"/><path class="cls-6" d="M971.31,263.66a.93.93,0,0,1-1,1H967.8a.94.94,0,0,1-1-1v-27a.94.94,0,0,1,1-1h8.82c6.63,0,10.09,2.86,10.09,9.38s-3.46,9.23-10.09,9.23h-5.31ZM982.23,245c0-3.51-2.14-5.55-5.31-5.55h-5.61v11h5.61C980.14,250.5,982.23,248.56,982.23,245Z"/><path class="cls-6" d="M989.65,239.43a.92.92,0,0,1-1-1v-1.84a.93.93,0,0,1,1-1h18.67a.94.94,0,0,1,1,1v1.84a.93.93,0,0,1-1,1h-7.09v24.23a.94.94,0,0,1-1,1h-2.55a.94.94,0,0,1-1-1V239.43Z"/><path class="cls-6" d="M1013.56,264.63a.94.94,0,0,1-1-1v-27a.94.94,0,0,1,1-1h16.58a.93.93,0,0,1,1,1v1.84a.92.92,0,0,1-1,1h-13.06v8.88h9.54a.94.94,0,0,1,1,1v1.83a.94.94,0,0,1-1,1h-9.54v8.82h13.06a.93.93,0,0,1,1,1v1.79a.93.93,0,0,1-1,1Z"/><path class="cls-6" d="M1047.88,259.32a1.5,1.5,0,0,1-1.12-.86l-6.63-16.12-1.37,21.32a1.31,1.31,0,0,1-1.18,1h-2.34a.94.94,0,0,1-1-1l1.78-27a.94.94,0,0,1,1-1h4.64c.36,0,.61.31.82.82l6.47,15.4,6.48-15.4c.2-.51.46-.82.82-.82h4.64a.94.94,0,0,1,1,1l1.78,27a.94.94,0,0,1-1,1h-2.34a1.31,1.31,0,0,1-1.18-1l-1.37-21.32-6.63,16.12a1.52,1.52,0,0,1-1.12.86Z"/><path class="cls-6" d="M1077,235.66c5.92,0,10.1,1.79,10.1,8.26,0,1.94-.31,4.44-2.81,6.17,3.73,1,4.29,3.42,4.29,6.33,0,6.42-3.57,8.21-10.1,8.21h-9.28a.94.94,0,0,1-1-1v-27a.94.94,0,0,1,1-1Zm-4.28,3.77v8.88h4.13c3,0,5.76-.72,5.76-4.39s-2.75-4.49-5.76-4.49Zm11.37,17c0-3.78-2.7-4.34-5.71-4.34h-5.66v8.82h5.66C1081.42,260.9,1084.12,260.14,1084.12,256.42Z"/><path class="cls-6" d="M1093.63,264.63a.94.94,0,0,1-1-1v-27a.94.94,0,0,1,1-1h16.57a.94.94,0,0,1,1,1v1.84a.93.93,0,0,1-1,1h-13.06v8.88h9.54a.94.94,0,0,1,1,1v1.83a.94.94,0,0,1-1,1h-9.54v8.82h13.06a.94.94,0,0,1,1,1v1.79a.94.94,0,0,1-1,1Z"/><path class="cls-6" d="M1134.86,262.59v1.58c0,.56-1.17.71-2.19.71a3.24,3.24,0,0,1-3.21-2.19l-3.17-8.47a14.44,14.44,0,0,1-1.47.05h-5.77v9.39a.93.93,0,0,1-1,1h-2.55a.93.93,0,0,1-1-1v-27a.93.93,0,0,1,1-1h9.29c6.62,0,10.09,2.86,10.09,9.38,0,4.19-1.42,6.84-4.23,8.16l2.35,6.17c.61,1.53.81,2,1.42,2.4A1,1,0,0,1,1134.86,262.59Zm-9.74-12.09c3.21,0,5.31-1.94,5.31-5.46s-2.15-5.55-5.31-5.55h-6.07v11Z"/><path class="cls-7" d="M740.66,235.74h4.9a1.15,1.15,0,0,1,1.17,1.17v26.62a1.15,1.15,0,0,1-1.17,1.17h-3.78a1.15,1.15,0,0,1-1.17-1.17V242.37l-7.55,4.89a1.15,1.15,0,0,1-1.17-1.17v-4a1.17,1.17,0,0,1,.41-.91Z"/><path class="cls-7" d="M751.17,246.19c0-6.73,4.18-10.65,11-10.65a10.69,10.69,0,0,1,7,2,1.69,1.69,0,0,1,.82,1.27,13.29,13.29,0,0,1-1.17,2.6,1.06,1.06,0,0,1-1.07.66,1.63,1.63,0,0,1-.67-.15,8.65,8.65,0,0,0-4.48-1c-2.1,0-5.1.51-5.36,4.49v2.35c1.33-1.08,3.88-1.33,4.9-1.33,4.59,0,8.82,2,8.82,8.72,0,6.27-3.06,9.74-9.89,9.74s-10-3.47-10-9.74Zm6.12,9.49c0,1.37.46,3.82,3.83,3.82s3.77-2.34,3.77-3.82,0-3.72-3.77-3.72S757.29,254.25,757.29,255.68Z"/><path class="cls-7" d="M872.8,235.54c9.23,0,10.6,3.82,10.6,8.56,0,8.72-13.92,8-13.92,14.33v.77h12.19a1.15,1.15,0,0,1,1.17,1.17v3.16a1.15,1.15,0,0,1-1.17,1.17H864.89a1.15,1.15,0,0,1-1.17-1.17v-4.79c0-12.24,13.57-9.49,13.57-15.5,0-2-1.18-2.25-4.85-2.25-.76,0-3.52.31-5.51.56-.76,0-1.37-.15-1.48-1.07-.15-1.73-.2-2.45-.2-2.8,0-.62.66-1,1.28-1.18A26.76,26.76,0,0,1,872.8,235.54Z"/><path class="cls-7" d="M895.33,235.54c9.23,0,10.61,3.82,10.61,8.56,0,8.72-13.92,8-13.92,14.33v.77h12.19a1.15,1.15,0,0,1,1.17,1.17v3.16a1.15,1.15,0,0,1-1.17,1.17H887.43a1.15,1.15,0,0,1-1.17-1.17v-4.79c0-12.24,13.56-9.49,13.56-15.5,0-2-1.17-2.25-4.84-2.25-.77,0-3.52.31-5.51.56-.76,0-1.38-.15-1.48-1.07-.15-1.73-.2-2.45-.2-2.8,0-.62.66-1,1.27-1.18A26.83,26.83,0,0,1,895.33,235.54Z"/></g></g><g id="tram-2" data-name="tram"><g id="tram-3" data-name="tram"><path class="cls-8" d="M1784.27,354.73h-718l-15.32,37.18c-6.35,11.45-9.63,26.73-9.63,39.12V472.6h743Z"/><rect class="cls-9" x="1064.41" y="324.1" width="718" height="34"/></g><g id="raam"><rect class="cls-10" x="1123.77" y="350.1" width="110" height="80" transform="translate(2357.55 780.2) rotate(-180)"/><path class="cls-11" d="M1225.78,374.82c.91-5,1.41-10.37-2.06-14.59s-8.71-4.1-13.67-3.42c-2.41.33-3.72,3.41-3.14,5.53.71,2.6,3.12,3.48,5.53,3.15,1.55-.21,3.68-.6,4.59.78,1.1,1.67.4,4.37.08,6.16a4.61,4.61,0,0,0,3.14,5.53c2.18.6,5.1-.73,5.53-3.14Z"/></g><g id="deur"><rect class="cls-10" x="1260.77" y="349.1" width="91" height="123" transform="translate(2612.55 821.2) rotate(-180)"/><line class="cls-10" x1="1306.27" y1="349.1" x2="1306.27" y2="470.6"/><path class="cls-11" d="M1343.78,374.82c.91-5,1.41-10.37-2.06-14.59s-8.71-4.1-13.67-3.42c-2.41.33-3.72,3.41-3.14,5.53.71,2.6,3.12,3.48,5.53,3.15,1.55-.21,3.68-.6,4.59.78,1.1,1.67.4,4.37.08,6.16a4.61,4.61,0,0,0,3.14,5.53c2.18.6,5.1-.73,5.53-3.14Z"/></g><g id="raam-2" data-name="raam"><rect class="cls-10" x="1378.77" y="350.1" width="110" height="80" transform="translate(2867.55 780.2) rotate(-180)"/><path class="cls-11" d="M1478.78,374.82c.91-5,1.41-10.37-2.06-14.59s-8.71-4.1-13.67-3.42c-2.41.33-3.72,3.41-3.14,5.53.71,2.6,3.12,3.48,5.53,3.15,1.55-.21,3.68-.6,4.59.78,1.1,1.67.4,4.37.08,6.16a4.61,4.61,0,0,0,3.14,5.53c2.18.6,5.1-.73,5.53-3.14Z"/></g><g id="raam-3" data-name="raam"><rect class="cls-10" x="1515.77" y="350.1" width="110" height="80" transform="translate(3141.55 780.2) rotate(-180)"/><path class="cls-11" d="M1614.78,374.82c.91-5,1.41-10.37-2.06-14.59s-8.71-4.1-13.67-3.42c-2.41.33-3.72,3.41-3.14,5.53.71,2.6,3.12,3.48,5.53,3.15,1.55-.21,3.68-.6,4.59.78,1.1,1.67.4,4.37.08,6.16a4.61,4.61,0,0,0,3.14,5.53c2.18.6,5.1-.73,5.53-3.14Z"/></g><g id="raam-4" data-name="raam"><rect class="cls-10" x="1652.77" y="350.1" width="110" height="80" transform="translate(3415.55 780.2) rotate(-180)"/><path class="cls-11" d="M1751.78,374.82c.91-5,1.41-10.37-2.06-14.59s-8.71-4.1-13.67-3.42c-2.41.33-3.72,3.41-3.14,5.53.71,2.6,3.12,3.48,5.53,3.15,1.55-.21,3.68-.6,4.59.78,1.1,1.67.4,4.37.08,6.16a4.61,4.61,0,0,0,3.14,5.53c2.18.6,5.1-.73,5.53-3.14Z"/></g><g id="voorruit"><path class="cls-10" d="M1096.27,349.73H1065l-15.11,38.89a111.84,111.84,0,0,0-8.59,43h55.57Z"/><path class="cls-11" d="M1088.78,374.82c.91-5,1.41-10.37-2.06-14.59s-8.71-4.1-13.67-3.42c-2.41.33-3.72,3.41-3.14,5.53.71,2.6,3.12,3.48,5.53,3.15,1.55-.21,3.68-.6,4.59.78,1.1,1.67.4,4.37.08,6.16a4.61,4.61,0,0,0,3.14,5.53c2.18.6,5.1-.73,5.53-3.14Z"/></g></g></svg>