<svg id="Layer_1" xmlns="http://www.w3.org/2000/svg" viewBox="0 0 224 163"><style>.st0,.st1{fill:#fbcc25;stroke:#825a60;stroke-width:4.31;stroke-linecap:round;stroke-linejoin:round}.st1{fill:#f57d90}.st2{fill:#f5b3bd}</style><g id="helm"><path class="st0" d="M176.3 90.3c-2.9-4.7-15.9-16.7-20.3-19.9 1.5-17.1-.9-39-8.3-46.1l-6.5 8.6c4.5 6.1 3.6 22.5 4.2 32.5-12.6-5.9-26.1-9.4-40-10.4l3.3 10.2c16.1 2.2 48.9 15.6 58.5 31 2.5 3.9 3.3 8.6 4.8 12.8l10.5-6.4c-1.7-4.4-3.8-8.5-6.2-12.3z"/><path class="st1" d="M173.5 94.5c7.3-4.3 16.6-1.8 20.8 5.4l11.1 19-26.3 15.4-11.1-19c-4.2-7.2-1.7-16.6 5.5-20.8z"/><path class="st2" d="M179.1 103.2c2.9-.5 5.9 1 7.1 3.8 1.7 3.5 6.9.4 5.2-3.1-2.6-5.1-8.3-7.8-13.9-6.6-3.8.9-2.2 6.8 1.6 5.9z"/><path class="st0" d="M161.4 122.1l-10.7-5.7 5.1 37.1 8.6-8.9 24-3-3.2-22.8-23.8 3.3zm7.8 14.7l-1.1-8 10-1.2 1.1 8-10 1.2z"/><path class="st1" d="M132.2 121.2l4.5 32.5c.6 4.1 4 7 7.7 6.5l9.1-1.3 4.9-3.9-5.7-41.1-5.8-2.4-9.1 1.3c-3.6.6-6.2 4.3-5.6 8.4z"/><path fill="none" stroke="#825a60" stroke-width="4.31" stroke-linecap="round" stroke-linejoin="round" d="M141.2 121.5l3.9 28.2"/><path class="st0" d="M144.3 143.9l-1.8-13.2c-15.8-4.1-38.7-8.5-46.5-24.9-1.9-4.1-3.4-8.4-4.4-12.8l-11.1 5.1c1.2 4.4 2.7 8.7 4.7 12.8 4.3 9.1 11.8 15.7 20.6 20.5-5.8 3.6-11.8 8-27.3 10.2l-4.2 11.8c12.6.5 29.1-5.8 43.2-16.7 8.6 3.2 17.6 5.5 26.8 7.2z"/><path class="st1" d="M40.8 26.3c1.3.8 2.6 1.7 3.7 2.7 5.2 4.8 7.1 11.1 4.3 14.1s-9.2 1.6-14.4-3.2c-.8-.8-1.6-1.6-2.2-2.4-.9 1.4-1.8 2.8-2.6 4.3-1.4 2.4-2.6 4.9-3.7 7.3 1 .1 2 .4 3 .7 6.7 2 11.3 6.8 10.1 10.7s-7.6 5.6-14.3 3.6c-1.2-.3-2.4-.8-3.6-1.4-9.5 37.5 11.6 73.6 49.1 94.9 5.4 3.1 12.6-39.2 32.4-74.3s52.6-62.9 47.1-65.9C111.2-4.5 68-3.4 40.8 26.3z"/><path class="st2" d="M108 18.5c9.3-2.1 19.1.4 26.2 6.8 2.9 2.6 7.2-1.7 4.3-4.3-8.7-7.9-20.7-11-32.1-8.3-3.8.8-2.2 6.6 1.6 5.8z"/></g></svg>