<svg xmlns="http://www.w3.org/2000/svg" viewBox="0 0 424.8 163"><style>.st18,.st2{stroke:#825a60;stroke-width:6;stroke-linecap:round;stroke-linejoin:round;stroke-miterlimit:10}.st2{fill:#f57d90}.st18{fill:#fbcc25}</style><g id="gitaar"><g id="guitar_4_"><g id="guitar_5_"><path d="M3.7 158.6c-.3-3.9-.4-7.8-.4-11.7C3.3 69.3 53.6 6.5 115.6 6.5c19.3 0 37.4 6.1 53.3 16.8 28 18.9 61.5 38.8 95.2 35.8 1.9-.2 3.8-.3 5.7-.3 43.4 0 78.6 33.8 78.6 88.1 0 4.1-.2 8.2-.6 12.1l73.2.7" fill="#f57d90" stroke="#825a60" stroke-width="4.314" stroke-linecap="round" stroke-linejoin="round" stroke-miterlimit="10"/><path class="st2" d="M421 159.6l-73.2-.7c.4-3.9.6-7.9.6-12.1 0-54.3-35.2-88.1-78.6-88.1-1.9 0-3.8.1-5.7.3-33.7 3-67.1-16.9-95.2-35.8-15.9-10.7-34-16.8-53.3-16.8C53.6 6.5 3.3 69.3 3.3 146.9c0 3.9.1 7.9.4 11.7"/><path d="M172.3 160.4c0-27.1 21.9-49 49-49s49 21.9 49 49" fill="#fff" stroke="#825a60" stroke-width="6" stroke-linecap="round" stroke-linejoin="round" stroke-miterlimit="10"/><path d="M316.1 91.8c-11.6-12.3-25.6-21-43-20.7-3.6.1-3.6 5.7 0 5.6 15.9-.2 28.3 7.8 39 19.1 2.5 2.7 6.5-1.3 4-4z" fill="#f5b3bd"/></g><path class="st2" d="M64.4 124.2h357.1M64.4 141.5H421"/><circle class="st18" cx="64.4" cy="123.7" r="5.8"/><circle class="st18" cx="64.4" cy="141.2" r="5.8"/></g></g></svg>