<svg id="Layer_1" xmlns="http://www.w3.org/2000/svg" viewBox="0 0 320 243"><style>.st5{stroke:#825a60;stroke-linejoin:round;fill:#fbcc25;stroke-width:4.0646;stroke-linecap:round}.st8{fill:#fff}.st9{font-family:&apos;BrandonGrotesque-Black&apos;}.st10{font-size:27.0922px}.st12{fill:#f8efd0;stroke:#825a60;stroke-width:4.0646;stroke-linecap:round;stroke-linejoin:round}</style><path fill="#f8efd0" d="M0-52h320v295H0z"/><g id="Layer_11"><path d="M0 208h320M0 224h320M0 192h320" fill="none" stroke="#825a60" stroke-width="5" stroke-linejoin="round"/><path fill="none" stroke="#825a60" stroke-width="10" stroke-linejoin="round" d="M0 243h320"/><path d="M50 218l-2-1-17-7c-3-1-4-5-3-8 1-4 5-5 8-4l15 7 47-1 7-5-9-75H84c-4 0-7-1-7-5s3-5 7-5h18c3 0 6 3 6 6l11 82c0 2-1 5-3 6l-12 8-4 1-50 1z" fill="#2bcdc9" stroke="#825a60" stroke-width="4" stroke-linecap="round" stroke-linejoin="round"/><path d="M93 120c4 1 9 0 9 4 1 2 4 1 3-1 0-2-2-5-5-5l-7-1v3z" fill="#7feadf"/><circle class="st5" cx="114" cy="214" r="9"/><circle class="st5" cx="37" cy="214" r="9"/><path class="st5" d="M72 112h14v15H72c-3 0-6-3-6-7s3-8 6-8zm153 16h12v64h-12z"/><path fill="#f57d90" stroke="#825a60" stroke-width="4" stroke-linecap="round" stroke-linejoin="round" d="M257 37h-53l-26 45 26 45h53l26-45z"/><path fill="none" stroke="#fff" stroke-width="5" stroke-miterlimit="10" d="M249 50h-37l-18 32 18 32h37l18-32z"/><text transform="translate(206 90)" class="st8 st9 st10">4</text><text transform="translate(222 90)" class="st8 st9 st10">0</text><text transform="translate(238 90)" class="st8 st9 st10">4</text><path d="M257 55c4 5 6 11 9 16 2 2 5 0 4-2l-9-16c-1-2-5 0-4 2z" fill="#f5b3bd"/></g><g id="wiel"><circle class="st12" cx="208" cy="180" r="22"/><path class="st12" d="M194 172c2 3 6 5 8 5m-8 11l7 4"/><path d="M221 185l-4 5-7 3c-3 0-2 5 1 4l9-4 5-6c1-2-3-5-4-2z" fill="#d4ccae"/><path class="st12" d="M212 187c-3-2-6-2-7-2m7-19c-3-1-7-2-10-1m17 13c-1-2-6-4-8-4"/></g></svg>