<svg id="Layer_1" xmlns="http://www.w3.org/2000/svg" viewBox="0 0 195 195"><style>.st0{fill:#f57d90;stroke:#825a60;stroke-width:7.21;stroke-linecap:round;stroke-linejoin:round}</style><g id="duim"><path class="st0" d="M186 77h-70V26c0-6-5-12-12-12h-8c-7 0-12 6-12 12v51H62c-7 0-13 6-13 13v67c0 7 6 12 13 12h124V77z"/><path class="st0" d="M23 60h63c8 0 14 6 14 14v2c0 8-6 14-14 14H23c-7 0-14-6-14-14v-2c1-8 7-14 14-14zm0 61h63c8 0 14 6 14 13v3c0 7-6 14-14 14H23c-7 0-14-7-14-14v-3c0-7 7-13 14-13zm0 30h63c8 0 14 6 14 14v2c0 8-6 14-14 14H23c-7 0-14-6-14-14v-2c0-8 7-14 14-14z"/><path d="M23 90h63c8 0 14 6 14 14v2c0 8-6 14-14 14H23c-7 0-14-6-14-14v-2c0-7 7-14 14-14z" fill="#f57d90" stroke="#825a60" stroke-width="7" stroke-linecap="round" stroke-linejoin="round"/><path d="M159 94c12-1 8 16 8 24 0 4 7 4 7 0 1-8 2-17-1-24-3-5-9-8-14-8-5 1-5 8 0 8z" fill="#f5b3bd"/></g></svg>