<?xml version="1.0" encoding="utf-8"?>
<!-- Generator: Adobe Illustrator 22.0.1, SVG Export Plug-In . SVG Version: 6.00 Build 0)  -->
<svg version="1.1" id="Layer_1" xmlns="http://www.w3.org/2000/svg" xmlns:xlink="http://www.w3.org/1999/xlink" x="0px" y="0px"
	 viewBox="0 0 320 317.9" style="enable-background:new 0 0 320 317.9;" xml:space="preserve">
<style type="text/css">
	.st0{fill:#F8EFD2;}
	.st1{fill:none;stroke:#825A60;stroke-width:4;stroke-linecap:round;stroke-linejoin:round;}
	.st2{fill:#F57D90;stroke:#825A60;stroke-width:4;stroke-linecap:round;stroke-linejoin:round;}
	.st3{fill:#F8EFD0;stroke:#825A60;stroke-width:4;stroke-linecap:round;stroke-linejoin:round;}
	.st4{fill:#F5B3BD;}
	.st5{fill:#FBCC25;stroke:#825A60;stroke-width:2.84;stroke-linecap:round;stroke-linejoin:round;}
	.st6{fill:#FBCC25;stroke:#825A60;stroke-width:4;stroke-linecap:round;stroke-linejoin:round;}
	.st7{fill:#FFFFFF;stroke:#825A60;stroke-width:4;stroke-linecap:round;stroke-linejoin:round;}
	.st8{fill:#FBE594;stroke:#825A60;stroke-width:4;stroke-linecap:round;stroke-linejoin:round;}
	.st9{fill:#FBF4DA;}
	.st10{fill:#FFFFFF;stroke:#825A60;stroke-width:2.22;stroke-miterlimit:10;}
	.st11{fill:#2BCDC9;stroke:#825A60;stroke-width:2.22;stroke-miterlimit:10;}
	.st12{fill:#F57D90;stroke:#825A60;stroke-width:2.22;stroke-miterlimit:10;}
	.st13{fill:#7FEADF;}
	.st14{fill:#825A60;}
	.st15{fill:#FBCC25;stroke:#825A60;stroke-width:1.11;}
	.st16{fill:#2BCDC9;stroke:#825A60;stroke-width:2.5;stroke-linecap:round;stroke-linejoin:round;}
	.st17{fill:#F57D90;stroke:#825A60;stroke-width:2.5;stroke-linecap:round;stroke-linejoin:round;}
</style>
<title>illustrations</title>
<g id="background">
	<rect y="-1" class="st0" width="320" height="317"/>
	<line class="st1" x1="-49.6" y1="295.8" x2="320" y2="295.8"/>
	<line class="st1" x1="-49.4" y1="305.9" x2="319.7" y2="305.9"/>
	<line class="st1" x1="-49.4" y1="316" x2="319.7" y2="316"/>
	<g id="guitar">
		<g id="guitar-2">
			<path class="st2" d="M-24.5,286.2c-0.1-2.3-0.2-4.5-0.2-6.9c0-45.4,29.5-82.3,65.8-82.3c11.2,0.1,22,3.5,31.2,9.8
				c16.4,11.1,36,22.8,55.8,21c1.1-0.1,2.2-0.1,3.4-0.1c25.4,0,46.1,19.8,46.1,51.6c0,2.4-0.1,4.7-0.4,7.1l142.5,0.4"/>
			<path class="st3" d="M74.3,286.8c0.3-15.9,13.4-28.5,29.3-28.2c15.4,0.3,27.9,12.7,28.2,28.2"/>
			<path class="st4" d="M159.2,248.4c-7.1-7.4-15.3-12.5-25.8-12.4c-3.3,0-3.3,5.1,0,5.1c9.1-0.1,16.1,4.5,22.2,10.9
				C157.9,254.4,161.5,250.8,159.2,248.4L159.2,248.4z"/>
		</g>
		<line class="st1" x1="11.1" y1="266.1" x2="320" y2="266.1"/>
		<line class="st1" x1="11.1" y1="276.2" x2="319.7" y2="276.2"/>
		<circle class="st5" cx="11.1" cy="265.8" r="3.4"/>
		<circle class="st5" cx="11.1" cy="276" r="3.4"/>
	</g>
</g>
<g id="tram">
	<g id="tram-2">
		<path class="st6" d="M336.7,246H202.1l-6.5,15.8c-2.7,5.1-4.1,10.8-4.1,16.6V296h145.2V246z"/>
		<rect x="201.3" y="233" class="st7" width="134.6" height="14.4"/>
	</g>
	<g id="raam">
		<rect x="226.5" y="244" class="st8" width="46.7" height="33.9"/>
		<path class="st9" d="M269.7,254.5c0.4-2.1,0.6-4.4-0.9-6.2s-3.7-1.7-5.8-1.4c-1,0.3-1.6,1.3-1.3,2.3c0.3,1,1.3,1.6,2.4,1.3
			c0.7-0.1,1.6-0.3,2,0.3s0.2,1.9,0,2.6c-0.2,1,0.3,2,1.3,2.4C268.4,256.1,269.4,255.5,269.7,254.5L269.7,254.5z"/>
	</g>
	<g id="deur">
		<rect x="284.6" y="243.6" class="st8" width="38.6" height="52.2"/>
		<line class="st1" x1="303.9" y1="243.6" x2="303.9" y2="295.1"/>
		<path class="st9" d="M319.8,254.5c0.4-2.1,0.6-4.4-0.9-6.2s-3.7-1.7-5.8-1.4c-1,0.3-1.6,1.3-1.3,2.3c0.3,1,1.3,1.6,2.4,1.3
			c0.7-0.1,1.6-0.3,2,0.3s0.2,1.9,0,2.6c-0.2,1,0.3,2,1.3,2.4C318.4,256.1,319.5,255.5,319.8,254.5L319.8,254.5z"/>
	</g>
	<g id="voorruit">
		<path class="st8" d="M214.8,243.9h-13.3l-6.4,16.5c-2.4,5.8-3.6,12-3.6,18.2H215L214.8,243.9z"/>
		<path class="st9" d="M211.6,254.5c0.4-2.1,0.6-4.4-0.9-6.2s-3.7-1.7-5.8-1.4c-1,0.3-1.6,1.3-1.3,2.3c0,0,0,0,0,0
			c0.3,1,1.3,1.6,2.4,1.3c0.7-0.1,1.6-0.3,1.9,0.3s0.2,1.9,0,2.6c-0.2,1,0.3,2,1.3,2.4C210.3,256.1,211.3,255.5,211.6,254.5
			L211.6,254.5z"/>
	</g>
</g>
<g id="typo">
	<g id="week_van_de_mobiliteit">
		<path class="st10" d="M41.1,111l7.5-17.8c0.3-0.5,0.8-0.9,1.4-0.9h7.3c0.9,0,1.6,0.7,1.6,1.6c1.8,36.7,1.9,36.8,1.9,36.8
			c-0.1,0.9-0.9,1.6-1.9,1.6h-5c-0.9,0-1.6-0.7-1.6-1.6c0,0,0,0,0-0.1l-1.5-22.1l-6.4,15.8c-0.3,0.6-1,1.1-1.7,1.2h-3.4
			c-0.7-0.1-1.3-0.6-1.7-1.2l-6.4-15.8l-1.6,22.1c0,0.9-0.7,1.6-1.6,1.6c0,0,0,0-0.1,0h-5c-0.9,0-1.7-0.7-1.8-1.6
			c0,0,0.1-0.1,2-36.8c0-0.9,0.7-1.6,1.6-1.6h7.3c0.6,0,1.1,0.3,1.4,0.8L41.1,111z"/>
		<path class="st11" d="M64.9,112.6c0-16.7,8-20.6,17.5-20.6s17.4,3.9,17.4,20.6c0,15.7-7.9,20.1-17.3,20.1S64.9,128.2,64.9,112.6z
			 M91.3,112.6c0-12.6-5.7-13-9-13s-9,0.5-9,13c0,10.3,5.8,12.6,9.1,12.6S91.3,122.9,91.3,112.6z"/>
		<path class="st10" d="M117.4,92.3c9.4,0,14.4,2.6,14.4,12c0,3-1.2,6.2-5,7.5c4.1,0.9,6.9,4.5,6.9,8.7c0,9.3-4.9,11.9-14.4,11.9
			h-12.8c-0.9,0-1.6-0.8-1.6-1.7c0,0,0,0,0,0V93.9c0-0.9,0.7-1.6,1.6-1.6c0,0,0,0,0.1,0L117.4,92.3z M113.3,99.8v8.8h4
			c3.2,0,6.1-0.7,6.1-4.4s-2.8-4.4-6.1-4.4L113.3,99.8z M125.2,120.4c0-3.7-2.8-4.2-6.1-4.2h-5.9v8.6h5.8
			C122.4,124.8,125.2,124.1,125.2,120.4z"/>
		<path class="st10" d="M146.7,130.7c0,0.9-0.7,1.6-1.6,1.6c0,0,0,0-0.1,0h-5.2c-0.9,0-1.6-0.7-1.6-1.6c0,0,0,0,0-0.1V93.9
			c0-0.9,0.7-1.6,1.6-1.6c0,0,0,0,0.1,0h5.2c0.9,0,1.6,0.7,1.6,1.6c0,0,0,0,0,0.1V130.7z"/>
		<path class="st10" d="M154.5,132.3c-0.9,0-1.6-0.7-1.6-1.6c0,0,0,0,0-0.1V93.9c0-0.9,0.7-1.6,1.6-1.6c0,0,0,0,0.1,0h5.2
			c0.9,0,1.6,0.7,1.6,1.6c0,0,0,0,0,0.1v30.8h15.3c0.9,0,1.6,0.7,1.6,1.6c0,0,0,0,0,0.1v4.4c0,0.9-0.7,1.6-1.6,1.6c0,0,0,0-0.1,0
			L154.5,132.3z"/>
		<path class="st12" d="M190.3,130.7c0,0.9-0.7,1.6-1.6,1.6c0,0,0,0,0,0h-5.2c-0.9,0-1.6-0.7-1.6-1.6c0,0,0,0,0-0.1V93.9
			c0-0.9,0.7-1.6,1.6-1.6c0,0,0,0,0.1,0h5.2c0.9,0,1.6,0.7,1.6,1.6c0,0,0,0,0,0.1V130.7z"/>
		<path class="st10" d="M212.6,130.7c0,0.9-0.7,1.6-1.6,1.6c0,0,0,0,0,0h-5.2c-0.9,0-1.6-0.7-1.6-1.6c0,0,0,0,0-0.1V99.8h-8.8
			c-0.9,0-1.6-0.7-1.6-1.6c0,0,0,0,0-0.1v-4.3c0-0.9,0.7-1.6,1.6-1.6c0,0,0,0,0.1,0h26c0.9,0,1.6,0.7,1.6,1.5c0,0,0,0,0,0.1v4.3
			c0,0.9-0.7,1.6-1.6,1.6c0,0,0,0-0.1,0h-8.7V130.7z"/>
		<path class="st11" d="M228.2,132.3c-0.9,0-1.6-0.7-1.6-1.6c0,0,0,0,0-0.1V93.9c0-0.9,0.7-1.6,1.6-1.6c0,0,0,0,0.1,0h23.2
			c0.9,0,1.6,0.7,1.6,1.6c0,0,0,0,0,0.1v4.3c0,0.9-0.7,1.6-1.6,1.6c0,0,0,0-0.1,0H235v8.7h11.9c0.9,0,1.6,0.7,1.6,1.6c0,0,0,0,0,0
			v4.3c0,0.9-0.7,1.6-1.6,1.6c0,0,0,0-0.1,0H235v8.7h16.4c0.9,0,1.6,0.7,1.6,1.6c0,0,0,0,0,0v4.3c0,0.9-0.7,1.6-1.6,1.6
			c0,0,0,0-0.1,0L228.2,132.3z"/>
		<path class="st10" d="M266,130.7c0,0.9-0.7,1.6-1.6,1.6c0,0,0,0-0.1,0h-5.2c-0.9,0-1.6-0.7-1.6-1.6c0,0,0,0,0-0.1V93.9
			c0-0.9,0.7-1.6,1.6-1.6c0,0,0,0,0.1,0h5.2c0.9,0,1.6,0.7,1.6,1.6c0,0,0,0,0,0.1V130.7z"/>
		<path class="st10" d="M288.4,130.7c0,0.9-0.7,1.6-1.6,1.6c0,0,0,0-0.1,0h-5.2c-0.9,0-1.6-0.7-1.6-1.6c0,0,0,0,0-0.1V99.8h-8.8
			c-0.9,0-1.6-0.7-1.6-1.6c0,0,0,0,0-0.1v-4.3c0-0.9,0.7-1.6,1.6-1.6c0,0,0,0,0.1,0h26c0.9,0,1.6,0.7,1.6,1.6c0,0,0,0,0,0.1v4.3
			c0,0.9-0.7,1.6-1.6,1.6c0,0,0,0-0.1,0h-8.7L288.4,130.7z"/>
		<path class="st13" d="M86.3,96.6c4.1,0.6,7.3,4.1,7.5,8.3c0.1,1.6,2.6,1.6,2.5,0c-0.3-5.5-4.5-10.1-10-10.8
			C84.7,93.8,84.8,96.3,86.3,96.6L86.3,96.6z"/>
		<path class="st4" d="M185.6,95.6v9.7c0,0.7,0.6,1.2,1.2,1.2s1.2-0.6,1.2-1.2v-9.7c0-0.7-0.6-1.2-1.2-1.2S185.6,94.9,185.6,95.6z"
			/>
		<path class="st13" d="M247.3,96.1c0.3-0.1,0.7-0.1,1-0.1c0.1,0,0.2,0.1,0.4,0.1l0.3,0.1c-0.3-0.2-0.3-0.6-0.2-0.9
			c-0.3,0.6-0.1,1.3,0.4,1.7c0.6,0.3,1.4,0.1,1.7-0.4c0,0,0,0,0,0c0.5-0.9,0.2-2-0.7-2.5c-0.1,0-0.1-0.1-0.2-0.1
			c-1-0.4-2.2-0.5-3.3-0.3c-0.7,0.2-1.1,0.9-0.9,1.5c0,0,0,0,0,0C246,95.9,246.7,96.2,247.3,96.1z"/>
		<path class="st14" d="M70.9,51.5h2.3c0.5,0,0.8,0.3,0.9,0.9c0.5,3.3,0.7,6.6,0.8,9.9c0,11.9-1.1,16-7.3,16c-1.2,0-4.1,0-5.6-2.8
			c-1.8,2.8-4.5,2.8-6,2.8c-6.1,0-7.4-2.8-7.4-12.2V52.4c0-0.5,0.3-0.9,0.8-0.9c0,0,0,0,0.1,0h2.3c0.5,0,0.9,0.3,0.9,0.8
			c0,0,0,0,0,0.1v14.2c0,7.7,1.7,8.2,3.5,8.2c3.3,0,3.4-3.2,3.4-6V52.4c0-0.5,0.3-0.9,0.8-0.9c0,0,0,0,0.1,0h2.3
			c0.5,0,0.9,0.3,0.9,0.8c0,0,0,0,0,0.1v13.9c0,2.8,0.1,8.5,3.5,8.5s3.5-2.4,3.5-12.5c0-3.3-0.3-6.6-0.7-9.8c0-0.5,0.3-0.8,0.8-0.9
			C70.8,51.5,70.8,51.5,70.9,51.5z"/>
		<path class="st14" d="M80,78c-0.5,0-0.9-0.3-0.9-0.8c0,0,0,0,0-0.1V52.4c0-0.5,0.3-0.9,0.8-0.9c0,0,0,0,0.1,0h15.2
			c0.5,0,0.9,0.3,0.9,0.8c0,0,0,0,0,0.1v1.7c0,0.5-0.3,0.9-0.8,0.9c0,0,0,0-0.1,0h-12v8.1H92c0.5,0,0.9,0.3,0.9,0.8c0,0,0,0,0,0.1
			v1.7c0,0.5-0.3,0.9-0.8,0.9c0,0,0,0-0.1,0h-8.8v8.1h12c0.5,0,0.9,0.3,0.9,0.8c0,0,0,0,0,0.1v1.6c0,0.5-0.3,0.9-0.8,0.9
			c0,0,0,0-0.1,0L80,78z"/>
		<path class="st14" d="M99.8,78c-0.5,0-0.9-0.3-0.9-0.8c0,0,0,0,0-0.1V52.4c0-0.5,0.3-0.9,0.8-0.9c0,0,0,0,0.1,0H115
			c0.5,0,0.9,0.3,0.9,0.8c0,0,0,0,0,0.1v1.7c0,0.5-0.3,0.9-0.8,0.9c0,0-0.1,0-0.1,0h-12v8.1h8.7c0.5,0,0.9,0.3,0.9,0.8
			c0,0,0,0,0,0.1v1.7c0,0.5-0.3,0.9-0.8,0.9c0,0,0,0-0.1,0H103v8.1h12c0.5,0,0.9,0.4,0.9,0.8c0,0,0,0,0,0.1v1.6
			c0,0.5-0.4,0.9-0.8,0.9c0,0,0,0-0.1,0H99.8z"/>
		<path class="st14" d="M133.2,74.2c-1.6-3.4-3.1-6.6-5.1-8.7c-1.6,1.2-3.4,2-5.2,2.6v9c0,0.5-0.3,0.9-0.8,0.9c0,0,0,0-0.1,0h-2.3
			c-0.5,0-0.9-0.4-0.9-0.8c0,0,0,0,0-0.1V52.4c0-0.5,0.4-0.9,0.8-0.9c0,0,0,0,0.1,0h2.3c0.5,0,0.9,0.3,0.9,0.8c0,0,0,0,0,0.1v11
			c3.4,0,9.2-6.6,10.8-11c0.2-0.6,0.5-0.9,1-0.9h2.2c0.5,0,0.9,0.3,0.9,0.8c0,0,0,0,0,0.1c-1.2,4-3.4,7.7-6.3,10.7
			c1.2,1.3,2.3,2.8,3.1,4.4l4.6,9.6c0,0.5-0.3,0.9-0.8,0.9c0,0,0,0-0.1,0h-2.5c-0.6-0.1-1-0.5-1.2-1
			C134.1,76.2,133.6,75.2,133.2,74.2z"/>
		<path class="st14" d="M168.6,52.4c0.1-0.5,0.6-0.8,1.1-0.9h2.3c0.5,0,0.9,0.3,0.9,0.8c0,0,0,0,0,0.1c-2,5.5-6.6,19-8.6,24.6
			c-0.2,0.6-0.8,1-1.4,1h-3.3c-0.6,0-1.2-0.4-1.4-1c-2-5.6-6.6-19-8.6-24.6c0-0.5,0.3-0.9,0.8-0.9c0,0,0,0,0.1,0h2.3
			c0.5,0,0.9,0.4,1.1,0.9l7.4,21.6L168.6,52.4z"/>
		<path class="st14" d="M188.7,71.6h-11l-1.9,5.5c-0.1,0.5-0.6,0.9-1.1,0.9h-2.3c-0.5,0-0.9-0.3-0.9-0.8c0,0,0,0,0-0.1
			c2-5.6,6.6-19,8.6-24.6c0.2-0.6,0.8-1,1.4-1h3.3c0.6,0,1.2,0.4,1.4,1c1.6,4.5,4.9,14.6,7.3,21c0.4,1,0.7,1.8,1.1,2
			c0.3,0.1,0.4,0.4,0.4,0.7v1.3c0,0.5-0.9,0.7-1.9,0.7c-1.8,0-2.4-0.9-3.1-2.6L188.7,71.6z M178.8,68.2h8.6l-4.3-12.6L178.8,68.2z"
			/>
		<path class="st14" d="M214,70.6V52.4c0-0.5,0.3-0.9,0.8-0.9c0,0,0,0,0.1,0h2.3c0.5,0,0.9,0.3,0.9,0.8c0,0,0,0,0,0.1v24.7
			c0,0.5-0.3,0.9-0.8,0.9c0,0,0,0-0.1,0h-2.3c-0.7,0-1.4-0.4-1.7-1l-11.5-18.6v18.8c0,0.5-0.3,0.9-0.8,0.9c0,0,0,0-0.1,0h-2.3
			c-0.5,0-0.9-0.4-0.9-0.8c0,0,0,0,0-0.1V52.4c0-0.5,0.4-0.9,0.8-0.9c0,0,0,0,0.1,0h2.7c0.7,0,1.4,0.4,1.7,1L214,70.6z"/>
		<path class="st14" d="M231.5,52.4c0-0.5,0.4-0.9,0.8-0.9c0,0,0,0,0.1,0h8.6c6,0,9.2,3.4,9.2,9.3v7.8c0,6-3.3,9.3-9.2,9.3h-8.6
			c-0.5,0-0.9-0.4-0.9-0.8c0,0,0,0,0-0.1V52.4z M246.1,61c0-4.2-2.5-6-5.3-6h-5.2v19.6h5.2c2.8,0,5.3-1.7,5.3-6V61z"/>
		<path class="st14" d="M255.1,78c-0.5,0-0.9-0.3-0.9-0.8c0,0,0,0,0-0.1V52.4c0-0.5,0.3-0.9,0.8-0.9c0,0,0,0,0.1,0h15.2
			c0.5,0,0.9,0.3,0.9,0.8c0,0,0,0,0,0.1v1.7c0,0.5-0.3,0.9-0.8,0.9c0,0,0,0-0.1,0h-12v8.1h8.7c0.5,0,0.9,0.3,0.9,0.8c0,0,0,0,0,0.1
			v1.7c0,0.5-0.3,0.9-0.8,0.9c0,0,0,0-0.1,0h-8.7v8.1h12c0.5,0,0.9,0.3,0.9,0.8c0,0,0,0,0,0.1v1.6c0,0.5-0.3,0.9-0.8,0.9
			c0,0,0,0-0.1,0L255.1,78z"/>
	</g>
	<g id="datum">
		<path class="st14" d="M35.1,145.5c0.1-0.3,0.3-0.5,0.7-0.5h1.4c0.3,0,0.5,0.2,0.5,0.5c0,0,0,0,0,0c-1.2,3.4-4,11.5-5.2,14.9
			c-0.1,0.4-0.5,0.6-0.9,0.6h-2c-0.4,0-0.7-0.3-0.9-0.6c-1.2-3.4-4-11.6-5.2-14.9c0-0.3,0.2-0.5,0.5-0.5c0,0,0,0,0.1,0h1.4
			c0.3,0,0.6,0.2,0.6,0.5l4.5,13.1L35.1,145.5z"/>
		<path class="st14" d="M47.5,157.1h-6.7l-1.2,3.3c-0.1,0.3-0.3,0.5-0.7,0.5h-1.4c-0.3,0-0.5-0.2-0.5-0.5c0,0,0,0,0,0
			c1.2-3.4,4-11.6,5.2-14.9c0.1-0.4,0.5-0.6,0.8-0.6h2c0.4,0,0.7,0.3,0.8,0.6c1,2.7,3,8.8,4.4,12.7c0.2,0.6,0.4,1.1,0.7,1.2
			c0.2,0.1,0.3,0.2,0.3,0.4v0.9c0,0.3-0.6,0.4-1.1,0.4c-1.1,0-1.5-0.5-1.9-1.6L47.5,157.1z M41.5,155h5.2l-2.6-7.6L41.5,155z"/>
		<path class="st14" d="M63,156.5v-11c0-0.3,0.2-0.5,0.5-0.5c0,0,0,0,0.1,0h1.4c0.3,0,0.5,0.2,0.5,0.5c0,0,0,0,0,0v15
			c0,0.3-0.2,0.5-0.5,0.5c0,0,0,0,0,0h-1.4c-0.4,0-0.8-0.3-1-0.6l-6.9-11.3v11.4c0,0.3-0.2,0.5-0.5,0.5c0,0-0.1,0-0.1,0h-1.4
			c-0.3,0-0.5-0.2-0.5-0.5c0,0,0,0,0,0v-15c0-0.3,0.2-0.5,0.5-0.5c0,0,0,0,0,0h1.6c0.4,0,0.8,0.2,1,0.6L63,156.5z"/>
		<path class="st14" d="M77.6,144.9H80c0.3,0,0.5,0.2,0.5,0.5c0,0,0,0,0,0v15c0,0.3-0.2,0.5-0.5,0.5c0,0,0,0,0,0h-1.4
			c-0.3,0-0.5-0.2-0.5-0.5c0,0,0,0,0,0v-13l-4.7,3.1c-0.3,0-0.5-0.2-0.5-0.5c0,0,0,0,0,0v-1.6c0-0.2,0.1-0.4,0.2-0.4L77.6,144.9z"/>
		<path class="st14" d="M89.5,146.9c-1.4,0-3.7,0.3-3.7,3.2v2c1-0.6,2.1-0.9,3.2-0.9c2.4,0,4.9,1.1,4.9,4.7c0,3.4-1.7,5.2-5.3,5.2
			s-5.3-1.8-5.3-5.2v-5.4c0-3.6,2.2-5.7,5.9-5.7c1.3-0.1,2.7,0.2,3.8,0.8c0.1,0.1,0.2,0.2,0.2,0.4c0,0.1,0,0.1,0,0.2l-0.5,1.2
			c-0.1,0.1-0.2,0.2-0.3,0.2c-0.1,0-0.2,0-0.3-0.1C91.3,147.1,90.4,146.9,89.5,146.9z M85.8,156.2c-0.2,1.4,0.8,2.6,2.1,2.8
			c0.2,0,0.4,0,0.7,0c2.6,0,2.9-1.7,2.9-2.8s0-2.8-2.9-2.8C85.9,153.4,85.8,155.1,85.8,156.2z"/>
		<path class="st14" d="M101.5,147c-0.3,0-0.5-0.2-0.5-0.5c0,0,0,0,0,0v-1c0-0.3,0.2-0.5,0.5-0.5c0,0,0,0,0.1,0h10.4
			c0.3,0,0.5,0.2,0.5,0.5c0,0,0,0,0,0v1c0,0.3-0.2,0.5-0.5,0.5c0,0,0,0,0,0h-3.9v13.4c0,0.3-0.2,0.5-0.5,0.5c0,0,0,0,0,0H106
			c-0.3,0-0.5-0.2-0.5-0.5c0,0,0,0,0-0.1V147H101.5z"/>
		<path class="st14" d="M113.3,153.1c0-6.7,3.2-8.3,6.9-8.3s6.9,1.6,6.9,8.3c0,6.3-3.1,8.1-6.9,8.1S113.3,159.4,113.3,153.1z
			 M124.7,153.1c0-5.8-2.6-6.1-4.4-6.1s-4.4,0.4-4.4,6.1c0,5.4,2.5,5.9,4.4,5.9S124.7,158.4,124.7,153.1z"/>
		<path class="st14" d="M128.7,147c-0.3,0-0.5-0.2-0.5-0.5c0,0,0,0,0,0v-1c0-0.3,0.2-0.5,0.5-0.5c0,0,0,0,0,0H139
			c0.3,0,0.5,0.2,0.5,0.5c0,0,0,0,0,0v1c0,0.3-0.2,0.5-0.5,0.5c0,0,0,0,0,0h-3.9v13.4c0,0.3-0.2,0.5-0.5,0.5c0,0,0,0,0,0h-1.4
			c-0.3,0-0.5-0.2-0.5-0.5c0,0,0,0,0,0V147H128.7z"/>
		<path class="st14" d="M151.4,144.8c5,0,5.8,1.8,5.8,4c0,4.7-8.2,4.9-8.2,9.3v0.8h7.3c0.3,0,0.5,0.2,0.5,0.5c0,0,0,0,0,0v1
			c0,0.3-0.2,0.5-0.5,0.5c0,0,0,0,0,0h-9.1c-0.3,0-0.5-0.2-0.5-0.5c0,0,0,0,0,0V158c0-5.9,8.1-6.1,8.1-9.2c0-1.8-1-1.9-3.7-1.9
			c-0.4,0-1.8,0.2-3.1,0.3c-0.3,0-0.4-0.1-0.5-0.4l-0.1-0.9c0-0.4,0.1-0.5,0.3-0.7C148.9,145,150.1,144.8,151.4,144.8z"/>
		<path class="st14" d="M163.8,144.8c5,0,5.8,1.8,5.8,4c0,4.7-8.2,4.9-8.2,9.3v0.8h7.3c0.3,0,0.5,0.2,0.5,0.5c0,0,0,0,0,0v1
			c0,0.3-0.2,0.5-0.5,0.5c0,0,0,0-0.1,0h-9.1c-0.3,0-0.5-0.2-0.5-0.5c0,0,0,0,0,0V158c0-5.9,8.1-6.1,8.1-9.2c0-1.8-1-1.9-3.7-1.9
			c-0.4,0-1.8,0.2-3.1,0.3c-0.2,0-0.5-0.1-0.5-0.4c0,0,0,0,0,0l-0.1-0.9c0-0.4,0.1-0.5,0.3-0.7C161.3,145,162.5,144.8,163.8,144.8z"
			/>
		<path class="st14" d="M183.5,146.9c-2.6,0-3.9,0.1-3.9,1.9c0,3.7,9.4,1.4,9.4,7.8c0,3.1-2.4,4.5-6.8,4.5c-1.5,0-3-0.4-4.4-0.9
			c-0.1-0.1-0.2-0.2-0.2-0.4c0-0.1,0-0.1,0-0.2l0.5-1.2c0.1-0.1,0.2-0.2,0.3-0.2c0.1,0,0.1,0,0.2,0.1c1.3,0.5,2.6,0.7,3.9,0.8
			c0.9,0,3.9-0.2,3.9-2.5c0-3.9-9.4-1.6-9.4-7.4c0-2.5,1.1-4.2,6.2-4.2c1.3,0.1,2.6,0.2,3.9,0.5c0.2,0.1,0.3,0.3,0.3,0.5
			c0,0-0.1,0.9-0.1,1.2c0,0.2-0.2,0.3-0.4,0.3c0,0,0,0,0,0C185.4,147.1,183.9,146.9,183.5,146.9z"/>
		<path class="st14" d="M191.5,161c-0.3,0-0.5-0.2-0.5-0.5c0,0,0,0,0,0v-15c0-0.3,0.2-0.5,0.5-0.5c0,0,0,0,0,0h9.2
			c0.3,0,0.5,0.2,0.5,0.5c0,0,0,0,0,0.1v1c0,0.3-0.2,0.5-0.5,0.5c0,0,0,0,0,0h-7.2v5h5.3c0.3,0,0.5,0.2,0.5,0.5c0,0,0,0,0,0.1v1
			c0,0.3-0.2,0.5-0.5,0.5c0,0,0,0,0,0h-5.3v4.9h7.2c0.3,0,0.5,0.2,0.5,0.5c0,0,0,0,0,0v1c0,0.3-0.2,0.5-0.5,0.5c0,0,0,0,0,0
			L191.5,161z"/>
		<path class="st14" d="M205.6,160.5c0,0.3-0.2,0.5-0.5,0.5c0,0,0,0,0,0h-1.4c-0.3,0-0.5-0.2-0.5-0.5c0,0,0,0,0,0v-15
			c0-0.3,0.2-0.5,0.5-0.5c0,0,0,0,0,0h4.9c3.7,0,5.6,1.6,5.6,5.2s-1.9,5.1-5.6,5.1h-2.9V160.5z M211.7,150.1c0.2-1.5-1-2.9-2.5-3.1
			c-0.1,0-0.3,0-0.4,0h-3.1v6.1h3.1c1.5,0.1,2.8-1,3-2.5C211.7,150.5,211.7,150.3,211.7,150.1z"/>
		<path class="st14" d="M215.8,147c-0.3,0-0.5-0.2-0.5-0.5c0,0,0,0,0,0v-1c0-0.3,0.2-0.5,0.5-0.5c0,0,0,0,0,0h10.4
			c0.3,0,0.5,0.2,0.5,0.5c0,0,0,0,0,0.1v1c0,0.3-0.2,0.5-0.5,0.5c0,0,0,0,0,0h-3.9v13.4c0,0.3-0.2,0.5-0.5,0.5c0,0,0,0,0,0h-1.4
			c-0.3,0-0.5-0.2-0.5-0.5c0,0,0,0,0,0V147H215.8z"/>
		<path class="st14" d="M229.1,161c-0.3,0-0.5-0.2-0.5-0.5c0,0,0,0,0,0v-15c0-0.3,0.2-0.5,0.5-0.5c0,0,0,0,0,0h9.2
			c0.3,0,0.5,0.2,0.5,0.5c0,0,0,0,0,0.1v1c0,0.3-0.2,0.5-0.5,0.5c0,0,0,0-0.1,0H231v5h5.3c0.3,0,0.5,0.2,0.5,0.5c0,0,0,0,0,0v1
			c0,0.3-0.2,0.5-0.5,0.5c0,0,0,0,0,0H231v4.9h7.2c0.3,0,0.5,0.2,0.5,0.5c0,0,0,0,0,0.1v1c0,0.3-0.2,0.5-0.5,0.5c0,0,0,0-0.1,0
			L229.1,161z"/>
		<path class="st14" d="M248.1,158.1c-0.3,0-0.5-0.2-0.6-0.5l-3.7-8.9l-0.8,11.8c-0.1,0.3-0.3,0.5-0.6,0.5h-1.3
			c-0.3,0-0.5-0.2-0.5-0.5c0,0,0,0,0-0.1l1-15c0-0.3,0.2-0.5,0.5-0.5c0,0,0,0,0.1,0h2.6c0.2,0,0.3,0.2,0.4,0.4l3.6,8.6l3.6-8.6
			c0.1-0.3,0.3-0.4,0.5-0.4h2.6c0.3,0,0.5,0.2,0.5,0.5c0,0,0,0,0,0l1,15c0,0.3-0.2,0.5-0.5,0.5c0,0,0,0,0,0H255
			c-0.3,0-0.6-0.2-0.6-0.5l-0.8-11.8l-3.6,8.9c-0.1,0.3-0.4,0.4-0.6,0.5H248.1z"/>
		<path class="st14" d="M264.3,144.9c3.3,0,5.6,1,5.6,4.6c0.1,1.3-0.5,2.6-1.5,3.4c2.1,0.6,2.4,1.9,2.4,3.5c0,3.6-2,4.6-5.6,4.6H260
			c-0.3,0-0.5-0.2-0.5-0.5c0,0,0,0,0,0v-15c0-0.3,0.2-0.5,0.5-0.5c0,0,0,0,0,0H264.3z M261.9,147v5h2.3c1.7,0,3.2-0.4,3.2-2.4
			s-1.5-2.5-3.2-2.5L261.9,147z M268.2,156.4c0-2.1-1.5-2.4-3.2-2.4h-3.1v4.9h3.1C266.7,158.9,268.2,158.5,268.2,156.4L268.2,156.4z
			"/>
		<path class="st14" d="M273.5,161c-0.3,0-0.5-0.2-0.5-0.5c0,0,0,0,0,0v-15c0-0.3,0.2-0.5,0.5-0.5c0,0,0,0,0,0h9.2
			c0.3,0,0.5,0.2,0.5,0.5c0,0,0,0,0,0.1v1c0,0.3-0.2,0.5-0.5,0.5c0,0,0,0,0,0h-7.2v5h5.3c0.3,0,0.5,0.2,0.5,0.5c0,0,0,0,0,0.1v1
			c0,0.3-0.2,0.5-0.5,0.5c0,0,0,0,0,0h-5.3v4.9h7.2c0.3,0,0.5,0.2,0.5,0.5c0,0,0,0,0,0v1c0,0.3-0.2,0.5-0.5,0.5c0,0,0,0,0,0
			L273.5,161z"/>
		<path class="st14" d="M296.4,159.9v0.9c0,0.3-0.6,0.4-1.2,0.4c-0.8,0-1.5-0.5-1.8-1.2l-1.8-4.7c-0.3,0-0.5,0-0.8,0h-3.2v5.2
			c0,0.3-0.2,0.5-0.5,0.5c0,0,0,0,0,0h-1.4c-0.3,0-0.5-0.2-0.5-0.5c0,0,0,0,0,0v-15c0-0.3,0.2-0.5,0.5-0.5c0,0,0,0,0,0h5.1
			c3.7,0,5.6,1.6,5.6,5.2c0,2.3-0.8,3.8-2.4,4.5l1.3,3.4c0.3,0.9,0.5,1.1,0.8,1.3C296.3,159.5,296.4,159.7,296.4,159.9z M291,153.2
			c1.5,0.1,2.8-1,2.9-2.5c0-0.2,0-0.3,0-0.5c0.2-1.5-1-2.9-2.5-3.1c-0.1,0-0.3,0-0.4,0h-3.4v6.1L291,153.2z"/>
		<path class="st15" d="M77.6,145h2.7c0.4,0,0.6,0.3,0.7,0.6c0,0,0,0,0,0v14.8c0,0.4-0.3,0.6-0.6,0.6c0,0,0,0,0,0h-2.1
			c-0.4,0-0.6-0.3-0.7-0.6c0,0,0,0,0,0v-11.8l-4.2,2.7c-0.4,0-0.6-0.3-0.7-0.6c0,0,0,0,0,0v-2.2c0-0.2,0.1-0.4,0.2-0.5L77.6,145z"/>
		<path class="st15" d="M83.5,150.8c0-3.7,2.3-5.9,6.1-5.9c1.4-0.1,2.8,0.3,3.9,1.1c0.2,0.2,0.4,0.4,0.4,0.7c-0.2,0.5-0.4,1-0.7,1.4
			c-0.1,0.2-0.3,0.4-0.6,0.4c-0.1,0-0.3,0-0.4-0.1c-0.8-0.4-1.6-0.6-2.5-0.5c-1.2,0-2.8,0.3-3,2.5v1.3c0.8-0.5,1.8-0.8,2.7-0.7
			c2.6,0,4.9,1.1,4.9,4.8c0,3.5-1.7,5.4-5.5,5.4s-5.5-1.9-5.5-5.4L83.5,150.8z M86.9,156c-0.1,1.1,0.6,2,1.7,2.1c0.1,0,0.3,0,0.4,0
			c1,0.1,2-0.6,2.1-1.6c0-0.2,0-0.4,0-0.6c0-0.8,0-2.1-2.1-2.1S86.9,155.2,86.9,156L86.9,156z"/>
		<path class="st15" d="M151,144.9c5.1,0,5.9,2.1,5.9,4.8c0,4.8-7.7,4.4-7.7,8v0.4h6.8c0.4,0,0.6,0.3,0.6,0.6c0,0,0,0,0,0v1.8
			c0,0.4-0.3,0.6-0.6,0.6c0,0,0,0,0,0h-9.3c-0.4,0-0.6-0.3-0.6-0.6c0,0,0,0,0,0v-2.7c0-6.8,7.5-5.3,7.5-8.6c0-1.1-0.6-1.2-2.7-1.2
			c-0.4,0-2,0.2-3.1,0.3c-0.4,0-0.8-0.1-0.8-0.6c-0.1-1-0.1-1.4-0.1-1.6s0.4-0.6,0.7-0.6C148.7,145.1,149.8,144.9,151,144.9z"/>
		<path class="st15" d="M163.5,144.9c5.1,0,5.9,2.1,5.9,4.8c0,4.8-7.7,4.4-7.7,8v0.4h6.8c0.4,0,0.6,0.3,0.6,0.6c0,0,0,0,0,0v1.8
			c0,0.4-0.3,0.6-0.6,0.6c0,0,0,0,0,0h-9.3c-0.4,0-0.6-0.3-0.6-0.6c0,0,0,0,0,0v-2.7c0-6.8,7.5-5.3,7.5-8.6c0-1.1-0.7-1.2-2.7-1.2
			c-0.4,0-2,0.2-3.1,0.3c-0.4,0-0.8-0.1-0.8-0.6c-0.1-1-0.1-1.4-0.1-1.6s0.4-0.6,0.7-0.6C161.1,145.1,162.3,144.9,163.5,144.9z"/>
	</g>
</g>
<g id="skateboard-2">
	<path id="bord" class="st16" d="M33,308.8h85.1c3.1,0,5.6-2.5,5.6-5.6v-3.5c0-3.1-2.5-5.6-5.6-5.6l0,0H33V308.8z"/>
	<circle id="wiel" class="st17" cx="107.5" cy="310.3" r="5.4"/>
	<circle id="wiel-2" class="st17" cx="47.6" cy="310.6" r="5.4"/>
	<g id="schaduw">
		<path class="st13" d="M108.2,300.2c2.4-0.1,5.8-1.2,6.6,1.9c0.3,0.8,1.2,1.2,1.9,0.9c0.7-0.3,1.1-1,1-1.7
			c-0.5-2.1-2.1-3.7-4.2-4.2c-1.8-0.4-3.4,0-5.2,0.1C106.3,297.3,106.3,300.3,108.2,300.2z"/>
	</g>
</g>
</svg>
