<svg id="Layer_1" xmlns="http://www.w3.org/2000/svg" viewBox="0 0 1440 368"><style>.st5{stroke:#825a60;stroke-width:6;stroke-linejoin:round;fill:#fbcc25;stroke-linecap:round}.st8{fill:#fff}.st9{font-family:&apos;BrandonGrotesque-Black&apos;}.st10{font-size:40px}.st12{fill:#f8efd0;stroke:#825a60;stroke-width:6;stroke-linecap:round;stroke-linejoin:round}</style><path fill="#f8efd0" d="M.2 0h1439.5v368.3H.2z"/><g id="Layer_11"><path d="M-.2 328.8h1440.4M.2 346.5h1439.6M-.2 311.8h1440.4" fill="none" stroke="#825a60" stroke-width="6" stroke-linejoin="round"/><path fill="none" stroke="#825a60" stroke-width="13" stroke-linejoin="round" d="M.2 368.3h1439.6"/><path d="M281.5 356.5c-1.3 0-2.5-.2-3.6-.7l-24-10c-4.9-2-7.2-7.5-5.3-12.4 2-4.9 7.5-7.2 12.4-5.3.1 0 .1.1.2.1l22.2 9.2 69.3-.9 10.3-6.7L349.6 219H331c-5.2 0-9.5-2.2-9.5-7.5s4.2-7.5 9.5-7.5h27c4.8 0 8.8 3.6 9.4 8.4l15 121c.4 3.6-1.2 7.1-4.2 9.1L360.7 354c-1.5 1-3.3 1.5-5.1 1.6l-74 1h-.1v-.1z" fill="#2bcdc9" stroke="#825a60" stroke-width="6" stroke-linecap="round" stroke-linejoin="round"/><path d="M345.1 213.2c5.2.3 12.1-1.4 13.3 5.5.5 2.8 4.9 1.6 4.3-1.2-.6-4-3.5-7.3-7.5-8.3-3.4-.9-6.8-.4-10.2-.5-2.8-.2-2.7 4.3.1 4.5z" fill="#7feadf"/><circle class="st5" cx="375.5" cy="352" r="13"/><circle class="st5" cx="261.5" cy="352" r="13"/><path class="st5" d="M313.1 201.1h20.4V223h-20.4c-4.7 0-8.6-4.9-8.6-10.9s3.9-11 8.6-11zm771.4 31.9h18v95h-18z"/><path fill="#f57d90" stroke="#825a60" stroke-width="6" stroke-linecap="round" stroke-linejoin="round" d="M1131.2 97.7h-77.4l-38.7 67 38.7 67h77.4l38.6-67z"/><path fill="none" stroke="#fff" stroke-width="7" stroke-miterlimit="10" d="M1119.5 117.9h-54l-27 46.8 27 46.7h54l27-46.7z"/><text transform="translate(1056.61 177.08)" class="st8 st9 st10">4</text><text transform="translate(1079.79 177.08)" class="st8 st9 st10">0</text><text transform="translate(1104.35 177.08)" class="st8 st9 st10">4</text><path d="M1134.5 127.5c4.7 7.5 9.1 15.2 13.3 23 1.8 3.4 7 .4 5.2-3-4.2-7.8-8.6-15.5-13.3-23-2-3.3-7.3-.2-5.2 3z" fill="#f5b3bd"/></g><g id="wiel"><circle class="st12" cx="1054.5" cy="306" r="33"/><path class="st12" d="M1033.7 293.1c2.9 4.6 9.5 7.4 12.6 7.9m-11.9 16.2c2.1 2.9 7.2 5.8 10.2 5.7"/><path d="M1072.4 311.9c-1.4 2.5-2.8 5.3-5.1 7.1-2.9 2.2-6.8 3.1-10.2 4-5.6 1.4-3.2 10.1 2.4 8.7 4.8-1.2 9.7-2.7 13.6-5.9 3.1-2.5 5.2-5.9 7-9.4 2.8-5-5-9.5-7.7-4.5z" fill="#d4ccae"/><path class="st12" d="M1060.5 315c-4-3-9-3-11-3m10.6-27.1c-4.3-1.2-10-2.4-14.2-.8m25 18.5c-2-2.5-8.4-5.4-12-5.3"/></g></svg>