<svg xmlns="http://www.w3.org/2000/svg" viewBox="0 0 224 163"><defs><style>.cls-1{fill:#fbcc25;}.cls-1,.cls-2{stroke:#825a60;stroke-linecap:round;stroke-linejoin:round;stroke-width:4.31px;}.cls-2{fill:#f57d90;}.cls-3{fill:#f5b3bd;}</style></defs><title>illustrations</title><g id="helm"><path class="cls-1" d="M176.31,90.28C173.37,85.57,160.37,73.61,156,70.4c1.49-17.13-.87-39-8.28-46.14l-6.52,8.62c4.46,6.14,3.6,22.49,4.2,32.51a113.65,113.65,0,0,0-40-10.42l3.34,10.17c16.12,2.21,48.91,15.55,58.52,31,2.46,3.94,3.32,8.59,4.77,12.77l10.46-6.42A73.76,73.76,0,0,0,176.31,90.28Z"/><path class="cls-2" d="M182.94,91.91h0a15.23,15.23,0,0,1,15.23,15.23v22a0,0,0,0,1,0,0H167.71a0,0,0,0,1,0,0v-22A15.23,15.23,0,0,1,182.94,91.91Z" transform="translate(-30.77 107.85) rotate(-30.42)"/><path class="cls-3" d="M179.07,103.25a6.42,6.42,0,0,1,7.05,3.79c1.67,3.51,6.88.45,5.22-3.05a12.45,12.45,0,0,0-13.87-6.56c-3.8.8-2.19,6.62,1.6,5.82Z"/><path class="cls-1" d="M161.36,122.1l-10.68-5.74,5.14,37.09,8.65-8.89,24-3-3.16-22.78Zm7.87,14.67-1.11-8,10-1.16,1.11,8Z"/><path class="cls-2" d="M132.19,121.24l4.51,32.55c.57,4.09,4,7,7.71,6.48L153.5,159l4.94-3.87L152.74,114l-5.81-2.38-9.08,1.26C134.16,113.41,131.62,117.14,132.19,121.24Z"/><line class="cls-2" x1="141.16" y1="121.5" x2="145.07" y2="149.74"/><path class="cls-1" d="M144.29,143.85l-1.83-13.17c-15.75-4.07-38.73-8.48-46.49-24.9A59.92,59.92,0,0,1,91.58,93L80.45,98.12a73.71,73.71,0,0,0,4.66,12.79c4.3,9.11,11.79,15.68,20.58,20.54-5.84,3.62-11.77,8-27.32,10.25l-4.22,11.75c12.6.5,29.11-5.82,43.23-16.68h0A165.91,165.91,0,0,0,144.29,143.85Z"/><path class="cls-2" d="M40.79,26.27A20.73,20.73,0,0,1,44.52,29c5.15,4.78,7.06,11.1,4.26,14.12s-9.24,1.6-14.4-3.18a21.25,21.25,0,0,1-2.25-2.44c-.91,1.4-1.78,2.85-2.63,4.34-1.38,2.43-2.61,4.86-3.71,7.3a22.76,22.76,0,0,1,3,.65c6.74,2,11.27,6.79,10.11,10.74s-7.56,5.55-14.31,3.57A20.37,20.37,0,0,1,21,62.72c-9.46,37.47,11.64,73.63,49.12,94.9,5.41,3.08,12.55-39.22,32.45-74.28s52.55-62.86,47.13-65.94C111.18-4.47,68-3.4,40.79,26.27Z"/><path class="cls-3" d="M108,18.45a29.38,29.38,0,0,1,26.2,6.76c2.89,2.58,7.18-1.68,4.27-4.28a35.76,35.76,0,0,0-32.07-8.31c-3.79.86-2.19,6.68,1.6,5.83Z"/></g></svg>