<svg xmlns="http://www.w3.org/2000/svg" viewBox="0 0 66.91 23.03"><defs><style>.cls-1{fill:#fff;}</style></defs><title>illustrations</title><g id="input_icons" data-name="input icons"><path class="cls-1" d="M55.44,0a11.5,11.5,0,1,0,11.5,11.5A11.5,11.5,0,0,0,55.44,0Zm0,21a9.46,9.46,0,1,1,9.45-9.46A9.46,9.46,0,0,1,55.44,21Z"/><path class="cls-1" d="M56.46,11.06V5.37a1,1,0,0,0-2.05,0v5.88a1.69,1.69,0,0,0,.52,1.17l3.51,3.28a1,1,0,1,0,1.4-1.5Z"/><path class="cls-1" d="M20.83,20.71A2.3,2.3,0,0,0,23.12,23H39.17a2.3,2.3,0,0,0,2.3-2.29V8.39H20.83Zm11.93-.92a.91.91,0,0,1-.91.91h-1.4a.9.9,0,0,1-.9-.91v-.71a.9.9,0,0,1,.9-.9h1.4a.9.9,0,0,1,.91.9h0Zm0-3.95a.91.91,0,0,1-.91.91h-1.4a.9.9,0,0,1-.9-.91v-.7a.9.9,0,0,1,.9-.91h1.4a.91.91,0,0,1,.91.91h0Zm2.12-4.65a.92.92,0,0,1,.91-.91h1.39a.91.91,0,0,1,.91.91h0v.71a.91.91,0,0,1-.91.91H35.79a.91.91,0,0,1-.91-.91Zm0,4a.91.91,0,0,1,.91-.91h1.39a.91.91,0,0,1,.91.91h0v.7a.91.91,0,0,1-.91.91H35.79a.91.91,0,0,1-.91-.91Zm-5.33-4a.91.91,0,0,1,.91-.91h1.39a.91.91,0,0,1,.91.91v.71a.91.91,0,0,1-.91.91h-1.4a.91.91,0,0,1-.91-.91Zm-5.33,0a.91.91,0,0,1,.9-.91h1.4a.91.91,0,0,1,.91.91h0v.71a.91.91,0,0,1-.91.91h-1.4a.91.91,0,0,1-.91-.91Zm0,4a.9.9,0,0,1,.9-.91h1.4a.91.91,0,0,1,.91.91h0v.7a.91.91,0,0,1-.91.91h-1.4a.91.91,0,0,1-.91-.91Zm0,3.94a.9.9,0,0,1,.9-.9h1.4a.9.9,0,0,1,.91.9h0v.71a.91.91,0,0,1-.91.91h-1.4a.91.91,0,0,1-.91-.91Z"/><path class="cls-1" d="M39.17,2.9H37.63V1.15a1.15,1.15,0,1,0-2.29,0h0V2.9h-3V1.15a1.15,1.15,0,1,0-2.3,0h0V2.9H27V1.15a1.15,1.15,0,1,0-2.29,0V2.9H23.12a2.3,2.3,0,0,0-2.29,2.3V6.69H41.47V5.2A2.3,2.3,0,0,0,39.17,2.9Z"/><path class="cls-1" d="M8.63.05a8.49,8.49,0,0,0-8.5,8.5h0C.13,13.78,7.6,22.4,7.6,22.4a1.32,1.32,0,0,0,1.86.2l.2-.2s7.47-8.62,7.47-13.85A8.5,8.5,0,0,0,8.63.05Zm0,12.09a3.59,3.59,0,1,1,3.59-3.59A3.59,3.59,0,0,1,8.63,12.14Z"/></g></svg>