<svg xmlns="http://www.w3.org/2000/svg" viewBox="0 0 1779 368"><defs><style>.cls-1,.cls-6{fill:none;}.cls-1,.cls-11,.cls-2,.cls-3,.cls-5{stroke:#825a60;stroke-linecap:round;stroke-linejoin:round;stroke-width:6px;}.cls-2{fill:#f57d90;}.cls-3{fill:#2bcdc9;}.cls-4{fill:#7feadf;}.cls-5{fill:#fbcc25;}.cls-6{stroke:#fff;stroke-miterlimit:10;stroke-width:7px;}.cls-7{font-size:40px;fill:#fff;font-family:BrandonGrotesque-Black, Brandon Grotesque;}.cls-8{letter-spacing:-0.02em;}.cls-9{letter-spacing:-0.01em;}.cls-10{fill:#f5b3bd;}.cls-11{fill:#f8efd0;}.cls-12{fill:#d4ccae;}</style></defs><title>illustrations</title><g id="Layer_11" data-name="Layer 11"><line class="cls-1" x1="0.27" y1="306.79" x2="1778.27" y2="306.79"/><line class="cls-2" x1="0.77" y1="324.55" x2="1777.77" y2="324.55"/><line class="cls-1" x1="0.27" y1="289.79" x2="1778.27" y2="289.79"/><line class="cls-2" x1="0.77" y1="342.32" x2="1777.77" y2="342.32"/><path class="cls-3" d="M128,334.5a9.51,9.51,0,0,1-3.65-.73l-24-10a9.5,9.5,0,1,1,7.3-17.54l22.19,9.24,69.26-.93,10.26-6.74L196.09,197H177.5c-5.25,0-9.5-2.25-9.5-7.5s4.25-7.5,9.5-7.5h27a9.5,9.5,0,0,1,9.43,8.35l15,121a9.51,9.51,0,0,1-4.21,9.09l-17.5,11.5a9.61,9.61,0,0,1-5.09,1.56l-74,1Z"/><path class="cls-4" d="M191.65,191.16c5.24.26,12.09-1.36,13.33,5.52.52,2.84,4.85,1.64,4.34-1.2a10,10,0,0,0-7.5-8.28c-3.36-.9-6.76-.37-10.17-.54-2.9-.14-2.89,4.36,0,4.5Z"/><circle class="cls-5" cx="222" cy="330" r="13"/><circle class="cls-5" cx="108" cy="330" r="13"/><path class="cls-5" d="M159.61,179.12H180V201H159.61c-4.74,0-8.61-4.92-8.61-10.94h0C151,184.05,154.87,179.12,159.61,179.12Z"/><rect class="cls-5" x="1459" y="211" width="18" height="95"/><polygon class="cls-2" points="1505.66 75.68 1428.3 75.68 1389.62 142.68 1428.3 209.68 1505.66 209.68 1544.35 142.68 1505.66 75.68"/><polygon class="cls-6" points="1493.97 95.93 1439.99 95.93 1413 142.68 1439.99 189.43 1493.97 189.43 1520.96 142.68 1493.97 95.93"/><text class="cls-7" transform="translate(1431.11 155.08)"><tspan class="cls-8">4</tspan><tspan class="cls-9" x="23.18" y="0">0</tspan><tspan x="47.74" y="0">4</tspan></text><path class="cls-10" d="M1509,105.53q7,11.32,13.27,23c1.83,3.4,7,.37,5.18-3q-6.3-11.7-13.27-23c-2-3.28-7.22-.27-5.18,3Z"/></g><g id="wiel"><circle class="cls-11" cx="607" cy="284" r="33"/><path class="cls-11" d="M586.19,271.07c2.87,4.56,9.49,7.42,12.62,7.86"/><path class="cls-11" d="M586.91,295.16c2.09,2.94,7.19,5.77,10.18,5.68"/><path class="cls-12" d="M624.87,289.94c-1.38,2.55-2.76,5.33-5.11,7.14-2.88,2.22-6.76,3.09-10.2,4-5.61,1.42-3.23,10.1,2.4,8.68,4.8-1.21,9.72-2.7,13.64-5.86,3.11-2.51,5.17-5.9,7-9.37,2.76-5.1-5-9.65-7.77-4.55Z"/><path class="cls-11" d="M613,293c-4-3-9-3-11-3"/><path class="cls-11" d="M612.59,262.92c-4.29-1.24-10-2.43-14.18-.84"/><path class="cls-11" d="M623.41,280.63c-2-2.46-8.43-5.39-12-5.32"/></g></svg>