<svg xmlns="http://www.w3.org/2000/svg" viewBox="0 0 253.65 191.4"><defs><style>.cls-1{fill:#2bcdc9;stroke-linejoin:round;}.cls-1,.cls-2,.cls-4{stroke:#825a60;}.cls-1,.cls-3,.cls-4{stroke-linecap:round;}.cls-1,.cls-2,.cls-3,.cls-4{stroke-width:7.21px;}.cls-2{fill:#fff;}.cls-2,.cls-3,.cls-4{stroke-miterlimit:10;}.cls-3,.cls-4{fill:none;}.cls-3{stroke:#7feadf;}</style></defs><title>illustrations</title><g id="schoen"><path class="cls-1" d="M231.83,129.35c0-48.93-62.58-102.41-137.68-75.1V32.63H19.05v96.72"/><path class="cls-2" d="M19.2,128.21H234.31c2.58,0,4.86,2.25,5.6,5.52l3.32,14.67c1.12,5-1.68,10-5.6,10H19.2c-3.22,0-5.84-3.47-5.84-7.75V136C13.36,131.68,16,128.21,19.2,128.21Z"/><path class="cls-3" d="M159,65.47c12.54,1.66,23.83,8.93,32.5,18.14s11.55,14.11,17.53,25.26"/><path class="cls-4" d="M221.86,85.14c-13.92-4.72-25.3-.17-31,6.66"/><path class="cls-4" d="M194.65,58.08c-12.88-.41-23.13,7.55-26.54,13.24"/><path class="cls-4" d="M156.88,44.69c-5.61,2.38-13.8,9.56-14.94,18.66"/></g></svg>