<svg id="Layer_1" xmlns="http://www.w3.org/2000/svg" viewBox="0 0 254.1 163.4"><style>.st0{fill:#f57d90}.st0,.st1,.st2{stroke:#825a60;stroke-width:4.31;stroke-linecap:round;stroke-linejoin:round}.st1{fill:#fff}.st2{fill:none}</style><g id="fiets"><g id="fiets-2"><g id="wiel"><path class="st0" d="M52 65.4C26.3 65.4 5.4 86.3 5.5 112s20.9 46.6 46.6 46.5c25.7 0 46.5-20.8 46.5-46.5S77.8 65.4 52.1 65.4H52z"/><circle class="st1" cx="52" cy="111.9" r="29.3"/><path class="st2" d="M52 83.2v57.5m-24.9-14.4l49.8-28.7m0 28.7L27.1 97.6"/></g><g id="wiel-2"><path class="st0" d="M201.6 65.4c-25.7 0-46.6 20.9-46.6 46.6 0 25.7 20.9 46.6 46.6 46.6 25.7 0 46.6-20.8 46.6-46.5 0-25.8-20.9-46.7-46.6-46.7z"/><circle class="st1" cx="201.6" cy="111.9" r="29.3"/><path class="st2" d="M201.6 83.2v57.5m-24.9-14.4l49.8-28.7m0 28.7l-49.8-28.7"/></g><path class="st2" d="M85.4 64.8H31.3c-9.2 0-18.4-2.3-24.1-5.8M52 111.9l56.4-3.4-4.1-64.4m.3 0l71.7 1.1-67.9 63.3"/><path d="M89.1 30.9h27.5c4.4 0 8 3.6 8 8v2.4c0 4.4-3.6 8-8 8H89.1V30.9z" fill="#fbcc25" stroke="#825a60" stroke-width="4.31" stroke-linecap="round" stroke-linejoin="round"/><path class="st2" d="M201.6 112l-25.3-66.7 10.4-23V2.7H205c8.1 0 10.4 4.6 10.4 9.2"/><circle class="st2" cx="108.4" cy="108.5" r="16.1"/><path class="st2" d="M108.4 108.5l9 25.9h10.4m-19.4-25.9l-9-25.9H89"/></g><path d="M68.4 79.7c7.2 2.6 11.5 9.4 15.4 15.6 1.9 3.1 6.8.2 4.9-2.8-4.8-7.6-10-15-18.7-18.2-3.5-1.2-5 4.2-1.6 5.4zm149.7 0c7.2 2.6 11.5 9.4 15.4 15.6 1.9 3.1 6.8.2 4.9-2.8-4.8-7.6-10-15-18.7-18.2-3.5-1.2-5 4.2-1.6 5.4z" fill="#f5b3bd"/></g></svg>