<svg xmlns="http://www.w3.org/2000/svg" viewBox="0 0 424.78 163"><defs><style>.cls-1{fill:#f57d90;}.cls-1,.cls-2,.cls-4{stroke:#825a60;stroke-linecap:round;stroke-linejoin:round;stroke-width:4.31px;}.cls-2{fill:#fff;}.cls-3{fill:#f5b3bd;}.cls-4{fill:#fbcc25;}</style></defs><title>illustrations</title><g id="gitaar"><g id="guitar"><g id="guitar-2" data-name="guitar"><path class="cls-1" d="M3.73,158.57q-.39-5.79-.39-11.71C3.34,69.33,53.62,6.48,115.64,6.48c19.28,0,37.43,6.08,53.28,16.78,28,18.93,61.46,38.83,95.17,35.8,1.88-.17,3.79-.26,5.71-.26,43.42,0,78.61,33.79,78.61,88.06a117.89,117.89,0,0,1-.6,12.06l73.23.73"/><path class="cls-1" d="M421,159.65l-73.23-.73a117.89,117.89,0,0,0,.6-12.06c0-54.27-35.19-88.06-78.61-88.06-1.92,0-3.83.09-5.71.26-33.71,3-67.13-16.87-95.17-35.8-15.85-10.7-34-16.78-53.28-16.78-62,0-112.3,62.85-112.3,140.38q0,5.91.39,11.71"/><path class="cls-2" d="M172.3,160.4a49,49,0,0,1,98,0"/><path class="cls-3" d="M316.12,91.85c-11.64-12.33-25.57-21-43-20.74-3.62,0-3.63,5.68,0,5.63,15.95-.23,28.34,7.82,39,19.09,2.5,2.64,6.47-1.34,4-4Z"/></g><line class="cls-1" x1="64.43" y1="124.23" x2="421.52" y2="124.23"/><line class="cls-1" x1="64.43" y1="141.45" x2="421.04" y2="141.45"/><circle class="cls-4" cx="64.43" cy="123.74" r="5.82"/><circle class="cls-4" cx="64.43" cy="141.2" r="5.82"/></g></g></svg>