<svg xmlns="http://www.w3.org/2000/svg" viewBox="0 0 1440 205.3"><style>.st1{fill:none}.st1,.st2,.st3{stroke:#825a60;stroke-width:6;stroke-linecap:round;stroke-linejoin:round;stroke-miterlimit:10}.st2{fill:#f57d90}.st3{fill:#f8efd0}.st4{fill:#f5b3bd}</style><g id="agenda_illustratie"><path fill="#f8efd0" d="M0-.5h1440v201H0z"/><path class="st1" d="M-157.7 167.3h1778"/><path class="st2" d="M-157.2 185.1h1777m-1777 17.8h1777"/></g><g id="fiets_3_"><g id="fiets_4_"><g id="wiel_12_"><path class="st2" d="M491.4 105.3a47.6 47.6 0 1 0 0 95.2 47.6 47.6 0 0 0 0-95.2z"/><circle class="st3" cx="491.4" cy="152.9" r="30"/><path class="st1" d="M491.4 123.6v58.7M466 167.6l50.8-29.3m0 29.3L466 138.3"/><path class="st4" d="M508.4 119.4c7.5 2.7 12 9.8 16.1 16.2 1.5 2.4 5.4.2 3.9-2.3-4.8-7.6-10-15.1-18.8-18.3-2.7-.9-3.9 3.4-1.2 4.4z" id="schaduw_5_"/></g><path class="st1" d="M372.7 104.8h-55.2c-9.4 0-18.8-2.4-24.7-5.9m45.8 54l57.6-3.5-4.2-65.8"/><path class="st1" d="M392.3 83.6l73.2 1.2-69.3 64.6"/><path d="M376.5 70.1h28.3a8 8 0 0 1 8 8V81a8 8 0 0 1-8 8h-28.3V70.1z" fill="#2bcdc9" stroke="#825a60" stroke-width="6" stroke-linecap="round" stroke-linejoin="round" stroke-miterlimit="10"/><path class="st1" d="M491.4 152.9l-25.9-68.2 10.6-23.5v-20h18.8c8.2 0 10.6 4.7 10.6 9.4"/></g><g id="wiel_11_"><path class="st2" d="M338.6 105.3a47.6 47.6 0 1 0 0 95.2 47.6 47.6 0 0 0 0-95.2z"/><circle class="st3" cx="338.6" cy="152.9" r="30"/><path class="st1" d="M338.6 123.6v58.7m-25.4-14.7l50.8-29.3m0 29.3l-50.8-29.3"/><path class="st4" d="M355.4 119.4c7.5 2.7 12 9.8 16.1 16.2 1.5 2.4 5.4.2 3.9-2.3-4.8-7.6-10-15.1-18.8-18.3-2.7-.9-3.9 3.4-1.2 4.4z"/></g><g id="pedalen"><circle class="st1" cx="396.2" cy="149.4" r="16.5"/><path class="st1" d="M396.2 149.4l9.2 26.5H416m-19.8-26.5l-9.2-26.5h-10.6"/></g></g></svg>