<svg xmlns="http://www.w3.org/2000/svg" viewBox="0 0 45.5 23.6"><path d="M43.7 20.8l-5.4-5.6c3.3-3.9 2.8-9.7-1.1-12.9S27.5-.5 24.3 3.4s-2.8 9.7 1.1 12.9c3.2 2.7 7.8 2.9 11.2.5l5.5 5.7c.2.2.5.4.9.4.7 0 1.2-.6 1.2-1.2-.2-.4-.3-.7-.5-.9zM31.2 2.4c3.8 0 6.8 3 6.8 6.8S35 16 31.2 16s-6.8-3-6.8-6.8c0-3.7 3-6.8 6.8-6.8zM8.6.1C3.9 0 .1 3.8.1 8.5c0 5.2 7.5 13.8 7.5 13.8.5.6 1.3.7 1.9.2l.2-.2s7.5-8.6 7.5-13.9C17.1 3.9 13.3.1 8.6.1zm0 12c-2 0-3.6-1.6-3.6-3.6S6.6 5 8.6 5s3.6 1.6 3.6 3.6-1.6 3.5-3.6 3.5z" fill="#825a60"/></svg>