<svg xmlns="http://www.w3.org/2000/svg" viewBox="0 0 152.37 90.11"><defs><style>.cls-1{fill:#fc7581;}.cls-2{fill:#825a60;}</style></defs><title>illustrations_header</title><g id="Layer_19" data-name="Layer 19"><path class="cls-1" d="M104.51,51.07a21,21,0,0,1-6.16,1.73,11,11,0,0,0,4.72-6.09,21.23,21.23,0,0,1-6.82,2.67,10.6,10.6,0,0,0-7.86-3.48,10.89,10.89,0,0,0-10.75,11,11.1,11.1,0,0,0,.28,2.51A30.24,30.24,0,0,1,55.77,47.91a11.38,11.38,0,0,0-1.45,5.55,11.09,11.09,0,0,0,4.78,9.16,10.64,10.64,0,0,1-4.87-1.37v.13a11,11,0,0,0,8.62,10.81,10,10,0,0,1-2.83.38,10.48,10.48,0,0,1-2-.19A10.78,10.78,0,0,0,68,80a21.24,21.24,0,0,1-13.34,4.72,24.44,24.44,0,0,1-2.57-.14A30,30,0,0,0,68.6,89.55c19.77,0,30.58-16.78,30.58-31.35,0-.48,0-1,0-1.43a21.87,21.87,0,0,0,5.36-5.7"/><path class="cls-1" d="M146.6,85.78h-33a1.37,1.37,0,0,1-1.37-1.38V63.78h5.5a8.3,8.3,0,0,0-1,4.18,13.39,13.39,0,0,0,26.77,0,7.06,7.06,0,0,0-1.06-4.18H148V84.4a1.38,1.38,0,0,1-1.38,1.38M130.15,59.51A8.44,8.44,0,1,1,121.69,68a8.44,8.44,0,0,1,8.46-8.44M141.1,51.4h4.13a1.37,1.37,0,0,1,1.37,1.38V56.9a1.37,1.37,0,0,1-1.37,1.38H141.1a1.37,1.37,0,0,1-1.37-1.38V52.78a1.37,1.37,0,0,1,1.37-1.38m5.77-5.5H113.33a5.23,5.23,0,0,0-5.23,5.22V84.68a5.23,5.23,0,0,0,5.23,5.22h33.54a5.22,5.22,0,0,0,5.23-5.22V51.12a5.22,5.22,0,0,0-5.23-5.22"/><path class="cls-1" d="M23.8,89.9H2.72A2.42,2.42,0,0,1,.3,87.48h0V48.32A2.42,2.42,0,0,1,2.72,45.9H41.88a2.42,2.42,0,0,1,2.42,2.42h0V87.48a2.42,2.42,0,0,1-2.42,2.42H30.66v-17h5.72l.86-6.64H30.66V62c0-1.92.54-3.23,3.3-3.23h3.52V52.81a46.08,46.08,0,0,0-5.12-.26,8,8,0,0,0-8.54,8.78v4.89H18.07v6.64H23.8v17Z"/><path class="cls-2" d="M104.51,6.07A21,21,0,0,1,98.35,7.8a11,11,0,0,0,4.72-6.09,21.23,21.23,0,0,1-6.82,2.67A10.6,10.6,0,0,0,88.39.9a10.89,10.89,0,0,0-10.75,11,11.1,11.1,0,0,0,.28,2.51A30.24,30.24,0,0,1,55.77,2.91a11.38,11.38,0,0,0-1.45,5.55,11.09,11.09,0,0,0,4.78,9.16,10.64,10.64,0,0,1-4.87-1.37v.13a11,11,0,0,0,8.62,10.81,10,10,0,0,1-2.83.38,10.48,10.48,0,0,1-2-.19A10.78,10.78,0,0,0,68,35a21.24,21.24,0,0,1-13.34,4.72,24.44,24.44,0,0,1-2.57-.14A30,30,0,0,0,68.6,44.55c19.77,0,30.58-16.78,30.58-31.35,0-.48,0-1,0-1.43a21.87,21.87,0,0,0,5.36-5.7"/><path class="cls-2" d="M146.6,39.78h-33a1.37,1.37,0,0,1-1.37-1.38V17.78h5.5a8.3,8.3,0,0,0-1,4.18,13.39,13.39,0,0,0,26.77,0,7.06,7.06,0,0,0-1.06-4.18H148V38.4a1.38,1.38,0,0,1-1.38,1.38M130.15,13.51A8.44,8.44,0,1,1,121.69,22a8.44,8.44,0,0,1,8.46-8.44M141.1,5.4h4.13a1.37,1.37,0,0,1,1.37,1.38V10.9a1.37,1.37,0,0,1-1.37,1.38H141.1a1.37,1.37,0,0,1-1.37-1.38V6.78A1.37,1.37,0,0,1,141.1,5.4m5.77-5.5H113.33a5.23,5.23,0,0,0-5.23,5.22V38.68a5.23,5.23,0,0,0,5.23,5.22h33.54a5.22,5.22,0,0,0,5.23-5.22V5.12A5.22,5.22,0,0,0,146.87-.1"/><path class="cls-2" d="M23.8,43.9H2.72A2.42,2.42,0,0,1,.3,41.48h0V2.32A2.42,2.42,0,0,1,2.72-.1H41.88A2.42,2.42,0,0,1,44.3,2.32h0V41.48a2.42,2.42,0,0,1-2.42,2.42H30.66v-17h5.72l.86-6.64H30.66V16c0-1.92.54-3.23,3.3-3.23h3.52V6.81a46.08,46.08,0,0,0-5.12-.26,8,8,0,0,0-8.54,8.78v4.89H18.07v6.64H23.8v17Z"/></g></svg>