<svg xmlns="http://www.w3.org/2000/svg" viewBox="0 0 254 191"><g stroke-miterlimit="10" stroke-width="8"><path d="M232 139c0-63-63-132-138-97V14H19v125" fill="#2bcdc9" stroke="#825a60" stroke-linecap="round" stroke-linejoin="round"/><path d="M19 138h215c3 0 5 3 6 7l3 19c1 6-2 13-5 13H19c-3 0-6-4-6-10v-19c0-6 3-10 6-10z" fill="#fff" stroke="#825a60"/><path d="M159 57c13 2 24 11 33 23s11 18 17 33" fill="none" stroke="#7feadf" stroke-linecap="round"/><path d="M222 82c-14-6-25 0-31 9m4-44c-13-1-24 10-27 17m-11-34c-6 3-14 12-15 24" fill="none" stroke="#825a60" stroke-linecap="round"/></g></svg>