<svg id="Layer_1" xmlns="http://www.w3.org/2000/svg" viewBox="0 0 136 93.1"><style>.st0,.st1{fill:#2bcdc9;stroke:#2bcdc9;stroke-width:.9;stroke-linecap:round;stroke-linejoin:round}.st1{fill:none;stroke:#fff;stroke-width:1.96}.st2{enable-background:new}.st3{fill:#fff}.st4,.st6,.st7,.st8{fill:#2bcdc9;stroke:#fff;stroke-width:2.09;stroke-linecap:round;stroke-linejoin:round}.st6,.st7,.st8{fill:none}.st7,.st8{fill:#825a60;stroke:#825a60;stroke-width:.9}.st8{stroke:#fff;stroke-width:2.09}</style><g id="icons"><path class="st0" d="M1.8 85.4c-.1 2.2 1.7 4 3.9 4.1h29c2.2.1 4-1.7 4.1-3.9V63.3h-37v22.1zm21.4-1.6c0 .9-.7 1.6-1.6 1.6h-2.5c-.9 0-1.6-.7-1.6-1.6v-1.3c0-.9.7-1.6 1.6-1.6h2.5c.9 0 1.6.7 1.6 1.6v1.3zm0-7.1c0 .9-.7 1.6-1.6 1.6h-2.5c-.9 0-1.6-.7-1.6-1.6v-1.3c0-.9.7-1.6 1.6-1.6h2.5c.9 0 1.6.7 1.6 1.6v1.3zm3.8-8.3c0-.9.7-1.6 1.6-1.6h2.5c.9 0 1.6.7 1.6 1.6v1.3c0 .9-.7 1.6-1.6 1.6h-2.5c-.9 0-1.6-.7-1.6-1.6v-1.3zm0 7c0-.9.7-1.6 1.6-1.6h2.5c.9 0 1.6.7 1.6 1.6v1.3c0 .9-.7 1.6-1.6 1.6h-2.5c-.9 0-1.6-.7-1.6-1.6v-1.3zm-9.6-7c0-.9.7-1.6 1.6-1.6h2.5c.9 0 1.6.7 1.6 1.6v1.3c0 .9-.7 1.6-1.6 1.6H19c-.9 0-1.6-.7-1.6-1.6v-1.3zm-9.5 0c0-.9.7-1.6 1.6-1.6H12c.9 0 1.6.7 1.6 1.6v1.3c0 .9-.7 1.6-1.6 1.6H9.5c-.9 0-1.6-.7-1.6-1.6v-1.3zm0 7c0-.9.7-1.6 1.6-1.6H12c.9 0 1.6.7 1.6 1.6v1.3c0 .9-.7 1.6-1.6 1.6H9.5c-.9 0-1.6-.7-1.6-1.6v-1.3zm0 7.1c0-.9.7-1.6 1.6-1.6H12c.9 0 1.6.7 1.6 1.6v1.3c0 .9-.7 1.6-1.6 1.6H9.5c-.9 0-1.6-.7-1.6-1.6v-1.3zm26.8-29H32v-3.2c.1-1.1-.8-2.1-1.9-2.2-1.1-.1-2.1.8-2.2 1.9v3.5h-5.5v-3.2c.1-1.1-.8-2.1-1.9-2.2-1.1-.1-2.1.8-2.2 1.9v3.5h-5.4v-3.2c-.1-1.1-1.1-2-2.2-1.9-1 .1-1.8.9-1.9 1.9v3.2H5.9c-2.2-.1-4 1.7-4.1 3.9V60.3h37v-2.7c.1-2.2-1.7-4-3.9-4.1h-.2z"/><circle class="st0" cx="63" cy="68.9" r="20.5"/><circle class="st1" cx="63" cy="68.9" r="15.6"/><g class="st2"><path class="st3" d="M63.1 60.6c1.1 0 1.9.9 1.9 1.9s-.9 1.9-1.9 1.9c-1.1 0-1.9-.8-1.9-1.9s.8-1.9 1.9-1.9zm1.8 14.5c0 .5-.4.9-.9.9h-1.9c-.5 0-.8-.4-.8-.9V66c0-.5.3-.9.8-.9H64c.5 0 .9.4.9.9v9.1z"/></g><path class="st4" d="M94.1 48.7h36.4c1.7 0 3 1.3 3 3v31.9c0 3.1-2.5 5.6-5.6 5.6H96.6c-3.1 0-5.6-2.5-5.6-5.6V51.7c.1-1.7 1.4-3 3.1-3z"/><path class="st4" d="M127.8 89.2H90.7c-2.7 0-4.8-2.1-4.8-4.8v-25c0-1.8 1.5-3.3 3.4-3.3H125c1.9 0 3.4 1.5 3.4 3.4v23"/><path d="M94.3 72.4h10.6c1.7 0 3.1 1.4 3.1 3.1v4.4c0 1.7-1.4 3.1-3.1 3.1H94.3c-1.7 0-3.1-1.4-3.1-3.1v-4.4c0-1.7 1.4-3.1 3.1-3.1z" fill="#fff" stroke="#2bcdc9" stroke-width="1.7" stroke-linecap="round" stroke-linejoin="round"/><path class="st6" d="M112.3 80H123m-10.7-5.7H123m-30.3-5.8H123m-30.3-5.7H123"/><path class="st7" d="M1.8 38.4c-.1 2.2 1.7 4 3.9 4.1h29c2.2.1 4-1.7 4.1-3.9V16.3h-37v22.1zm21.4-1.6c0 .9-.7 1.6-1.6 1.6h-2.5c-.9 0-1.6-.7-1.6-1.6v-1.3c0-.9.7-1.6 1.6-1.6h2.5c.9 0 1.6.7 1.6 1.6v1.3zm0-7.1c0 .9-.7 1.6-1.6 1.6h-2.5c-.9 0-1.6-.7-1.6-1.6v-1.3c0-.9.7-1.6 1.6-1.6h2.5c.9 0 1.6.7 1.6 1.6v1.3zm3.8-8.3c0-.9.7-1.6 1.6-1.6h2.5c.9 0 1.6.7 1.6 1.6v1.3c0 .9-.7 1.6-1.6 1.6h-2.5c-.9 0-1.6-.7-1.6-1.6v-1.3zm0 7c0-.9.7-1.6 1.6-1.6h2.5c.9 0 1.6.7 1.6 1.6v1.3c0 .9-.7 1.6-1.6 1.6h-2.5c-.9 0-1.6-.7-1.6-1.6v-1.3zm-9.6-7c0-.9.7-1.6 1.6-1.6h2.5c.9 0 1.6.7 1.6 1.6v1.3c0 .9-.7 1.6-1.6 1.6H19c-.9 0-1.6-.7-1.6-1.6v-1.3zm-9.5 0c0-.9.7-1.6 1.6-1.6H12c.9 0 1.6.7 1.6 1.6v1.3c0 .9-.7 1.6-1.6 1.6H9.5c-.9 0-1.6-.7-1.6-1.6v-1.3zm0 7c0-.9.7-1.6 1.6-1.6H12c.9 0 1.6.7 1.6 1.6v1.3c0 .9-.7 1.6-1.6 1.6H9.5c-.9 0-1.6-.7-1.6-1.6v-1.3zm0 7.1c0-.9.7-1.6 1.6-1.6H12c.9 0 1.6.7 1.6 1.6v1.3c0 .9-.7 1.6-1.6 1.6H9.5c-.9 0-1.6-.7-1.6-1.6v-1.3zm26.8-29H32V3.3c.1-1.1-.8-2.1-1.9-2.2-1.1 0-2.1.8-2.2 2v3.5h-5.5V3.3c.1-1.1-.8-2.1-1.9-2.2-1.1-.1-2.1.8-2.2 1.9v3.5h-5.4V3.3c-.1-1.1-1.1-2-2.2-1.9-1 .1-1.8.9-1.9 1.9v3.2H5.9c-2.2-.1-4 1.7-4.1 3.9V13.3h37v-2.7c.1-2.2-1.7-4-3.9-4.1h-.2z"/><circle class="st7" cx="63" cy="21.9" r="20.5"/><circle class="st1" cx="63" cy="21.9" r="15.6"/><g class="st2"><path class="st3" d="M63.1 13.6c1.1 0 1.9.9 1.9 1.9s-.9 1.9-1.9 1.9c-1.1 0-1.9-.8-1.9-1.9s.8-1.9 1.9-1.9zm1.8 14.5c0 .5-.4.9-.9.9h-1.9c-.5 0-.8-.4-.8-.9V19c0-.5.3-.9.8-.9H64c.5 0 .9.4.9.9v9.1z"/></g><path class="st8" d="M94.1 1.6h36.4c1.7 0 3 1.3 3 3v31.9c0 3.1-2.5 5.6-5.6 5.6H96.6c-3.1 0-5.6-2.5-5.6-5.6V4.7c.1-1.7 1.4-3.1 3.1-3.1z"/><path class="st8" d="M127.8 42.2H90.7c-2.7 0-4.8-2.1-4.8-4.8v-25c0-1.8 1.5-3.3 3.4-3.3H125c1.9 0 3.4 1.5 3.4 3.4v23"/><path d="M94.3 25.4h10.6c1.7 0 3.1 1.4 3.1 3.1v4.4c0 1.7-1.4 3.1-3.1 3.1H94.3c-1.7 0-3.1-1.4-3.1-3.1v-4.4c0-1.7 1.4-3.1 3.1-3.1z" fill="#fff" stroke="#825a60" stroke-width="1.7" stroke-linecap="round" stroke-linejoin="round"/><path class="st6" d="M112.3 33H123m-10.7-5.7H123m-30.3-5.8H123m-30.3-5.7H123"/></g></svg>