<svg id="Layer_1" xmlns="http://www.w3.org/2000/svg" viewBox="0 0 1024 368"><style>.st5{stroke:#825a60;stroke-width:6;stroke-linejoin:round;fill:#fbcc25;stroke-linecap:round}.st8{fill:#fff}.st9{font-family:&apos;BrandonGrotesque-Black&apos;}.st10{font-size:40px}.st12{fill:#f8efd0;stroke:#825a60;stroke-width:6;stroke-linecap:round;stroke-linejoin:round}</style><path fill="#f8efd0" d="M-.4 0h1024.2v367.8H-.4z"/><g id="Layer_11"><path d="M-.4 329.2h1024.6M.1 347h1023.7M-.4 312.2h1024.6" fill="none" stroke="#825a60" stroke-width="6" stroke-linejoin="round"/><path fill="none" stroke="#825a60" stroke-width="12" stroke-linejoin="round" d="M.1 367.8h1023.7"/><path d="M262.3 356.9c-1.3 0-2.5-.2-3.7-.7l-24-10c-4.8-2-7.1-7.6-5.1-12.4s7.6-7.1 12.4-5.1l22.2 9.2 69.3-.9 10.2-6.7-13.3-110.8h-18.6c-5.2 0-9.5-2.2-9.5-7.5s4.2-7.5 9.5-7.5h27c4.8 0 8.8 3.6 9.4 8.4l15 121c.4 3.6-1.2 7.1-4.2 9.1l-17.5 11.5c-1.5 1-3.3 1.5-5.1 1.6l-74 1v-.2z" fill="#2bcdc9" stroke="#825a60" stroke-width="6" stroke-linecap="round" stroke-linejoin="round"/><path d="M326 213.6c5.2.3 12.1-1.4 13.3 5.5.5 2.8 4.9 1.6 4.3-1.2-.6-4-3.5-7.3-7.5-8.3-3.4-.9-6.8-.4-10.2-.5-2.8-.1-2.8 4.4.1 4.5z" fill="#7feadf"/><circle class="st5" cx="356.3" cy="352.4" r="13"/><circle class="st5" cx="242.3" cy="352.4" r="13"/><path class="st5" d="M294 201.6h20.4v21.9H294c-4.7 0-8.6-4.9-8.6-10.9-.1-6.1 3.8-11 8.6-11zm531.3 31.8h18v95h-18z"/><path fill="#f57d90" stroke="#825a60" stroke-width="6" stroke-linecap="round" stroke-linejoin="round" d="M872 98.1h-77.4l-38.6 67 38.6 67H872l38.7-67z"/><path fill="none" stroke="#fff" stroke-width="7" stroke-miterlimit="10" d="M860.3 118.4h-54l-27 46.7 27 46.8h54l27-46.8z"/><text transform="translate(797.45 177.513)" class="st8 st9 st10">4</text><text transform="translate(820.63 177.513)" class="st8 st9 st10">0</text><text transform="translate(845.19 177.513)" class="st8 st9 st10">4</text><path d="M875.3 128c4.7 7.5 9.1 15.2 13.3 23 1.8 3.4 7 .4 5.2-3-4.2-7.8-8.6-15.5-13.3-23-2-3.3-7.2-.3-5.2 3z" fill="#f5b3bd"/></g><g id="wiel"><circle class="st12" cx="662.3" cy="309.4" r="33"/><path class="st12" d="M641.5 296.5c2.9 4.6 9.5 7.4 12.6 7.9m-11.9 16.2c2.1 2.9 7.2 5.8 10.2 5.7"/><path d="M680.2 315.4c-1.4 2.5-2.8 5.3-5.1 7.1-2.9 2.2-6.8 3.1-10.2 4-5.6 1.4-3.2 10.1 2.4 8.7 4.8-1.2 9.7-2.7 13.7-5.9 3.1-2.5 5.2-5.9 7-9.4 2.7-5-5.1-9.6-7.8-4.5z" fill="#d4ccae"/><path class="st12" d="M668.3 318.4c-4-3-9-3-11-3m10.6-27c-4.3-1.2-10-2.4-14.2-.8m25.1 18.5c-2-2.5-8.4-5.4-12-5.3"/></g></svg>