<svg xmlns="http://www.w3.org/2000/svg" viewBox="0 0 768 461.05"><defs><style>.cls-1{fill:#f8efd2;}.cls-2{fill:none;}.cls-12,.cls-13,.cls-14,.cls-15,.cls-17,.cls-2,.cls-3,.cls-4,.cls-6,.cls-7,.cls-8,.cls-9{stroke:#825a60;}.cls-13,.cls-14,.cls-15,.cls-17,.cls-2,.cls-3,.cls-4,.cls-6{stroke-linecap:round;stroke-linejoin:round;}.cls-17,.cls-2,.cls-3,.cls-4{stroke-width:4.51px;}.cls-3,.cls-9{fill:#f57d90;}.cls-4{fill:#f8efd0;}.cls-5{fill:#f5b3bd;}.cls-12,.cls-13,.cls-6{fill:#fbcc25;}.cls-6{stroke-width:3.75px;}.cls-14,.cls-7{fill:#fff;}.cls-7,.cls-8,.cls-9{stroke-miterlimit:10;stroke-width:3.45px;}.cls-17,.cls-8{fill:#2bcdc9;}.cls-10{fill:#7feadf;}.cls-11{fill:#825a60;}.cls-12{stroke-width:1.72px;}.cls-13,.cls-14,.cls-15{stroke-width:4.79px;}.cls-15{fill:#fbe594;}.cls-16{fill:#fbf4da;}</style></defs><title>illustrations</title><g id="header_illustratie" data-name="header illustratie"><rect class="cls-1" x="-399.09" y="-0.4" width="1778" height="568"/><line class="cls-2" x1="-204.78" y1="432.59" x2="940.29" y2="432.59"/><line class="cls-3" x1="-204.4" y1="445.93" x2="939.91" y2="445.93"/><line class="cls-3" x1="-204.4" y1="459.26" x2="939.91" y2="459.26"/><g id="guitar"><g id="guitar-2" data-name="guitar"><path class="cls-3" d="M116.63,419.92c-.2-3-.3-6-.3-9.07,0-60,38.93-108.7,87-108.7a73.24,73.24,0,0,1,41.25,13c21.72,14.66,47.6,30.07,73.7,27.72,1.46-.13,2.93-.2,4.42-.2,33.62,0,60.88,26.16,60.88,68.19a91.24,91.24,0,0,1-.47,9.34l556.84.56"/><path class="cls-3" d="M939.91,420.75l-556.84-.56a91.24,91.24,0,0,0,.47-9.34c0-42-27.26-68.19-60.88-68.19-1.49,0-3,.07-4.42.2-26.1,2.35-52-13.06-73.7-27.72a73.24,73.24,0,0,0-41.25-13c-48,0-87,48.66-87,108.7,0,3,.1,6.08.3,9.07H-204.78"/><path class="cls-4" d="M247.17,420.73a37.95,37.95,0,1,1,75.89,0"/><path class="cls-5" d="M359.37,369.91c-9.27-9.79-20.29-16.55-34.11-16.41-4.34,0-4.35,6.8,0,6.76,12.07-.13,21.27,5.91,29.34,14.43,3,3.16,7.77-1.62,4.77-4.78Z"/></g><line class="cls-2" x1="163.63" y1="393.32" x2="940.29" y2="393.32"/><line class="cls-3" x1="163.63" y1="406.66" x2="939.91" y2="406.66"/><circle class="cls-6" cx="163.63" cy="392.95" r="4.51"/><circle class="cls-6" cx="163.63" cy="406.46" r="4.51"/></g></g><g id="header_typo" data-name="header typo"><g id="week_van_de_mobiliteit" data-name="week van de mobiliteit"><path class="cls-7" d="M199.27,181l11.61-27.7a2.47,2.47,0,0,1,2.19-1.32h11.38a2.55,2.55,0,0,1,2.52,2.52c2.85,57.05,3,57.16,3,57.16a2.86,2.86,0,0,1-2.85,2.52h-7.77a2.48,2.48,0,0,1-2.52-2.52l-2.3-34.38-10,24.53a3.58,3.58,0,0,1-2.63,1.86h-5.26a3.58,3.58,0,0,1-2.63-1.86l-9.85-24.53-2.52,34.38a2.48,2.48,0,0,1-2.52,2.52h-7.77a2.86,2.86,0,0,1-2.85-2.52s.22-.11,3.07-57.16a2.55,2.55,0,0,1,2.51-2.52h11.39a2.49,2.49,0,0,1,2.19,1.32Z"/><path class="cls-8" d="M236.28,183.5c0-25.95,12.49-32,27.16-32s27,6,27,32c0,24.31-12.26,31.21-26.93,31.21C248.66,214.71,236.28,207.81,236.28,183.5Zm41.07,0c0-19.49-8.87-20.26-13.91-20.26s-14,.77-14,20.26c0,16,9.09,19.49,14.13,19.49C268.37,203,277.35,199.49,277.35,183.5Z"/><path class="cls-7" d="M317.81,152c14.67,0,22.33,4.06,22.33,18.62,0,4.6-1.86,9.63-7.77,11.61,6.13,1.64,10.73,6.46,10.73,13.46,0,14.46-7.66,18.51-22.34,18.51H300.84a2.57,2.57,0,0,1-2.52-2.63V154.48a2.48,2.48,0,0,1,2.52-2.52Zm-6.35,11.72v13.69h6.13c5,0,9.41-1.1,9.41-6.79s-4.38-6.9-9.41-6.9Zm18.5,32c0-5.69-4.38-6.57-9.42-6.57h-9.08v13.36h9.08C325.58,202.44,330,201.35,330,195.65Z"/><path class="cls-7" d="M363.39,211.64a2.48,2.48,0,0,1-2.52,2.52h-8.1a2.48,2.48,0,0,1-2.52-2.52V154.48a2.48,2.48,0,0,1,2.52-2.52h8.1a2.48,2.48,0,0,1,2.52,2.52Z"/><path class="cls-7" d="M375.47,214.16a2.48,2.48,0,0,1-2.52-2.52V154.48a2.48,2.48,0,0,1,2.52-2.52h8.1a2.48,2.48,0,0,1,2.52,2.52v47.85h23.76a2.48,2.48,0,0,1,2.52,2.52v6.79a2.48,2.48,0,0,1-2.52,2.52Z"/><path class="cls-9" d="M431,211.64a2.48,2.48,0,0,1-2.52,2.52h-8.1a2.48,2.48,0,0,1-2.52-2.52V154.48a2.48,2.48,0,0,1,2.52-2.52h8.1a2.48,2.48,0,0,1,2.52,2.52Z"/><path class="cls-7" d="M465.77,211.64a2.48,2.48,0,0,1-2.52,2.52h-8.11a2.48,2.48,0,0,1-2.51-2.52v-48H438.94a2.48,2.48,0,0,1-2.52-2.52v-6.68a2.48,2.48,0,0,1,2.52-2.52h40.4a2.48,2.48,0,0,1,2.52,2.52v6.68a2.47,2.47,0,0,1-2.52,2.52H465.77Z"/><path class="cls-8" d="M489.92,214.16a2.48,2.48,0,0,1-2.52-2.52V154.48a2.48,2.48,0,0,1,2.52-2.52h36a2.48,2.48,0,0,1,2.52,2.52v6.68a2.48,2.48,0,0,1-2.52,2.52H500.54v13.58h18.51a2.48,2.48,0,0,1,2.52,2.52v6.68a2.48,2.48,0,0,1-2.52,2.51H500.54v13.47H526a2.48,2.48,0,0,1,2.52,2.52v6.68a2.48,2.48,0,0,1-2.52,2.52Z"/><path class="cls-7" d="M548.64,211.64a2.48,2.48,0,0,1-2.52,2.52H538a2.48,2.48,0,0,1-2.52-2.52V154.48A2.48,2.48,0,0,1,538,152h8.1a2.48,2.48,0,0,1,2.52,2.52Z"/><path class="cls-7" d="M583.4,211.64a2.48,2.48,0,0,1-2.52,2.52h-8.1a2.48,2.48,0,0,1-2.52-2.52v-48H556.58a2.47,2.47,0,0,1-2.52-2.52v-6.68a2.48,2.48,0,0,1,2.52-2.52H597a2.48,2.48,0,0,1,2.52,2.52v6.68a2.48,2.48,0,0,1-2.52,2.52H583.4Z"/><path class="cls-10" d="M269.53,158.57a13.79,13.79,0,0,1,11.67,12.82c.12,2.49,4,2.5,3.88,0a17.77,17.77,0,0,0-15.55-16.7c-2.47-.33-2.45,3.56,0,3.88Z"/><path class="cls-5" d="M423.85,157.06v15.07a1.94,1.94,0,0,0,3.88,0V157.06a1.94,1.94,0,0,0-3.88,0Z"/><path class="cls-10" d="M519.65,157.84a5.08,5.08,0,0,1,1.55-.15,2.73,2.73,0,0,1,.56.15l.4.2a1.17,1.17,0,0,1-.32-1.38,2,2,0,0,0,.7,2.65,1.94,1.94,0,0,0,2.65-.69,2.92,2.92,0,0,0-1.48-4.13,7.93,7.93,0,0,0-5.09-.4,2,2,0,0,0-1.36,2.39,2,2,0,0,0,2.39,1.36Z"/><path class="cls-11" d="M245.54,88.63h3.62c.8,0,1.24.51,1.38,1.38a123.12,123.12,0,0,1,1.23,15.29c0,18.55-1.74,24.85-11.3,24.85-1.89,0-6.38,0-8.7-4.42-2.75,4.42-7,4.42-9.27,4.42-9.43,0-11.53-4.27-11.53-19V90a1.33,1.33,0,0,1,1.38-1.38H216A1.33,1.33,0,0,1,217.35,90v22c0,12,2.61,12.68,5.44,12.68,5.14,0,5.29-5,5.29-9.35V90a1.33,1.33,0,0,1,1.37-1.38h3.63A1.33,1.33,0,0,1,234.45,90v21.52c0,4.35.22,13.19,5.44,13.19s5.51-3.7,5.51-19.5A103.45,103.45,0,0,0,244.24,90,1.27,1.27,0,0,1,245.54,88.63Z"/><path class="cls-11" d="M259.75,129.79a1.33,1.33,0,0,1-1.38-1.38V90a1.33,1.33,0,0,1,1.38-1.38H283.3A1.33,1.33,0,0,1,284.68,90v2.6A1.33,1.33,0,0,1,283.3,94H264.75V106.6H278.3a1.33,1.33,0,0,1,1.38,1.38v2.61A1.33,1.33,0,0,1,278.3,112H264.75V124.5H283.3a1.33,1.33,0,0,1,1.38,1.38v2.53a1.33,1.33,0,0,1-1.38,1.38Z"/><path class="cls-11" d="M290.49,129.79a1.33,1.33,0,0,1-1.38-1.38V90a1.33,1.33,0,0,1,1.38-1.38H314A1.33,1.33,0,0,1,315.42,90v2.6A1.33,1.33,0,0,1,314,94H295.49V106.6H309a1.33,1.33,0,0,1,1.38,1.38v2.61A1.33,1.33,0,0,1,309,112H295.49V124.5H314a1.33,1.33,0,0,1,1.38,1.38v2.53a1.33,1.33,0,0,1-1.38,1.38Z"/><path class="cls-11" d="M342.32,123.92c-2.47-5.22-4.86-10.29-8-13.55a27.56,27.56,0,0,1-8.11,4.06v14a1.33,1.33,0,0,1-1.38,1.38h-3.62a1.33,1.33,0,0,1-1.38-1.38V90a1.33,1.33,0,0,1,1.38-1.38h3.62A1.33,1.33,0,0,1,326.23,90v17.1c5.22,0,14.35-10.22,16.74-17.1.36-.87.8-1.38,1.59-1.38H348A1.33,1.33,0,0,1,349.35,90c-1.24,4.92-4.64,11.16-9.79,16.59a29.1,29.1,0,0,1,4.79,6.89l7.17,14.92a1.33,1.33,0,0,1-1.38,1.38h-3.91a2.15,2.15,0,0,1-1.81-1.52C343.69,126.89,343,125.37,342.32,123.92Z"/><path class="cls-11" d="M397.39,90a1.84,1.84,0,0,1,1.67-1.38h3.62A1.33,1.33,0,0,1,404.06,90c-3.12,8.62-10.29,29.56-13.41,38.19a2.49,2.49,0,0,1-2.17,1.59h-5.15a2.48,2.48,0,0,1-2.17-1.59C378,119.57,370.87,98.63,367.75,90a1.33,1.33,0,0,1,1.38-1.38h3.62A1.84,1.84,0,0,1,374.42,90l11.45,33.48Z"/><path class="cls-11" d="M428.53,119.86h-17.1l-3,8.55a1.83,1.83,0,0,1-1.66,1.38h-3.63a1.33,1.33,0,0,1-1.37-1.38c3.11-8.62,10.29-29.56,13.4-38.19a2.49,2.49,0,0,1,2.18-1.59h5.14a2.49,2.49,0,0,1,2.18,1.59c2.53,7,7.68,22.61,11.37,32.61.58,1.6,1.09,2.76,1.67,3a1.18,1.18,0,0,1,.65,1.08v2.18c0,.8-1.45,1-2.9,1-2.82,0-3.76-1.37-4.85-4.05Zm-15.29-5.36h13.4L419.9,94.93Z"/><path class="cls-11" d="M467.8,118.2V90a1.33,1.33,0,0,1,1.38-1.38h3.62A1.33,1.33,0,0,1,474.18,90v38.4a1.33,1.33,0,0,1-1.38,1.38h-3.62a3.13,3.13,0,0,1-2.68-1.59L448.75,99.28v29.13a1.33,1.33,0,0,1-1.38,1.38h-3.63a1.33,1.33,0,0,1-1.37-1.38V90a1.33,1.33,0,0,1,1.37-1.38H448a3.13,3.13,0,0,1,2.68,1.59Z"/><path class="cls-11" d="M495.12,90a1.33,1.33,0,0,1,1.38-1.38h13.33c9.28,0,14.35,5.22,14.35,14.49V115.3c0,9.27-5.07,14.49-14.35,14.49H496.5a1.33,1.33,0,0,1-1.38-1.38Zm22.68,13.26c0-6.6-3.91-9.28-8.26-9.28h-8v30.44h8c4.35,0,8.26-2.68,8.26-9.28Z"/><path class="cls-11" d="M531.72,129.79a1.33,1.33,0,0,1-1.37-1.38V90a1.33,1.33,0,0,1,1.37-1.38h23.56A1.33,1.33,0,0,1,556.65,90v2.6A1.33,1.33,0,0,1,555.28,94H536.72V106.6h13.56a1.33,1.33,0,0,1,1.37,1.38v2.61a1.33,1.33,0,0,1-1.37,1.37H536.72V124.5h18.56a1.33,1.33,0,0,1,1.37,1.38v2.53a1.33,1.33,0,0,1-1.37,1.38Z"/></g><g id="datum"><path class="cls-11" d="M190,237.66a1.12,1.12,0,0,1,1-.83h2.2a.81.81,0,0,1,.84.83c-1.89,5.23-6.24,17.94-8.13,23.17a1.52,1.52,0,0,1-1.32,1h-3.13a1.5,1.5,0,0,1-1.31-1c-1.89-5.23-6.25-17.94-8.14-23.17a.81.81,0,0,1,.84-.83h2.2a1.12,1.12,0,0,1,1,.83L183.05,258Z"/><path class="cls-11" d="M209.24,255.78H198.86l-1.8,5.18a1.11,1.11,0,0,1-1,.84h-2.2A.81.81,0,0,1,193,261c1.89-5.23,6.24-17.93,8.13-23.16a1.5,1.5,0,0,1,1.32-1h3.12a1.5,1.5,0,0,1,1.32,1c1.54,4.22,4.66,13.71,6.9,19.78.35,1,.66,1.67,1,1.84a.72.72,0,0,1,.4.66v1.32c0,.49-.88.62-1.76.62-1.71,0-2.29-.84-3-2.46ZM200,252.52h8.14L204,240.65Z"/><path class="cls-11" d="M233.3,254.76v-17.1a.8.8,0,0,1,.83-.83h2.2a.81.81,0,0,1,.84.83V261a.81.81,0,0,1-.84.84h-2.2a1.9,1.9,0,0,1-1.62-1l-10.77-17.54V261a.81.81,0,0,1-.84.84h-2.2a.81.81,0,0,1-.83-.84v-23.3a.8.8,0,0,1,.83-.83h2.55a1.89,1.89,0,0,1,1.63,1Z"/><path class="cls-11" d="M255.94,236.83h3.74a.8.8,0,0,1,.83.83V261a.81.81,0,0,1-.83.84h-2.2a.81.81,0,0,1-.84-.84V240.83l-7.25,4.75a.81.81,0,0,1-.83-.84v-2.55a.79.79,0,0,1,.35-.7Z"/><path class="cls-11" d="M274.43,240c-2.24,0-5.76.48-5.76,5v3.12a8.65,8.65,0,0,1,5.1-1.36c3.78,0,7.56,1.71,7.56,7.25,0,5.23-2.59,8-8.31,8s-8.22-2.82-8.22-8v-8.39c0-5.67,3.47-8.93,9.23-8.93a11,11,0,0,1,6,1.28.81.81,0,0,1,.4.66.63.63,0,0,1-.05.3l-.74,1.81a.52.52,0,0,1-.49.26.83.83,0,0,1-.44-.13A11,11,0,0,0,274.43,240Zm-5.76,14.42c0,1.63.44,4.35,4.35,4.35s4.44-2.64,4.44-4.35,0-4.35-4.44-4.35C268.93,250,268.67,252.7,268.67,254.37Z"/><path class="cls-11" d="M293.11,240.08a.8.8,0,0,1-.83-.83v-1.59a.8.8,0,0,1,.83-.83H309.2a.81.81,0,0,1,.84.83v1.59a.81.81,0,0,1-.84.83h-6.11V261a.81.81,0,0,1-.83.84h-2.2a.81.81,0,0,1-.83-.84V240.08Z"/><path class="cls-11" d="M311.49,249.49c0-10.42,4.88-12.84,10.77-12.84S333,239.07,333,249.49c0,9.76-4.83,12.53-10.77,12.53S311.49,259.25,311.49,249.49Zm17.67,0c0-8.93-4-9.54-6.9-9.54s-6.9.61-6.9,9.54c0,8.31,3.91,9.23,6.9,9.23S329.16,257.8,329.16,249.49Z"/><path class="cls-11" d="M335.35,240.08a.81.81,0,0,1-.84-.83v-1.59a.81.81,0,0,1,.84-.83h16.09a.8.8,0,0,1,.83.83v1.59a.8.8,0,0,1-.83.83h-6.11V261a.81.81,0,0,1-.84.84h-2.2a.81.81,0,0,1-.83-.84V240.08Z"/><path class="cls-11" d="M370.61,236.65c7.69,0,9,2.77,9,6.2,0,7.3-12.75,7.69-12.75,14.51v1.19h11.34a.81.81,0,0,1,.84.83V261a.81.81,0,0,1-.84.84H364.06a.81.81,0,0,1-.84-.84v-3.78c0-9.23,12.53-9.49,12.53-14.33,0-2.72-1.54-2.9-5.71-2.9-.62,0-2.86.31-4.75.53-.48,0-.7-.18-.79-.57l-.13-1.46c0-.61.13-.83.52-1A20.27,20.27,0,0,1,370.61,236.65Z"/><path class="cls-11" d="M389.84,236.65c7.69,0,9,2.77,9,6.2,0,7.3-12.75,7.69-12.75,14.51v1.19h11.34a.81.81,0,0,1,.84.83V261a.81.81,0,0,1-.84.84H383.29a.81.81,0,0,1-.84-.84v-3.78c0-9.23,12.53-9.49,12.53-14.33,0-2.72-1.54-2.9-5.71-2.9-.62,0-2.86.31-4.75.53-.48,0-.7-.18-.79-.57l-.13-1.46c0-.61.13-.83.52-1A20.27,20.27,0,0,1,389.84,236.65Z"/><path class="cls-11" d="M420.57,240c-4,0-6,.18-6,2.9,0,5.72,14.64,2.24,14.64,12.18,0,4.83-3.65,7-10.6,7a19.71,19.71,0,0,1-6.81-1.45.82.82,0,0,1-.4-.66.67.67,0,0,1,.05-.31l.79-1.93a.5.5,0,0,1,.48-.27c.13,0,.18.05.4.13a19.92,19.92,0,0,0,6.11,1.19c1.4,0,6.11-.35,6.11-3.91,0-6-14.64-2.42-14.64-11.56,0-3.87,1.71-6.6,9.58-6.6a38,38,0,0,1,6.07.79.7.7,0,0,1,.48.71s-.13,1.32-.17,1.93a.52.52,0,0,1-.62.48C423.43,240.21,421.19,240,420.57,240Z"/><path class="cls-11" d="M433,261.8a.81.81,0,0,1-.84-.84v-23.3a.81.81,0,0,1,.84-.83h14.29a.8.8,0,0,1,.83.83v1.59a.8.8,0,0,1-.83.83H436v7.65h8.22a.81.81,0,0,1,.84.84v1.58a.81.81,0,0,1-.84.83H436v7.61h11.26a.8.8,0,0,1,.83.83V261a.81.81,0,0,1-.83.84Z"/><path class="cls-11" d="M454.9,261a.81.81,0,0,1-.84.84h-2.19A.81.81,0,0,1,451,261v-23.3a.81.81,0,0,1,.84-.83h7.6c5.72,0,8.71,2.46,8.71,8.09s-3,8-8.71,8H454.9Zm9.41-16c0-3-1.85-4.79-4.57-4.79H454.9v9.49h4.84C462.51,249.62,464.31,248,464.31,244.92Z"/><path class="cls-11" d="M470.71,240.08a.8.8,0,0,1-.83-.83v-1.59a.8.8,0,0,1,.83-.83H486.8a.81.81,0,0,1,.84.83v1.59a.81.81,0,0,1-.84.83h-6.11V261a.81.81,0,0,1-.84.84h-2.19a.81.81,0,0,1-.84-.84V240.08Z"/><path class="cls-11" d="M491.32,261.8a.81.81,0,0,1-.83-.84v-23.3a.8.8,0,0,1,.83-.83h14.29a.8.8,0,0,1,.83.83v1.59a.8.8,0,0,1-.83.83H494.35v7.65h8.23a.81.81,0,0,1,.83.84v1.58a.8.8,0,0,1-.83.83h-8.23v7.61h11.26a.8.8,0,0,1,.83.83V261a.81.81,0,0,1-.83.84Z"/><path class="cls-11" d="M520.91,257.23a1.29,1.29,0,0,1-1-.75l-5.71-13.89L513,261a1.12,1.12,0,0,1-1,.84h-2a.81.81,0,0,1-.84-.84l1.54-23.3a.81.81,0,0,1,.84-.83h4c.3,0,.52.26.7.7l5.58,13.28,5.59-13.28c.17-.44.39-.7.7-.7h4a.81.81,0,0,1,.84.83l1.53,23.3a.81.81,0,0,1-.83.84h-2a1.1,1.1,0,0,1-1-.84l-1.19-18.37-5.72,13.89a1.28,1.28,0,0,1-1,.75Z"/><path class="cls-11" d="M546,236.83c5.1,0,8.7,1.54,8.7,7.12a5.93,5.93,0,0,1-2.42,5.32c3.21.88,3.7,2.94,3.7,5.45,0,5.54-3.08,7.08-8.71,7.08h-8a.81.81,0,0,1-.83-.84v-23.3a.8.8,0,0,1,.83-.83Zm-3.7,3.25v7.65h3.57c2.59,0,5-.61,5-3.78s-2.37-3.87-5-3.87Zm9.81,14.64c0-3.25-2.33-3.74-4.93-3.74h-4.88v7.61h4.88C549.82,258.59,552.15,257.93,552.15,254.72Z"/><path class="cls-11" d="M560.34,261.8a.81.81,0,0,1-.83-.84v-23.3a.8.8,0,0,1,.83-.83h14.29a.81.81,0,0,1,.84.83v1.59a.81.81,0,0,1-.84.83H563.38v7.65h8.22a.81.81,0,0,1,.83.84v1.58a.8.8,0,0,1-.83.83h-8.22v7.61h11.25a.81.81,0,0,1,.84.83V261a.81.81,0,0,1-.84.84Z"/><path class="cls-11" d="M595.89,260v1.36c0,.49-1,.62-1.89.62a2.8,2.8,0,0,1-2.77-1.89l-2.72-7.3c-.44,0-.84,0-1.28,0h-5V261a.81.81,0,0,1-.83.84h-2.2a.81.81,0,0,1-.83-.84v-23.3a.8.8,0,0,1,.83-.83h8c5.72,0,8.71,2.46,8.71,8.09,0,3.6-1.23,5.89-3.65,7l2,5.32c.53,1.32.7,1.72,1.23,2.07A.84.84,0,0,1,595.89,260Zm-8.39-10.42c2.77,0,4.57-1.67,4.57-4.7s-1.85-4.79-4.57-4.79h-5.24v9.49Z"/><path class="cls-12" d="M256.05,236.9h4.22a1,1,0,0,1,1,1v22.94a1,1,0,0,1-1,1H257a1,1,0,0,1-1-1V242.61l-6.51,4.22a1,1,0,0,1-1-1v-3.43a1,1,0,0,1,.35-.79Z"/><path class="cls-12" d="M265.12,245.91c0-5.81,3.6-9.19,9.49-9.19a9.26,9.26,0,0,1,6.07,1.76,1.47,1.47,0,0,1,.7,1.1,10.93,10.93,0,0,1-1,2.24.92.92,0,0,1-.92.57,1.28,1.28,0,0,1-.57-.13,7.48,7.48,0,0,0-3.87-.84c-1.81,0-4.4.44-4.62,3.87v2a7.86,7.86,0,0,1,4.22-1.14c4,0,7.61,1.72,7.61,7.52,0,5.41-2.64,8.4-8.53,8.4s-8.57-3-8.57-8.4Zm5.27,8.17a3,3,0,0,0,3.3,3.3c2.94,0,3.25-2,3.25-3.3s0-3.2-3.25-3.2S270.39,252.85,270.39,254.08Z"/><path class="cls-12" d="M370,236.72c8,0,9.14,3.3,9.14,7.39,0,7.51-12,6.9-12,12.35v.66h10.51a1,1,0,0,1,1,1v2.72a1,1,0,0,1-1,1H363.15a1,1,0,0,1-1-1v-4.13c0-10.55,11.7-8.17,11.7-13.36,0-1.76-1-1.94-4.18-1.94-.66,0-3,.27-4.75.49-.66,0-1.18-.13-1.27-.93-.13-1.49-.18-2.11-.18-2.41,0-.53.57-.88,1.1-1A23.37,23.37,0,0,1,370,236.72Z"/><path class="cls-12" d="M389.4,236.72c8,0,9.14,3.3,9.14,7.39,0,7.51-12,6.9-12,12.35v.66h10.51a1,1,0,0,1,1,1v2.72a1,1,0,0,1-1,1H382.58a1,1,0,0,1-1-1v-4.13c0-10.55,11.7-8.17,11.7-13.36,0-1.76-1-1.94-4.18-1.94-.66,0-3,.27-4.75.49-.66,0-1.19-.13-1.27-.93-.13-1.49-.18-2.11-.18-2.41,0-.53.57-.88,1.1-1A23.22,23.22,0,0,1,389.4,236.72Z"/></g></g><g id="tram-2" data-name="tram"><g id="tram-3" data-name="tram"><path class="cls-13" d="M839.33,312.44H456.51L444.29,342.1c-5.07,9.13-7.68,21.31-7.68,31.2v33.16H839.33Z"/><rect class="cls-14" x="455.07" y="288" width="382.78" height="27.12"/></g><g id="raam"><rect class="cls-15" x="502.42" y="308.74" width="87.75" height="63.82" transform="translate(1092.59 681.3) rotate(-180)"/><path class="cls-16" d="M583.8,328.46c.72-4,1.12-8.27-1.65-11.64s-6.94-3.27-10.9-2.73c-1.93.26-3,2.73-2.51,4.42.57,2.07,2.49,2.77,4.42,2.5,1.23-.16,2.93-.47,3.66.63.88,1.33.31,3.48,0,4.91a3.7,3.7,0,0,0,2.51,4.42c1.74.48,4.07-.59,4.42-2.51Z"/></g><g id="deur"><rect class="cls-15" x="611.71" y="307.94" width="72.59" height="98.12" transform="translate(1296.02 714.01) rotate(-180)"/><line class="cls-15" x1="648.01" y1="307.94" x2="648.01" y2="404.87"/><path class="cls-16" d="M677.93,328.46c.72-4,1.12-8.27-1.64-11.64s-6.95-3.27-10.91-2.73c-1.92.26-3,2.73-2.51,4.42.57,2.07,2.49,2.77,4.42,2.5,1.23-.16,2.93-.47,3.66.63.88,1.33.31,3.48.06,4.91a3.7,3.7,0,0,0,2.5,4.42c1.74.48,4.08-.59,4.42-2.51Z"/></g><g id="raam-2" data-name="raam"><rect class="cls-15" x="705.84" y="308.74" width="87.75" height="63.82" transform="translate(1499.44 681.3) rotate(-180)"/></g><g id="voorruit"><path class="cls-15" d="M480.48,308.45h-25l-12.05,31a89.26,89.26,0,0,0-6.85,34.29h44.32Z"/><path class="cls-16" d="M474.51,328.46c.72-4,1.12-8.27-1.65-11.64s-6.94-3.27-10.9-2.73c-1.93.26-3,2.73-2.51,4.42.57,2.07,2.49,2.77,4.42,2.5,1.23-.16,2.93-.47,3.66.63.88,1.33.31,3.48.05,4.91a3.7,3.7,0,0,0,2.51,4.42c1.74.48,4.07-.59,4.42-2.51Z"/></g></g><g id="skateboard"><path id="bord" class="cls-17" d="M109.71,448.91H237.53a8.46,8.46,0,0,0,8.46-8.46V435.2a8.46,8.46,0,0,0-8.46-8.46H109.71Z"/><circle id="wiel" class="cls-3" cx="221.56" cy="451.25" r="8.1"/><circle id="wiel-2" data-name="wiel" class="cls-3" cx="131.68" cy="450.92" r="8.1"/><g id="schaduw"><path class="cls-10" d="M222.72,436.12c3.54-.09,8.64-1.76,9.84,2.86.73,2.8,5.07,1.61,4.34-1.2a8.11,8.11,0,0,0-6.34-6.26c-2.65-.54-5.19,0-7.84.1-2.89.07-2.9,4.58,0,4.5Z"/></g></g></svg>