<svg xmlns="http://www.w3.org/2000/svg" viewBox="0 0 768 205.32"><defs><style>.cls-1,.cls-4{fill:#f8efd0;}.cls-2{fill:none;}.cls-2,.cls-3,.cls-4,.cls-6{stroke:#825a60;stroke-linecap:round;stroke-linejoin:round;stroke-width:6px;}.cls-3{fill:#f57d90;}.cls-5{fill:#f5b3bd;}.cls-6{fill:#2bcdc9;}</style></defs><title>illustrations</title><g id="agenda_illustratie" data-name="agenda illustratie"><rect class="cls-1" x="0.5" y="-0.45" width="768" height="201"/><line class="cls-2" x1="-26.73" y1="167.34" x2="819.27" y2="167.34"/><line class="cls-3" x1="-26.23" y1="185.1" x2="818.77" y2="185.1"/><line class="cls-3" x1="-26.23" y1="202.87" x2="818.77" y2="202.87"/></g><g id="fiets"><g id="fiets-2" data-name="fiets"><g id="wiel"><path class="cls-3" d="M351.4,105.35A47.6,47.6,0,1,0,399,153,47.6,47.6,0,0,0,351.4,105.35Z"/><circle class="cls-4" cx="351.4" cy="152.95" r="29.97"/><line class="cls-2" x1="351.4" y1="123.56" x2="351.4" y2="182.33"/><line class="cls-2" x1="325.95" y1="167.64" x2="376.85" y2="138.26"/><line class="cls-2" x1="376.85" y1="167.64" x2="325.95" y2="138.26"/><g id="schaduw"><path class="cls-5" d="M368.45,119.4c7.51,2.7,12,9.76,16.08,16.2,1.54,2.45,5.44.19,3.88-2.27-4.77-7.56-10-15.12-18.76-18.27-2.73-1-3.91,3.37-1.2,4.34Z"/></g></g><path class="cls-2" d="M232.69,104.76H177.45c-9.41,0-18.81-2.35-24.69-5.88"/><polyline class="cls-2" points="198.6 152.95 256.19 149.42 251.97 83.6"/><polyline class="cls-2" points="252.3 83.6 325.54 84.78 256.19 149.42"/><path class="cls-6" d="M236.46,70.15h28.31a8,8,0,0,1,8,8V81a8,8,0,0,1-8,8H236.46a0,0,0,0,1,0,0V70.15A0,0,0,0,1,236.46,70.15Z"/><path class="cls-2" d="M351.4,153,325.54,84.78l10.58-23.51v-20h18.8c8.23,0,10.58,4.7,10.58,9.4"/></g><g id="wiel-2" data-name="wiel"><path class="cls-3" d="M198.6,105.35A47.6,47.6,0,1,0,246.2,153,47.6,47.6,0,0,0,198.6,105.35Z"/><circle class="cls-4" cx="198.6" cy="152.95" r="29.97"/><line class="cls-2" x1="198.6" y1="123.56" x2="198.6" y2="182.33"/><line class="cls-2" x1="173.15" y1="167.64" x2="224.05" y2="138.26"/><line class="cls-2" x1="224.05" y1="167.64" x2="173.15" y2="138.26"/><path class="cls-5" d="M215.45,119.4c7.51,2.7,12,9.76,16.08,16.2,1.54,2.45,5.44.19,3.88-2.27-4.77-7.56-10-15.12-18.76-18.27-2.73-1-3.91,3.37-1.2,4.34Z"/></g><g id="pedalen"><circle class="cls-2" cx="256.19" cy="149.42" r="16.45"/><polyline class="cls-2" points="256.19 149.42 265.42 175.93 276 175.93"/><polyline class="cls-2" points="256.19 149.42 246.97 122.92 236.39 122.92"/></g></g></svg>