<svg xmlns="http://www.w3.org/2000/svg" viewBox="0 0 194.8 194.8"><path d="M97.4 4.9C46.3 4.9 4.9 46.3 4.9 97.4s41.4 92.5 92.5 92.5 92.5-41.4 92.5-92.5S148.5 4.9 97.4 4.9zm0 133.2c-22.5 0-40.7-18.2-40.7-40.7s18.2-40.7 40.7-40.7 40.7 18.2 40.7 40.7-18.2 40.7-40.7 40.7z" fill="#2bcdc9" stroke="#825a60" stroke-width="7.21" stroke-miterlimit="10"/><path d="M130.9 40.4c14 5.9 24.9 17.6 29.8 32 1.5 4.4 8.4 2.5 6.9-1.9a60.57 60.57 0 0 0-33.1-36.3c-4.2-1.8-7.9 4.4-3.6 6.2z" fill="#7feadf"/><path d="M97 57v80.1M59 84.7l76.1 24.7m-61.6 20l47.1-64.7m0 64.7L73.5 64.7m61.6 20L59 109.4" fill="none" stroke="#825a60" stroke-width="7.21" stroke-miterlimit="10"/></svg>