<svg id="Layer_1" xmlns="http://www.w3.org/2000/svg" viewBox="0 0 768 345.5"><style>.st5{stroke:#825a60;stroke-width:5.47;stroke-linejoin:round;fill:#fbcc25;stroke-linecap:round}.st8{fill:#fff}.st9{font-family:&apos;BrandonGrotesque-Black&apos;}.st10{font-size:36.46px}.st12{fill:#f8efd0;stroke:#825a60;stroke-width:5.47;stroke-linecap:round;stroke-linejoin:round}</style><path fill="#f8efd0" d="M-.2 0h768v345.4H-.2z"/><g id="Layer_11"><path d="M-.2 310h768.4M.2 326.2h767.6m-768-31.7h768.4" fill="none" stroke="#825a60" stroke-width="5.47" stroke-linejoin="round"/><path id="XMLID_1_" fill="none" stroke="#825a60" stroke-width="13" stroke-linejoin="round" d="M.2 345.4h767.6"/><path d="M190.5 335.2c-1.1 0-2.3-.2-3.3-.7l-21.9-9.1c-4.4-1.8-6.5-6.9-4.7-11.3s6.9-6.5 11.3-4.7l20.2 8.4 63.1-.9 9.3-6.1-12.1-101h-16.9c-4.8 0-8.7-2-8.7-6.8s3.9-6.8 8.7-6.8h24.6c4.4 0 8.1 3.3 8.6 7.6l13.7 110.3c.4 3.3-1.1 6.5-3.8 8.3l-16 10.5c-1.4.9-3 1.4-4.6 1.4l-67.5.9z" fill="#2bcdc9" stroke="#825a60" stroke-width="5.47" stroke-linecap="round" stroke-linejoin="round"/><path d="M248.5 204.6c4.8.2 11-1.2 12.2 5 .5 2.6 4.4 1.5 4-1.1-.5-3.7-3.2-6.7-6.8-7.6-3.1-.8-6.2-.3-9.3-.5-2.8-.1-2.7 4.1-.1 4.2z" fill="#7feadf"/><circle class="st5" cx="276.1" cy="331.1" r="11.9"/><circle class="st5" cx="172.2" cy="331.1" r="11.9"/><path class="st5" d="M219.3 193.6h18.6v19.9h-18.6c-4.3 0-7.9-4.5-7.9-10 0-5.4 3.6-9.9 7.9-9.9zm334 29.1h16.4v86.6h-16.4z"/><path fill="#f57d90" stroke="#825a60" stroke-width="5.47" stroke-linecap="round" stroke-linejoin="round" d="M595.9 99.3h-70.6l-35.2 61.1 35.2 61.1h70.6l35.2-61.1z"/><path fill="none" stroke="#fff" stroke-width="6.38" stroke-miterlimit="10" d="M585.2 117.8H536l-24.6 42.6L536 203h49.2l24.6-42.6z"/><text transform="translate(527.87 171.7)" class="st8 st9 st10">4</text><text transform="translate(549.04 171.7)" class="st8 st9 st10">0</text><text transform="translate(571.46 171.7)" class="st8 st9 st10">4</text><path d="M595.9 124.5c4.2 6.9 8.3 13.9 12.1 21 1.7 3.1 6.4.3 4.7-2.8-3.8-7.1-7.9-14.1-12.1-21-1.8-2.9-6.6-.2-4.7 2.8z" fill="#f5b3bd"/></g><g id="wiel"><ellipse transform="rotate(-71.567 528.552 292.912)" class="st12" cx="528.6" cy="292.9" rx="30.1" ry="30.1"/><path class="st12" d="M509.6 281.1c2.6 4.1 8.6 6.8 11.5 7.2M510.2 303c1.9 2.7 6.6 5.3 9.3 5.2"/><path d="M545.8 298.8c-1.3 2.4-2.6 5-4.8 6.7-2.8 2.2-6.5 3-9.8 3.9-3.7 1-2.2 6.7 1.6 5.8 4.2-1.1 8.5-2.3 12-5.1 2.8-2.2 4.6-5.2 6.2-8.3 1.8-3.3-3.3-6.4-5.2-3z" fill="#d4ccae"/><path class="st12" d="M534 301.1c-3.6-2.7-8.2-2.7-10-2.7m9.6-24.8c-3.9-1.1-9.1-2.2-12.9-.8m22.8 17c-1.8-2.2-7.7-4.9-11-4.9"/></g></svg>