<svg xmlns="http://www.w3.org/2000/svg" viewBox="0 0 253.7 191.4"><g stroke-miterlimit="10"><path d="M231.8 139.4C231.8 76 169.2 6.6 94.1 42V14H19v125.4" fill="#2bcdc9" stroke="#825a60" stroke-width="8" stroke-linecap="round" stroke-linejoin="round"/><path d="M19.2 137.9h215.1c2.6 0 4.9 2.9 5.6 7.2l3.3 19c1.1 6.4-1.7 12.9-5.6 12.9H19.2c-3.2 0-5.8-4.5-5.8-10v-19c0-5.6 2.6-10.1 5.8-10.1z" fill="#fff" stroke="#825a60" stroke-width="8"/><path d="M159 56.6c12.5 2.1 23.8 11.6 32.5 23.5s11.6 18.3 17.5 32.7" fill="none" stroke="#7feadf" stroke-width="8.207" stroke-linecap="round"/><path d="M221.9 82.1c-13.9-6.1-25.3-.2-31 8.6m3.7-43.7c-12.9-.5-23.1 9.8-26.5 17.2m-11.2-34.6c-5.6 3.1-13.8 12.4-14.9 24.2" fill="none" stroke="#825a60" stroke-width="8" stroke-linecap="round"/></g></svg>