<svg xmlns="http://www.w3.org/2000/svg" viewBox="0 0 254.08 163.44"><defs><style>.cls-1{fill:#f57d90;}.cls-1,.cls-2,.cls-3,.cls-4{stroke:#825a60;stroke-linecap:round;stroke-linejoin:round;stroke-width:4.31px;}.cls-2{fill:#fff;}.cls-3{fill:none;}.cls-4{fill:#fbcc25;}.cls-5{fill:#f5b3bd;}</style></defs><title>illustrations</title><g id="fiets"><g id="fiets-2" data-name="fiets"><g id="wiel"><path class="cls-1" d="M52,65.38A46.58,46.58,0,1,0,98.62,112,46.57,46.57,0,0,0,52,65.38Z"/><circle class="cls-2" cx="52.04" cy="111.95" r="29.33"/><line class="cls-3" x1="52.04" y1="83.2" x2="52.04" y2="140.71"/><line class="cls-3" x1="27.14" y1="126.33" x2="76.95" y2="97.58"/><line class="cls-3" x1="76.95" y1="126.33" x2="27.14" y2="97.58"/></g><g id="wiel-2" data-name="wiel"><path class="cls-1" d="M201.56,65.38A46.58,46.58,0,1,0,248.14,112,46.57,46.57,0,0,0,201.56,65.38Z"/><circle class="cls-2" cx="201.56" cy="111.95" r="29.33"/><line class="cls-3" x1="201.56" y1="83.2" x2="201.56" y2="140.71"/><line class="cls-3" x1="176.66" y1="126.33" x2="226.46" y2="97.58"/><line class="cls-3" x1="226.46" y1="126.33" x2="176.66" y2="97.58"/></g><path class="cls-3" d="M85.4,64.8H31.34c-9.2,0-18.4-2.3-24.15-5.75"/><polyline class="cls-3" points="52.05 111.95 108.4 108.5 104.26 44.1"/><polyline class="cls-3" points="104.59 44.1 176.26 45.25 108.4 108.5"/><path class="cls-4" d="M89.09,30.93h27.53a8,8,0,0,1,8,8v2.4a8,8,0,0,1-8,8H89.09a0,0,0,0,1,0,0V30.93a0,0,0,0,1,0,0Z"/><path class="cls-3" d="M201.56,112l-25.3-66.7,10.35-23V2.7H205c8.05,0,10.35,4.6,10.35,9.2"/><circle class="cls-3" cx="108.4" cy="108.5" r="16.1"/><polyline class="cls-3" points="108.4 108.5 117.43 134.44 127.78 134.44"/><polyline class="cls-3" points="108.4 108.5 99.37 82.57 89.02 82.57"/></g><path class="cls-5" d="M68.37,79.72c7.17,2.58,11.48,9.42,15.36,15.57,1.93,3.06,6.81.24,4.87-2.84-4.77-7.55-10-15-18.74-18.16-3.41-1.23-4.88,4.21-1.49,5.43Z"/><path class="cls-5" d="M218.08,79.72c7.17,2.58,11.49,9.42,15.37,15.57,1.93,3.06,6.8.24,4.86-2.84-4.76-7.55-10-15-18.73-18.16-3.42-1.23-4.89,4.21-1.5,5.43Z"/></g></svg>