<svg id="Layer_1" xmlns="http://www.w3.org/2000/svg" viewBox="0 0 320 317.9"><style>.st1{fill:none;stroke:#825a60;stroke-width:4;stroke-linecap:round;stroke-linejoin:round}.st4{fill:#f5b3bd}.st5,.st8{fill:#fbcc25;stroke:#825a60;stroke-width:2.84;stroke-linecap:round;stroke-linejoin:round}.st8{fill:#fbe594;stroke-width:4}.st9{fill:#fbf4da}.st10,.st11{fill:#fff;stroke:#825a60;stroke-width:2.22;stroke-miterlimit:10}.st11{fill:#2bcdc9}.st13{fill:#7feadf}.st14{fill:#825a60}.st17{stroke:#825a60;fill:#f57d90;stroke-width:2.5;stroke-linecap:round;stroke-linejoin:round}</style><g id="background"><path fill="#f8efd2" d="M0-1h320v317H0z"/><path class="st1" d="M-49.6 295.8H320m-369.4 10.1h369.1M-49.4 316h369.1"/><g id="guitar"><g id="guitar-2"><path d="M-24.5 286.2c-.1-2.3-.2-4.5-.2-6.9 0-45.4 29.5-82.3 65.8-82.3 11.2.1 22 3.5 31.2 9.8 16.4 11.1 36 22.8 55.8 21 1.1-.1 2.2-.1 3.4-.1 25.4 0 46.1 19.8 46.1 51.6 0 2.4-.1 4.7-.4 7.1l142.5.4" fill="#f57d90" stroke="#825a60" stroke-width="4" stroke-linecap="round" stroke-linejoin="round"/><path d="M74.3 286.8c.3-15.9 13.4-28.5 29.3-28.2 15.4.3 27.9 12.7 28.2 28.2" fill="#f8efd0" stroke="#825a60" stroke-width="4" stroke-linecap="round" stroke-linejoin="round"/><path class="st4" d="M159.2 248.4c-7.1-7.4-15.3-12.5-25.8-12.4-3.3 0-3.3 5.1 0 5.1 9.1-.1 16.1 4.5 22.2 10.9 2.3 2.4 5.9-1.2 3.6-3.6z"/></g><path class="st1" d="M11.1 266.1H320M11.1 276.2h308.6"/><circle class="st5" cx="11.1" cy="265.8" r="3.4"/><circle class="st5" cx="11.1" cy="276" r="3.4"/></g></g><g id="tram"><g id="tram-2" stroke="#825a60" stroke-width="4" stroke-linecap="round" stroke-linejoin="round"><path d="M336.7 246H202.1l-6.5 15.8c-2.7 5.1-4.1 10.8-4.1 16.6V296h145.2v-50z" fill="#fbcc25"/><path fill="#fff" d="M201.3 233h134.6v14.4H201.3z"/></g><g id="raam"><path class="st8" d="M226.5 244h46.7v33.9h-46.7z"/><path class="st9" d="M269.7 254.5c.4-2.1.6-4.4-.9-6.2s-3.7-1.7-5.8-1.4c-1 .3-1.6 1.3-1.3 2.3.3 1 1.3 1.6 2.4 1.3.7-.1 1.6-.3 2 .3s.2 1.9 0 2.6c-.2 1 .3 2 1.3 2.4 1 .3 2-.3 2.3-1.3z"/></g><g id="deur"><path class="st8" d="M284.6 243.6h38.6v52.2h-38.6z"/><path class="st1" d="M303.9 243.6v51.5"/><path class="st9" d="M319.8 254.5c.4-2.1.6-4.4-.9-6.2s-3.7-1.7-5.8-1.4c-1 .3-1.6 1.3-1.3 2.3.3 1 1.3 1.6 2.4 1.3.7-.1 1.6-.3 2 .3s.2 1.9 0 2.6c-.2 1 .3 2 1.3 2.4.9.3 2-.3 2.3-1.3z"/></g><g id="voorruit"><path class="st8" d="M214.8 243.9h-13.3l-6.4 16.5c-2.4 5.8-3.6 12-3.6 18.2H215l-.2-34.7z"/><path class="st9" d="M211.6 254.5c.4-2.1.6-4.4-.9-6.2s-3.7-1.7-5.8-1.4c-1 .3-1.6 1.3-1.3 2.3.3 1 1.3 1.6 2.4 1.3.7-.1 1.6-.3 1.9.3s.2 1.9 0 2.6c-.2 1 .3 2 1.3 2.4 1.1.3 2.1-.3 2.4-1.3z"/></g></g><g id="typo"><g id="week_van_de_mobiliteit"><path class="st10" d="M41.1 111l7.5-17.8c.3-.5.8-.9 1.4-.9h7.3c.9 0 1.6.7 1.6 1.6 1.8 36.7 1.9 36.8 1.9 36.8-.1.9-.9 1.6-1.9 1.6h-5c-.9 0-1.6-.7-1.6-1.6v-.1l-1.5-22.1-6.4 15.8c-.3.6-1 1.1-1.7 1.2h-3.4c-.7-.1-1.3-.6-1.7-1.2l-6.4-15.8-1.6 22.1c0 .9-.7 1.6-1.6 1.6h-5.1c-.9 0-1.7-.7-1.8-1.6 0 0 .1-.1 2-36.8 0-.9.7-1.6 1.6-1.6H32c.6 0 1.1.3 1.4.8l7.7 18z"/><path class="st11" d="M64.9 112.6c0-16.7 8-20.6 17.5-20.6s17.4 3.9 17.4 20.6c0 15.7-7.9 20.1-17.3 20.1s-17.6-4.5-17.6-20.1zm26.4 0c0-12.6-5.7-13-9-13s-9 .5-9 13c0 10.3 5.8 12.6 9.1 12.6s8.9-2.3 8.9-12.6z"/><path class="st10" d="M117.4 92.3c9.4 0 14.4 2.6 14.4 12 0 3-1.2 6.2-5 7.5 4.1.9 6.9 4.5 6.9 8.7 0 9.3-4.9 11.9-14.4 11.9h-12.8c-.9 0-1.6-.8-1.6-1.7V93.9c0-.9.7-1.6 1.6-1.6h10.9zm-4.1 7.5v8.8h4c3.2 0 6.1-.7 6.1-4.4s-2.8-4.4-6.1-4.4h-4zm11.9 20.6c0-3.7-2.8-4.2-6.1-4.2h-5.9v8.6h5.8c3.4 0 6.2-.7 6.2-4.4zm21.5 10.3c0 .9-.7 1.6-1.6 1.6h-5.3c-.9 0-1.6-.7-1.6-1.6V93.9c0-.9.7-1.6 1.6-1.6h5.3c.9 0 1.6.7 1.6 1.6v36.8zm7.8 1.6c-.9 0-1.6-.7-1.6-1.6V93.9c0-.9.7-1.6 1.6-1.6h5.3c.9 0 1.6.7 1.6 1.6v30.9h15.3c.9 0 1.6.7 1.6 1.6v4.5c0 .9-.7 1.6-1.6 1.6h-.1l-22.1-.2z"/><path d="M190.3 130.7c0 .9-.7 1.6-1.6 1.6h-5.2c-.9 0-1.6-.7-1.6-1.6V93.9c0-.9.7-1.6 1.6-1.6h5.3c.9 0 1.6.7 1.6 1.6v36.8h-.1z" fill="#f57d90" stroke="#825a60" stroke-width="2.22" stroke-miterlimit="10"/><path class="st10" d="M212.6 130.7c0 .9-.7 1.6-1.6 1.6h-5.2c-.9 0-1.6-.7-1.6-1.6V99.8h-8.8c-.9 0-1.6-.7-1.6-1.6v-4.4c0-.9.7-1.6 1.6-1.6h26.1c.9 0 1.6.7 1.6 1.5v4.4c0 .9-.7 1.6-1.6 1.6h-8.8l-.1 31z"/><path class="st11" d="M228.2 132.3c-.9 0-1.6-.7-1.6-1.6V93.9c0-.9.7-1.6 1.6-1.6h23.3c.9 0 1.6.7 1.6 1.6v4.4c0 .9-.7 1.6-1.6 1.6H235v8.7h11.9c.9 0 1.6.7 1.6 1.6v4.3c0 .9-.7 1.6-1.6 1.6H235v8.7h16.4c.9 0 1.6.7 1.6 1.6v4.3c0 .9-.7 1.6-1.6 1.6h-23.2z"/><path class="st10" d="M266 130.7c0 .9-.7 1.6-1.6 1.6h-5.3c-.9 0-1.6-.7-1.6-1.6V93.9c0-.9.7-1.6 1.6-1.6h5.3c.9 0 1.6.7 1.6 1.6v36.8zm22.4 0c0 .9-.7 1.6-1.6 1.6h-5.3c-.9 0-1.6-.7-1.6-1.6V99.8h-8.8c-.9 0-1.6-.7-1.6-1.6v-4.4c0-.9.7-1.6 1.6-1.6h26.1c.9 0 1.6.7 1.6 1.6v4.4c0 .9-.7 1.6-1.6 1.6h-8.8v30.9z"/><path class="st13" d="M86.3 96.6c4.1.6 7.3 4.1 7.5 8.3.1 1.6 2.6 1.6 2.5 0-.3-5.5-4.5-10.1-10-10.8-1.6-.3-1.5 2.2 0 2.5z"/><path class="st4" d="M185.6 95.6v9.7c0 .7.6 1.2 1.2 1.2s1.2-.6 1.2-1.2v-9.7c0-.7-.6-1.2-1.2-1.2s-1.2.5-1.2 1.2z"/><path class="st13" d="M247.3 96.1c.3-.1.7-.1 1-.1.1 0 .2.1.4.1l.3.1c-.3-.2-.3-.6-.2-.9-.3.6-.1 1.3.4 1.7.6.3 1.4.1 1.7-.4.5-.9.2-2-.7-2.5-.1 0-.1-.1-.2-.1-1-.4-2.2-.5-3.3-.3-.7.2-1.1.9-.9 1.5.2.7.9 1 1.5.9z"/><path class="st14" d="M70.9 51.5h2.3c.5 0 .8.3.9.9.5 3.3.7 6.6.8 9.9 0 11.9-1.1 16-7.3 16-1.2 0-4.1 0-5.6-2.8-1.8 2.8-4.5 2.8-6 2.8-6.1 0-7.4-2.8-7.4-12.2V52.4c0-.5.3-.9.8-.9h2.4c.5 0 .9.3.9.8v14.3c0 7.7 1.7 8.2 3.5 8.2 3.3 0 3.4-3.2 3.4-6V52.4c0-.5.3-.9.8-.9h2.4c.5 0 .9.3.9.8v14c0 2.8.1 8.5 3.5 8.5s3.5-2.4 3.5-12.5c0-3.3-.3-6.6-.7-9.8 0-.5.3-.8.9-1-.1 0-.1 0 0 0zM80 78c-.5 0-.9-.3-.9-.8V52.4c0-.5.3-.9.8-.9h15.3c.5 0 .9.3.9.8v1.8c0 .5-.3.9-.8.9H83.2v8.1H92c.5 0 .9.3.9.8v1.8c0 .5-.3.9-.8.9h-8.9v8.1h12c.5 0 .9.3.9.8v1.7c0 .5-.3.9-.8.9h-.1L80 78zm19.8 0c-.5 0-.9-.3-.9-.8V52.4c0-.5.3-.9.8-.9H115c.5 0 .9.3.9.8v1.8c0 .5-.3.9-.8.9H103v8.1h8.7c.5 0 .9.3.9.8v1.8c0 .5-.3.9-.8.9H103v8.1h12c.5 0 .9.4.9.8v1.7c0 .5-.4.9-.8.9h-.1L99.8 78zm33.4-3.8c-1.6-3.4-3.1-6.6-5.1-8.7-1.6 1.2-3.4 2-5.2 2.6v9c0 .5-.3.9-.8.9h-2.4c-.5 0-.9-.4-.9-.8V52.4c0-.5.4-.9.8-.9h2.4c.5 0 .9.3.9.8v11.1c3.4 0 9.2-6.6 10.8-11 .2-.6.5-.9 1-.9h2.2c.5 0 .9.3.9.8v.1c-1.2 4-3.4 7.7-6.3 10.7 1.2 1.3 2.3 2.8 3.1 4.4l4.6 9.6c0 .5-.3.9-.8.9h-2.6c-.6-.1-1-.5-1.2-1-.5-.8-1-1.8-1.4-2.8zm35.4-21.8c.1-.5.6-.8 1.1-.9h2.3c.5 0 .9.3.9.8v.1c-2 5.5-6.6 19-8.6 24.6-.2.6-.8 1-1.4 1h-3.3c-.6 0-1.2-.4-1.4-1-2-5.6-6.6-19-8.6-24.6 0-.5.3-.9.8-.9h2.4c.5 0 .9.4 1.1.9l7.4 21.6 7.3-21.6zm20.1 19.2h-11l-1.9 5.5c-.1.5-.6.9-1.1.9h-2.3c-.5 0-.9-.3-.9-.8v-.1c2-5.6 6.6-19 8.6-24.6.2-.6.8-1 1.4-1h3.3c.6 0 1.2.4 1.4 1 1.6 4.5 4.9 14.6 7.3 21 .4 1 .7 1.8 1.1 2 .3.1.4.4.4.7v1.3c0 .5-.9.7-1.9.7-1.8 0-2.4-.9-3.1-2.6l-1.3-4zm-9.9-3.4h8.6l-4.3-12.6-4.3 12.6zm35.2 2.4V52.4c0-.5.3-.9.8-.9h2.4c.5 0 .9.3.9.8v24.8c0 .5-.3.9-.8.9h-2.4c-.7 0-1.4-.4-1.7-1l-11.5-18.6v18.8c0 .5-.3.9-.8.9h-2.4c-.5 0-.9-.4-.9-.8V52.4c0-.5.4-.9.8-.9h2.8c.7 0 1.4.4 1.7 1L214 70.6zm17.5-18.2c0-.5.4-.9.8-.9h8.7c6 0 9.2 3.4 9.2 9.3v7.8c0 6-3.3 9.3-9.2 9.3h-8.6c-.5 0-.9-.4-.9-.8V52.4zm14.6 8.6c0-4.2-2.5-6-5.3-6h-5.2v19.6h5.2c2.8 0 5.3-1.7 5.3-6V61zm9 17c-.5 0-.9-.3-.9-.8V52.4c0-.5.3-.9.8-.9h15.3c.5 0 .9.3.9.8v1.8c0 .5-.3.9-.8.9h-12.1v8.1h8.7c.5 0 .9.3.9.8v1.8c0 .5-.3.9-.8.9h-8.8v8.1h12c.5 0 .9.3.9.8v1.7c0 .5-.3.9-.8.9h-.1l-15.2-.1z"/></g><g id="datum"><path class="st14" d="M35.1 145.5c.1-.3.3-.5.7-.5h1.4c.3 0 .5.2.5.5-1.2 3.4-4 11.5-5.2 14.9-.1.4-.5.6-.9.6h-2c-.4 0-.7-.3-.9-.6-1.2-3.4-4-11.6-5.2-14.9 0-.3.2-.5.5-.5h1.5c.3 0 .6.2.6.5l4.5 13.1 4.5-13.1zm12.4 11.6h-6.7l-1.2 3.3c-.1.3-.3.5-.7.5h-1.4c-.3 0-.5-.2-.5-.5 1.2-3.4 4-11.6 5.2-14.9.1-.4.5-.6.8-.6h2c.4 0 .7.3.8.6 1 2.7 3 8.8 4.4 12.7.2.6.4 1.1.7 1.2.2.1.3.2.3.4v.9c0 .3-.6.4-1.1.4-1.1 0-1.5-.5-1.9-1.6l-.7-2.4zm-6-2.1h5.2l-2.6-7.6-2.6 7.6zm21.5 1.5v-11c0-.3.2-.5.5-.5H65c.3 0 .5.2.5.5v15c0 .3-.2.5-.5.5h-1.4c-.4 0-.8-.3-1-.6l-6.9-11.3v11.4c0 .3-.2.5-.5.5h-1.5c-.3 0-.5-.2-.5-.5v-15c0-.3.2-.5.5-.5h1.6c.4 0 .8.2 1 .6l6.7 10.9zm14.6-11.6H80c.3 0 .5.2.5.5v15c0 .3-.2.5-.5.5h-1.4c-.3 0-.5-.2-.5-.5v-13l-4.7 3.1c-.3 0-.5-.2-.5-.5v-1.6c0-.2.1-.4.2-.4l4.5-3.1zm11.9 2c-1.4 0-3.7.3-3.7 3.2v2c1-.6 2.1-.9 3.2-.9 2.4 0 4.9 1.1 4.9 4.7 0 3.4-1.7 5.2-5.3 5.2s-5.3-1.8-5.3-5.2v-5.4c0-3.6 2.2-5.7 5.9-5.7 1.3-.1 2.7.2 3.8.8.1.1.2.2.2.4v.2l-.5 1.2c-.1.1-.2.2-.3.2-.1 0-.2 0-.3-.1-.8-.4-1.7-.6-2.6-.6zm-3.7 9.3c-.2 1.4.8 2.6 2.1 2.8h.7c2.6 0 2.9-1.7 2.9-2.8s0-2.8-2.9-2.8c-2.7 0-2.8 1.7-2.8 2.8zm15.7-9.2c-.3 0-.5-.2-.5-.5v-1c0-.3.2-.5.5-.5H112c.3 0 .5.2.5.5v1c0 .3-.2.5-.5.5h-3.9v13.4c0 .3-.2.5-.5.5H106c-.3 0-.5-.2-.5-.5V147h-4zm11.8 6.1c0-6.7 3.2-8.3 6.9-8.3s6.9 1.6 6.9 8.3c0 6.3-3.1 8.1-6.9 8.1s-6.9-1.8-6.9-8.1zm11.4 0c0-5.8-2.6-6.1-4.4-6.1s-4.4.4-4.4 6.1c0 5.4 2.5 5.9 4.4 5.9s4.4-.6 4.4-5.9zm4-6.1c-.3 0-.5-.2-.5-.5v-1c0-.3.2-.5.5-.5H139c.3 0 .5.2.5.5v1c0 .3-.2.5-.5.5h-3.9v13.4c0 .3-.2.5-.5.5h-1.4c-.3 0-.5-.2-.5-.5V147h-4zm22.7-2.2c5 0 5.8 1.8 5.8 4 0 4.7-8.2 4.9-8.2 9.3v.8h7.3c.3 0 .5.2.5.5v1c0 .3-.2.5-.5.5h-9.1c-.3 0-.5-.2-.5-.5V158c0-5.9 8.1-6.1 8.1-9.2 0-1.8-1-1.9-3.7-1.9-.4 0-1.8.2-3.1.3-.3 0-.4-.1-.5-.4l-.1-.9c0-.4.1-.5.3-.7 1.2-.2 2.4-.4 3.7-.4zm12.4 0c5 0 5.8 1.8 5.8 4 0 4.7-8.2 4.9-8.2 9.3v.8h7.3c.3 0 .5.2.5.5v1c0 .3-.2.5-.5.5h-9.2c-.3 0-.5-.2-.5-.5V158c0-5.9 8.1-6.1 8.1-9.2 0-1.8-1-1.9-3.7-1.9-.4 0-1.8.2-3.1.3-.2 0-.5-.1-.5-.4l-.1-.9c0-.4.1-.5.3-.7 1.3-.2 2.5-.4 3.8-.4zm19.7 2.1c-2.6 0-3.9.1-3.9 1.9 0 3.7 9.4 1.4 9.4 7.8 0 3.1-2.4 4.5-6.8 4.5-1.5 0-3-.4-4.4-.9-.1-.1-.2-.2-.2-.4v-.2l.5-1.2c.1-.1.2-.2.3-.2s.1 0 .2.1c1.3.5 2.6.7 3.9.8.9 0 3.9-.2 3.9-2.5 0-3.9-9.4-1.6-9.4-7.4 0-2.5 1.1-4.2 6.2-4.2 1.3.1 2.6.2 3.9.5.2.1.3.3.3.5 0 0-.1.9-.1 1.2 0 .2-.2.3-.4.3-1.5-.4-3-.6-3.4-.6zm8 14.1c-.3 0-.5-.2-.5-.5v-15c0-.3.2-.5.5-.5h9.2c.3 0 .5.2.5.5v1.1c0 .3-.2.5-.5.5h-7.2v5h5.3c.3 0 .5.2.5.5v1.1c0 .3-.2.5-.5.5h-5.3v4.9h7.2c.3 0 .5.2.5.5v1c0 .3-.2.5-.5.5l-9.2-.1zm14.1-.5c0 .3-.2.5-.5.5h-1.4c-.3 0-.5-.2-.5-.5v-15c0-.3.2-.5.5-.5h4.9c3.7 0 5.6 1.6 5.6 5.2s-1.9 5.1-5.6 5.1h-2.9v5.2h-.1zm6.1-10.4c.2-1.5-1-2.9-2.5-3.1h-3.5v6.1h3.1c1.5.1 2.8-1 3-2.5-.1-.1-.1-.3-.1-.5zm4.1-3.1c-.3 0-.5-.2-.5-.5v-1c0-.3.2-.5.5-.5h10.4c.3 0 .5.2.5.5v1.1c0 .3-.2.5-.5.5h-3.9v13.4c0 .3-.2.5-.5.5h-1.4c-.3 0-.5-.2-.5-.5V147h-4.1zm13.3 14c-.3 0-.5-.2-.5-.5v-15c0-.3.2-.5.5-.5h9.2c.3 0 .5.2.5.5v1.1c0 .3-.2.5-.5.5H231v5h5.3c.3 0 .5.2.5.5v1c0 .3-.2.5-.5.5H231v4.9h7.2c.3 0 .5.2.5.5v1.1c0 .3-.2.5-.5.5h-.1l-9-.1zm19-2.9c-.3 0-.5-.2-.6-.5l-3.7-8.9-.8 11.8c-.1.3-.3.5-.6.5h-1.3c-.3 0-.5-.2-.5-.5v-.1l1-15c0-.3.2-.5.5-.5h2.7c.2 0 .3.2.4.4l3.6 8.6 3.6-8.6c.1-.3.3-.4.5-.4h2.6c.3 0 .5.2.5.5l1 15c0 .3-.2.5-.5.5H255c-.3 0-.6-.2-.6-.5l-.8-11.8-3.6 8.9c-.1.3-.4.4-.6.5h-1.3v.1zm16.2-13.2c3.3 0 5.6 1 5.6 4.6.1 1.3-.5 2.6-1.5 3.4 2.1.6 2.4 1.9 2.4 3.5 0 3.6-2 4.6-5.6 4.6H260c-.3 0-.5-.2-.5-.5v-15c0-.3.2-.5.5-.5h4.3v-.1zm-2.4 2.1v5h2.3c1.7 0 3.2-.4 3.2-2.4s-1.5-2.5-3.2-2.5l-2.3-.1zm6.3 9.4c0-2.1-1.5-2.4-3.2-2.4h-3.1v4.9h3.1c1.7 0 3.2-.4 3.2-2.5zm5.3 4.6c-.3 0-.5-.2-.5-.5v-15c0-.3.2-.5.5-.5h9.2c.3 0 .5.2.5.5v1.1c0 .3-.2.5-.5.5h-7.2v5h5.3c.3 0 .5.2.5.5v1.1c0 .3-.2.5-.5.5h-5.3v4.9h7.2c.3 0 .5.2.5.5v1c0 .3-.2.5-.5.5l-9.2-.1zm22.9-1.1v.9c0 .3-.6.4-1.2.4-.8 0-1.5-.5-1.8-1.2l-1.8-4.7h-4v5.2c0 .3-.2.5-.5.5h-1.4c-.3 0-.5-.2-.5-.5v-15c0-.3.2-.5.5-.5h5.1c3.7 0 5.6 1.6 5.6 5.2 0 2.3-.8 3.8-2.4 4.5l1.3 3.4c.3.9.5 1.1.8 1.3.2.1.3.3.3.5zm-5.4-6.7c1.5.1 2.8-1 2.9-2.5v-.5c.2-1.5-1-2.9-2.5-3.1h-3.8v6.1h3.4z"/><path d="M77.6 145h2.7c.4 0 .6.3.7.6v14.8c0 .4-.3.6-.6.6h-2.1c-.4 0-.6-.3-.7-.6v-11.8l-4.2 2.7c-.4 0-.6-.3-.7-.6v-2.2c0-.2.1-.4.2-.5l4.7-3zm5.9 5.8c0-3.7 2.3-5.9 6.1-5.9 1.4-.1 2.8.3 3.9 1.1.2.2.4.4.4.7-.2.5-.4 1-.7 1.4-.1.2-.3.4-.6.4-.1 0-.3 0-.4-.1-.8-.4-1.6-.6-2.5-.5-1.2 0-2.8.3-3 2.5v1.3c.8-.5 1.8-.8 2.7-.7 2.6 0 4.9 1.1 4.9 4.8 0 3.5-1.7 5.4-5.5 5.4s-5.5-1.9-5.5-5.4l.2-5zm3.4 5.2c-.1 1.1.6 2 1.7 2.1h.4c1 .1 2-.6 2.1-1.6v-.6c0-.8 0-2.1-2.1-2.1s-2.1 1.4-2.1 2.2zm64.1-11.1c5.1 0 5.9 2.1 5.9 4.8 0 4.8-7.7 4.4-7.7 8v.4h6.8c.4 0 .6.3.6.6v1.8c0 .4-.3.6-.6.6h-9.3c-.4 0-.6-.3-.6-.6v-2.7c0-6.8 7.5-5.3 7.5-8.6 0-1.1-.6-1.2-2.7-1.2-.4 0-2 .2-3.1.3-.4 0-.8-.1-.8-.6-.1-1-.1-1.4-.1-1.6s.4-.6.7-.6c1.1-.4 2.2-.6 3.4-.6zm12.5 0c5.1 0 5.9 2.1 5.9 4.8 0 4.8-7.7 4.4-7.7 8v.4h6.8c.4 0 .6.3.6.6v1.8c0 .4-.3.6-.6.6h-9.3c-.4 0-.6-.3-.6-.6v-2.7c0-6.8 7.5-5.3 7.5-8.6 0-1.1-.7-1.2-2.7-1.2-.4 0-2 .2-3.1.3-.4 0-.8-.1-.8-.6-.1-1-.1-1.4-.1-1.6s.4-.6.7-.6c1-.4 2.2-.6 3.4-.6z" fill="#fbcc25" stroke="#825a60" stroke-width="1.11"/></g></g><g id="skateboard-2"><path id="bord" d="M33 308.8h85.1c3.1 0 5.6-2.5 5.6-5.6v-3.5c0-3.1-2.5-5.6-5.6-5.6H33v14.7z" fill="#2bcdc9" stroke="#825a60" stroke-width="2.5" stroke-linecap="round" stroke-linejoin="round"/><circle id="wiel" class="st17" cx="107.5" cy="310.3" r="5.4"/><circle id="wiel-2" class="st17" cx="47.6" cy="310.6" r="5.4"/><path class="st13" d="M108.2 300.2c2.4-.1 5.8-1.2 6.6 1.9.3.8 1.2 1.2 1.9.9.7-.3 1.1-1 1-1.7-.5-2.1-2.1-3.7-4.2-4.2-1.8-.4-3.4 0-5.2.1-2 .1-2 3.1-.1 3z" id="schaduw"/></g></svg>