<svg xmlns="http://www.w3.org/2000/svg" viewBox="0 0 320 200.94"><defs><style>.cls-1,.cls-4{fill:#f8efd0;}.cls-2{fill:none;}.cls-2,.cls-3,.cls-4,.cls-6{stroke:#825a60;stroke-linecap:round;stroke-linejoin:round;stroke-width:5.16px;}.cls-3{fill:#f57d90;}.cls-5{fill:#f5b3bd;}.cls-6{fill:#2bcdc9;}</style></defs><title>illustrations</title><g id="agenda_illustratie_copy" data-name="agenda illustratie copy"><rect class="cls-1" y="-0.05" width="321" height="199"/><line class="cls-2" x1="-24.81" y1="168.43" x2="350.36" y2="168.43"/><line class="cls-3" x1="-24.38" y1="183.72" x2="349.93" y2="183.72"/><line class="cls-3" x1="-24.38" y1="199.01" x2="349.93" y2="199.01"/></g><g id="fiets_copy" data-name="fiets copy"><g id="fiets-2" data-name="fiets"><g id="wiel"><path class="cls-3" d="M197.83,115.08a41,41,0,1,0,41,41A41,41,0,0,0,197.83,115.08Z"/><circle class="cls-4" cx="197.83" cy="156.05" r="25.79"/><line class="cls-2" x1="197.83" y1="130.76" x2="197.83" y2="181.34"/><line class="cls-2" x1="175.93" y1="168.69" x2="219.73" y2="143.4"/><line class="cls-2" x1="219.73" y1="168.69" x2="175.93" y2="143.4"/><g id="schaduw"><path class="cls-5" d="M212.51,127.18c6.46,2.32,10.34,8.4,13.84,13.94,1.32,2.1,4.67.16,3.34-2-4.11-6.5-8.62-13-16.15-15.72-2.35-.84-3.36,2.9-1,3.74Z"/></g></g><path class="cls-2" d="M95.67,114.58H48.13c-8.1,0-16.19-2-21.25-5.06"/><polyline class="cls-2" points="66.33 156.05 115.9 153.01 112.26 96.37"/><polyline class="cls-2" points="112.55 96.37 175.58 97.38 115.9 153.01"/><path class="cls-6" d="M98.91,84.79h23.25a8,8,0,0,1,8,8V93a8,8,0,0,1-8,8H98.91a0,0,0,0,1,0,0V84.79a0,0,0,0,1,0,0Z"/><path class="cls-2" d="M197.83,156.05,175.58,97.38l9.1-20.23V60h16.19C208,60,210,64,210,68"/></g><g id="pedalen_copy" data-name="pedalen copy"><circle class="cls-2" cx="115.9" cy="153.01" r="14.16"/><polyline class="cls-2" points="115.9 153.01 123.84 175.83 132.94 175.83"/><polyline class="cls-2" points="115.9 153.01 107.96 130.2 98.85 130.2"/></g><g id="wiel-2" data-name="wiel"><path class="cls-3" d="M66.33,115.08a41,41,0,1,0,41,41A41,41,0,0,0,66.33,115.08Z"/><circle class="cls-4" cx="66.33" cy="156.05" r="25.79"/><line class="cls-2" x1="66.33" y1="130.76" x2="66.33" y2="181.34"/><line class="cls-2" x1="44.43" y1="168.69" x2="88.23" y2="143.4"/><line class="cls-2" x1="88.23" y1="168.69" x2="44.43" y2="143.4"/><path class="cls-5" d="M80.83,127.18c6.46,2.32,10.34,8.4,13.84,13.94,1.33,2.1,4.68.16,3.34-2-4.1-6.5-8.62-13-16.15-15.72-2.35-.84-3.36,2.9-1,3.74Z"/></g></g></svg>