<svg id="Layer_1" xmlns="http://www.w3.org/2000/svg" viewBox="0 0 1024 205.3"><style>.st1{fill:none}.st1,.st2,.st3{stroke:#825a60;stroke-width:6;stroke-linecap:round;stroke-linejoin:round}.st2{fill:#f57d90}.st3{fill:#f8efd0}.st4{fill:#f5b3bd}</style><g id="agenda_illustratie"><path fill="#f8efd0" d="M-140-.4h1440v201H-140z"/><path class="st1" d="M-297.7 167.3h1778m-1777.5 17.8h1777m-1777 17.8h1777"/></g><g id="fiets"><g id="fiets-2"><g id="wiel"><path class="st2" d="M351.4 105.3c-26.3 0-47.6 21.3-47.6 47.6s21.3 47.6 47.6 47.6S399 179.2 399 153c0-26.3-21.3-47.6-47.6-47.7 0 .1 0 0 0 0z"/><circle class="st3" cx="351.4" cy="152.9" r="30"/><path class="st1" d="M351.4 123.6v58.7M326 167.6l50.9-29.3m0 29.3L326 138.3"/><path class="st4" d="M368.5 119.4c7.5 2.7 12 9.8 16.1 16.2 1.5 2.4 5.4.2 3.9-2.3-4.8-7.6-10-15.1-18.8-18.3-2.8-.9-4 3.4-1.2 4.4z" id="schaduw"/></g><path class="st1" d="M232.7 104.8h-55.2c-9.4 0-18.8-2.3-24.7-5.9m45.8 54l57.6-3.5-4.2-65.8m.3 0l73.2 1.2-69.3 64.6"/><path d="M236.5 70.2h28.3c4.4 0 8 3.6 8 8V81c0 4.4-3.6 8-8 8h-28.3V70.2z" fill="#2bcdc9" stroke="#825a60" stroke-width="6" stroke-linecap="round" stroke-linejoin="round"/><path class="st1" d="M351.4 153l-25.9-68.2 10.6-23.5v-20h18.8c8.2 0 10.6 4.7 10.6 9.4"/></g><g id="pedalen"><ellipse transform="rotate(-80.781 256.193 149.416)" class="st1" cx="256.2" cy="149.4" rx="16.4" ry="16.5"/><path class="st1" d="M256.2 149.4l9.2 26.5H276m-19.8-26.5l-9.2-26.5h-10.6"/></g><g id="wiel-2"><path class="st2" d="M198.6 105.3c-26.3 0-47.6 21.3-47.6 47.6s21.3 47.6 47.6 47.6 47.6-21.3 47.6-47.5c0-26.3-21.3-47.6-47.6-47.7 0 .1 0 0 0 0z"/><circle class="st3" cx="198.6" cy="152.9" r="30"/><path class="st1" d="M198.6 123.6v58.7m-25.5-14.7l51-29.3m0 29.3l-51-29.3"/><path class="st4" d="M215.4 119.4c7.5 2.7 12 9.8 16.1 16.2 1.5 2.4 5.4.2 3.9-2.3-4.8-7.6-10-15.1-18.8-18.3-2.7-.9-3.9 3.4-1.2 4.4z"/></g></g></svg>