<svg id="Layer_1" xmlns="http://www.w3.org/2000/svg" viewBox="0 0 320 200.9"><style>.st1{fill:none}.st1,.st2,.st3{stroke:#825a60;stroke-width:5.16;stroke-linecap:round;stroke-linejoin:round}.st2{fill:#f57d90}.st3{fill:#f8efd0}.st4{fill:#f5b3bd}</style><g id="agenda_illustratie_copy"><path fill="#f8efd0" d="M0-.1h321v199H0z"/><path class="st1" d="M-24.8 168.4h375.2m-374.8 15.3h374.3M-24.4 199h374.3"/></g><g id="fiets_copy"><g id="fiets-2"><g id="wiel"><path class="st2" d="M197.8 115.1c-22.6 0-41 18.4-41 41s18.4 41 41 41 41-18.4 41-41-18.3-41-41-41z"/><circle class="st3" cx="197.8" cy="156.1" r="25.8"/><path class="st1" d="M197.8 130.8v50.5m-21.9-12.6l43.8-25.3m0 25.3l-43.8-25.3"/><path class="st4" d="M212.5 127.2c6.5 2.3 10.3 8.4 13.8 13.9 1.3 2.1 4.7.2 3.3-2-4.1-6.5-8.6-13-16.1-15.7-2.3-.8-3.3 2.9-1 3.8z" id="schaduw"/></g><path class="st1" d="M95.7 114.6H48.1c-8.1 0-16.2-2-21.2-5.1m39.4 46.6l49.6-3.1-3.6-56.6"/><path class="st1" d="M112.6 96.4l63 1-59.7 55.6"/><path d="M98.9 84.8h23.2c4.4 0 8 3.6 8 8v.2c0 4.4-3.6 8-8 8H98.9V84.8z" fill="#2bcdc9" stroke="#825a60" stroke-width="5.16" stroke-linecap="round" stroke-linejoin="round"/><path class="st1" d="M197.8 156.1l-22.2-58.7 9.1-20.2V60h16.2c7.1 0 9.1 4 9.1 8"/></g><g id="pedalen_copy"><circle class="st1" cx="115.9" cy="153" r="14.2"/><path class="st1" d="M115.9 153l7.9 22.8h9.1m-17-22.8l-7.9-22.8h-9.2"/></g><g id="wiel-2"><path class="st2" d="M66.3 115.1c-22.6 0-41 18.4-41 41s18.4 41 41 41 41-18.4 41-41-18.3-41-41-41z"/><circle class="st3" cx="66.3" cy="156.1" r="25.8"/><path class="st1" d="M66.3 130.8v50.5m-21.9-12.6l43.8-25.3m0 25.3l-43.8-25.3"/><path class="st4" d="M80.8 127.2c6.5 2.3 10.3 8.4 13.8 13.9 1.3 2.1 4.7.2 3.3-2-4.1-6.5-8.6-13-16.2-15.7-2.2-.8-3.2 2.9-.9 3.8z"/></g></g></svg>