<svg xmlns="http://www.w3.org/2000/svg" viewBox="0 0 320 200.9"><style>.st4{fill:#f5b3bd}.st10,.st8,.st9{fill:none;stroke:#825a60;stroke-width:5.1637;stroke-linecap:round;stroke-linejoin:round;stroke-miterlimit:10}.st10,.st9{fill:#f57d90}.st10{fill:#f8efd0}</style><g id="agenda_illustratie_copy"><path fill="#f8efd0" d="M0 0h321v199H0z"/><path class="st8" d="M-24.8 168.4h375.2"/><path class="st9" d="M-24.4 183.7h374.3M-24.4 199h374.3"/></g><g id="fiets_copy"><g id="fiets_7_"><g id="wiel_10_"><path class="st9" d="M197.8 115.1a41 41 0 1 0 0 82 41 41 0 0 0 0-82z"/><circle class="st10" cx="197.8" cy="156" r="25.8"/><path class="st8" d="M197.8 130.8v50.5M175.9 168.7l43.8-25.3M219.7 168.7l-43.8-25.3"/><g id="schaduw_4_"><path class="st4" d="M212.5 127.2c6.5 2.3 10.3 8.4 13.8 13.9 1.3 2.1 4.7.2 3.3-2-4.1-6.5-8.6-13-16.2-15.7-2.2-.8-3.2 2.9-.9 3.8z"/></g></g><path class="st8" d="M95.7 114.6H48.2c-8.1 0-16.2-2-21.2-5.1M66.3 156l49.6-3-3.6-56.6"/><path class="st8" d="M112.5 96.4l63.1 1-59.7 55.6"/><path d="M98.9 84.8h23.3a8 8 0 0 1 8 8v.2a8 8 0 0 1-8 8H98.9V84.8z" fill="#2bcdc9" stroke="#825a60" stroke-width="5.2" stroke-linecap="round" stroke-linejoin="round" stroke-miterlimit="10"/><path class="st8" d="M197.8 156l-22.3-58.7 9.1-20.2V60h16.2c7.1 0 9.1 4 9.1 8.1"/></g><g id="pedalen_copy"><circle class="st8" cx="115.9" cy="153" r="14.2"/><path class="st8" d="M115.9 153l7.9 22.8h9.1M115.9 153l-7.9-22.8h-9.1"/></g><g id="wiel_9_"><path class="st9" d="M66.3 115.1a41 41 0 1 0 0 82 41 41 0 0 0 0-82z"/><circle class="st10" cx="66.3" cy="156" r="25.8"/><path class="st8" d="M66.3 130.8v50.5M44.4 168.7l43.8-25.3M88.2 168.7l-43.8-25.3"/><g><path class="st4" d="M80.8 127.2c6.5 2.3 10.3 8.4 13.8 13.9 1.3 2.1 4.7.2 3.3-2-4.1-6.5-8.6-13-16.2-15.7-2.2-.8-3.2 2.9-.9 3.8z"/></g></g></g></svg>