<svg xmlns="http://www.w3.org/2000/svg" viewBox="0 0 45.54 23.63"><defs><style>.cls-1{fill:#825a60;}</style></defs><title>illustrations</title><g id="input_icons" data-name="input icons"><path class="cls-1" d="M43.67,20.77l-5.43-5.64a9.19,9.19,0,1,0-1.77,1.62l5.46,5.69a1.23,1.23,0,0,0,.87.36,1.2,1.2,0,0,0,.87-2ZM31.19,2.4a6.81,6.81,0,1,1-6.8,6.81A6.82,6.82,0,0,1,31.19,2.4Z"/><path class="cls-1" d="M8.63.05a8.49,8.49,0,0,0-8.5,8.5h0C.13,13.78,7.6,22.4,7.6,22.4a1.32,1.32,0,0,0,1.86.2l.2-.2s7.47-8.62,7.47-13.85A8.5,8.5,0,0,0,8.63.05Zm0,12.09a3.59,3.59,0,1,1,3.59-3.59A3.59,3.59,0,0,1,8.63,12.14Z"/></g></svg>