<svg xmlns="http://www.w3.org/2000/svg" viewBox="0 0 135.98 93.11"><defs><style>.cls-1,.cls-2,.cls-5{fill:#2bcdc9;}.cls-1,.cls-2,.cls-6{stroke:#2bcdc9;}.cls-1,.cls-10,.cls-2,.cls-3,.cls-5,.cls-6,.cls-7,.cls-8,.cls-9{stroke-linecap:round;stroke-linejoin:round;}.cls-1,.cls-8{stroke-width:0.89px;}.cls-2,.cls-9{stroke-width:0.91px;}.cls-3{fill:none;stroke-width:1.96px;}.cls-3,.cls-5,.cls-7{stroke:#fff;}.cls-4{font-size:26.88px;font-family:MairyExtrabold, Mairy Extrabold;}.cls-10,.cls-4,.cls-6{fill:#fff;}.cls-5,.cls-7{stroke-width:2.09px;}.cls-10,.cls-6{stroke-width:1.73px;}.cls-7,.cls-8,.cls-9{fill:#825a60;}.cls-10,.cls-8,.cls-9{stroke:#825a60;}</style></defs><title>illustrations</title><g id="icons"><path class="cls-1" d="M1.83,85.41a4.12,4.12,0,0,0,4.11,4.11H34.71a4.12,4.12,0,0,0,4.11-4.11V63.33h-37Zm21.38-1.64a1.63,1.63,0,0,1-1.63,1.63h-2.5a1.63,1.63,0,0,1-1.63-1.63V82.5a1.63,1.63,0,0,1,1.63-1.62h2.5a1.63,1.63,0,0,1,1.63,1.62h0Zm0-7.07a1.64,1.64,0,0,1-1.63,1.63h-2.5a1.64,1.64,0,0,1-1.63-1.63V75.43a1.63,1.63,0,0,1,1.63-1.63h2.5a1.63,1.63,0,0,1,1.63,1.63h0ZM27,68.36a1.62,1.62,0,0,1,1.62-1.63h2.5a1.63,1.63,0,0,1,1.63,1.63h0v1.26a1.63,1.63,0,0,1-1.63,1.63h-2.5A1.62,1.62,0,0,1,27,69.62Zm0,7.07a1.62,1.62,0,0,1,1.62-1.63h2.5a1.63,1.63,0,0,1,1.63,1.63h0V76.7a1.64,1.64,0,0,1-1.63,1.63h-2.5A1.63,1.63,0,0,1,27,76.7Zm-9.56-7.07a1.63,1.63,0,0,1,1.63-1.63h2.49a1.63,1.63,0,0,1,1.63,1.63v1.26a1.63,1.63,0,0,1-1.63,1.63h-2.5a1.63,1.63,0,0,1-1.63-1.63Zm-9.56,0a1.63,1.63,0,0,1,1.63-1.63H12a1.63,1.63,0,0,1,1.62,1.63h0v1.26A1.63,1.63,0,0,1,12,71.25H9.51a1.63,1.63,0,0,1-1.62-1.63Zm0,7.07A1.63,1.63,0,0,1,9.53,73.8H12a1.63,1.63,0,0,1,1.62,1.63h0V76.7A1.63,1.63,0,0,1,12,78.33H9.51A1.63,1.63,0,0,1,7.89,76.7Zm0,7.07a1.63,1.63,0,0,1,1.63-1.62H12a1.63,1.63,0,0,1,1.62,1.62h0v1.27A1.63,1.63,0,0,1,12,85.4H9.51a1.63,1.63,0,0,1-1.62-1.63Z"/><path class="cls-1" d="M34.71,53.5H32V50.35a2.06,2.06,0,1,0-4.11,0h0V53.5H22.38V50.35a2.06,2.06,0,1,0-4.11,0h0V53.5H12.82V50.35a2.06,2.06,0,0,0-4.11,0V53.5H5.94a4.12,4.12,0,0,0-4.11,4.11v2.67h37V57.61A4.12,4.12,0,0,0,34.71,53.5Z"/><circle class="cls-2" cx="63.03" cy="68.91" r="20.53"/><circle class="cls-3" cx="63.03" cy="68.91" r="15.64"/><text class="cls-4" transform="translate(60.17 76.07)">i</text><path class="cls-5" d="M94.05,48.65H130.5a3,3,0,0,1,3,3V83.58a5.59,5.59,0,0,1-5.59,5.59H96.64a5.59,5.59,0,0,1-5.59-5.59V51.65A3,3,0,0,1,94.05,48.65Z"/><path class="cls-5" d="M127.79,89.17H90.7a4.86,4.86,0,0,1-4.85-4.85v-25A3.37,3.37,0,0,1,89.21,56h35.73a3.36,3.36,0,0,1,3.36,3.36v23"/><rect class="cls-6" x="91.17" y="72.38" width="16.77" height="10.59" rx="3.09" ry="3.09"/><line class="cls-7" x1="112.3" y1="80.01" x2="122.99" y2="80.01"/><line class="cls-7" x1="112.3" y1="74.27" x2="122.99" y2="74.27"/><line class="cls-7" x1="92.69" y1="68.54" x2="122.99" y2="68.54"/><line class="cls-7" x1="92.69" y1="62.8" x2="122.99" y2="62.8"/><path class="cls-8" d="M1.83,38.41a4.12,4.12,0,0,0,4.11,4.11H34.71a4.12,4.12,0,0,0,4.11-4.11V16.33h-37Zm21.38-1.64a1.63,1.63,0,0,1-1.63,1.63h-2.5a1.63,1.63,0,0,1-1.63-1.63V35.5a1.63,1.63,0,0,1,1.63-1.62h2.5a1.63,1.63,0,0,1,1.63,1.62h0Zm0-7.07a1.64,1.64,0,0,1-1.63,1.63h-2.5a1.64,1.64,0,0,1-1.63-1.63V28.43a1.63,1.63,0,0,1,1.63-1.63h2.5a1.63,1.63,0,0,1,1.63,1.63h0ZM27,21.36a1.62,1.62,0,0,1,1.62-1.63h2.5a1.63,1.63,0,0,1,1.63,1.63h0v1.26a1.63,1.63,0,0,1-1.63,1.63h-2.5A1.62,1.62,0,0,1,27,22.62Zm0,7.07a1.62,1.62,0,0,1,1.62-1.63h2.5a1.63,1.63,0,0,1,1.63,1.63h0V29.7a1.64,1.64,0,0,1-1.63,1.63h-2.5A1.63,1.63,0,0,1,27,29.7Zm-9.56-7.07a1.63,1.63,0,0,1,1.63-1.63h2.49a1.63,1.63,0,0,1,1.63,1.63v1.26a1.63,1.63,0,0,1-1.63,1.63h-2.5a1.63,1.63,0,0,1-1.63-1.63Zm-9.56,0a1.63,1.63,0,0,1,1.63-1.63H12a1.63,1.63,0,0,1,1.62,1.63h0v1.26A1.63,1.63,0,0,1,12,24.25H9.51a1.63,1.63,0,0,1-1.62-1.63Zm0,7.07A1.63,1.63,0,0,1,9.53,26.8H12a1.63,1.63,0,0,1,1.62,1.63h0V29.7A1.63,1.63,0,0,1,12,31.33H9.51A1.63,1.63,0,0,1,7.89,29.7Zm0,7.07a1.63,1.63,0,0,1,1.63-1.62H12a1.63,1.63,0,0,1,1.62,1.62h0v1.27A1.63,1.63,0,0,1,12,38.4H9.51a1.63,1.63,0,0,1-1.62-1.63Z"/><path class="cls-8" d="M34.71,6.5H32V3.35a2.06,2.06,0,1,0-4.11,0h0V6.5H22.38V3.35a2.06,2.06,0,1,0-4.11,0h0V6.5H12.82V3.35a2.06,2.06,0,0,0-4.11,0V6.5H5.94a4.12,4.12,0,0,0-4.11,4.11v2.67h37V10.61A4.12,4.12,0,0,0,34.71,6.5Z"/><circle class="cls-9" cx="63.03" cy="21.91" r="20.53"/><circle class="cls-3" cx="63.03" cy="21.91" r="15.64"/><text class="cls-4" transform="translate(60.17 29.07)">i</text><path class="cls-7" d="M94.05,1.65H130.5a3,3,0,0,1,3,3V36.58a5.59,5.59,0,0,1-5.59,5.59H96.64a5.59,5.59,0,0,1-5.59-5.59V4.65A3,3,0,0,1,94.05,1.65Z"/><path class="cls-7" d="M127.79,42.17H90.7a4.86,4.86,0,0,1-4.85-4.85v-25A3.37,3.37,0,0,1,89.21,9h35.73a3.36,3.36,0,0,1,3.36,3.36v23"/><rect class="cls-10" x="91.17" y="25.38" width="16.77" height="10.59" rx="3.09" ry="3.09"/><line class="cls-7" x1="112.3" y1="33.01" x2="122.99" y2="33.01"/><line class="cls-7" x1="112.3" y1="27.27" x2="122.99" y2="27.27"/><line class="cls-7" x1="92.69" y1="21.54" x2="122.99" y2="21.54"/><line class="cls-7" x1="92.69" y1="15.8" x2="122.99" y2="15.8"/></g></svg>