<svg xmlns="http://www.w3.org/2000/svg" viewBox="0 0 253.6 191.4"><g stroke-width="7.21"><path d="M231.8 129.4c0-48.9-62.6-102.4-137.7-75.1V32.6H19v96.7" fill="#2bcdc9" stroke="#825a60" stroke-linecap="round" stroke-linejoin="round"/><path d="M19.2 128.2h215.1c2.6 0 4.9 2.2 5.6 5.5l3.3 14.7c1.1 5-1.7 10-5.6 10H19.2c-3.2 0-5.8-3.5-5.8-7.8V136c0-4.3 2.6-7.8 5.8-7.8z" fill="#fff" stroke="#825a60" stroke-miterlimit="10"/><path d="M159 65.5c12.5 1.7 23.8 8.9 32.5 18.1s11.6 14.1 17.5 25.3" fill="none" stroke="#7feadf" stroke-linecap="round" stroke-miterlimit="10"/><path d="M221.9 85.1c-13.9-4.7-25.3-.2-31 6.7m3.7-33.7c-12.9-.4-23.1 7.6-26.5 13.2m-11.2-26.6c-5.6 2.4-13.8 9.6-14.9 18.7" fill="none" stroke="#825a60" stroke-linecap="round" stroke-miterlimit="10"/></g></svg>