<svg id="Layer_1" xmlns="http://www.w3.org/2000/svg" viewBox="0 0 195 195"><style>.st0{fill:#f57d90;stroke:#825a60;stroke-width:7.21;stroke-linecap:round;stroke-linejoin:round}</style><g id="duim"><path class="st0" d="M185.5 77.3h-69.3V26.1c0-6.5-5.3-11.8-11.9-11.9h-8.6c-6.5 0-11.8 5.3-11.9 11.9v51.2h-22c-7.1 0-12.9 5.8-12.9 12.9v66.3c0 7.1 5.8 12.9 12.9 12.9h123.7V77.3z"/><path class="st0" d="M23.3 60h62.8c7.7 0 13.9 6.2 13.9 13.9v2.2c0 7.7-6.2 13.9-13.9 13.9H23.3c-7.7 0-13.9-6.2-13.9-13.9v-2.2C9.5 66.2 15.7 60 23.3 60zm0 60.6h62.8c7.7 0 13.9 6.2 13.9 13.9v2.2c0 7.7-6.2 13.9-13.9 13.9H23.3c-7.7 0-13.9-6.2-13.9-13.9v-2.2c.1-7.7 6.3-13.9 13.9-13.9zm0 30.3h62.8c7.7 0 13.9 6.2 13.9 13.9v2.2c0 7.7-6.2 13.9-13.9 13.9H23.3c-7.7 0-13.9-6.2-13.9-13.9v-2.2c.1-7.7 6.3-13.9 13.9-13.9z"/><path d="M23.3 90.3h62.9c7.7 0 13.9 6.2 13.9 13.9v2.2c0 7.7-6.2 13.9-13.9 13.9H23.3c-7.7 0-13.9-6.2-13.9-13.9v-2.2c.1-7.7 6.3-13.9 13.9-13.9z" fill="#f57d90" stroke="#825a60" stroke-width="6.93" stroke-linecap="round" stroke-linejoin="round"/><path d="M158.7 93.6c12.2-.3 8.8 16 8.6 24-.1 4.6 7.1 4.6 7.2 0 .2-7.2 2-16.8-1.6-23.4-2.9-5-8.4-8-14.2-7.7-4.6.1-4.7 7.3 0 7.1z" fill="#f5b3bd"/></g></svg>