<?xml version="1.0" encoding="utf-8"?>
<!-- Generator: Adobe Illustrator 22.0.1, SVG Export Plug-In . SVG Version: 6.00 Build 0)  -->
<svg version="1.1" id="Layer_1" xmlns="http://www.w3.org/2000/svg" xmlns:xlink="http://www.w3.org/1999/xlink" x="0px" y="0px"
	 viewBox="0 0 1440 368" style="enable-background:new 0 0 1440 368;" xml:space="preserve">
<style type="text/css">
	.st0{fill:#F8EFD0;}
	.st1{fill:none;stroke:#825A60;stroke-width:6;stroke-linejoin:round;}
	.st2{fill:none;stroke:#825A60;stroke-width:13;stroke-linejoin:round;}
	.st3{fill:#2BCDC9;stroke:#825A60;stroke-width:6;stroke-linecap:round;stroke-linejoin:round;}
	.st4{fill:#7FEADF;}
	.st5{fill:#FBCC25;stroke:#825A60;stroke-width:6;stroke-linecap:round;stroke-linejoin:round;}
	.st6{fill:#F57D90;stroke:#825A60;stroke-width:6;stroke-linecap:round;stroke-linejoin:round;}
	.st7{fill:none;stroke:#FFFFFF;stroke-width:7;stroke-miterlimit:10;}
	.st8{fill:#FFFFFF;}
	.st9{font-family:'BrandonGrotesque-Black';}
	.st10{font-size:40px;}
	.st11{fill:#F5B3BD;}
	.st12{fill:#F8EFD0;stroke:#825A60;stroke-width:6;stroke-linecap:round;stroke-linejoin:round;}
	.st13{fill:#D4CCAE;}
</style>
<rect x="0.2" class="st0" width="1439.5" height="368.3"/>
<title>illustrations</title>
<g id="Layer_11">
	<line class="st1" x1="-0.2" y1="328.8" x2="1440.2" y2="328.8"/>
	<line class="st1" x1="0.2" y1="346.5" x2="1439.8" y2="346.5"/>
	<line class="st1" x1="-0.2" y1="311.8" x2="1440.2" y2="311.8"/>
	<line class="st2" x1="0.2" y1="368.3" x2="1439.8" y2="368.3"/>
	<path class="st3" d="M281.5,356.5c-1.3,0-2.5-0.2-3.6-0.7l-24-10c-4.9-2-7.2-7.5-5.3-12.4c2-4.9,7.5-7.2,12.4-5.3
		c0.1,0,0.1,0.1,0.2,0.1l22.2,9.2l69.3-0.9l10.3-6.7L349.6,219H331c-5.2,0-9.5-2.2-9.5-7.5s4.2-7.5,9.5-7.5h27
		c4.8,0,8.8,3.6,9.4,8.4l15,121c0.4,3.6-1.2,7.1-4.2,9.1l-17.5,11.5c-1.5,1-3.3,1.5-5.1,1.6l-74,1H281.5z"/>
	<path class="st4" d="M345.1,213.2c5.2,0.3,12.1-1.4,13.3,5.5c0.5,2.8,4.9,1.6,4.3-1.2c-0.6-4-3.5-7.3-7.5-8.3
		c-3.4-0.9-6.8-0.4-10.2-0.5C342.2,208.5,342.3,213,345.1,213.2L345.1,213.2z"/>
	<circle class="st5" cx="375.5" cy="352" r="13"/>
	<circle class="st5" cx="261.5" cy="352" r="13"/>
	<path class="st5" d="M313.1,201.1h20.4V223h-20.4c-4.7,0-8.6-4.9-8.6-10.9l0,0C304.5,206.1,308.4,201.1,313.1,201.1z"/>
	<rect x="1084.5" y="233" class="st5" width="18" height="95"/>
	<polygon class="st6" points="1131.2,97.7 1053.8,97.7 1015.1,164.7 1053.8,231.7 1131.2,231.7 1169.8,164.7 	"/>
	<polygon class="st7" points="1119.5,117.9 1065.5,117.9 1038.5,164.7 1065.5,211.4 1119.5,211.4 1146.5,164.7 	"/>
	<text transform="matrix(1 0 0 1 1056.61 177.08)" class="st8 st9 st10">4</text>
	<text transform="matrix(1 0 0 1 1079.79 177.08)" class="st8 st9 st10">0</text>
	<text transform="matrix(1 0 0 1 1104.35 177.08)" class="st8 st9 st10">4</text>
	<path class="st11" d="M1134.5,127.5c4.7,7.5,9.1,15.2,13.3,23c1.8,3.4,7,0.4,5.2-3c-4.2-7.8-8.6-15.5-13.3-23
		C1137.7,121.2,1132.4,124.3,1134.5,127.5z"/>
</g>
<g id="wiel">
	<circle class="st12" cx="1054.5" cy="306" r="33"/>
	<path class="st12" d="M1033.7,293.1c2.9,4.6,9.5,7.4,12.6,7.9"/>
	<path class="st12" d="M1034.4,317.2c2.1,2.9,7.2,5.8,10.2,5.7"/>
	<path class="st13" d="M1072.4,311.9c-1.4,2.5-2.8,5.3-5.1,7.1c-2.9,2.2-6.8,3.1-10.2,4c-5.6,1.4-3.2,10.1,2.4,8.7
		c4.8-1.2,9.7-2.7,13.6-5.9c3.1-2.5,5.2-5.9,7-9.4C1082.9,311.4,1075.1,306.9,1072.4,311.9L1072.4,311.9z"/>
	<path class="st12" d="M1060.5,315c-4-3-9-3-11-3"/>
	<path class="st12" d="M1060.1,284.9c-4.3-1.2-10-2.4-14.2-0.8"/>
	<path class="st12" d="M1070.9,302.6c-2-2.5-8.4-5.4-12-5.3"/>
</g>
</svg>
