<svg id="Layer_1" xmlns="http://www.w3.org/2000/svg" viewBox="0 0 768 346"><style>.st5{stroke:#825a60;stroke-width:5.47;stroke-linejoin:round;fill:#fbcc25;stroke-linecap:round}.st8{fill:#fff}.st9{font-family:&apos;BrandonGrotesque-Black&apos;}.st10{font-size:36.46px}.st12{fill:#f8efd0;stroke:#825a60;stroke-width:5.47;stroke-linecap:round;stroke-linejoin:round}</style><path fill="#f8efd0" d="M0 0h768v345H0z"/><g id="Layer_11"><path d="M0 310h768M0 326h768M0 294h768" fill="none" stroke="#825a60" stroke-width="5" stroke-linejoin="round"/><path id="XMLID_1_" fill="none" stroke="#825a60" stroke-width="13" stroke-linejoin="round" d="M0 345h768"/><path d="M191 335l-4-1-22-9c-4-1-6-7-4-11s6-6 11-5l20 9 63-1 9-6-12-101h-16c-5 0-9-2-9-7s4-7 9-7h24c5 0 8 3 9 8l13 110c1 3-1 7-3 8l-16 11-5 1-67 1z" fill="#2bcdc9" stroke="#825a60" stroke-width="5" stroke-linecap="round" stroke-linejoin="round"/><path d="M249 205c4 0 11-2 12 5 0 2 4 1 4-2-1-3-4-6-7-7l-9-1c-3 0-3 5-1 5z" fill="#7feadf"/><circle class="st5" cx="276" cy="331" r="12"/><circle class="st5" cx="172" cy="331" r="12"/><path class="st5" d="M219 194h19v19h-19c-4 1-8-4-8-9 0-6 4-10 8-10zm334 29h17v86h-17z"/><path fill="#f57d90" stroke="#825a60" stroke-width="5" stroke-linecap="round" stroke-linejoin="round" d="M596 99h-71l-35 61 35 62h71l35-62z"/><path fill="none" stroke="#fff" stroke-width="6" stroke-miterlimit="10" d="M585 118h-49l-25 42 25 43h49l25-43z"/><text transform="translate(528 172)" class="st8 st9 st10">4</text><text transform="translate(549 172)" class="st8 st9 st10">0</text><text transform="translate(571 172)" class="st8 st9 st10">4</text><path d="M596 125l12 21c2 3 6 0 5-3l-12-21c-2-3-7-1-5 2z" fill="#f5b3bd"/></g><g id="wiel"><ellipse transform="rotate(-72 529 293)" class="st12" cx="529" cy="293" rx="30" ry="30"/><path class="st12" d="M510 281c2 4 8 7 11 7m-11 15c2 3 7 5 9 5"/><path d="M546 299l-5 7c-3 2-6 3-10 3-3 1-2 7 2 6s8-2 12-5c3-2 4-5 6-8 2-4-3-7-5-3z" fill="#d4ccae"/><path class="st12" d="M534 301c-4-3-8-3-10-3m10-24c-4-1-9-3-13-1m23 17c-2-2-8-5-11-5"/></g></svg>