<?xml version="1.0" encoding="utf-8"?>
<!-- Generator: Adobe Illustrator 22.0.1, SVG Export Plug-In . SVG Version: 6.00 Build 0)  -->
<svg version="1.1" id="Layer_1" xmlns="http://www.w3.org/2000/svg" xmlns:xlink="http://www.w3.org/1999/xlink" x="0px" y="0px"
	 viewBox="0 0 1024 368" style="enable-background:new 0 0 1024 368;" xml:space="preserve">
<style type="text/css">
	.st0{fill:#F8EFD0;}
	.st1{fill:none;stroke:#825A60;stroke-width:6;stroke-linejoin:round;}
	.st2{fill:none;stroke:#825A60;stroke-width:12;stroke-linejoin:round;}
	.st3{fill:#2BCDC9;stroke:#825A60;stroke-width:6;stroke-linecap:round;stroke-linejoin:round;}
	.st4{fill:#7FEADF;}
	.st5{fill:#FBCC25;stroke:#825A60;stroke-width:6;stroke-linecap:round;stroke-linejoin:round;}
	.st6{fill:#F57D90;stroke:#825A60;stroke-width:6;stroke-linecap:round;stroke-linejoin:round;}
	.st7{fill:none;stroke:#FFFFFF;stroke-width:7;stroke-miterlimit:10;}
	.st8{fill:#FFFFFF;}
	.st9{font-family:'BrandonGrotesque-Black';}
	.st10{font-size:40px;}
	.st11{fill:#F5B3BD;}
	.st12{fill:#F8EFD0;stroke:#825A60;stroke-width:6;stroke-linecap:round;stroke-linejoin:round;}
	.st13{fill:#D4CCAE;}
</style>
<rect x="-0.4" class="st0" width="1024.2" height="367.8"/>
<title>illustrations</title>
<g id="Layer_11">
	<line class="st1" x1="-0.4" y1="329.2" x2="1024.2" y2="329.2"/>
	<line class="st1" x1="0.1" y1="347" x2="1023.8" y2="347"/>
	<line class="st1" x1="-0.4" y1="312.2" x2="1024.2" y2="312.2"/>
	<line class="st2" x1="0.1" y1="367.8" x2="1023.8" y2="367.8"/>
	<path class="st3" d="M262.3,356.9c-1.3,0-2.5-0.2-3.7-0.7l-24-10c-4.8-2-7.1-7.6-5.1-12.4s7.6-7.1,12.4-5.1l0,0l22.2,9.2l69.3-0.9
		l10.2-6.7l-13.3-110.8h-18.6c-5.2,0-9.5-2.2-9.5-7.5s4.2-7.5,9.5-7.5h27c4.8,0,8.8,3.6,9.4,8.4l15,121c0.4,3.6-1.2,7.1-4.2,9.1
		l-17.5,11.5c-1.5,1-3.3,1.5-5.1,1.6l-74,1h0V356.9z"/>
	<path class="st4" d="M326,213.6c5.2,0.3,12.1-1.4,13.3,5.5c0.5,2.8,4.9,1.6,4.3-1.2c-0.6-4-3.5-7.3-7.5-8.3
		c-3.4-0.9-6.8-0.4-10.2-0.5C323.1,209,323.1,213.5,326,213.6L326,213.6z"/>
	<circle class="st5" cx="356.3" cy="352.4" r="13"/>
	<circle class="st5" cx="242.3" cy="352.4" r="13"/>
	<path class="st5" d="M294,201.6h20.4v21.9H294c-4.7,0-8.6-4.9-8.6-10.9l0,0C285.3,206.5,289.2,201.6,294,201.6z"/>
	<rect x="825.3" y="233.4" class="st5" width="18" height="95"/>
	<polygon class="st6" points="872,98.1 794.6,98.1 756,165.1 794.6,232.1 872,232.1 910.7,165.1 	"/>
	<polygon class="st7" points="860.3,118.4 806.3,118.4 779.3,165.1 806.3,211.9 860.3,211.9 887.3,165.1 	"/>
	<text transform="matrix(1 0 0 1 797.45 177.5131)" class="st8 st9 st10">4</text>
	<text transform="matrix(1 0 0 1 820.63 177.5131)" class="st8 st9 st10">0</text>
	<text transform="matrix(1 0 0 1 845.1899 177.5131)" class="st8 st9 st10">4</text>
	<path class="st11" d="M875.3,128c4.7,7.5,9.1,15.2,13.3,23c1.8,3.4,7,0.4,5.2-3c-4.2-7.8-8.6-15.5-13.3-23
		C878.5,121.7,873.3,124.7,875.3,128z"/>
</g>
<g id="wiel">
	<circle class="st12" cx="662.3" cy="309.4" r="33"/>
	<path class="st12" d="M641.5,296.5c2.9,4.6,9.5,7.4,12.6,7.9"/>
	<path class="st12" d="M642.2,320.6c2.1,2.9,7.2,5.8,10.2,5.7"/>
	<path class="st13" d="M680.2,315.4c-1.4,2.5-2.8,5.3-5.1,7.1c-2.9,2.2-6.8,3.1-10.2,4c-5.6,1.4-3.2,10.1,2.4,8.7
		c4.8-1.2,9.7-2.7,13.7-5.9c3.1-2.5,5.2-5.9,7-9.4C690.7,314.9,682.9,310.3,680.2,315.4L680.2,315.4z"/>
	<path class="st12" d="M668.3,318.4c-4-3-9-3-11-3"/>
	<path class="st12" d="M667.9,288.4c-4.3-1.2-10-2.4-14.2-0.8"/>
	<path class="st12" d="M678.8,306.1c-2-2.5-8.4-5.4-12-5.3"/>
</g>
</svg>
