<?xml version="1.0" encoding="utf-8"?>
<!-- Generator: Adobe Illustrator 22.0.1, SVG Export Plug-In . SVG Version: 6.00 Build 0)  -->
<svg version="1.1" id="Layer_1" xmlns="http://www.w3.org/2000/svg" xmlns:xlink="http://www.w3.org/1999/xlink" x="0px" y="0px"
	 viewBox="0 0 320 243.3" style="enable-background:new 0 0 320 243.3;" xml:space="preserve">
<style type="text/css">
	.st0{fill:#F8EFD0;}
	.st1{fill:none;stroke:#825A60;stroke-width:5.47;stroke-linejoin:round;}
	.st2{fill:none;stroke:#825A60;stroke-width:10;stroke-linejoin:round;}
	.st3{fill:#2BCDC9;stroke:#825A60;stroke-width:4.0646;stroke-linecap:round;stroke-linejoin:round;}
	.st4{fill:#7FEADF;}
	.st5{fill:#FBCC25;stroke:#825A60;stroke-width:4.0646;stroke-linecap:round;stroke-linejoin:round;}
	.st6{fill:#F57D90;stroke:#825A60;stroke-width:4.0646;stroke-linecap:round;stroke-linejoin:round;}
	.st7{fill:none;stroke:#FFFFFF;stroke-width:4.7408;stroke-miterlimit:10;}
	.st8{fill:#FFFFFF;}
	.st9{font-family:'BrandonGrotesque-Black';}
	.st10{font-size:27.0922px;}
	.st11{fill:#F5B3BD;}
	.st12{fill:#F8EFD0;stroke:#825A60;stroke-width:4.0646;stroke-linecap:round;stroke-linejoin:round;}
	.st13{fill:#D4CCAE;}
</style>
<rect x="0.2" y="-52" class="st0" width="319.7" height="295.2"/>
<title>illustrations</title>
<g id="Layer_11">
	<line class="st1" x1="-0.2" y1="207.8" x2="320.4" y2="207.8"/>
	<line class="st1" x1="0.2" y1="224" x2="319.9" y2="224"/>
	<line class="st1" x1="-0.2" y1="192.3" x2="320.4" y2="192.3"/>
	<line class="st2" x1="0.2" y1="243.2" x2="319.9" y2="243.2"/>
	<path class="st3" d="M50.3,217.5c-0.8,0-1.7-0.2-2.5-0.5l-16.3-6.8c-3.3-1.4-4.8-5.1-3.5-8.4c1.4-3.3,5.1-4.8,8.4-3.5l15,6.3
		l46.9-0.6l6.9-4.6l-9-75H83.8c-3.6,0-6.4-1.5-6.4-5.1s2.9-5.1,6.4-5.1h18.3c3.3,0,6,2.4,6.4,5.7l10.2,82c0.3,2.4-0.8,4.8-2.9,6.2
		l-11.9,7.8c-1,0.7-2.2,1-3.4,1.1L50.3,217.5L50.3,217.5z"/>
	<path class="st4" d="M93.4,120.4c3.5,0.2,8.2-0.9,9,3.7c0.3,1.9,3.3,1.1,3-0.8c-0.4-2.7-2.4-4.9-5.1-5.6c-2.3-0.6-4.6-0.2-6.9-0.4
		C91.5,117.2,91.5,120.3,93.4,120.4L93.4,120.4z"/>
	<circle class="st5" cx="114" cy="214.4" r="8.8"/>
	<circle class="st5" cx="36.8" cy="214.4" r="8.8"/>
	<path class="st5" d="M71.7,112.2h13.8V127H71.7c-3.2,0-5.8-3.3-5.8-7.4l0,0C65.9,115.6,68.5,112.2,71.7,112.2z"/>
	<rect x="225" y="128.2" class="st5" width="12.2" height="64.3"/>
	<polygon class="st6" points="256.6,36.6 204.2,36.6 178,81.9 204.2,127.3 256.6,127.3 282.8,81.9 	"/>
	<polygon class="st7" points="248.6,50.3 212.1,50.3 193.8,81.9 212.1,113.6 248.6,113.6 266.9,81.9 	"/>
	<text transform="matrix(1 0 0 1 206.0354 90.3339)" class="st8 st9 st10">4</text>
	<text transform="matrix(1 0 0 1 221.7659 90.3339)" class="st8 st9 st10">0</text>
	<text transform="matrix(1 0 0 1 238.4251 90.3339)" class="st8 st9 st10">4</text>
	<path class="st11" d="M257.3,55.3c3.2,5.1,6.1,10.3,9,15.6c1.2,2.3,4.7,0.3,3.5-2.1c-2.8-5.3-5.8-10.5-9-15.6
		C259.5,51,255.9,53.1,257.3,55.3L257.3,55.3z"/>
</g>
<g id="wiel">
	<circle class="st12" cx="208" cy="180.4" r="22.4"/>
	<path class="st12" d="M193.9,171.6c1.9,3.1,6.4,5,8.5,5.3"/>
	<path class="st12" d="M194.4,187.9c1.4,2,4.9,3.9,6.9,3.8"/>
	<path class="st13" d="M220.9,184.8c-1,1.8-2,3.7-3.6,5c-2,1.6-4.8,2.3-7.3,2.9c-2.8,0.7-1.6,5,1.2,4.3c3.1-0.8,6.3-1.7,8.9-3.8
		c2.1-1.6,3.4-3.9,4.6-6.2C226.1,184.5,222.2,182.3,220.9,184.8L220.9,184.8z"/>
	<path class="st12" d="M212.1,186.5c-2.7-2-6.1-2-7.4-2"/>
	<path class="st12" d="M211.8,166.1c-2.9-0.8-6.8-1.6-9.6-0.6"/>
	<path class="st12" d="M219.1,178.1c-1.4-1.7-5.7-3.6-8.2-3.6"/>
</g>
</svg>
