<svg id="Layer_1" xmlns="http://www.w3.org/2000/svg" viewBox="0 0 768 461"><style>.st1,.st2{fill:none;stroke:#825a60;stroke-width:4.51;stroke-linejoin:round}.st2{fill:#f57d90}.st4{fill:#f5b3bd}.st5{fill:#fbcc25;stroke:#825a60;stroke-width:3.75;stroke-linecap:round;stroke-linejoin:round}.st6,.st7{fill:#fff;stroke:#825a60;stroke-width:3.45;stroke-miterlimit:10}.st7{fill:#2bcdc9}.st9{fill:#7feadf}.st10{fill:#825a60}.st14{stroke:#825a60;fill:#fbe594;stroke-width:4.79;stroke-linecap:round;stroke-linejoin:round}.st15{fill:#fbf4da}.st18{fill:#f57d90;stroke:#825a60;stroke-width:4.51;stroke-linecap:round;stroke-linejoin:round}</style><g id="header_illustratie"><path fill="#f8efd2" d="M0-.4h768V461H0z"/><path class="st1" d="M-.2 432.6h768.4M.2 445.9h767.6M.2 459.3h767.6"/><g id="guitar"><g id="guitar-2"><path class="st2" d="M116.6 419.9c-.2-3-.3-6-.3-9.1 0-60 38.9-108.7 87-108.7 14.7.1 29.1 4.6 41.2 13 21.7 14.7 47.6 30.1 73.7 27.7 1.5-.1 2.9-.2 4.4-.2 33.6 0 60.9 26.2 60.9 68.2 0 3.1-.2 6.2-.5 9.3l384.7.6"/><path class="st2" d="M767.8 420.8l-384.7-.6c.3-3.1.5-6.2.5-9.3 0-42-27.3-68.2-60.9-68.2-1.5 0-3 .1-4.4.2-26.1 2.4-52-13.1-73.7-27.7-12.1-8.4-26.5-12.9-41.2-13-48 0-87 48.7-87 108.7 0 3 .1 6.1.3 9.1H-.2"/><path d="M247.2 420.7c-.3-21 16.4-38.2 37.3-38.6 21-.3 38.2 16.4 38.6 37.3v1.2" fill="#f8efd0" stroke="#825a60" stroke-width="4.51" stroke-linecap="round" stroke-linejoin="round"/><path class="st4" d="M359.4 369.9c-9.3-9.8-20.3-16.5-34.1-16.4-4.3 0-4.4 6.8 0 6.8 12.1-.1 21.3 5.9 29.3 14.4 3 3.2 7.8-1.6 4.8-4.8z"/></g><path class="st1" d="M163.6 393.3h604.6m-604.6 13.4h604.2"/><circle class="st5" cx="163.6" cy="393" r="4.5"/><circle class="st5" cx="163.6" cy="406.5" r="4.5"/></g></g><g id="header_typo"><g id="week_van_de_mobiliteit"><path class="st6" d="M199.3 181l11.6-27.7c.4-.8 1.3-1.3 2.2-1.3h11.4c1.4 0 2.5 1.1 2.5 2.5 2.9 57.1 3 57.2 3 57.2-.2 1.4-1.4 2.5-2.9 2.5h-7.8c-1.4 0-2.5-1.1-2.5-2.4v-.1l-2.3-34.4-10 24.5c-.5 1-1.5 1.7-2.6 1.9h-5.3c-1.1-.2-2.1-.9-2.6-1.9l-9.9-24.5-2.5 34.4c0 1.4-1.1 2.5-2.4 2.5h-7.9c-1.5 0-2.7-1.1-2.9-2.5 0 0 .2-.1 3.1-57.2 0-1.4 1.1-2.5 2.5-2.5h11.4c.9 0 1.8.5 2.2 1.3l11.7 27.7z"/><path class="st7" d="M236.3 183.5c0-25.9 12.5-32 27.2-32s27 6 27 32c0 24.3-12.3 31.2-26.9 31.2-14.9 0-27.3-6.9-27.3-31.2zm41.1 0c0-19.5-8.9-20.3-13.9-20.3s-14 .8-14 20.3c0 16 9.1 19.5 14.1 19.5 4.8 0 13.8-3.5 13.8-19.5z"/><path class="st6" d="M317.8 152c14.7 0 22.3 4.1 22.3 18.6 0 4.6-1.9 9.6-7.8 11.6 6.1 1.6 10.7 6.5 10.7 13.5 0 14.5-7.7 18.5-22.3 18.5h-19.9c-1.4 0-2.5-1.2-2.5-2.6v-57.1c0-1.4 1.1-2.5 2.4-2.5h17.1zm-6.3 11.7v13.7h6.1c5 0 9.4-1.1 9.4-6.8s-4.4-6.9-9.4-6.9h-6.1zm18.5 32c0-5.7-4.4-6.6-9.4-6.6h-9.1v13.4h9.1c5-.1 9.4-1.1 9.4-6.8zm33.4 15.9c0 1.4-1.1 2.5-2.4 2.5h-8.2c-1.4 0-2.5-1.1-2.5-2.4v-57.3c0-1.4 1.1-2.5 2.4-2.5h8.2c1.4 0 2.5 1.1 2.5 2.4v57.3zm12.1 2.6c-1.4 0-2.5-1.1-2.5-2.4v-57.3c0-1.4 1.1-2.5 2.4-2.5h8.2c1.4 0 2.5 1.1 2.5 2.4v47.9h23.8c1.4 0 2.5 1.1 2.5 2.4v6.9c0 1.4-1.1 2.5-2.4 2.5h-.1l-34.4.1z"/><path d="M431 211.6c0 1.4-1.1 2.5-2.4 2.5h-8.2c-1.4 0-2.5-1.1-2.5-2.4v-57.3c0-1.4 1.1-2.5 2.4-2.5h8.2c1.4 0 2.5 1.1 2.5 2.4v57.3z" fill="#f57d90" stroke="#825a60" stroke-width="3.45" stroke-miterlimit="10"/><path class="st6" d="M465.8 211.6c0 1.4-1.1 2.5-2.4 2.5h-8.2c-1.4 0-2.5-1.1-2.5-2.4v-48.1H439c-1.4 0-2.5-1.1-2.5-2.4v-6.8c0-1.4 1.1-2.5 2.4-2.5h40.5c1.4 0 2.5 1.1 2.5 2.4v6.8c0 1.4-1.1 2.5-2.4 2.5h-13.7v48z"/><path class="st7" d="M489.9 214.2c-1.4 0-2.5-1.1-2.5-2.4v-57.3c0-1.4 1.1-2.5 2.4-2.5h36.1c1.4 0 2.5 1.1 2.5 2.4v6.8c0 1.4-1.1 2.5-2.4 2.5h-25.5v13.6H519c1.4 0 2.5 1.1 2.5 2.4v6.8c0 1.4-1.1 2.5-2.4 2.5h-18.6v13.5H526c1.4 0 2.5 1.1 2.5 2.4v6.8c0 1.4-1.1 2.5-2.4 2.5h-36.2z"/><path class="st6" d="M548.6 211.6c0 1.4-1.1 2.5-2.4 2.5H538c-1.4 0-2.5-1.1-2.5-2.4v-57.3c0-1.4 1.1-2.5 2.5-2.5h8.1c1.4 0 2.5 1.1 2.5 2.4v57.3zm34.8 0c0 1.4-1.1 2.5-2.4 2.5h-8.2c-1.4 0-2.5-1.1-2.5-2.4v-48.1h-13.7c-1.4 0-2.5-1.1-2.5-2.4v-6.8c0-1.4 1.1-2.5 2.4-2.5H597c1.4 0 2.5 1.1 2.5 2.4v6.8c0 1.4-1.1 2.5-2.4 2.5h-13.7v48z"/><path class="st9" d="M269.5 158.6c6.4 1 11.3 6.3 11.7 12.8.1 2.5 4 2.5 3.9 0-.5-8.6-7-15.6-15.5-16.7-2.5-.3-2.5 3.6-.1 3.9z"/><path class="st4" d="M423.9 157.1v15.1c0 1.1.9 1.9 1.9 1.9s1.9-.9 1.9-1.9v-15.1c0-1.1-.9-1.9-1.9-1.9s-1.9.8-1.9 1.9z"/><path class="st9" d="M519.7 157.8c.5-.1 1-.2 1.5-.1.2 0 .4.1.6.1l.4.2c-.4-.3-.5-.9-.3-1.4-.5.9-.2 2.1.7 2.6s2.1.2 2.7-.7c.8-1.4.3-3.2-1.1-4-.1-.1-.2-.1-.3-.2-1.6-.7-3.4-.8-5.1-.4-1 .3-1.6 1.4-1.4 2.4.2 1.2 1.2 1.8 2.3 1.5z"/><path class="st10" d="M245.5 88.6h3.6c.8 0 1.2.5 1.4 1.4.7 5.1 1.1 10.2 1.2 15.3 0 18.5-1.7 24.8-11.3 24.8-1.9 0-6.4 0-8.7-4.4-2.8 4.4-7 4.4-9.3 4.4-9.4 0-11.5-4.3-11.5-19V90c0-.7.5-1.4 1.3-1.4h3.8c.7 0 1.3.6 1.4 1.3V112c0 12 2.6 12.7 5.4 12.7 5.1 0 5.3-5 5.3-9.3V90c0-.7.5-1.4 1.3-1.4h3.7c.7 0 1.3.6 1.4 1.3v21.6c0 4.3.2 13.2 5.4 13.2s5.5-3.7 5.5-19.5c0-5.1-.4-10.2-1.2-15.2-.1-.7.5-1.3 1.2-1.4h.1zm14.3 41.2c-.7 0-1.4-.5-1.4-1.3V90c0-.7.5-1.4 1.3-1.4h23.6c.7 0 1.4.5 1.4 1.3v2.7c0 .7-.5 1.4-1.3 1.4h-18.6v12.6h13.5c.7 0 1.4.5 1.4 1.3v2.7c0 .7-.5 1.4-1.2 1.4h-13.6v12.5h18.5c.7 0 1.4.5 1.4 1.3v2.6c0 .7-.5 1.4-1.3 1.4h-23.7zm30.7 0c-.7 0-1.4-.5-1.4-1.3V90c0-.7.5-1.4 1.3-1.4H314c.7-.1 1.4.5 1.4 1.2v2.7c0 .7-.5 1.4-1.3 1.4h-18.7v12.6H309c.7 0 1.4.5 1.4 1.3v2.7c0 .7-.5 1.4-1.2 1.4h-13.6v12.5H314c.7 0 1.4.5 1.4 1.3v2.6c0 .7-.5 1.4-1.3 1.4h-.1l-23.5.1zm51.8-5.9c-2.5-5.2-4.9-10.3-8-13.6-2.5 1.8-5.2 3.2-8.1 4.1v14c0 .7-.5 1.4-1.3 1.4h-3.7c-.7 0-1.4-.5-1.4-1.3V90c0-.7.5-1.4 1.3-1.4h3.7c.7 0 1.4.5 1.4 1.3v17.2c5.2 0 14.4-10.2 16.7-17.1.4-.9.8-1.4 1.6-1.4h3.4c.7 0 1.3.6 1.4 1.3v.1c-1.2 4.9-4.6 11.2-9.8 16.6 1.9 2.1 3.5 4.4 4.8 6.9l7.2 14.9c0 .7-.5 1.4-1.3 1.4h-4c-.9-.1-1.6-.7-1.8-1.5-.7-1.4-1.4-2.9-2.1-4.4zM397.4 90c.2-.8.9-1.3 1.7-1.4h3.6c.7 0 1.4.5 1.4 1.3v.1c-3.1 8.6-10.3 29.6-13.4 38.2-.4.9-1.2 1.5-2.2 1.6h-5.1c-1-.1-1.8-.7-2.2-1.6-3.2-8.6-10.3-29.6-13.4-38.2 0-.7.5-1.4 1.3-1.4h3.7c.8 0 1.5.6 1.7 1.4l11.5 33.5L397.4 90zm31.1 29.9h-17.1l-3 8.6c-.2.8-.9 1.3-1.7 1.4h-3.6c-.7 0-1.3-.6-1.4-1.3v-.1c3.1-8.6 10.3-29.6 13.4-38.2.4-.9 1.2-1.5 2.2-1.6h5.1c1 .1 1.8.7 2.2 1.6 2.5 7 7.7 22.6 11.4 32.6.6 1.6 1.1 2.8 1.7 3 .4.2.7.6.6 1.1v2.2c0 .8-1.5 1-2.9 1-2.8 0-3.8-1.4-4.9-4.1l-2-6.2zm-15.3-5.4h13.4l-6.7-19.6-6.7 19.6zm54.6 3.7V90c0-.7.5-1.4 1.3-1.4h3.7c.7 0 1.4.5 1.4 1.3v38.5c0 .7-.5 1.4-1.3 1.4h-3.7c-1.1 0-2.1-.6-2.7-1.6l-17.8-28.9v29.1c0 .7-.5 1.4-1.3 1.4h-3.7c-.7 0-1.3-.6-1.4-1.3V90c0-.7.5-1.4 1.3-1.4h4.4c1.1 0 2.1.6 2.7 1.6l17.1 28zM495.1 90c0-.7.5-1.4 1.3-1.4h13.4c9.3 0 14.4 5.2 14.4 14.5v12.2c0 9.3-5.1 14.5-14.4 14.5h-13.3c-.7 0-1.4-.5-1.4-1.3V90zm22.7 13.3c0-6.6-3.9-9.3-8.3-9.3h-8v30.4h8c4.3 0 8.3-2.7 8.3-9.3v-11.8zm13.9 26.5c-.7 0-1.3-.6-1.4-1.3V90c0-.7.5-1.4 1.3-1.4h23.7c.7 0 1.3.6 1.4 1.3v2.7c0 .7-.5 1.4-1.3 1.4h-18.7v12.6h13.6c.7 0 1.3.6 1.4 1.3v2.7c0 .7-.6 1.3-1.3 1.4h-13.7v12.5h18.6c.7 0 1.3.6 1.4 1.3v2.6c0 .7-.5 1.4-1.3 1.4h-23.7z"/></g><g id="datum"><path class="st10" d="M190 237.7c.1-.5.5-.8 1-.8h2.2c.4 0 .8.3.8.8v.1c-1.9 5.2-6.2 17.9-8.1 23.2-.2.6-.7 1-1.3 1h-3.1c-.6 0-1.1-.4-1.3-1-1.9-5.2-6.2-17.9-8.1-23.2 0-.4.3-.8.8-.8h2.3c.5 0 .9.4 1 .8l7 20.3 6.8-20.4zm19.2 18.1h-10.4L197 261c-.1.5-.5.8-1 .8h-2.2c-.4 0-.8-.3-.9-.8 1.9-5.2 6.2-17.9 8.1-23.2.2-.6.7-1 1.3-1h3.1c.6 0 1.1.4 1.3 1 1.5 4.2 4.7 13.7 6.9 19.8.4 1 .7 1.7 1 1.8.2.1.4.4.4.7v1.3c0 .5-.9.6-1.8.6-1.7 0-2.3-.8-3-2.5l-1-3.7zm-9.2-3.3h8.1l-4.1-11.9-4 11.9zm33.3 2.3v-17.1c0-.4.3-.8.8-.8h2.3c.4 0 .8.3.8.8V261c0 .4-.3.8-.8.8h-2.3c-.7 0-1.3-.4-1.6-1l-10.8-17.5V261c0 .4-.3.8-.8.8h-2.3c-.4 0-.8-.3-.8-.8v-23.4c0-.4.3-.8.8-.8h2.7c.7 0 1.3.4 1.6 1l10.4 17zm22.6-18h3.7c.4 0 .8.3.8.8V261c0 .4-.3.8-.8.8h-2.3c-.4 0-.8-.3-.8-.8v-20.3l-7.2 4.8c-.4 0-.8-.3-.8-.8V242c0-.3.1-.5.4-.7l7-4.5zm18.5 3.2c-2.2 0-5.8.5-5.8 5v3.1c1.5-1 3.3-1.4 5.1-1.4 3.8 0 7.6 1.7 7.6 7.2 0 5.2-2.6 8-8.3 8s-8.2-2.8-8.2-8v-8.4c0-5.7 3.5-8.9 9.2-8.9 2.1-.2 4.2.3 6 1.3.2.1.4.4.4.7v.3l-.7 1.8c-.1.2-.3.3-.5.3s-.3 0-.4-.1c-1.4-.6-2.9-.9-4.4-.9zm-5.7 14.4c0 1.6.4 4.3 4.4 4.3s4.4-2.6 4.4-4.4 0-4.4-4.4-4.4c-4.2.1-4.4 2.8-4.4 4.5zm24.4-14.3c-.4 0-.8-.3-.8-.8v-1.7c0-.4.3-.8.8-.8h16.2c.4 0 .8.3.8.8v1.7c0 .4-.3.8-.8.8h-6.2V261c0 .4-.3.8-.8.8H300c-.4 0-.8-.3-.8-.8v-21h-6.1v.1zm18.4 9.4c0-10.4 4.9-12.8 10.8-12.8s10.7 2.4 10.7 12.8c0 9.8-4.8 12.5-10.8 12.5s-10.7-2.8-10.7-12.5zm17.7 0c0-8.9-4-9.5-6.9-9.5s-6.9.6-6.9 9.5c0 8.3 3.9 9.2 6.9 9.2s6.9-.9 6.9-9.2zm6.2-9.4c-.4 0-.8-.3-.8-.8v-1.7c0-.4.3-.8.8-.8h16.2c.4 0 .8.3.8.8v1.7c0 .4-.3.8-.8.8h-6.2V261c0 .4-.3.8-.8.8h-2.3c-.4 0-.8-.3-.8-.8v-21h-6.1v.1zm35.2-3.5c7.7 0 9 2.8 9 6.2 0 7.3-12.8 7.7-12.8 14.5v1.2h11.3c.4 0 .8.3.8.8v1.7c0 .4-.3.8-.8.8h-14.2c-.4 0-.8-.3-.8-.8v-3.9c0-9.2 12.5-9.5 12.5-14.3 0-2.7-1.5-2.9-5.7-2.9-.6 0-2.9.3-4.8.5-.5 0-.7-.2-.8-.6l-.1-1.5c0-.6.1-.8.5-1 2-.4 4-.6 5.9-.7zm19.2 0c7.7 0 9 2.8 9 6.2 0 7.3-12.8 7.7-12.8 14.5v1.2h11.3c.4 0 .8.3.8.8v1.7c0 .4-.3.8-.8.8h-14.2c-.4 0-.8-.3-.8-.8v-3.9c0-9.2 12.5-9.5 12.5-14.3 0-2.7-1.5-2.9-5.7-2.9-.6 0-2.9.3-4.8.5-.5 0-.7-.2-.8-.6l-.1-1.5c0-.6.1-.8.5-1 2.1-.4 4-.6 5.9-.7zm30.8 3.4c-4 0-6 .2-6 2.9 0 5.7 14.6 2.2 14.6 12.2 0 4.8-3.6 7-10.6 7-2.3-.1-4.6-.6-6.8-1.5-.2-.1-.4-.4-.4-.7v-.3l.8-1.9c.1-.2.3-.3.5-.3.1 0 .2 0 .4.1 2 .7 4 1.1 6.1 1.2 1.4 0 6.1-.4 6.1-3.9 0-6-14.6-2.4-14.6-11.6 0-3.9 1.7-6.6 9.6-6.6 2 .1 4.1.4 6.1.8.3.1.5.4.5.7 0 0-.1 1.3-.2 1.9 0 .3-.3.5-.5.5h-.1c-2.7-.3-4.9-.5-5.5-.5zm12.4 21.8c-.4 0-.8-.3-.8-.8v-23.4c0-.4.3-.8.8-.8h14.4c.4 0 .8.3.8.8v1.7c0 .4-.3.8-.8.8H436v7.6h8.2c.4 0 .8.3.8.8v1.7c0 .4-.3.8-.8.8H436v7.6h11.3c.4 0 .8.3.8.8v1.7c0 .4-.3.8-.8.8h-.1l-14.2-.1zm21.9-.8c0 .4-.3.8-.8.8h-2.3c-.4 0-.8-.3-.9-.7v-23.4c0-.4.3-.8.8-.8h7.7c5.7 0 8.7 2.5 8.7 8.1s-3 8-8.7 8h-4.5v8zm9.4-16c0-3-1.9-4.8-4.6-4.8h-4.8v9.5h4.8c2.8-.1 4.6-1.7 4.6-4.7zm6.4-4.9c-.4 0-.8-.3-.8-.8v-1.7c0-.4.3-.8.8-.8h16.2c.4 0 .8.3.8.8v1.7c0 .4-.3.8-.8.8h-6.2V261c0 .4-.3.8-.8.8h-2.3c-.4 0-.8-.3-.8-.8v-21h-6.1v.1zm20.6 21.7c-.4 0-.8-.3-.8-.8v-23.4c0-.4.3-.8.8-.8h14.4c.4 0 .8.3.8.8v1.7c0 .4-.3.8-.8.8h-11.4v7.6h8.2c.4 0 .8.3.8.8v1.7c0 .4-.3.8-.8.8h-8.3v7.6h11.3c.4 0 .8.3.8.8v1.7c0 .4-.3.8-.8.8h-.1l-14.1-.1zm29.6-4.6c-.4-.1-.8-.3-1-.8l-5.7-13.9L513 261c-.1.5-.5.8-1 .8h-2c-.4 0-.8-.3-.8-.8v-.1l1.5-23.3c0-.4.3-.8.8-.8h4.1c.3 0 .5.3.7.7l5.6 13.3 5.6-13.3c.2-.4.4-.7.7-.7h4c.4 0 .8.3.8.8v.1l1.5 23.3c0 .4-.3.8-.8.8h-2.1c-.5 0-.9-.4-1-.8l-1.2-18.4-5.7 13.9c-.2.4-.6.7-1 .8l-1.8-.1zm25.1-20.4c5.1 0 8.7 1.5 8.7 7.1.2 2.1-.7 4.1-2.4 5.3 3.2.9 3.7 2.9 3.7 5.4 0 5.5-3.1 7.1-8.7 7.1h-8c-.4 0-.8-.3-.8-.8v-23.4c0-.4.3-.8.8-.8h.1l6.6.1zm-3.7 3.3v7.6h3.6c2.6 0 5-.6 5-3.8s-2.4-3.9-5-3.9l-3.6.1zm9.8 14.6c0-3.2-2.3-3.7-4.9-3.7h-4.9v7.6h4.9c2.6 0 5-.7 4.9-3.9zm8.2 7.1c-.4 0-.8-.3-.8-.8v-23.4c0-.4.3-.8.8-.8h14.4c.4 0 .8.3.8.8v1.7c0 .4-.3.8-.8.8h-11.3v7.6h8.2c.4 0 .8.3.8.8v1.7c0 .4-.3.8-.8.8h-8.3v7.6h11.2c.4 0 .8.3.8.8v1.7c0 .4-.3.8-.8.8h-.1l-14.1-.1zm35.6-1.8v1.4c0 .5-1 .6-1.9.6-1.2.1-2.4-.7-2.8-1.9l-2.7-7.3h-6.3v8.2c0 .4-.3.8-.8.8h-2.3c-.4 0-.8-.3-.8-.8v-23.4c0-.4.3-.8.8-.8h8.1c5.7 0 8.7 2.5 8.7 8.1 0 3.6-1.2 5.9-3.7 7l2 5.3c.5 1.3.7 1.7 1.2 2.1.3.2.5.4.5.7zm-8.4-10.4c2.8 0 4.6-1.7 4.6-4.7s-1.8-4.8-4.6-4.8h-5.2v9.5h5.2z"/><path d="M256 236.9h4.2c.6 0 1 .4 1 1v22.9c0 .6-.4 1-1 1H257c-.6 0-1-.4-1-1v-18.2l-6.5 4.2c-.6 0-1-.4-1-1v-3.4c0-.3.1-.6.4-.8l7.1-4.7zm9.1 9c0-5.8 3.6-9.2 9.5-9.2 2.2-.1 4.3.5 6.1 1.8.4.2.7.6.7 1.1-.2.8-.6 1.5-1 2.2-.2.4-.5.6-.9.6-.2 0-.4 0-.6-.1-1.2-.6-2.5-.9-3.9-.8-1.8 0-4.4.4-4.6 3.9v2c1.3-.8 2.7-1.2 4.2-1.1 4 0 7.6 1.7 7.6 7.5 0 5.4-2.6 8.4-8.5 8.4s-8.6-3-8.6-8.4v-7.9zm5.3 8.2c-.2 1.6 1 3.1 2.7 3.3h.6c2.9 0 3.2-2 3.2-3.3s0-3.2-3.2-3.2-3.3 2-3.3 3.2zm99.6-17.4c8 0 9.1 3.3 9.1 7.4 0 7.5-12 6.9-12 12.3v.7h10.5c.6 0 1 .4 1 1v2.7c0 .6-.4 1-1 1h-14.5c-.6 0-1-.4-1-1v-4.1c0-10.6 11.7-8.2 11.7-13.4 0-1.8-1-1.9-4.2-1.9-.7 0-3 .3-4.8.5-.7 0-1.2-.1-1.3-.9-.1-1.5-.2-2.1-.2-2.4 0-.5.6-.9 1.1-1 1.9-.5 3.8-.8 5.6-.9zm19.4 0c8 0 9.1 3.3 9.1 7.4 0 7.5-12 6.9-12 12.3v.7H397c.6 0 1 .4 1 1v2.7c0 .6-.4 1-1 1h-14.5c-.6 0-1-.4-1-1v-4.1c0-10.6 11.7-8.2 11.7-13.4 0-1.8-1-1.9-4.2-1.9-.7 0-3 .3-4.8.5-.7 0-1.2-.1-1.3-.9-.1-1.5-.2-2.1-.2-2.4 0-.5.6-.9 1.1-1 2-.5 3.8-.8 5.6-.9z" fill="#fbcc25" stroke="#825a60" stroke-width="1.72"/></g></g><g id="tram-2"><g id="tram-3" stroke="#825a60" stroke-width="4.79" stroke-linecap="round" stroke-linejoin="round"><path d="M839.3 312.4H456.5l-12.2 29.7c-5.1 9.1-7.7 21.3-7.7 31.2v33.2h402.7v-94.1z" fill="#fbcc25"/><path fill="#fff" d="M455.1 288h382.8v27.1H455.1z"/></g><g id="raam"><path class="st14" d="M502.4 308.7h87.8v63.8h-87.8z"/><path class="st15" d="M583.8 328.5c.7-4 1.1-8.3-1.7-11.6s-6.9-3.3-10.9-2.7c-1.9.3-3 2.7-2.5 4.4.6 2.1 2.5 2.8 4.4 2.5 1.2-.2 2.9-.5 3.7.6.9 1.3.3 3.5 0 4.9-.5 1.9.6 3.8 2.5 4.4 1.8.5 4.1-.6 4.5-2.5z"/></g><g id="deur"><path class="st14" d="M611.7 308h72.6v98.1h-72.6z"/><path fill="none" stroke="#825a60" stroke-width="4.79" stroke-linecap="round" stroke-linejoin="round" d="M648 307.9v97"/><path class="st15" d="M677.9 328.5c.7-4 1.1-8.3-1.6-11.6s-7-3.3-10.9-2.7c-1.9.3-3 2.7-2.5 4.4.6 2.1 2.5 2.8 4.4 2.5 1.2-.2 2.9-.5 3.7.6.9 1.3.3 3.5.1 4.9-.5 1.9.6 3.8 2.5 4.4 1.6.5 4-.6 4.3-2.5z"/></g><path class="st14" d="M705.8 308.7h87.8v63.8h-87.8z" id="raam-2"/><g id="voorruit"><path class="st14" d="M480.5 308.5h-25l-12 31c-4.5 10.9-6.8 22.5-6.9 34.3h44.3l-.4-65.3z"/><path class="st15" d="M474.5 328.5c.7-4 1.1-8.3-1.6-11.6s-6.9-3.3-10.9-2.7c-1.9.3-3 2.7-2.5 4.4.6 2.1 2.5 2.8 4.4 2.5 1.2-.2 2.9-.5 3.7.6.9 1.3.3 3.5 0 4.9-.5 1.9.6 3.8 2.5 4.4 1.7.5 4.1-.6 4.4-2.5z"/></g></g><g id="skateboard"><path id="bord" d="M109.7 448.9h127.8c4.7 0 8.5-3.8 8.5-8.5v-5.2c0-4.7-3.8-8.5-8.5-8.5H109.7v22.2z" fill="#2bcdc9" stroke="#825a60" stroke-width="4.51" stroke-linecap="round" stroke-linejoin="round"/><circle id="wiel" class="st18" cx="221.6" cy="451.2" r="8.1"/><circle id="wiel-2" class="st18" cx="131.7" cy="450.9" r="8.1"/><path class="st9" d="M222.7 436.1c3.5-.1 8.6-1.8 9.8 2.9.7 2.8 5.1 1.6 4.3-1.2-.7-3.2-3.2-5.6-6.3-6.3-2.6-.5-5.2 0-7.8.1-2.9.1-2.9 4.6 0 4.5z" id="schaduw"/></g></svg>